<svg width="285" height="446" viewBox="0 0 285 446" fill="none" xmlns="http://www.w3.org/2000/svg">
<path d="M222.441 0.177063C221.555 0.661619 220.434 2.18452 219.646 3.9566C219.064 5.28567 219.023 5.38258 218.787 6.24094C218.649 6.72549 218.483 7.01623 218.331 7.04391C218.012 7.09929 217.362 6.47631 216.573 5.34106C215.646 3.99815 215.051 3.59667 213.819 3.49976C212.573 3.41669 212.186 3.52744 211.923 4.01199C211.591 4.67653 211.964 5.96407 213.348 8.8714C214.802 11.931 214.926 12.291 215.175 14.2015C215.369 15.6136 215.521 19.7947 215.41 20.2515L215.314 20.5976L213.764 20.5422C211.355 20.4315 210.4 20.8468 207.536 23.2419C205.183 25.1801 204.352 25.5678 200.92 26.2462C198.886 26.6476 198.581 26.7307 197.681 27.1461C196.339 27.7829 194.872 29.5965 193.875 31.8531C193.626 32.4208 193.363 33.0161 193.308 33.1684C193.073 33.6945 192.754 35.1481 192.754 35.6881C192.754 35.9927 192.948 36.7818 193.17 37.4325C193.405 38.097 193.585 38.8584 193.585 39.1215C193.585 39.4122 193.308 40.1737 192.893 41.0459C192.519 41.8488 192.201 42.5272 192.201 42.5688C192.201 42.5964 191.647 43.7732 190.969 45.1715C188.27 50.7508 187.661 52.2045 186.859 55.0011C186 58.0192 185.599 59.7082 185.059 62.657C185.004 62.9616 184.935 63.3077 184.921 63.4185C184.783 64.0553 184.561 66.8242 184.492 68.7486C184.34 72.8742 185.004 77.526 186.333 81.6793C186.568 82.4408 186.582 82.8007 186.36 82.8145C184.312 82.9391 179.15 84.1713 178.292 84.7389C178.222 84.7943 177.752 84.9743 177.254 85.1543C174.638 86.068 170.223 88.6984 166.32 91.6473C162.611 94.4577 161.379 95.593 157.338 100.023C155.746 101.768 153.892 103.554 153.421 103.789C152.964 104.024 151.456 103.997 150.487 103.734C149.034 103.332 145.463 101.214 142.723 99.1233C140.162 97.1713 136.384 93.5025 135.36 91.9934C134.806 91.1766 133.768 89.1276 133.588 88.4769C133.533 88.2831 133.436 88.0616 133.381 87.9924C133.325 87.9093 133.229 87.6324 133.173 87.3694C133.118 87.1063 133.021 86.8156 132.952 86.7464C132.896 86.6633 132.786 86.2065 132.703 85.7357C132.633 85.265 132.537 84.822 132.495 84.7528C132.454 84.6836 132.315 83.8252 132.204 82.8561C131.969 80.8348 131.941 77.6229 132.135 75.4632C132.357 73.1511 132.592 70.1746 132.606 69.7177C132.62 69.3439 132.578 69.3024 132.218 69.3439C131.512 69.427 130.364 69.9254 129.686 70.4792C128.786 71.1852 128.039 72.2789 127.014 74.3694C126.558 75.3109 126.018 76.3907 125.824 76.7784C125.34 77.7336 124.385 79.2012 124.233 79.215C123.748 79.2981 123.817 79.5196 122.586 74.494C121.312 69.3439 120.925 67.7933 120.731 67.0873C119.652 63.2247 118.918 61.3834 118.115 60.5388C117.271 59.6528 116.565 60.1373 115.846 62.0894C115.416 63.2662 114.738 66.4366 114.351 68.9839C114.06 71.0191 113.936 74.4525 114.116 75.7401C114.24 76.5846 114.24 76.8199 114.074 76.9722C113.922 77.1245 113.756 77.0829 113.022 76.6399C111.098 75.4631 108.856 73.2203 105.216 68.8178C104.76 68.264 104.331 67.7518 104.248 67.6549C104.178 67.5718 103.611 66.8796 103.002 66.1182C100.635 63.1555 98.7808 60.968 98.1165 60.3312C97.5213 59.7912 97.3276 59.6805 96.8709 59.6805C95.736 59.6805 95.3761 60.5665 95.8052 62.3386C95.9436 62.8924 96.0958 63.4046 96.1512 63.4877C96.1927 63.5569 96.3865 64.0277 96.5664 64.5261C96.9262 65.5644 99.1821 70.1192 99.7773 71.0052C99.9849 71.3375 100.262 71.7944 100.386 72.0436C100.705 72.6666 105.327 79.6027 106.102 80.641C106.448 81.0979 107.237 82.2054 107.832 83.0776C108.441 83.9498 109.202 85.0297 109.534 85.4727C109.867 85.9157 110.13 86.3864 110.102 86.511C109.977 87.1617 105.715 87.0925 98.9884 86.3311C95.1824 85.9019 89.3419 85.7634 88.3731 86.068C87.8333 86.2341 87.9717 87.1063 88.6499 87.8401C89.3834 88.6292 91.5425 89.8891 93.66 90.7613C94.1582 90.9551 94.7533 91.2043 94.9748 91.315C95.5145 91.5504 98.5732 92.6164 100.511 93.2394C103.542 94.2085 107.057 95.053 109.548 95.413C110.171 95.4961 110.725 95.6345 110.766 95.7037C110.822 95.8006 109.022 97.9327 108.275 98.6526C107.445 99.4417 105.839 101.823 105.839 102.252C105.839 103.221 106.531 103.207 110.752 102.183C114.572 101.269 115.762 101.075 117.659 101.075C120.039 101.075 121.949 101.518 124.108 102.557C127.471 104.19 130.101 106.558 134.17 111.611C139.124 117.772 140.342 119.129 142.695 121.136C144.259 122.465 145.283 123.157 146.792 123.919C149.228 125.137 151.068 125.58 153.767 125.58C155.954 125.58 157.587 125.275 160.092 124.403C161.905 123.766 162.126 123.67 165.683 121.897C167.275 121.108 168.659 120.458 168.77 120.458C169.13 120.458 169.088 120.555 167.164 124.126C165.434 127.311 162.514 132.018 158.32 138.386C157.213 140.061 155.622 142.526 154.791 143.855C153.421 146.028 152.868 146.97 151.262 149.739C150.473 151.123 147.359 157.395 147.359 157.63C147.359 157.685 147.207 158.045 147.027 158.433C146.114 160.413 145.062 162.877 144.66 163.998C144.522 164.372 144.37 164.746 144.314 164.829C144.259 164.898 144.107 165.272 143.968 165.66C143.83 166.033 143.609 166.601 143.484 166.906C143.346 167.21 142.169 170.325 140.854 173.828C138.598 179.85 137.187 183.561 136.785 184.488C136.675 184.71 136.481 185.208 136.356 185.596C136.218 185.97 136.052 186.343 136.01 186.426C135.955 186.496 135.858 186.717 135.803 186.911C135.747 187.105 135.554 187.562 135.388 187.949C134.737 189.361 134.336 190.261 133.99 191.106C133.201 192.989 130.71 198.125 130.391 198.513L130.115 198.845L129.644 198.54C125.741 196.131 123.624 194.276 120.773 190.857C118.766 188.42 117.672 186.925 113.174 180.404C112.524 179.449 111.749 178.355 111.472 177.981C111.181 177.594 110.711 176.984 110.434 176.611C108.026 173.426 105.216 170.588 102.379 168.484C98.0057 165.217 94.8917 163.901 91.584 163.888C90.1031 163.874 88.207 164.178 87.778 164.483C87.7088 164.538 87.4597 164.621 87.2244 164.677C86.4078 164.884 83.9166 166.2 81.3424 167.819C78.6989 169.467 75.6541 171.267 74.1456 172.07C70.9624 173.759 60.9007 178.743 60.6793 178.743C60.6377 178.743 60.1533 178.95 59.5859 179.213C57.6483 180.099 55.4754 180.958 53.5932 181.595C52.0154 182.121 51.5033 182.232 50.5622 182.245L49.4412 182.273L49.4689 181.858C49.4827 181.622 49.5934 180.999 49.7041 180.473C49.8287 179.933 49.9671 178.632 50.0225 177.566C50.1609 174.354 49.7041 172.111 48.6938 170.962C48.1956 170.408 48.1264 170.381 47.4205 170.381C46.4656 170.381 45.4414 170.893 44.7356 171.71C44.4588 172.042 43.7945 173.177 43.2685 174.243C42.3828 176.043 41.6216 177.22 41.3448 177.22C41.2894 177.22 40.9157 176.569 40.5282 175.766C38.8536 172.333 35.2967 168.83 32.1827 167.556C31.2969 167.183 30.9371 167.113 30.0375 167.113C29.0272 167.113 28.9165 167.141 28.5843 167.487C28.3767 167.709 28.1414 168.055 28.0722 168.262C27.5601 169.592 28.2521 172.236 30.0098 175.738C30.8125 177.331 30.7987 177.344 29.1241 177.026C28.0861 176.832 25.3319 176.5 21.5536 176.112C18.661 175.822 12.9451 175.669 10.3709 175.822C7.87966 175.974 6.6479 176.181 5.77598 176.611C5.29158 176.846 4.66878 177.441 4.66878 177.663C4.66878 177.926 6.84166 179.158 10.5369 180.986C18.9378 185.139 20.2665 185.886 22.8684 187.894C24.4877 189.154 25.9132 190.552 25.7886 190.774C25.7194 190.884 23.851 190.926 19.5053 190.926C13.388 190.926 13.3049 190.94 11.9348 191.272C10.2325 191.701 7.15998 192.573 6.88318 192.726C6.75862 192.781 6.45414 192.878 6.19118 192.933C5.92822 192.989 5.62374 193.086 5.49918 193.141C5.38846 193.21 4.73798 193.459 4.04598 193.709C2.1499 194.387 1.6655 194.802 0.862782 196.394C0.295342 197.543 -0.147538 199.177 0.0462217 199.454C0.156942 199.634 2.19142 199.662 13.8032 199.648H27.4356L28.612 200.132C30.2313 200.811 30.2036 200.769 29.996 202.168C29.5116 205.559 29.041 207.235 28.0307 209.297C27.4633 210.446 27.1311 210.917 26.1485 211.942C22.8269 215.403 21.7473 216.746 21.4152 217.881C21.0277 219.155 21.6089 219.625 23.505 219.625C25.1381 219.612 25.9409 219.348 27.574 218.282C28.7781 217.479 30.5496 216.109 32.2104 214.669C33.0131 213.977 33.8435 213.257 34.0649 213.077C34.2864 212.883 34.5355 212.662 34.6185 212.592C35.0476 212.177 36.57 210.82 37.5388 209.962C38.1339 209.422 39.0335 208.619 39.5317 208.176C40.6528 207.179 41.9122 206.141 43.7114 204.77C45.2338 203.593 47.7389 202.264 50.2162 201.309C50.6314 201.157 51.1573 200.935 51.3788 200.838C51.6141 200.742 52.3614 200.451 53.0396 200.202C53.7316 199.952 54.4789 199.662 54.7281 199.565C54.9633 199.454 55.1986 199.371 55.2401 199.371C55.3509 199.371 58.7278 198.166 59.1292 197.986C59.2814 197.917 60.0011 197.64 60.7208 197.35C63.4334 196.284 65.3849 195.245 71.5852 191.549C73.6473 190.317 75.5988 189.154 75.9448 188.96C76.2908 188.766 76.8167 188.462 77.1212 188.282C79.7231 186.8 82.0482 185.79 83.4322 185.526C84.2211 185.388 84.4425 185.402 85.0238 185.596C85.3975 185.72 85.8819 185.983 86.0895 186.191C86.4493 186.537 87.7088 188.42 87.7088 188.614C87.7088 188.655 88.3593 189.804 89.162 191.161C90.9058 194.082 90.7536 193.833 91.7224 195.564C92.1514 196.325 92.6773 197.253 92.8988 197.64C93.1064 198.014 93.5077 198.734 93.7707 199.232C94.0337 199.731 94.4904 200.534 94.7672 201.032C95.044 201.531 95.3761 202.112 95.4869 202.347C95.5976 202.569 95.8329 203.012 96.0128 203.317C96.4695 204.106 100.94 212.994 101.784 214.807C102.172 215.638 102.808 217.106 103.21 218.061C103.597 219.016 103.971 219.916 104.04 220.068C104.953 222.048 105.881 225.938 106.587 230.729C106.697 231.49 106.877 232.639 106.974 233.29C107.085 233.996 107.154 235.782 107.154 237.789C107.154 241.915 106.877 243.798 105.798 246.927C105.355 248.186 104.248 250.678 103.846 251.288C103.68 251.551 103.5 251.883 103.445 252.008C103.237 252.575 101.175 255.746 99.8603 257.49C96.9539 261.394 94.6703 263.983 90.546 268.109C87.5427 271.113 85.4252 273.065 82.588 275.46C81.7853 276.138 81.1071 276.72 81.0656 276.761C81.0102 276.831 79.9584 277.675 76.789 280.222C76.1109 280.762 70.6994 284.985 68.8449 286.425C68.4712 286.702 67.9037 287.145 67.5993 287.38C67.2809 287.629 65.7032 288.848 64.1116 290.08C55.0741 297.085 49.4273 302.014 44.3619 307.358C41.843 310.016 42.0229 309.808 39.5733 312.66C35.7534 317.132 31.8644 322.157 29.1517 326.186C28.0445 327.82 26.8543 329.564 26.5083 330.062C26.1623 330.561 25.5257 331.572 25.1105 332.305C24.6814 333.039 24.1832 333.884 24.0033 334.174C23.5327 334.908 22.2733 337.082 21.4013 338.646C20.4187 340.418 17.3739 346.524 16.9172 347.645C16.7234 348.143 16.4051 348.877 16.2113 349.279C16.0314 349.68 15.8792 350.04 15.8792 350.082C15.8792 350.137 15.6162 350.774 15.1872 351.729C14.7443 352.726 13.9554 354.761 13.4433 356.298C13.0973 357.281 12.7652 358.194 12.7098 358.305C12.6406 358.43 12.5437 358.734 12.4884 358.997C12.433 359.26 12.3361 359.565 12.2669 359.69C12.2116 359.8 11.9348 360.548 11.6718 361.351C11.2289 362.694 10.9383 363.704 10.2048 366.473C10.0525 367.041 9.67886 368.425 9.37438 369.547C9.0699 370.682 8.82078 371.693 8.82078 371.817C8.82078 371.942 8.7239 372.454 8.61318 372.966C7.9627 375.957 7.28454 379.598 7.07694 381.328C6.96622 382.256 6.7863 383.737 6.67558 384.61C5.80366 391.504 5.49918 402.247 5.98358 409.114C6.3711 414.541 6.46798 415.677 6.67558 417.282C6.7863 418.155 6.96622 419.622 7.07694 420.536C7.4783 423.692 7.57518 424.412 7.76894 425.52C7.99038 426.711 7.99038 426.683 8.41942 428.981C8.57166 429.812 8.75158 430.808 8.82078 431.196C8.98686 432.221 9.3467 433.979 9.58198 435.003C9.6927 435.502 9.88646 436.305 9.98334 436.803C10.2325 437.952 10.9521 440.998 11.2981 442.313C11.4504 442.867 11.6026 443.642 11.658 444.044C11.7133 444.445 11.8379 444.902 11.9486 445.068C12.3915 445.774 13.5541 445.234 14.0108 444.113C14.2599 443.476 14.2737 443.933 13.8585 433.896C13.5817 426.974 13.6509 411.606 13.9831 406.968C14.4121 401.084 15.118 395.159 15.81 391.532C15.9207 390.964 16.1421 389.774 16.2944 388.901C16.4605 388.029 16.7373 386.659 16.931 385.856C17.1109 385.053 17.4016 383.834 17.5538 383.156C17.9413 381.536 18.9932 377.618 19.4084 376.303C19.5745 375.735 19.8651 374.794 20.0312 374.226C20.2111 373.659 20.391 373.063 20.4602 372.911C20.5156 372.759 20.7232 372.163 20.9169 371.596C21.692 369.284 23.422 364.535 23.768 363.774C23.8372 363.621 24.3077 362.5 24.806 361.282C26.5221 357.156 28.5705 353.03 31.034 348.697C31.8921 347.188 35.3105 342.01 36.4316 340.515C38.3969 337.885 40.5559 335.31 42.4658 333.316C43.0471 332.707 43.6699 332.042 43.8498 331.848C44.2373 331.419 46.4656 329.329 48.0572 327.903C52.3476 324.054 58.8662 319.444 65.5648 315.526C66.1322 315.194 66.8934 314.751 67.2671 314.529C67.6269 314.321 67.9591 314.141 68.0006 314.141C68.0421 314.141 68.2497 314.031 68.4435 313.878C68.6511 313.74 69.3569 313.338 70.0213 312.992C70.6717 312.632 71.4468 312.217 71.7513 312.051C72.9138 311.386 74.1733 310.708 76.5676 309.434C77.1073 309.144 77.8824 308.728 78.2976 308.507C78.7128 308.271 79.8061 307.69 80.7196 307.219C82.3804 306.347 83.2108 305.904 84.3872 305.253C84.7332 305.059 85.5497 304.616 86.2141 304.27C86.8645 303.91 87.6396 303.495 87.9441 303.329C88.5392 302.983 89.2173 302.609 90.4076 301.958C90.8643 301.709 91.6947 301.225 92.2483 300.892C92.8157 300.56 93.2863 300.297 93.314 300.297C93.3832 300.297 97.812 297.611 99.8188 296.351C101.729 295.161 106.088 292.239 107.431 291.257C107.818 290.98 108.746 290.301 109.507 289.747C110.268 289.194 111.14 288.543 111.431 288.321C112.662 287.366 117.036 283.864 117.742 283.282C118.157 282.936 118.614 282.548 118.78 282.41C120.482 281.039 124.246 277.717 125.506 276.484C125.949 276.069 126.724 275.308 127.25 274.809C129.741 272.414 133.201 268.399 134.585 266.309C134.889 265.852 135.415 265.077 135.761 264.578C136.107 264.08 136.744 263.028 137.187 262.225C138.46 259.913 138.183 260.12 139.277 260.646C141.076 261.519 142.861 262.003 145.283 262.28C146.64 262.446 148.591 262.502 152.342 262.515C157.227 262.515 158.805 262.599 160.659 262.903C161.407 263.028 162.805 263.388 163.344 263.623C163.497 263.678 163.967 263.872 164.382 264.052C165.213 264.398 166.694 265.229 166.818 265.437C166.943 265.644 166.874 269.216 166.721 270.67C166.306 274.602 164.756 280.167 163.081 283.85C162.888 284.279 162.722 284.68 162.722 284.722C162.722 284.902 161.255 287.948 159.552 291.298C157.864 294.648 157.601 295.161 156.009 298.151C154.75 300.546 153.809 302.429 152.895 304.45C151.746 306.984 151.76 306.942 151.027 308.714C150.445 310.085 150.266 310.39 149.518 311.123C148.107 312.522 145.685 314.155 143.885 314.903C143.401 315.11 142.75 315.401 142.446 315.54C141.796 315.844 139.636 316.606 136.426 317.686C135.166 318.101 133.962 318.53 133.727 318.627C133.505 318.724 133.09 318.89 132.827 318.987C132.564 319.084 131.9 319.375 131.36 319.61C130.502 319.998 130.364 320.122 130.294 320.496C130.018 321.839 130.917 322.78 133.45 323.846C133.713 323.957 134.377 324.123 136.287 324.58C138.432 325.092 142.958 325.383 148.411 325.355C148.882 325.355 148.702 326.311 147.65 329.439C147.262 330.575 146.889 331.641 146.819 331.793C146.432 332.651 144.937 337.026 144.37 338.992C143.346 342.509 143.055 345.153 143.567 346.219C144.093 347.285 144.923 346.897 147.332 344.475C150.473 341.318 150.999 340.695 152.618 338.189C153.49 336.832 155.054 334.423 156.106 332.845C157.144 331.253 158.154 329.661 158.362 329.315C158.666 328.789 158.777 328.706 158.971 328.816C159.22 328.941 160.369 331.502 160.369 331.904C160.369 332.001 160.41 332.139 160.466 332.195C160.521 332.25 160.646 332.554 160.729 332.873C160.812 333.191 161.185 334.451 161.531 335.669C161.891 336.888 162.403 338.729 162.68 339.754C164.673 347.313 165.407 349.68 165.96 350.248C166.348 350.649 167.939 350.94 168.396 350.691C168.908 350.414 169.545 348.517 169.697 346.745C169.738 346.288 169.849 345.194 169.946 344.322C170.043 343.409 170.112 340.917 170.098 338.508C170.098 332.748 169.669 327.875 168.936 325.037C168.784 324.428 168.687 323.916 168.728 323.874C168.811 323.791 169.226 323.902 173.171 325.009C178.956 326.629 180.838 326.934 185.004 326.934C188.602 326.934 190.125 326.726 191.287 326.075C192.104 325.605 192.381 325.189 192.173 324.732C192.021 324.4 189.53 322.697 187.288 321.396C185.336 320.261 179.039 316.772 178.956 316.772C178.928 316.772 178.472 316.536 177.973 316.232C177.461 315.941 176.423 315.374 175.662 314.972C173.932 314.058 173.932 314.058 173.932 313.574C173.932 312.812 174.735 312.189 178.361 310.154C180.105 309.171 181.198 308.271 183.758 305.71C186.471 302.983 187.495 301.709 188.339 300.006C188.699 299.3 188.755 299.023 188.713 298.483C188.63 297.625 188.339 297.362 187.426 297.279C186.582 297.21 185.613 297.417 182.028 298.428C176.603 299.965 174.804 300.255 173.42 299.84C172.382 299.535 172.396 299.48 173.6 297.985C174.666 296.642 177.088 293.79 177.267 293.652C177.309 293.61 177.613 293.264 177.946 292.89C178.416 292.336 180.035 290.55 180.921 289.581C182.084 288.335 184.035 286.134 185.35 284.583C187.689 281.87 188.132 281.302 189.322 279.738C193.1 274.712 194.996 270.988 196.021 266.586C196.339 265.215 196.38 261.892 196.09 260.633C195.495 258.002 194.249 255.344 192.768 253.503C192.491 253.17 192.145 252.727 191.993 252.547C191.44 251.855 189.267 249.751 188.16 248.837C187.094 247.951 185.502 246.76 183.274 245.196C182.748 244.822 181.406 243.867 180.298 243.05C179.191 242.247 177.71 241.167 176.991 240.655C172.451 237.374 171.164 236.419 171.164 236.266C171.164 236.183 171.51 236.003 171.939 235.879C173.005 235.546 175.496 234.384 177.184 233.428C178.07 232.93 181.323 230.729 182.347 229.939C185.987 227.115 191.177 222.353 193.862 219.362C194.138 219.072 194.941 218.172 195.675 217.369C197.142 215.735 199.965 212.288 200.948 210.89C201.308 210.377 202.11 209.27 202.705 208.439C203.314 207.595 204.712 205.518 205.806 203.801C207.563 201.06 208.2 199.994 210.096 196.602C210.982 195.01 215.037 186.786 215.037 186.579C215.037 186.523 215.521 185.43 216.282 183.796C216.518 183.284 217.791 180.058 218.801 177.427C219.037 176.818 219.272 176.195 219.341 176.043C219.756 174.991 221.652 169.301 222.58 166.352C223.452 163.542 223.521 163.306 224.102 161.16C224.379 160.136 224.752 158.793 224.919 158.184C225.098 157.575 225.334 156.675 225.458 156.176C225.583 155.678 225.929 154.252 226.233 152.992C226.953 150.057 227.963 145.502 228.392 143.301C228.572 142.346 228.794 141.252 228.863 140.878C229.444 137.957 229.638 136.919 229.846 135.686C229.929 135.188 230.053 134.537 230.122 134.233C230.192 133.928 230.288 133.388 230.33 133.014C230.385 132.627 230.482 132.364 230.593 132.364C230.842 132.364 232.088 133.721 233.306 135.327C236.309 139.286 237.181 140.2 239.824 142.166C241.651 143.522 243.063 144.298 244.737 144.893C247.879 146.001 250.689 146.028 253.733 144.948C257.775 143.522 261.636 139.563 264.57 133.817C265.871 131.298 266.189 130.495 266.646 128.667C266.923 127.587 267.158 126.964 267.38 126.729C267.684 126.397 267.753 126.383 268.736 126.452C270.563 126.591 270.521 126.563 274.23 130.204C276.099 132.045 277.704 133.554 277.787 133.582C278.023 133.638 278.355 133.222 278.549 132.655C279.351 130.232 276.971 123.822 274.286 121.219C273.898 120.845 273.58 120.471 273.58 120.388C273.594 120.153 275.116 119.253 276.071 118.907C276.902 118.616 277.22 118.589 280.542 118.547L284.112 118.506L284.237 118.159C284.417 117.703 284.417 116.553 284.237 116.11C284.043 115.584 283.157 114.671 282.299 114.103C280.832 113.12 277.69 112.04 274.756 111.514C273.857 111.362 273.76 110.739 274.355 109.091C274.839 107.735 275.531 106.433 277.829 102.488C279.559 99.5387 280.915 96.5898 280.915 95.8283C280.915 95.6899 280.763 95.4407 280.569 95.2607C280.237 94.9423 280.182 94.9423 279.559 95.0946C278.576 95.3438 276.196 96.5759 274.41 97.7666C273.151 98.5972 272.487 99.1649 271.227 100.522C267.85 104.121 266.48 105.506 266.314 105.506C266.217 105.506 266.106 105.215 266.051 104.813C265.788 102.82 264.086 97.5035 262.951 95.1223C262.051 93.2256 260.833 91.938 259.961 91.938C259.256 91.938 259.2 92.8795 259.698 95.9252C260.017 97.9188 259.892 104.73 259.477 107.513C259.297 108.648 259.103 109.645 259.048 109.714C258.771 110.005 258.301 109.728 254.439 107.042C252.391 105.603 251.104 104.952 250.121 104.855C249.263 104.772 248.668 104.98 248.668 105.367C248.668 105.769 249.222 106.724 250.26 108.136C252.917 111.777 254.619 114.712 255.187 116.692C255.976 119.392 255.104 121.856 253.014 122.811C252.183 123.199 250.481 123.24 249.429 122.922C246.813 122.119 243.699 120.084 240.239 116.927C237.084 114.048 235.312 111.833 233.167 108.067C229.887 102.321 227.341 97.0328 226.247 93.7378C226.095 93.2394 225.929 92.4641 225.874 92.0073C225.804 91.232 225.846 91.0797 226.413 89.8614C226.953 88.7123 229.001 84.9189 229.292 84.5313C229.347 84.4482 229.818 83.6452 230.33 82.7315C230.842 81.8177 231.465 80.6964 231.728 80.2395C233.181 77.6506 234.703 74.1064 235.575 71.2406C235.728 70.7837 235.88 70.2853 235.949 70.1331C236.295 69.247 237.499 64.6368 237.817 63.0032C238.413 59.8882 238.454 59.3067 238.343 53.1598C238.233 46.1545 238.219 46.2791 239.547 44.7839C240.627 43.5656 240.793 43.1641 240.876 41.5443C241.028 38.6369 239.88 36.2557 236.738 33.0299C235.271 31.507 234.8 31.1886 233.264 30.5933C232.821 30.4272 232.351 30.1503 232.212 29.9703C232.074 29.7903 231.7 28.8628 231.382 27.8936C230.676 25.7478 230.275 24.9586 229.527 24.1418C228.6 23.1312 227.77 22.7297 225.14 22.0236C224.213 21.7744 223.618 21.5252 223.465 21.3591C223.23 21.0545 223.189 20.8191 222.787 16.4166C222.344 11.6541 222.386 11.1557 223.673 7.05777C224.476 4.4827 224.614 3.88738 224.683 2.47525L224.766 1.1185L224.213 0.564728C223.618 -0.0167388 223.036 -0.155204 222.441 0.177063ZM213.556 24.4464C214.276 24.7371 214.995 25.5263 215.175 26.1908C215.507 27.3953 214.663 28.4751 212.892 29.0843C211.521 29.555 211.535 29.5688 211.12 27.866C210.677 26.1077 210.663 26.0385 211.023 25.3601C211.549 24.3218 212.463 23.9895 213.556 24.4464ZM223.687 25.817C223.95 25.9277 224.476 26.3154 224.863 26.6754C225.431 27.2014 225.527 27.3537 225.389 27.5198C225.292 27.6306 224.476 28.1013 223.562 28.5582C222.04 29.3196 221.888 29.375 221.735 29.1535C221.625 29.0151 221.583 28.7243 221.625 28.4751C221.915 26.7584 221.998 26.523 222.441 26.08C222.953 25.5678 223.036 25.5539 223.687 25.817ZM201.709 29.5827C202.276 29.9426 202.262 30.5933 201.626 31.8947C200.962 33.2653 199.647 34.6359 198.719 34.9128C198.014 35.1204 197.806 35.0374 197.46 34.359C196.962 33.3761 197.197 31.9224 198.055 30.6625C198.539 29.9565 199.148 29.5688 200.007 29.4304C200.311 29.3889 200.588 29.3196 200.629 29.2781C200.74 29.1812 201.349 29.3473 201.709 29.5827ZM236.24 36.4495C236.862 36.9756 237.596 38.2354 237.596 38.7477C237.596 39.3707 237.236 39.9383 236.641 40.2706C236.101 40.5613 234.856 40.769 234.607 40.6028C234.316 40.409 233.818 38.72 233.804 37.8617C233.79 36.8787 233.998 36.5326 234.883 36.1311C235.478 35.8681 235.589 35.8957 236.24 36.4495Z" fill="#E5DFDA"/>
</svg>
