<svg width="455" height="482" viewBox="0 0 455 482" fill="none" xmlns="http://www.w3.org/2000/svg">
<path d="M141.393 5.06667C141.393 7.86667 142.859 13.0667 144.726 16.6667L148.059 23.2L139.393 23.6C134.593 23.8667 130.593 24.5333 130.326 25.0667C130.193 25.6 134.193 27.6 139.259 29.3333C144.193 31.0667 148.726 32.9333 149.259 33.3333C149.659 33.8667 147.659 36.2667 144.726 38.6667C141.793 41.2 139.793 43.4667 140.193 43.8667C140.593 44.2667 144.193 44 148.193 43.0667C160.326 40.5333 166.593 44 162.059 50.8C160.993 52.5333 160.059 54.1333 160.059 54.5333C160.059 54.8 162.726 56.8 166.059 58.9333C169.393 60.9333 172.059 63.0667 172.059 63.6C172.059 64 170.459 66.4 168.459 68.6667C164.593 73.3333 163.926 78.6667 166.459 85.3333C167.259 87.4667 168.326 91.0667 168.993 93.2C170.326 98.1333 174.326 100.8 176.059 98C176.726 96.9333 177.393 93.7333 177.393 90.9333C177.393 86.4 176.993 85.7333 171.393 83.0667C168.059 81.4667 165.393 79.7333 165.393 79.3333C165.393 78.8 169.659 76.4 174.993 73.8667C186.326 68.5333 190.059 64.1333 189.926 56.2667C189.793 49.0667 186.726 43.2 179.259 36.1333C172.593 29.6 172.993 27.6 181.793 24C189.393 20.8 186.726 18.8 176.326 19.8667L167.659 20.8L168.459 16.4C168.993 14 169.659 10.6667 170.193 8.93334C171.659 4 167.526 5.33334 162.193 11.6L157.259 17.3333L149.393 8.66667L141.393 3.87449e-06V5.06667ZM158.326 19.3333C158.859 19.3333 160.993 17.4667 162.993 15.0667L166.726 10.6667L166.326 17.3333C166.059 23.2 166.326 24 168.726 23.8667C170.193 23.7333 172.593 23.2 174.059 22.5333C176.459 21.6 176.459 21.7333 173.659 25.2C172.059 27.3333 170.726 29.7333 170.726 30.4C170.726 31.2 173.126 34.4 176.059 37.3333C179.793 41.2 181.259 43.6 180.593 45.2C179.793 47.2 179.526 47.3333 176.459 45.3333C173.393 43.2 173.126 43.3333 172.459 45.8667C171.526 49.7333 169.793 49.3333 167.393 44.6667C165.659 41.2 164.459 40.6667 157.393 39.8667C150.459 39.0667 149.659 38.8 151.659 37.3333C154.859 34.9333 152.326 32.1333 143.926 29.2C136.326 26.4 136.993 23.7333 144.859 25.8667C153.393 28.2667 153.659 27.8667 148.726 18.9333C146.193 14.2667 144.059 9.6 144.059 8.66667C144.059 7.73334 146.993 9.73334 150.726 13.2C154.326 16.5333 157.793 19.3333 158.326 19.3333ZM175.793 54.9333C176.326 58.4 175.659 58.6667 171.926 56.6667C168.326 54.6667 168.593 51.0667 172.459 51.6C174.326 51.8667 175.526 53.0667 175.793 54.9333ZM186.059 54C186.993 55.6 185.659 60.6667 184.193 60.6667C181.659 60.6667 178.326 56.9333 179.126 54.8C180.059 52.4 184.726 51.8667 186.059 54ZM179.793 62.2667C182.593 65.0667 181.526 67.3333 177.393 67.3333C173.259 67.3333 172.726 66.5333 174.193 62.8C175.126 60.2667 177.526 60 179.793 62.2667Z" fill="#E5DFDA"/>
<path d="M46.0593 29.3334C42.4593 31.0667 38.0593 32.6667 36.4593 32.6667C34.8593 32.6667 31.7926 34.2667 29.526 36.1334C26.0593 39.0667 24.5926 39.4667 20.0593 38.6667C17.126 38.1334 12.1926 36 9.12597 33.8667C5.92597 31.7334 2.59263 30 1.79263 30C-1.00737 30 -0.207366 33.3334 3.39263 36.6667L6.8593 39.8667L3.39263 41.6C-1.80737 44.4 -0.874033 47.2 5.12597 46.4C7.79263 46.1334 12.4593 46.4 15.3926 46.9334C21.2593 48.2667 20.5926 46.2667 22.0593 67.0667C22.5926 77.0667 25.126 81.4667 30.8593 82.6667C33.3926 83.2 38.9926 87.2 44.8593 92.6667C56.726 103.6 66.8593 108.933 77.6593 109.733L85.3926 110.267L85.126 117.2L84.726 124H90.0593C95.126 124 95.3926 123.733 95.7926 119.733C96.0593 117.467 95.2593 113.6 94.0593 111.467C92.326 108.133 92.326 107.333 93.7926 107.333C94.8593 107.333 96.326 109.733 97.2593 112.667L98.8593 118L104.059 113.867C111.393 108 111.926 105.333 106.859 100.133C104.593 97.7334 102.726 95.2 102.726 94.2667C102.726 91.0667 105.526 92.8 109.659 98.6667L113.926 104.8L116.193 100.4C120.593 91.6 120.593 90.8 114.726 87.4667C111.793 85.8667 109.393 84 109.393 83.2C109.393 81.2 111.126 81.7334 116.193 85.2L120.993 88.5334L122.459 83.8667C123.793 79.3334 123.659 79.0667 118.726 76C113.393 72.5334 111.259 70.2667 112.593 69.0667C112.993 68.6667 115.393 70.1334 118.059 72.5334C123.659 77.4667 126.059 77.7334 127.259 73.6C128.859 67.7334 128.326 67.3334 120.459 67.3334H112.993L102.193 56.2667C90.4593 44.2667 83.526 39.4667 71.2593 35.3334C66.9926 33.8667 62.4593 31.4667 61.3926 30C58.0593 25.7334 53.3926 25.6 46.0593 29.3334ZM43.3926 39.8667C48.9926 42.2667 49.2593 44.6667 44.4593 50L40.726 54L35.126 50.2667C29.3926 46.5334 28.0593 44.6667 31.126 44.6667C32.1926 44.6667 33.6593 43.2 34.4593 41.3334C36.1926 37.4667 37.126 37.3334 43.3926 39.8667ZM65.926 40.9334C64.0593 46.8 58.726 54 56.1926 54C53.3926 54 49.926 47.2 51.2593 44C51.6593 42.9334 53.126 42 54.4593 42C55.7926 42 58.0593 41.0667 59.526 40C60.8593 38.9334 63.126 38 64.4593 38C66.4593 38 66.726 38.6667 65.926 40.9334ZM86.0593 48C88.8593 50.8 89.526 52.2667 88.8593 55.0667C88.0593 58.2667 79.526 67.2 77.126 67.3334C74.9926 67.3334 73.7926 58.6667 75.526 56C76.326 54.5334 77.526 51.3334 78.0593 48.9334C79.126 43.7334 81.126 43.6 86.0593 48ZM35.3926 52.8C40.1926 57.0667 41.3926 61.8667 38.8593 65.8667C37.7926 67.6 37.2593 67.6 35.3926 66C34.0593 64.9334 31.7926 63.4667 30.1926 62.6667C28.726 61.7334 27.6593 60.2667 27.926 59.2C28.326 58.1334 28.4593 55.3334 28.4593 52.9334C28.1926 47.6 29.3926 47.6 35.3926 52.8ZM62.5926 59.4667C63.3926 61.8667 64.0593 65.4667 64.0593 67.6C64.0593 70.8 63.2593 71.8667 59.3926 73.4667C56.8593 74.4 54.5926 75.3334 54.1926 75.3334C53.926 75.3334 53.2593 72.6667 52.8593 69.4667C51.126 58.1334 59.2593 50 62.5926 59.4667ZM73.126 70.4C72.726 77.6 72.0593 80 70.0593 81.4667C66.726 84 64.9926 83.2 63.526 78.9334C62.4593 76 62.726 74.9334 64.726 73.6C66.726 72 66.9926 70.6667 66.326 65.6C65.6593 60.5334 65.7926 59.4667 67.7926 58.9334C72.326 58 73.6593 60.6667 73.126 70.4ZM97.6593 65.0667L100.459 67.4667L97.6593 68.2667C96.0593 68.6667 94.4593 70.1334 93.926 71.6C92.726 75.6 94.326 76.1334 97.126 72.6667C99.7926 69.3334 103.793 69.4667 108.726 73.2C111.393 75.2 111.393 75.3334 106.726 84C104.193 88.8 99.3926 95.8667 96.0593 99.6L90.0593 106.267L81.3926 104C76.5926 102.8 72.326 101.467 71.926 101.2C70.1926 100.133 74.4593 90.6667 76.9926 90.2667C78.326 90.1334 80.726 89.6 82.4593 89.2C88.1926 88 91.6593 73.7334 87.3926 68.1334C85.7926 66 85.926 65.2 88.4593 61.7334C91.126 58.1334 91.3926 58 92.9926 60.2667C93.926 61.6 96.0593 63.7334 97.6593 65.0667ZM50.726 71.2C50.726 76.2667 49.926 78.8 47.6593 81.4667C43.6593 86.1334 41.926 84.9334 40.1926 76.5334C38.326 67.7334 39.7926 64.6667 46.0593 64.6667H50.726V71.2ZM70.726 90.4C70.726 94.5334 69.926 96.9334 68.0593 98.6667C65.526 100.933 65.126 101.067 60.726 98.9334C55.3926 96.4 54.8593 94.5334 58.726 93.3334C60.1926 92.8 62.326 90.6667 63.3926 88.5334C64.5926 86.2667 66.5926 84.6667 68.0593 84.6667C70.326 84.6667 70.726 85.6 70.726 90.4Z" fill="#E5DFDA"/>
<path d="M99.9259 75.7334C98.7259 76.8 96.9926 79.6 96.0593 81.8667C95.1259 84.1334 93.9259 86 93.2593 86C91.7926 86 84.8593 97.8667 85.7926 98.9334C87.1259 100.267 99.9259 85.8667 101.393 81.2C103.393 75.3334 102.593 72.9334 99.9259 75.7334Z" fill="#E5DFDA"/>
<path d="M77.2594 95.4667C76.0594 97.7333 76.1927 98.8 77.926 100.4C79.926 102.4 80.0594 102.267 80.0594 99.7333C80.0594 98.1333 80.4594 96 80.8594 94.8C82.0594 91.6 78.9927 92.2667 77.2594 95.4667Z" fill="#E5DFDA"/>
<path d="M149.926 61.2001C148.459 62.2668 145.793 63.3334 144.059 63.6001C141.393 63.8668 140.593 64.9334 140.326 68.2668C139.926 71.6001 140.593 72.9334 143.393 74.8001C146.593 76.9334 146.859 76.9334 148.726 74.5334C149.793 73.2001 150.326 71.0668 149.926 70.0001C149.393 68.9334 148.859 66.8001 148.459 65.3334C147.926 62.9334 148.059 62.9334 150.593 65.8668C154.059 69.7334 154.193 73.7334 150.726 77.3334C148.459 79.8668 148.193 80.8001 149.393 84.0001C151.259 88.8001 150.326 91.0668 145.926 92.6668C142.993 93.8668 142.593 94.5334 143.393 97.8668C144.459 103.067 140.993 110 137.126 110C134.859 110 134.459 110.533 135.259 114C136.726 121.867 131.926 128.667 124.726 128.667C120.593 128.667 120.059 129.067 118.726 134C116.993 140.4 113.126 142.933 108.459 140.8C104.326 138.933 104.193 138.933 104.993 141.733C105.793 144.933 97.9261 151.733 94.4594 150.933C91.6594 150.133 91.5261 150.533 93.3927 154.133C95.2594 157.467 96.1927 157.333 102.193 152.533C105.126 150.267 110.459 147.067 114.059 145.333C122.059 141.733 133.659 130 140.193 118.667C153.393 96.1334 157.793 80.0001 155.259 64.2668C154.326 58.8001 153.793 58.5334 149.926 61.2001Z" fill="#E5DFDA"/>
<path d="M131.793 71.2C131.526 74.9334 131.793 76.1334 132.859 75.2C133.659 74.5334 134.593 74.4 135.126 74.8C136.059 75.7334 132.593 85.7334 130.593 88.2667C128.326 90.9334 126.326 90.4001 127.259 87.3334C127.659 85.8667 128.459 83.3334 128.859 81.6001C130.459 75.3334 126.726 82.6667 124.593 90.0001C123.393 94.0001 121.259 99.6001 119.793 102.533C117.793 106.4 117.526 108 118.726 108.667C119.793 109.333 119.926 110.4 119.259 111.467C118.459 113.067 118.593 113.067 120.326 111.6C121.526 110.667 124.593 105.333 127.393 99.7334C137.126 79.7334 140.193 66 134.859 66C132.859 66 132.193 67.2 131.793 71.2Z" fill="#E5DFDA"/>
<path d="M158.326 80.2667C157.926 80.9334 157.259 83.8667 156.726 86.8C155.926 92.2667 155.926 92.4 159.926 92.9334C163.659 93.4667 164.059 93.2 164.059 89.8667C164.059 82.9334 160.326 76.8 158.326 80.2667Z" fill="#E5DFDA"/>
<path d="M181.126 94.9334C180.859 98.6668 179.926 100.267 176.859 102C170.993 105.2 169.793 107.733 171.793 113.2C173.259 117.067 173.126 118.667 171.526 122.4C170.459 124.933 168.593 127.733 167.126 128.533C165.126 129.733 164.993 130.133 166.593 131.2C168.859 132.667 167.526 136.667 164.726 136.667C161.926 136.667 160.593 132.667 162.859 131.2C164.326 130.4 163.926 130 161.793 130C159.126 130 158.726 130.667 158.726 135.467C158.726 143.2 156.859 145.867 150.726 146.8C146.326 147.467 145.259 148.267 144.593 151.2C143.393 157.067 141.926 158.667 137.526 158.667C132.593 158.667 132.459 159.333 136.593 163.2L139.926 166.267L144.326 163.6C154.593 157.2 170.193 137.733 178.193 121.333C185.259 106.8 188.059 95.3334 185.526 92.1334C182.726 88.8001 181.526 89.6001 181.126 94.9334ZM180.993 106.8C181.526 108.4 177.926 112.667 176.059 112.667C174.193 112.667 173.259 108.4 174.859 106.4C176.726 104.267 180.193 104.533 180.993 106.8ZM153.126 151.6C153.526 153.333 152.726 154 150.193 154C146.593 154 144.726 152.133 146.059 149.867C147.393 147.733 152.593 149.067 153.126 151.6Z" fill="#E5DFDA"/>
<path d="M132.059 98C127.659 106.533 129.259 110.8 135.393 106.8C141.793 102.667 142.593 97.4667 137.393 94.2667C134.993 92.8 134.459 93.2 132.059 98Z" fill="#E5DFDA"/>
<path d="M152.593 99.4667C149.259 104.933 146.726 112.133 147.659 113.067C148.859 114.4 156.059 111.067 157.393 108.667C159.259 105.2 158.993 100.267 156.993 97.4667C155.259 95.2 154.993 95.3334 152.593 99.4667Z" fill="#E5DFDA"/>
<path d="M193.926 101.867C195.793 105.6 197.393 110.4 197.393 112.667C197.393 117.067 197.793 117.333 201.393 115.333C203.393 114.267 203.659 112.933 202.993 108.4C202.326 102.667 201.393 101.467 194.326 97.3334L190.593 95.0667L193.926 101.867Z" fill="#E5DFDA"/>
<path d="M160.726 98.9334C161.259 100.267 162.059 102.4 162.326 103.733C163.526 107.733 167.393 105.867 167.393 101.333C167.393 97.8667 166.859 97.3334 163.526 96.9334C160.326 96.5334 159.793 96.8 160.726 98.9334Z" fill="#E5DFDA"/>
<path d="M187.659 106.133C183.393 118.933 183.393 119.333 186.993 119.333C188.726 119.333 190.859 118.667 191.793 117.733C193.793 115.733 193.793 107.733 191.659 102.8L190.059 99.0667L187.659 106.133Z" fill="#E5DFDA"/>
<path d="M206.726 109.2C206.726 113.467 208.993 119.333 210.593 119.333C212.059 119.333 216.059 115.6 216.059 114.267C216.059 113.733 213.926 111.6 211.393 109.6L206.726 105.867V109.2Z" fill="#E5DFDA"/>
<path d="M160.726 110.133C159.526 112 161.259 126 162.726 126C167.259 126 170.193 111.067 165.926 109.467C162.993 108.267 161.659 108.533 160.726 110.133Z" fill="#E5DFDA"/>
<path d="M123.526 112.933C119.126 119.733 118.059 123.467 120.193 124.8C122.993 126.533 124.726 126.267 128.593 123.2C132.326 120.267 132.993 116.8 130.726 112.533C128.859 109.2 125.926 109.333 123.526 112.933Z" fill="#E5DFDA"/>
<path d="M106.993 116.8C101.526 122.267 100.059 126.133 105.393 121.333C109.526 117.6 108.593 121.067 104.326 125.067C100.593 128.533 97.7927 129.867 99.3927 127.333C99.7927 126.667 98.4593 126.667 96.0593 127.467C93.526 128.4 92.0593 129.867 92.0593 131.467C92.0593 134.933 93.2593 134.667 100.193 130C107.526 125.067 120.459 113.333 116.459 115.2C112.326 117.2 111.793 117.067 112.726 114C113.126 112.533 113.393 111.333 113.126 111.333C112.859 111.333 110.193 113.867 106.993 116.8Z" fill="#E5DFDA"/>
<path d="M140.859 122.533C138.993 126.8 137.393 130.533 137.393 130.8C137.393 132 143.659 131.2 145.126 129.733C146.993 127.867 147.259 119.467 145.526 116.8C144.593 115.333 143.393 116.8 140.859 122.533Z" fill="#E5DFDA"/>
<path d="M151.793 116.267C148.993 116.933 148.859 118.4 150.726 122.133C153.126 126.4 156.059 125.2 156.059 120C156.059 117.467 155.659 115.467 155.126 115.467C154.459 115.6 152.993 115.867 151.793 116.267Z" fill="#E5DFDA"/>
<path d="M216.993 119.333C215.793 120.8 213.793 122 212.593 122C210.859 122 210.593 122.933 211.259 126.533C211.926 130.133 211.659 131.467 209.793 132.4C207.926 133.467 207.793 134.133 209.126 135.733C210.726 137.6 210.059 142 208.059 142C206.059 142 203.793 138 204.593 136C204.993 134.8 204.593 134 203.393 134C201.793 134 201.526 135.067 202.193 139.333C202.726 142.133 202.593 145.6 202.059 146.933C201.526 148.267 201.126 151.067 201.259 153.067C201.526 156.133 201.126 156.8 199.126 156.4C197.526 156 196.859 154.933 196.993 152.933C197.259 151.333 196.726 150 196.059 150C195.259 150 194.726 152.267 194.726 155.2C194.726 161.733 192.193 163.867 185.526 162.933C180.726 162.4 180.326 162.533 179.659 165.867C177.926 174.667 174.326 182 171.926 182C168.459 182 166.993 178 169.793 176C172.326 174.133 171.393 172.667 167.793 172.667C166.193 172.667 165.393 173.6 165.393 175.467C165.393 180.8 162.859 183.733 158.726 182.8C156.193 182.4 154.726 182.667 154.326 183.867C153.393 186.133 160.726 193.467 161.926 191.6C162.326 190.8 166.859 188 171.793 185.2C183.793 178.533 199.526 162.667 206.059 150.667C208.859 145.467 213.793 136.667 217.126 130.933C222.326 121.867 222.859 120.267 221.259 118.533C219.526 116.933 218.993 117.067 216.993 119.333ZM187.259 165.467C189.926 166.533 190.059 169.2 187.526 171.2C184.859 173.467 180.593 169.2 182.859 166.533C184.593 164.4 184.459 164.4 187.259 165.467Z" fill="#E5DFDA"/>
<path d="M199.126 119.333C196.459 120.4 196.326 120.933 197.659 125.2C198.993 129.467 199.659 130 203.793 130C208.326 130 208.326 130 207.393 125.067C206.059 117.467 205.259 116.933 199.126 119.333Z" fill="#E5DFDA"/>
<path d="M109.659 126C106.459 128.267 103.659 130.933 103.126 132.133C102.059 135.067 105.259 138 109.659 138C112.859 138 113.926 137.2 115.526 133.2C116.859 130 117.126 127.333 116.459 125.067L115.393 121.867L109.659 126Z" fill="#E5DFDA"/>
<path d="M187.393 126.267C188.593 129.467 188.726 131.333 187.793 133.2C186.593 135.333 186.726 135.6 188.726 134.933C189.926 134.4 191.793 134 192.859 134C195.393 134 196.593 128.133 194.726 124.8C193.793 122.933 191.926 122 189.393 122C185.526 122 185.526 122 187.393 126.267Z" fill="#E5DFDA"/>
<path d="M176.993 130.8C174.326 135.067 172.859 138.933 173.526 139.067C176.193 140.133 180.859 137.867 183.259 134.533C185.526 131.333 185.526 130.667 183.793 126.933L181.926 122.933L176.993 130.8Z" fill="#E5DFDA"/>
<path d="M221.526 128.267C216.993 137.333 216.859 139.333 220.326 139.333C224.726 139.333 225.926 138 227.926 131.867C230.993 122.4 225.926 119.733 221.526 128.267Z" fill="#E5DFDA"/>
<path d="M85.3926 129.867C85.3926 132.533 88.9926 136.267 90.3259 134.8C90.7259 134.4 90.4592 134 89.5259 134C88.3259 134 88.0592 132.933 88.5926 130.667C89.2592 128.267 88.8592 127.333 87.3926 127.333C86.3259 127.333 85.3926 128.4 85.3926 129.867Z" fill="#E5DFDA"/>
<path d="M149.659 130.4C148.859 132 147.926 135.6 147.526 138.267C146.993 142.4 147.259 143.333 149.259 143.333C152.859 143.333 154.726 140.533 154.726 135.2C154.726 128.933 151.793 126.133 149.659 130.4Z" fill="#E5DFDA"/>
<path d="M231.659 130.933C230.193 132.4 230.593 138.667 232.459 140.933C234.193 143.333 241.393 142.8 241.393 140.4C241.393 138.933 234.459 130 233.259 130C232.859 130 232.059 130.4 231.659 130.933Z" fill="#E5DFDA"/>
<path d="M95.3927 135.6C85.926 138.933 86.4594 138.133 89.3927 142.933C90.8594 145.333 93.126 147.333 94.4594 147.333C98.1927 147.333 101.393 143.067 101.393 138.267C101.393 133.6 101.393 133.6 95.3927 135.6Z" fill="#E5DFDA"/>
<path d="M127.793 137.867C124.993 140.267 122.726 142.8 122.726 143.333C122.726 145.067 130.859 146.4 132.326 144.933C132.993 144.267 133.393 141.333 133.126 138.533L132.726 133.467L127.793 137.867Z" fill="#E5DFDA"/>
<path d="M137.393 137.067C137.393 141.333 141.126 144.667 142.859 141.867C144.859 138.667 143.659 134.667 140.459 134.267C137.926 133.867 137.393 134.4 137.393 137.067Z" fill="#E5DFDA"/>
<path d="M196.059 136.667C194.993 137.333 192.059 138 189.793 138C183.659 138 183.926 142.133 190.059 145.467C194.326 147.733 194.859 147.733 196.859 145.867C199.659 142.933 198.993 134.8 196.059 136.667Z" fill="#E5DFDA"/>
<path d="M174.193 141.6C173.393 142.4 176.593 155.333 177.659 155.333C179.526 155.333 184.059 150.133 184.059 147.867C184.059 143.733 181.393 140.667 177.926 140.933C176.059 141.2 174.459 141.467 174.193 141.6Z" fill="#E5DFDA"/>
<path d="M221.926 145.333C223.126 147.067 224.059 150.133 224.059 152C224.059 156.267 227.259 156.4 230.059 152.133C231.659 149.733 231.793 148.133 230.859 145.467C229.659 142.667 228.593 142 224.593 142C219.793 142 219.793 142 221.926 145.333Z" fill="#E5DFDA"/>
<path d="M164.193 148.267C160.593 152.667 160.326 153.467 162.059 155.2C164.593 157.733 171.126 155.733 171.793 152.267C172.459 148.933 170.993 143.333 169.526 143.333C168.859 143.333 166.459 145.6 164.193 148.267Z" fill="#E5DFDA"/>
<path d="M210.193 150.267L205.259 157.333L210.993 157.733C215.126 158.133 217.126 157.6 218.326 155.867C220.726 152.533 220.459 148.133 217.659 145.467C215.259 143.467 214.859 143.6 210.193 150.267Z" fill="#E5DFDA"/>
<path d="M239.259 145.333C235.793 146.8 234.993 148 234.326 152.267C233.659 158 235.126 160.4 240.059 160.933C242.593 161.2 243.926 160.267 246.459 155.6L249.793 149.733L246.593 146.667C243.659 143.733 243.126 143.6 239.259 145.333Z" fill="#E5DFDA"/>
<path d="M133.793 147.6C131.259 150.133 130.326 150.267 127.393 148.933C122.459 146.667 123.259 149.467 128.459 152.667C134.993 156.667 139.526 156.133 141.126 151.333C142.326 148 142.193 147.2 140.059 146C136.859 144.267 137.126 144.267 133.793 147.6Z" fill="#E5DFDA"/>
<path d="M115.126 147.6C112.459 148.8 110.726 152.267 110.726 156.267C110.726 157.333 112.459 158 115.259 158C119.126 158 119.793 157.467 120.326 154.267C120.859 150 120.193 146 118.993 146.133C118.459 146.133 116.726 146.8 115.126 147.6Z" fill="#E5DFDA"/>
<path d="M186.726 149.067C186.726 150.533 185.526 153.2 183.926 155.067L181.259 158.533L184.059 159.6C187.659 160.933 192.059 158.667 192.059 155.467C192.059 154.133 190.859 151.6 189.393 149.867C187.126 147.067 186.859 146.933 186.726 149.067Z" fill="#E5DFDA"/>
<path d="M102.193 155.867C98.5926 158.933 97.2593 161.067 97.7926 162.533C99.7926 167.867 108.059 162.133 108.059 155.333C108.059 153.067 107.926 151.333 107.793 151.333C107.526 151.467 104.993 153.467 102.193 155.867Z" fill="#E5DFDA"/>
<path d="M248.059 159.333C245.393 164.667 244.859 164.933 240.593 164.267C236.059 163.467 235.926 163.467 236.726 167.733C237.259 170.533 236.859 172.933 235.526 174.667C233.926 176.933 233.126 177.067 229.659 175.867L225.659 174.4L226.326 179.2C226.859 183.2 226.326 184.933 223.659 188C220.726 191.6 220.059 191.733 216.726 190.267C213.393 188.8 213.259 188.8 214.059 191.467C215.259 195.2 212.459 201.733 209.126 202.8C207.659 203.2 204.993 203.2 203.126 202.667C199.926 201.867 199.793 202.133 200.593 206.133C201.659 211.6 198.726 216.267 193.926 216.933L190.459 217.333L192.993 220.533L195.659 223.733L201.526 219.6C204.859 217.467 211.259 211.6 215.793 206.8C225.259 196.667 242.726 175.2 242.726 173.733C242.726 173.067 241.793 172.667 240.593 172.667C237.259 172.667 238.859 166.8 242.459 166.267C244.193 166 245.393 166.533 245.393 167.467C245.393 168.4 247.259 167.467 249.393 165.333C253.526 161.467 254.193 158.8 252.193 155.467C251.259 154 250.326 154.933 248.059 159.333ZM210.326 209.333C209.126 212.267 205.393 213.467 203.926 211.2C203.126 209.867 203.659 208.533 205.659 206.933C208.859 204.267 211.659 205.733 210.326 209.333Z" fill="#E5DFDA"/>
<path d="M152.593 160.533C150.193 162.667 147.259 164.933 145.926 165.733C142.859 167.467 143.659 168.4 149.126 169.467C152.726 170.267 153.526 169.733 155.926 165.867C158.726 161.333 159.659 156.667 157.793 156.667C157.126 156.667 154.859 158.4 152.593 160.533Z" fill="#E5DFDA"/>
<path d="M223.526 161.067C224.059 163.333 224.459 166.667 224.326 168.133C224.193 170.133 225.126 171.333 227.126 171.867C233.393 173.467 233.793 173.067 233.126 166C232.726 162.267 232.193 159.067 231.926 158.8C231.659 158.533 229.393 158 226.993 157.6C222.593 156.667 222.459 156.667 223.526 161.067Z" fill="#E5DFDA"/>
<path d="M119.926 161.067C118.059 162.667 115.659 165.6 114.459 167.467C111.793 171.6 107.393 173.067 105.259 170.533C104.459 169.467 102.726 168.667 101.393 168.667C100.059 168.667 98.3261 167.733 97.3927 166.667C95.7927 164.8 95.1261 165.067 91.5261 168.533C80.8594 178.8 65.3927 181.6 53.7927 175.6C44.0594 170.533 42.9927 171.867 49.9261 180.8C52.4594 184 54.3261 186.8 54.0594 187.067C53.7927 187.333 48.3261 186.933 41.9261 186C34.0594 185.067 29.9261 184.933 28.9927 185.867C27.1261 187.733 32.5927 192.133 40.4594 194.8C44.0594 196 46.5927 197.6 46.3261 198.4C46.0594 199.333 40.1927 202.4 33.2594 205.333C26.3261 208.267 20.7261 211.2 20.7261 212C20.7261 214.133 33.1261 212.933 45.7927 209.6C52.1927 207.867 57.3927 206.933 57.3927 207.467C57.3927 208.133 54.9927 214 52.0594 220.8C48.9927 227.467 46.9927 233.333 47.3927 233.733C48.4594 234.933 59.7927 223.333 64.3261 216.4C66.5927 212.933 68.8594 210.4 69.3927 210.667C69.9261 211.067 71.1261 213.067 72.0594 215.333C74.1927 220.4 76.0594 219.333 76.0594 212.933C76.1927 206.533 80.0594 197.867 84.5927 194.4C86.4594 192.933 92.7261 190 98.3261 188C116.059 181.867 122.859 175.6 124.859 163.6C125.793 157.333 124.859 156.8 119.926 161.067ZM74.3261 182.533C82.8594 181.6 82.9927 181.733 82.0594 184.533C81.5261 186.133 81.7927 187.333 82.5927 187.333C85.1261 187.333 84.1927 190.8 80.8594 193.867C79.1261 195.467 76.5927 199.6 75.3927 202.8C73.2594 208.4 72.9927 208.667 70.7261 206.667C68.0594 204.267 68.0594 204.133 60.7261 216.933C56.0594 225.067 53.3927 228 53.3927 224.933C53.3927 224.4 55.2594 219.6 57.5261 214.133C59.7927 208.8 61.2594 204.133 60.9927 203.733C60.5927 203.333 54.9927 204.533 48.4594 206.4C42.0594 208.267 34.3261 210.133 31.3927 210.533C26.8594 211.2 28.1927 210.267 39.1261 205.067C51.5261 199.067 55.3927 195.333 49.1261 195.333C45.9261 195.333 34.7261 190.267 34.7261 188.933C34.7261 188.4 38.9927 188.267 44.1927 188.4C49.3927 188.667 55.1261 188.533 56.9927 188L60.4594 187.2L55.9261 182.533L51.3927 177.867L58.4594 180.533C64.3261 182.933 67.2594 183.2 74.3261 182.533Z" fill="#E5DFDA"/>
<path d="M161.393 162C161.393 164 160.459 166.4 159.393 167.333C158.326 168.267 157.659 169.467 158.059 170C159.259 171.867 164.059 169.867 166.726 166.267C169.659 162.667 168.726 160.133 164.059 158.933C161.926 158.4 161.393 158.933 161.393 162Z" fill="#E5DFDA"/>
<path d="M172.059 161.6C172.059 163.467 170.993 166.267 169.793 167.733C167.526 170.133 167.526 170.267 171.259 169.733C174.326 169.467 175.393 168.267 176.859 164C177.793 161.067 178.726 158.533 178.726 158.267C178.726 158.133 177.259 158 175.393 158C172.726 158 172.059 158.667 172.059 161.6Z" fill="#E5DFDA"/>
<path d="M108.859 163.6C105.793 168 106.193 169.067 110.059 166.533C111.926 165.333 113.393 163.467 113.393 162.533C113.393 159.733 111.126 160.267 108.859 163.6Z" fill="#E5DFDA"/>
<path d="M198.726 166.133C196.593 169.2 195.126 172.133 195.526 172.8C196.859 175.067 205.259 174.133 206.593 171.6C207.793 169.467 205.259 160.667 203.526 160.667C203.126 160.667 200.993 163.2 198.726 166.133Z" fill="#E5DFDA"/>
<path d="M209.926 162.933C210.326 164 210.726 166.667 210.726 168.8C210.726 172.133 211.259 172.667 214.726 172.667C218.993 172.667 221.393 169.733 221.393 164.133C221.393 161.2 220.859 160.933 215.259 160.933C210.459 160.933 209.393 161.333 209.926 162.933Z" fill="#E5DFDA"/>
<path d="M247.526 172.933C244.859 176 242.726 179.333 242.726 180.267C242.726 182.4 249.393 185.2 250.859 183.733C252.059 182.4 254.059 167.333 252.993 167.333C252.593 167.333 250.059 169.867 247.526 172.933Z" fill="#E5DFDA"/>
<path d="M142.726 171.067C142.859 172.667 150.459 181.333 151.126 180.667C151.393 180.267 152.059 178.8 152.593 177.333C153.126 175.2 152.326 174.267 148.059 172.4C145.126 171.2 142.726 170.667 142.726 171.067Z" fill="#E5DFDA"/>
<path d="M258.326 171.867C257.793 173.2 257.393 176.933 257.393 180.133C257.393 186.533 256.193 187.6 249.526 187.867C246.459 188 246.059 188.533 246.459 192C246.726 194.133 247.126 196.267 247.393 196.4C248.326 197.467 262.459 192.533 264.059 190.667C265.926 188.4 265.259 183.867 261.793 175.467C259.793 170.8 258.993 170 258.326 171.867Z" fill="#E5DFDA"/>
<path d="M155.393 176.133C155.659 180.667 156.993 181.467 160.059 178.667C163.793 175.333 163.393 173.333 158.993 173.067C155.926 172.8 155.393 173.333 155.393 176.133Z" fill="#E5DFDA"/>
<path d="M185.526 180.267L179.793 185.067L182.993 186.8C189.393 190.4 193.393 187.867 193.393 180.133C193.393 175.067 191.793 175.067 185.526 180.267Z" fill="#E5DFDA"/>
<path d="M209.393 177.867C209.393 181.333 214.459 187.333 217.393 187.333C220.459 187.333 222.726 183.6 222.726 178.8C222.726 175.6 222.326 175.333 216.059 175.333C210.459 175.333 209.393 175.733 209.393 177.867Z" fill="#E5DFDA"/>
<path d="M196.993 182.267C196.193 187.733 197.259 189.867 200.859 190C202.326 190 206.726 181.733 206.726 178.667C206.726 177.333 205.259 176.667 202.193 176.667C197.926 176.667 197.659 176.933 196.993 182.267Z" fill="#E5DFDA"/>
<path d="M297.526 178.133C295.259 179.067 294.726 180 295.526 181.733C296.059 182.933 296.459 185.867 296.326 188.133C296.059 191.733 296.593 192.533 299.793 193.333C305.126 194.667 309.393 197.733 309.393 200.4C309.393 201.733 310.859 204.267 312.726 206C316.993 210 316.859 211.867 312.593 215.067L308.993 217.6L313.526 220.4C316.059 221.867 325.526 230.667 334.593 239.867L351.126 256.4L351.793 270C352.593 286.667 354.459 287.2 361.393 273.067C363.926 267.733 366.459 263.333 366.993 263.333C367.526 263.333 372.326 266.667 377.659 270.667C387.526 278.133 391.659 279.867 390.193 275.867C389.793 274.667 389.393 273.333 389.393 272.667C389.393 272.133 386.459 267.6 382.726 262.533C379.126 257.467 376.059 252.8 376.059 252.133C376.059 251.467 381.926 251.2 390.059 251.6C404.993 252.4 408.059 251.333 402.859 247.2C399.793 244.667 386.459 240.133 378.459 238.667C375.659 238.267 373.393 237.333 373.393 236.8C373.393 236.267 375.259 233.2 377.526 230C384.193 220.933 387.659 210 384.059 210C383.393 210 378.459 213.867 373.126 218.667C367.793 223.467 362.993 227.333 362.593 227.333C362.193 227.333 361.126 224.267 360.193 220.4C358.593 213.2 352.859 202 350.859 202C349.259 202 348.059 205.467 348.059 210C348.059 215.333 346.593 222 345.393 222C344.726 222 340.459 215.333 335.793 207.2C320.593 180.267 310.726 172.8 297.526 178.133ZM310.193 179.867C311.259 182.667 308.193 187.6 305.793 187.067C302.326 186.4 300.593 182.533 302.593 180.133C304.859 177.467 309.259 177.333 310.193 179.867ZM320.059 188C321.926 190.267 320.726 194.8 317.793 195.867C315.659 196.667 309.393 192.133 309.393 189.733C309.393 188.533 314.193 186.267 316.859 186.133C317.659 186 319.126 186.933 320.059 188ZM324.059 202.667C324.059 207.067 320.326 208.667 317.926 205.333C315.793 202.4 317.659 199.333 321.526 199.333C323.393 199.333 324.059 200.267 324.059 202.667ZM332.059 208.267C332.059 209.6 331.526 211.467 330.859 212.533C329.793 214.133 329.259 214.133 327.526 212.8C324.059 210 324.859 206 328.726 206C330.993 206 332.059 206.667 332.059 208.267ZM327.793 217.067C329.793 219.467 328.193 224.667 325.526 224.667C322.726 224.667 319.793 220.133 320.859 217.333C321.793 214.933 325.926 214.667 327.793 217.067ZM339.259 222.133C342.459 224.933 344.859 226 346.593 225.333C348.193 224.933 349.393 225.333 349.926 226.667C350.326 227.733 352.193 228.667 353.926 228.667C356.326 228.667 357.926 229.867 359.259 232.267C360.326 234.4 362.993 238.267 365.259 241.2C370.059 247.2 370.459 251.333 366.726 253.733C365.259 254.667 364.059 256.4 364.059 257.733C364.059 260.533 360.193 266.267 360.059 263.6C360.059 262.4 359.126 262.133 357.393 262.667C355.259 263.333 354.726 262.933 354.726 260.667C354.726 256.267 352.326 252.667 342.593 242.533C333.926 233.467 331.259 228.267 334.859 227.067C335.926 226.667 335.659 225.2 334.193 222.267C331.393 216.933 333.259 216.8 339.259 222.133Z" fill="#E5DFDA"/>
<path d="M284.993 184.4C282.593 185.867 281.659 187.333 282.193 188.667C282.726 189.733 283.393 192.267 283.793 194.267C284.993 201.6 292.059 197.467 292.059 189.467C292.059 185.733 290.859 182 289.526 182C289.126 182 287.126 183.067 284.993 184.4Z" fill="#E5DFDA"/>
<path d="M235.126 188.267C231.659 192.8 231.393 193.733 232.726 197.6C234.593 203.333 235.393 203.867 238.593 202C240.993 200.8 241.393 199.333 241.393 192C241.393 187.2 240.859 183.333 240.193 183.333C239.526 183.333 237.259 185.6 235.126 188.267Z" fill="#E5DFDA"/>
<path d="M170.059 190.267L163.393 194.533L169.659 196.4C174.859 198.133 176.326 198.133 178.059 196.667C180.326 194.8 180.326 187.2 178.059 186.4C177.393 186.267 173.793 188 170.059 190.267Z" fill="#E5DFDA"/>
<path d="M204.459 190.133C201.926 192.4 199.259 193.6 198.059 193.2C196.593 192.533 196.193 192.933 196.859 194.8C199.926 203.333 210.726 201.867 210.726 192.933C210.726 186.667 209.126 185.867 204.459 190.133Z" fill="#E5DFDA"/>
<path d="M188.593 191.067C183.526 191.6 179.526 197.333 182.726 199.467C186.193 201.6 190.859 202.4 192.193 201.067C192.993 200.267 193.393 197.6 193.126 195.2C192.726 191.067 192.459 190.667 188.593 191.067Z" fill="#E5DFDA"/>
<path d="M272.993 193.067C269.926 195.6 269.526 196.533 270.459 199.867C271.659 204.4 274.726 206.8 277.926 205.6C279.526 204.933 280.059 202.933 280.059 197.333C280.059 189.067 278.859 188.267 272.993 193.067Z" fill="#E5DFDA"/>
<path d="M223.126 203.467C219.926 207.2 217.393 210.8 217.393 211.467C217.393 212.933 224.593 216.667 227.393 216.667C228.993 216.667 229.393 214.8 229.393 206.667C229.393 201.2 229.259 196.667 229.126 196.667C228.859 196.667 226.193 199.733 223.126 203.467Z" fill="#E5DFDA"/>
<path d="M259.793 198.267C255.259 199.467 254.726 200 254.726 204C254.726 208 255.259 208.533 260.726 210.4L266.726 212.533V204.533C266.726 200.267 266.326 196.667 265.793 196.8C265.126 196.933 262.459 197.6 259.793 198.267Z" fill="#E5DFDA"/>
<path d="M294.193 197.733C293.793 198.4 295.393 200.267 297.659 202C301.659 204.933 301.926 204.933 303.659 202.667C305.259 200.4 304.993 200 301.259 198.4C296.326 196.4 295.126 196.267 294.193 197.733Z" fill="#E5DFDA"/>
<path d="M245.393 202C243.393 204.933 241.526 206 238.593 206C235.393 206 234.726 206.533 234.726 209.333C234.726 212.4 235.259 212.667 240.593 212.667C247.393 212.667 250.726 209.467 250.726 203.067C250.726 197.867 248.726 197.333 245.393 202Z" fill="#E5DFDA"/>
<path d="M177.526 206.133C181.526 209.6 185.126 212.533 185.793 212.667C187.393 212.667 186.859 206.667 185.126 204.267C184.193 203.067 180.459 201.467 176.859 200.8L170.193 199.6L177.526 206.133Z" fill="#E5DFDA"/>
<path d="M193.126 203.867C190.059 204.933 189.393 206 189.393 209.6C189.393 213.067 189.926 214 191.926 214C195.393 214 197.659 210.8 197.126 206.4C196.726 202.8 196.459 202.667 193.126 203.867Z" fill="#E5DFDA"/>
<path d="M285.126 203.467C284.859 204.4 284.993 207.467 285.393 210.533C285.926 215.333 286.459 216 290.593 216.8C298.726 218.533 300.859 215.333 296.726 207.467C294.326 202.667 286.326 200 285.126 203.467Z" fill="#E5DFDA"/>
<path d="M303.526 209.733C300.726 215.067 300.859 215.6 304.193 215.067C308.593 214.4 310.459 210.533 307.793 207.867C305.793 205.867 305.526 206 303.526 209.733Z" fill="#E5DFDA"/>
<path d="M270.726 209.2C270.726 209.733 271.659 212.267 272.726 214.8C274.193 218.533 275.259 219.467 277.659 219.067C280.859 218.667 282.326 214.667 280.326 211.733C279.126 209.867 270.726 207.733 270.726 209.2Z" fill="#E5DFDA"/>
<path d="M251.793 214C250.326 216.533 248.326 218 245.793 218.267C242.593 218.667 242.059 219.333 241.659 223.333C240.993 229.867 237.926 232.933 233.126 232C230.059 231.333 229.393 231.6 229.393 233.6C229.393 234.933 228.193 238 226.726 240.4C225.259 242.8 224.193 246.4 224.326 248.267C224.593 250.4 223.926 252.133 222.459 252.8C221.126 253.467 218.993 254.533 217.793 255.067C215.526 256.133 211.259 269.6 212.593 271.067C214.193 272.533 220.326 266.8 227.526 257.2C242.459 236.8 254.459 226.4 264.993 224.533C268.459 223.867 271.393 223.067 271.659 222.8C271.926 222.533 271.393 220.8 270.593 218.8C269.526 216.4 267.926 215.333 265.659 215.333C263.793 215.333 260.459 214.133 258.193 212.8L254.059 210.133L251.793 214ZM261.126 219.867C261.659 222.667 259.259 224.8 256.459 223.733C254.593 223.067 254.059 219.067 255.659 217.467C257.259 215.867 260.726 217.333 261.126 219.867ZM237.126 238.8C236.593 242.133 232.326 242.8 231.126 239.867C230.593 238.4 231.259 236.933 232.726 235.867C235.659 233.733 237.926 235.2 237.126 238.8ZM232.059 245.867C232.059 249.067 228.726 250.4 226.726 248C224.726 245.6 226.059 243.333 229.526 243.333C231.126 243.333 232.059 244.267 232.059 245.867Z" fill="#E5DFDA"/>
<path d="M209.793 217.733C207.393 219.733 203.926 222.533 201.926 224L198.459 226.8L205.259 228.933C211.259 230.8 212.326 230.933 214.059 229.067C216.193 227.067 216.726 218.533 214.993 215.733C214.326 214.667 212.726 215.333 209.793 217.733Z" fill="#E5DFDA"/>
<path d="M233.659 220.133C232.459 222.4 229.126 222.267 223.793 220C221.926 219.2 221.393 219.733 221.393 222.4C221.393 226 224.059 227.333 231.793 227.333C235.259 227.333 236.459 226.667 237.393 223.867C238.193 222 238.726 219.867 238.726 219.2C238.726 217.2 234.993 217.867 233.659 220.133Z" fill="#E5DFDA"/>
<path d="M279.659 223.333C276.726 225.467 271.526 227.733 267.926 228.533C256.326 231.067 250.326 236.133 230.459 260.267C223.793 268.533 222.059 271.333 223.659 271.867C227.393 273.333 228.859 272.667 230.993 268.133C234.193 261.467 248.993 246.267 257.926 240.533C262.193 237.733 270.859 233.867 277.259 231.867C288.726 228.4 293.393 225.733 293.393 222.667C293.393 221.067 289.393 219.333 286.059 219.333C285.393 219.333 282.459 221.2 279.659 223.333Z" fill="#E5DFDA"/>
<path d="M218.726 231.2C218.059 232.667 216.193 234.267 214.593 234.667L211.793 235.6L214.859 238.8C218.726 242.933 220.326 242.8 223.126 238.133C225.926 233.333 226.059 230.533 223.259 229.467C220.326 228.4 220.326 228.4 218.726 231.2Z" fill="#E5DFDA"/>
<path d="M201.393 232.667C201.393 233.333 199.926 234.667 198.193 235.6C194.993 237.333 194.993 237.467 197.126 240.4C199.393 243.333 199.659 243.333 204.459 241.333C210.193 238.933 210.459 238.133 206.326 234.267C202.993 231.067 201.393 230.533 201.393 232.667Z" fill="#E5DFDA"/>
<path d="M281.926 233.6C276.993 235.333 276.593 235.733 277.126 239.333C277.659 242.667 278.326 243.333 281.526 243.333C284.593 243.333 285.793 242.4 288.059 238C289.526 235.2 290.726 232.4 290.726 232C290.726 230.933 288.059 231.467 281.926 233.6Z" fill="#E5DFDA"/>
<path d="M267.126 238.8C263.126 240.533 262.993 240.933 263.659 245.6C264.593 251.867 264.593 251.733 267.793 250.667C269.926 250.133 274.726 240.533 274.726 237.067C274.726 236.133 271.259 236.933 267.126 238.8Z" fill="#E5DFDA"/>
<path d="M183.526 241.067C181.393 242.667 181.393 242.933 184.059 246.4C185.659 248.4 187.659 250 188.726 250C190.193 250 193.393 243.6 193.393 240.533C193.393 238.667 186.193 239.067 183.526 241.067Z" fill="#E5DFDA"/>
<path d="M209.793 244.267C205.926 246.8 205.659 252.667 209.259 252.667C212.593 252.667 220.059 250 220.059 248.8C220.059 247.733 214.193 242 213.259 242.133C212.993 242.133 211.393 243.067 209.793 244.267Z" fill="#E5DFDA"/>
<path d="M163.526 247.333C152.726 251.867 144.459 259.333 143.393 265.2C142.993 267.467 143.526 273.467 144.726 278.667C147.259 290.4 150.059 318.267 148.993 321.067C148.326 323.067 147.526 322.933 142.059 320.533C132.326 316.267 129.393 318.667 135.526 325.867C138.726 329.733 138.726 330 136.459 330.8C124.993 334.533 121.393 336.933 121.393 340.933C121.393 342.933 122.459 343.333 128.059 343.333H134.726L130.193 351.6C125.526 360.267 121.526 373.333 123.126 374.8C123.659 375.333 126.459 372.933 129.526 369.467C135.259 362.933 146.459 354.533 147.659 355.733C148.059 356.133 147.393 359.467 146.193 362.933C144.859 366.4 143.526 373.333 143.126 378.133C142.459 386.267 142.593 387.2 145.126 388.533C148.593 390.4 148.726 390.133 155.259 370.4C157.926 362.267 160.993 355.2 161.926 354.933C164.859 353.733 171.793 358.933 174.593 364.4C178.059 371.2 181.126 373.733 182.193 370.8C183.259 368 182.193 364.133 176.726 349.333C172.993 339.333 172.059 334.267 170.859 319.333C170.059 309.467 168.726 296.667 167.793 290.933C165.926 278.8 165.926 278.667 177.259 277.333C181.393 276.933 185.793 276.133 187.259 275.733C189.393 275.067 189.393 274.933 186.593 273.467C182.593 271.467 181.793 266.133 184.726 259.067C185.926 256.133 186.726 253.6 186.459 253.467C180.593 249.867 178.726 248.267 178.059 246C176.993 242.4 174.459 242.667 163.526 247.333ZM176.059 257.6C176.059 261.333 172.726 261.733 169.126 258.4C166.193 255.733 166.193 254.8 168.859 252C170.859 250 171.259 250 173.526 252.133C174.993 253.333 176.059 255.867 176.059 257.6ZM161.926 261.867C164.993 265.2 164.193 269.2 160.326 269.733C154.726 270.533 151.126 264.8 154.993 260.933C157.259 258.667 159.259 258.933 161.926 261.867ZM179.259 266.8C180.993 271.333 174.593 274.667 170.993 271.067C168.726 268.8 171.526 264.667 175.259 264.667C176.993 264.667 178.859 265.6 179.259 266.8ZM157.926 278.8C161.259 282 160.593 286 156.859 286C152.459 286 150.193 282.933 152.059 279.467C153.793 276.133 155.126 276 157.926 278.8ZM162.059 300.667C162.059 302.8 161.259 304.133 159.526 304.4C156.193 305.067 154.326 302.8 155.393 299.333C156.726 295.2 162.059 296.133 162.059 300.667ZM160.459 320.667C161.526 319.067 162.993 318 163.659 318.4C165.126 319.333 167.126 326.133 169.259 336.4C171.393 346.533 171.259 347.6 168.059 346.667C166.193 346 165.393 346.4 165.393 347.867C165.393 349.067 164.593 350 163.526 350C162.459 350 160.726 351.2 159.659 352.8C158.326 354.533 157.393 355.067 156.726 354.133C156.326 353.333 155.259 352.933 154.593 353.333C153.926 353.867 153.393 352.8 153.393 351.333C153.393 349.2 152.859 348.667 151.259 349.2C147.793 350.533 141.393 347.067 140.459 343.333C140.059 341.467 139.126 339.333 138.459 338.4C137.526 337.333 138.059 335.6 139.926 333.2C141.526 331.2 142.726 328.533 142.726 327.2C142.726 324.533 144.726 323.867 146.059 326C147.659 328.533 149.526 327.333 151.526 322.4L153.659 317.467L155.926 320.533L158.326 323.733L160.459 320.667Z" fill="#E5DFDA"/>
<path d="M253.793 247.2C246.859 252.133 246.459 253.067 248.059 257.2C250.593 264 257.126 260.133 258.859 250.667C259.526 247.2 259.793 244 259.659 243.733C259.393 243.467 256.726 245.067 253.793 247.2Z" fill="#E5DFDA"/>
<path d="M198.593 246.933C196.059 247.333 194.726 248.667 193.659 252.133C192.459 256.133 192.593 256.933 194.993 258.133C197.926 259.733 198.326 259.467 202.059 252.4C204.193 248.533 204.593 245.867 203.126 246.133C202.459 246.267 200.459 246.667 198.593 246.933Z" fill="#E5DFDA"/>
<path d="M274.859 250.667C272.193 255.2 272.193 255.333 274.726 256.667C278.726 258.8 280.859 258.267 282.859 254.267C283.793 252.267 284.859 250.267 284.993 249.867C285.393 249.2 279.659 246 278.193 246C277.926 246 276.459 248.133 274.859 250.667Z" fill="#E5DFDA"/>
<path d="M261.659 257.333C259.259 262.4 259.659 264.133 263.393 265.733C266.459 267.2 266.993 266.933 268.059 263.867C269.926 258.933 269.659 255.733 267.259 254.8C263.926 253.467 263.259 253.867 261.659 257.333Z" fill="#E5DFDA"/>
<path d="M285.926 260C284.193 267.467 285.126 269.2 290.593 268L294.726 267.2L291.393 260.533C289.526 256.933 287.926 254 287.659 254C287.526 254 286.726 256.667 285.926 260Z" fill="#E5DFDA"/>
<path d="M187.526 259.867C186.059 265.467 186.859 268.133 191.259 271.6C193.793 273.733 196.059 275.333 196.326 275.333C196.593 275.333 196.726 272.4 196.726 268.933C196.726 263.2 196.326 262.267 192.459 259.733L188.326 256.933L187.526 259.867Z" fill="#E5DFDA"/>
<path d="M201.526 261.6C198.726 271.467 200.193 276.133 204.859 272.933C206.193 272.133 210.726 260.267 210.726 257.733C210.726 257.2 208.993 256.667 206.726 256.667C203.393 256.667 202.726 257.333 201.526 261.6Z" fill="#E5DFDA"/>
<path d="M237.526 262.933C231.793 269.733 232.059 270.8 239.526 269.467C243.926 268.533 244.059 268.267 244.059 262.667C244.059 259.333 243.793 256.667 243.526 256.667C243.126 256.667 240.459 259.467 237.526 262.933Z" fill="#E5DFDA"/>
<path d="M272.993 261.467C271.126 263.333 272.059 269.6 274.459 271.733C277.793 274.8 279.659 274.533 280.593 270.933C281.926 266 281.526 263.733 279.126 262.8C277.793 262.4 276.059 261.733 275.259 261.333C274.593 260.933 273.526 261.067 272.993 261.467Z" fill="#E5DFDA"/>
<path d="M250.993 264.267C246.726 265.067 247.393 270.533 251.926 271.067C255.259 271.6 257.393 269.467 257.393 265.6C257.393 263.333 256.726 263.2 250.993 264.267Z" fill="#E5DFDA"/>
<path d="M259.926 272.267C258.193 276.8 258.326 277.733 261.259 279.333C265.259 281.467 266.326 280.933 267.926 276.533C269.926 270.533 269.926 270.4 265.259 269.733C261.926 269.2 260.993 269.6 259.926 272.267Z" fill="#E5DFDA"/>
<path d="M290.726 272.667C284.993 273.333 284.726 273.6 284.326 277.867C283.793 282.533 285.526 284.667 289.659 284.667C291.926 284.667 298.059 274.933 297.126 272.933C296.859 272.4 294.059 272.267 290.726 272.667Z" fill="#E5DFDA"/>
<path d="M242.726 273.867L239.393 274.8L242.726 275.867C244.593 276.533 247.926 278.4 250.326 280.133C253.793 282.8 254.593 282.933 255.259 281.2C256.859 277.2 256.059 275.6 251.926 274.133C247.259 272.533 247.526 272.533 242.726 273.867Z" fill="#E5DFDA"/>
<path d="M272.059 278.8C270.059 283.867 270.459 285.6 273.659 287.867C277.259 290.4 278.193 289.467 279.393 283.2C280.193 279.067 279.926 278.4 276.726 276.933C273.659 275.467 273.259 275.6 272.059 278.8Z" fill="#E5DFDA"/>
<path d="M298.859 280.8C298.726 282 297.393 284.667 295.926 286.667C292.993 290.133 290.859 290.533 285.259 288.133C283.659 287.467 282.859 288.133 282.193 290.533C281.259 294.133 278.859 294.933 274.726 292.667C272.726 291.6 272.193 292 271.393 295.067C270.993 297.067 269.659 299.6 268.593 300.8C266.993 302.533 267.126 303.2 268.993 305.867C270.859 308.533 271.259 308.667 272.326 306.933C272.993 305.733 278.726 302 285.259 298.667C291.659 295.333 298.193 291.333 299.793 289.6C302.193 286.933 302.326 286.267 300.726 282.667C299.793 280.4 298.859 279.6 298.859 280.8Z" fill="#E5DFDA"/>
<path d="M258.726 284.933C258.726 288.533 265.793 299.733 267.126 298.4C267.659 298 268.059 295.067 268.059 291.867C268.059 287.467 267.393 285.867 264.726 284.133C260.326 281.2 258.726 281.467 258.726 284.933Z" fill="#E5DFDA"/>
<path d="M299.526 293.2C298.459 294.933 291.659 299.6 284.726 303.333C277.393 307.333 272.193 310.933 272.593 311.867C274.859 317.067 276.859 320.667 277.659 320.667C279.793 320.667 305.659 304.267 306.326 302.4C307.259 300 304.459 290 302.859 290C302.193 290 300.726 291.467 299.526 293.2Z" fill="#E5DFDA"/>
<path d="M300.459 310.667C292.993 315.6 291.793 318.4 295.926 320.667C298.059 321.733 299.393 321.067 303.926 315.867C308.993 310.133 310.859 305.867 308.459 306.133C307.793 306.133 304.193 308.133 300.459 310.667Z" fill="#E5DFDA"/>
<path d="M305.526 319.333C300.593 325.467 300.993 327.333 307.526 327.333C311.926 327.333 312.059 327.2 312.059 322.267C312.059 314 310.459 313.333 305.526 319.333Z" fill="#E5DFDA"/>
<path d="M284.459 321.467C281.259 323.333 278.726 325.467 278.726 326.133C278.726 326.8 280.459 328.133 282.726 329.333C286.326 331.2 286.726 331.2 287.793 329.067C289.126 326.533 291.259 318 290.459 318C290.193 318.133 287.526 319.6 284.459 321.467Z" fill="#E5DFDA"/>
<path d="M292.859 325.467C292.459 326.667 292.059 329.067 292.059 330.8C292.059 333.333 292.726 334 295.259 334C299.659 334 301.126 329.467 297.926 325.867C295.126 322.8 293.926 322.667 292.859 325.467Z" fill="#E5DFDA"/>
<path d="M300.326 334.267C299.526 336.667 297.926 338 296.326 338C294.459 338 293.126 339.333 292.193 342.267C291.393 344.533 289.793 347.467 288.726 348.667C287.126 350.4 286.993 351.733 288.193 355.067L289.526 359.067L294.459 354.667C297.126 352.133 302.726 347.467 306.726 344.267C312.593 339.6 314.059 337.733 314.059 334.667C314.059 330.933 313.793 330.8 307.926 330.667C302.326 330.667 301.526 331.067 300.326 334.267Z" fill="#E5DFDA"/>
<path d="M281.393 333.467C281.393 334.133 282.326 337.2 283.659 340.4L285.793 346.133L288.193 342.4C291.393 337.733 291.393 335.867 288.459 334.933C287.126 334.667 284.993 333.867 283.793 333.333C282.459 332.8 281.393 332.933 281.393 333.467Z" fill="#E5DFDA"/>
<path d="M308.059 348.533C301.926 353.867 301.793 355.867 307.259 356.933C310.326 357.467 315.126 350.133 314.459 346C314.059 343.6 313.526 343.867 308.059 348.533Z" fill="#E5DFDA"/>
<path d="M296.193 357.467C291.126 361.6 290.726 366 295.126 366C297.793 366 298.459 365.067 299.659 360C300.459 356.667 300.859 354 300.593 354C300.459 354 298.459 355.6 296.193 357.467Z" fill="#E5DFDA"/>
<path d="M312.993 358.133C311.926 359.867 310.593 363.6 310.193 366.4C309.126 372.133 311.259 373.867 316.059 371.333C318.593 370 318.859 369.067 318.193 364.4C316.859 355.867 315.526 354.267 312.993 358.133Z" fill="#E5DFDA"/>
<path d="M302.993 362.933C303.259 365.2 304.326 366.8 305.793 367.067C307.793 367.467 308.193 366.8 307.793 363.733C307.526 361.467 306.459 359.867 304.993 359.6C302.993 359.2 302.593 359.867 302.993 362.933Z" fill="#E5DFDA"/>
<path d="M300.059 368.667C300.059 369.733 298.859 370 296.726 369.467C292.726 368.4 292.726 368.533 295.659 374.667C298.326 380.267 300.459 380.533 303.659 375.867C305.259 373.333 305.526 371.867 304.593 370.267C302.859 367.6 300.059 366.667 300.059 368.667Z" fill="#E5DFDA"/>
<path d="M307.526 376C306.993 377.867 305.259 380.267 303.393 381.467L300.193 383.6L302.859 388.933C305.526 394 305.659 394.133 308.059 392C310.859 389.467 314.726 390.133 314.726 393.2C314.726 394.267 313.526 395.6 312.059 396C310.593 396.4 309.393 397.333 309.393 397.867C309.393 398.4 312.593 403.467 316.459 409.067C332.859 432.933 351.126 448.933 375.259 460.667C392.459 469.067 403.926 472.667 429.126 477.867C450.593 482.267 454.726 482.667 454.726 480.8C454.726 479.333 448.726 477.333 440.726 476C434.193 474.933 415.659 467.867 404.059 462C363.126 441.6 333.526 411.867 323.526 380.933C322.193 377.2 320.859 374 320.593 374C320.326 374 318.859 374.667 317.526 375.6C315.526 376.8 314.326 376.667 311.659 374.933C308.459 372.8 308.326 372.933 307.526 376ZM316.326 381.6C320.193 386.267 320.326 387.333 317.126 387.333C312.593 387.333 308.726 384.267 309.793 381.467C310.859 378.667 313.793 378.667 316.326 381.6ZM325.126 393.867C327.526 395.333 326.593 399.867 323.926 400.4C321.393 400.933 317.393 397.333 317.393 394.533C317.393 392.533 322.326 392 325.126 393.867ZM327.793 410.267C328.193 413.2 327.659 414 325.659 414C322.326 414 319.526 410.667 320.593 407.867C321.926 404.267 327.393 406.133 327.793 410.267ZM336.059 414.667C337.793 416.8 337.393 420.933 335.393 421.6C334.593 421.867 332.859 421.2 331.526 420.267C329.526 418.8 329.259 418 330.593 415.6C332.459 412.133 333.793 411.867 336.059 414.667ZM345.659 425.333C347.926 430.4 345.393 432.133 340.993 428.667C336.859 425.333 336.459 423.733 339.793 422.933C343.793 421.867 344.059 422 345.659 425.333ZM356.859 436.133C359.526 440 357.926 442.8 353.659 441.467C350.326 440.4 348.859 436.933 350.859 434.533C352.993 431.867 354.326 432.267 356.859 436.133ZM367.259 444.267C367.793 445.467 367.259 447.333 366.059 448.533C364.326 450.4 363.793 450.4 361.926 448.4C360.726 447.2 360.059 445.2 360.459 444.133C361.526 441.333 366.193 441.467 367.259 444.267ZM376.993 452.133C378.059 455.067 376.859 455.6 372.859 453.867C369.526 452.267 368.459 450 370.193 448.267C371.393 447.067 376.059 449.733 376.993 452.133Z" fill="#E5DFDA"/>
</svg>
