<svg xmlns="http://www.w3.org/2000/svg" width="800" height="284" fill="none" viewBox="0 0 800 284"><path fill="#e5dfda" d="M13.987.187c-.027.09.202.608.513 1.164 1.555 2.77 3.422 4.593 5.369 5.214 1.122.363 2.907.376 4.11.013 3.178-.931 6.086-3.61 6.424-5.9.04-.31.027-.569-.041-.569C16.772.045 14.041.058 13.987.187M90.505.19c-.108.077-.27.595-.379 1.229-.094.595-.27 1.488-.378 1.992-.122.492-.217.945-.217 1.01 0 .051 8.546.077 18.986.064l18.998-.039.42-.388c.243-.22.568-.647.743-.97.447-.854 1.055-2.575.96-2.795-.067-.155-2.799-.181-19.499-.207-13.603-.026-19.485 0-19.634.103M256.94.24c-.054.104-.135 5.11-.175 11.127-.027 6.016-.136 12.33-.217 14.038-.23 4.748-.757 10.959-1.095 13.055-.068.427-.095.802-.068.84.041.027.933-.012 2.002-.103 3.137-.246 6.355-.504 9.087-.724 1.419-.117 3.57-.285 4.8-.389 3.448-.284 4.206-.323 7.032-.388 2.501-.051 5.287-.31 6.626-.595 4.489-.983 6.937-1.76 9.668-3.066 1.785-.854 3.11-1.747 4.354-2.937 1.812-1.747 2.231-2.82 2.177-5.577-.027-.983.041-3.26.122-5.033.27-5.071.757-20.248.663-20.339-.014-.025-10.115-.051-22.447-.064C259.658.046 257.035.072 256.94.24m64.135-.156L304.564.11l-.094.84c-.054.454-.068 2.86-.014 5.331.041 2.484.122 9.018.163 14.53.04 5.512.135 10.092.202 10.17.149.18 3.597-.117 5.599-.48 1.622-.284 4.165-.853 4.597-1.008.149-.052.73-.233 1.285-.401.554-.169 1.082-.35 1.149-.389.081-.051.446-.194.812-.323.378-.13.824-.323 1.014-.44.189-.116.514-.298.716-.401.217-.104.744-.505 1.177-.906.73-.672 1.082-1.294 1.082-1.953 0-.324.297-.505.811-.505.757 0 3.286-.453 5.274-.957 3.245-.803 5.801-1.695 8.397-2.924 2.366-1.113 3.583-1.993 4.097-2.937.433-.816.217-3.21-.676-7.272-.257-1.177-.5-2.238-.541-2.342a9 9 0 0 1-.189-.711c-.054-.285-.352-1.566-.649-2.847-.311-1.28-.595-2.64-.649-3.014-.162-1.242 1.663-1.126-17.052-1.087m53.776.04c-5.219.038-8.37.116-8.695.207-.797.22-1.933.815-2.393 1.255-.771.698-1.014 1.397-1.001 2.794.014 1.928.568 3.338 2.651 6.728 2.312 3.74 2.353 3.804 2.664 3.688.121-.052.73-.169 1.365-.272 3.841-.634 7.897-2.006 10.02-3.39 2.921-1.889 4.179-4.218 4.179-7.685 0-1.566-.217-3.093-.447-3.274-.108-.09-2.947-.103-8.343-.051M402.61.085 387.438.11l-.162.297c-.095.155-.433.57-.757.906-.825.854-1.177 1.643-1.082 2.445.081.595.297 1.035 1.46 3.015l.46.776-.027 1.876c-.027 1.1.014 2.019.108 2.213.352.84 2.096 1.565 5.396 2.225 4.557.932 10.642 1.475 14.969 1.346 3.516-.091 5.733-.518 6.95-1.32.96-.647 1.947-3.183 2.502-6.47.676-3.958.974-7.335.662-7.361-.067-.013-6.964 0-15.307.026M536.229.07c-17.295.039-15.956-.039-15.564.983.379.945 1.23 4.348 1.731 6.884.135.685.176 2.885.189 9.056 0 7.155.027 8.359.243 9.898.447 3.105 1.218 4.89 2.394 5.59.865.491 2.934 1.138 4.598 1.397 4.989.802 7.964 1.125 16.97 1.876 5.706.466 7.126.595 8.857.776 2.772.298 4.814.582 6.139.854 1.582.324 1.636.285 1.528-1.113-.148-1.785-1.244-5.033-3.61-10.738-1.758-4.231-1.731-4.14-3.84-11.58a462 462 0 0 1-2.11-7.569C552.145.445 551.996-.06 551.766.005c-.054.026-7.058.052-15.537.065m69.556.144c-.094.104-.094 1.825.014 5.628.176 5.965.013 13.87-.325 16.924-.27 2.406-.676 3.273-3.475 7.349-3.921 5.718-4.449 8.837-2.488 14.568 1.014 2.911 2.786 5.952 4.273 7.297.92.828 3.922 2.394 5.477 2.86.297.09.608.207.676.258.081.052.568.233 1.081.389.528.155 1.163.362 1.434.465.473.156 2.867.828 4.922 1.359 1.312.336 7.87 1.876 10.412 2.445.676.155 2.218.505 3.448.79 1.231.284 2.326.53 2.434.556.19.039 2.096.53 4.057 1.035 5.842 1.5 11.575 3.597 13.955 5.098.473.297.582.31 1.893.233a683 683 0 0 0 9.168-.66c1.298-.104 2.732-.195 3.178-.195s.893-.051.974-.103c.135-.078.175-4.839.175-22.797 0-14.142-.04-22.733-.121-22.81-.081-.078-.528.026-1.19.271-.582.22-1.596.595-2.272.854-1.569.582-3.624 1.398-4.422 1.747-.919.401-.892.414-1.109-.505-.121-.556-.824-.776-2.974-.905-1.975-.13-2.651-.233-3.462-.57-.92-.375-9.033-5.796-13.766-9.199l-2.529-1.824.041-1.152c.027-.647-.014-1.32-.095-1.513-.284-.725-1.406-.97-3.326-.75-1.461.167-1.907.116-2.028-.234-.068-.246.148-1.345.527-2.613.744-2.458.919-3.74.568-4.18-.176-.206-.92-.22-12.589-.258-9.818-.026-12.427.013-12.536.142m16.552 13.236.527.712-.203.517c-.419 1.022-.622 2.627-.487 3.985.122 1.178.582 3.196.812 3.506.054.065.23.48.392.92.162.426.892 1.927 1.636 3.324 1.217 2.316 1.339 2.64 1.542 3.804.77 4.567 1.027 8.216.784 11.399-.176 2.251-.298 3.13-.676 4.878-.135.62-.23 1.643-.23 2.561 0 1.527 0 1.54-.379 1.85-.419.337-.919.402-1.149.143-.095-.117-.068-.362.108-.867.622-1.747.676-4.593.135-7.116-.23-1.126-.365-1.617-.811-3.17-.311-1.048-1.271-3.675-1.988-5.434-.405-.996-1-2.458-1.325-3.235-1.136-2.781-1.433-3.79-1.514-5.11-.055-1.1-.028-1.385.351-2.653 1.677-5.692 2.015-7.905 1.555-10.337-.081-.427-.067-.492.149-.453.135.026.473.375.771.776M657.9 24.331c.203.104.149 1.799-.108 3.468-.243 1.656-.595 3.364-1.203 5.757-1.271 5.06-1.474 6.34-1.474 9.51 0 1.953.054 2.743.243 3.493.5 2.032.717 1.592-2.096 4.218-1.366 1.268-3.407 3.209-4.557 4.283-1.149 1.087-2.15 1.98-2.204 1.98-.189 0-.149-.26.135-.829.568-1.177 1.204-2.626 1.366-3.118a11 11 0 0 1 .338-.906c.46-1.022 1.447-4.14 2.096-6.663.203-.776.798-3.506 1.014-4.658.122-.608.311-1.565.419-2.135.109-.569.23-1.216.271-1.423.04-.22.122-.711.203-1.1.081-.388.216-1.203.324-1.81.244-1.437.92-5.02 1.285-6.729.419-2.044.662-2.743 1.055-3.144.351-.362.405-.362 1.555-.323.662.026 1.271.077 1.338.13M738.402.123c-1.041.052-2.191.155-2.569.22-3.002.595-4.936 2.458-5.72 5.524-.203.803-.23 1.812-.23 9.445v8.54l.473-.04c.73-.064 3.07-.53 4.124-.814 2.732-.75 4.612-1.902 5.517-3.39.812-1.333.812-1.281.785-10.623-.027-8.034-.068-9.056-.392-8.979-.054 0-.947.065-1.988.117m42.676.117c-.054.104-.027 1.294.081 2.652.095 1.346.297 4.309.446 6.573.46 6.728 1.177 10.39 2.258 11.606 1.015 1.125 2.245 1.5 4.774 1.423 3.083-.09 4.584-.065 4.719.065.081.077.176.582.203 1.112.054 1.126.392 1.876.987 2.213.338.18.703.207 2.813.155 1.325-.039 2.461-.09 2.528-.13.054-.038.109-4.256.109-9.367 0-9.846-.028-10.286-.65-11.838-.5-1.255-.622-1.488-.811-1.553-.216-.077-.216-.065.176 2.083.27 1.45.203 1.954-.243 2.11-.163.064-1.163.167-2.205.245-1.311.09-2.055.207-2.366.35-1.163.569-1.744 1.707-1.947 3.751-.163 1.734-.446 2.239-1.393 2.355-.595.078-.609.052-.838-1.384-.068-.388-.338-1.876-.609-3.3s-.541-2.885-.595-3.234c-.068-.362-.243-1.32-.406-2.135-.148-.815-.365-1.98-.473-2.575s-.257-1.138-.324-1.203c-.068-.065-1.474-.13-3.138-.142-2.555-.026-3.015 0-3.096.168M47.762.305c.257.245 3.962 1.462 6.139 2.018 1.785.453 2.555.62 5.07 1.087.934.18 2.002.375 2.367.453 2.204.414 5.896.75 8.519.789 2.19.026 14.699-.155 14.902-.207.121-.04.121-.168.027-.479-.082-.233-.176-1.203-.217-2.148L84.49.11H66.016c-16.47 0-18.445.026-18.255.195m85.515.155a31 31 0 0 1-.271 1.138c-.432 1.773-.622 2.782-.554 2.898.054.065.527.259 1.068.427.879.272 1.217.298 3.475.298 2.461-.013 2.516-.013 3.841-.44 1.744-.557 3.854-1.54 6.125-2.885a41 41 0 0 1 1.92-1.01c.595-.284 1.109-.569 1.163-.647.054-.09-2.596-.129-8.302-.129h-8.398zM154.98.202c0 .18.595.918 1.015 1.255.202.168.784.452 1.271.608.892.31.946.31 8.262.349 7.18.039 9.871-.013 9.871-.233 0-.155-1.19-.931-1.825-1.203-.298-.13-.96-.35-1.488-.505-.919-.271-1.203-.284-9.019-.336-4.571-.026-8.087 0-8.087.065m50.368.05c-3.786.53-6.071 2.833-6.558 6.572-.135 1.152-.203 35.374-.068 35.606.054.065.676.117 1.393.117 1.487 0 2.204-.233 2.975-.945.946-.866 1.271-2.057 1.257-4.619 0-1.035.055-3.066.122-4.528.081-1.462.203-6.3.271-10.765.121-8.28.256-10.402.811-14.012.46-2.885.635-3.83 1.014-5.37.582-2.341.582-2.199.054-2.186-.257.013-.825.065-1.271.13m6.234-.039c-.041.065-.108 2.55-.149 5.538-.041 2.976-.176 6.443-.284 7.685-.203 2.355-.46 5.215-.784 8.993a658 658 0 0 0-.419 4.916c-.23 2.963-.406 4.192-.677 4.787-.811 1.786-1.541 3.96-1.771 5.189-.203 1.112-.122 2.535.189 3.299l.136.336 12.359.09c12.008.091 17.052 0 19.377-.31.528-.064 2.042-.271 3.381-.453 2.637-.349 4.327-.634 4.99-.828.581-.18 1.487-.207 3.61-.09 1.285.077 1.866.064 1.934-.026.054-.078-.068-.983-.257-1.993-.527-2.898-1.149-7.245-1.298-9.16a89 89 0 0 0-.257-2.846c-.217-1.812-.162-10.092.067-12.745.284-3.014.92-7.465 1.434-9.794.216-1.022.433-2.044.487-2.277l.081-.414H232.69c-11.575 0-21.068.052-21.108.103m130.452 1.541c.135 2.717.717 7.44 1.19 9.6.798 3.649 2.11 5.473 4.206 5.835.784.142 2.325 0 2.569-.233.068-.064.122-2.29.108-4.942-.013-5.279-.108-6.172-.865-7.789-1.096-2.355-3.259-3.7-6.491-4.05l-.798-.09zM421.775.393c-.068.168-.189 1.048-.257 1.98-.081.918-.216 2.38-.298 3.221-.094.932-.121 2.937-.081 5.046.054 3.028.109 3.623.338 4.348.595 1.863.906 2.212 3.07 3.61 1.352.88 4.449 2.419 6.491 3.247a81 81 0 0 1 1.758.712c.378.155.919.362 1.217.452.297.091.608.207.676.26.081.05.77.31 1.555.568.784.272 1.541.544 1.69.608.649.26 6.545 2.084 8.519 2.627 3.421.945 3.489.957 4.03 1.061.405.065.5.039.5-.116 0-.117-.054-.233-.122-.272-.067-.039-.324-.44-.554-.88a152 152 0 0 0-1.555-2.756c-.162-.285-.5-.867-.744-1.294-.243-.427-.879-1.54-1.42-2.458-.541-.931-1.23-2.148-1.555-2.717-.311-.57-.622-1.1-.676-1.164a32 32 0 0 1-.635-1.1 553 553 0 0 1-1.866-3.3c-.163-.284-.501-.866-.744-1.293-2.88-5.11-5.666-8.32-8.141-9.355-2.055-.854-5.125-1.32-8.803-1.32-2.217 0-2.271 0-2.393.285M562.543.202c0 .065.189.595.419 1.203.784 2.044 1.92 5.641 2.285 7.246.582 2.51 1.812 7.724 2.083 8.798.365 1.397.406 1.565 1.244 4.463.717 2.523 1.69 5.24 1.866 5.24.095 0 .297-.245.46-.556.324-.608.338-.621 1.839-3.08a137 137 0 0 1 1.514-2.406c.257-.375.46-.724.46-.79 0-.05.149-.297.325-.555.189-.26.459-.686.622-.97.568-.971 2.204-3.61 2.664-4.283.243-.376.446-.725.446-.777 0-.064.216-.414.473-.776.257-.375.473-.699.473-.737 0-.04.406-.725.92-1.527 1.866-3.002 2.556-4.852 2.434-6.625-.068-.944-.406-1.785-.92-2.277-.5-.478-1.379-1.035-1.514-.944-.081.039-.108.31-.068.608.041.297.041.595-.013.673-.054.09-.514.155-1.042.168-.513 0-1.189.052-1.501.09-.716.104-.838-.064-.946-1.293l-.095-.984h-7.207c-3.976 0-7.221.04-7.221.09"/><path fill="#e5dfda" d="M635.02.328c0 .557.851 3.377 1.176 3.908.379.62 2.096 2.329 3.624 3.584 2.191 1.81 7.708 5.55 10.128 6.87.446.259 1.041.582 1.298.724.771.427 3.259 1.592 4.125 1.941 1.812.725 3.083 1.022 4.503 1.1l1.379.065 1.663-.79c1.596-.763 2.366-1.268 3.597-2.38l.581-.544-.067-4.14c-.041-2.29-.135-4.425-.217-4.774-.73-3.144-2.812-5.02-6.152-5.59-1.028-.168-3.002-.194-13.414-.194-11.548 0-12.224.013-12.224.22M745.839.24c-.041.064-.041.555.013 1.086.054.53.014 4.619-.067 9.096-.162 8.332-.122 10.066.27 10.298.203.117.73-.038 1.745-.543.5-.246 1.717-.427 2.434-.362 1.054.09 1.744.491 3.34 1.992 2.555 2.394 3.34 2.937 5.111 3.571.92.337 1.271.388 2.434.401.744 0 1.542-.026 1.758-.077 1.677-.324 5.977-1.437 6.423-1.656.122-.052.419-.143.676-.194s.541-.143.609-.195c.081-.051.351-.142.608-.194.257-.051.555-.142.676-.207.108-.064.758-.31 1.42-.556 1.853-.66 3.11-1.307 3.502-1.798.298-.376.379-.66.501-1.85.243-2.368 0-8.074-.622-14.763-.108-1.152-.203-2.42-.203-2.808s-.054-.854-.135-1.035l-.136-.336h-15.131c-9.695 0-15.172.051-15.226.13M5.49.498c-.04.065-.19.13-.324.13-.136 0-.69.207-1.217.465C2.204 1.921.987 3.448.325 5.61.108 6.32.08 7.38.04 18.198L0 30.023l.581-.09c2.3-.35 4.26-1.333 6.031-3.015 2.705-2.561 4.422-5.602 5.585-9.859.23-.854.311-1.591.365-3.299.054-1.967.027-2.329-.243-3.364a19 19 0 0 0-.812-2.588c-.054-.142-.243-.608-.405-1.035-.5-1.255-1.596-3.286-2.231-4.153a12.7 12.7 0 0 0-1.434-1.527C6.721.485 6.517.37 6.085.37c-.284 0-.554.052-.595.13m596.197.217c-.866.298-2.488 1.268-2.718 1.605-.122.194.162.414.892.698.338.143.825.376 1.082.544s.568.297.69.297c.311 0 1.054-1.72 1.271-2.95.108-.647.094-.66-1.217-.194m-87.973 1.384c-2.001 1.294-4.421 4.218-6.382 7.712-.298.53-.69 1.229-.879 1.552a259 259 0 0 0-2.529 4.464 34 34 0 0 1-.743 1.294c-.055.064-.447.763-.879 1.552-.433.777-1.096 1.941-1.461 2.588a125 125 0 0 0-2.055 3.623c-.352.634-.69 1.216-.744 1.294-.054.064-.392.646-.744 1.293-.351.634-.797 1.424-.987 1.747-1.663 2.885-1.852 3.222-1.704 3.364.19.181 6.464.518 9.696.518 2.961-.013 7.153-.337 8.979-.7a14 14 0 0 0 1.893-.543c1.825-.685 2.772-1.643 3.313-3.338.27-.84.27-.983.108-1.889-.095-.53-.23-1.229-.284-1.552-.054-.324-.23-1.281-.392-2.135a95 95 0 0 1-.406-2.329l-.392-2.523c-.297-1.785-1.379-9.833-1.623-12.032-.081-.673-.202-1.76-.284-2.394-.067-.647-.162-1.371-.189-1.617-.027-.26-.122-.466-.23-.492-.108-.013-.595.233-1.082.543m83.528 3.339c-.311.958-.351 3.067-.351 16.264 0 14.038 0 14.245.257 14.245.365 0 .919-.517 1.176-1.1.108-.258.325-1.216.46-2.121.135-.893.432-2.213.649-2.925.23-.711.676-2.367 1.014-3.687.554-2.186.811-3.416 1.339-6.404.121-.712.175-2.264.162-4.982v-3.946l-.379-.776c-.541-1.113-1.365-2.174-2.664-3.403-1.257-1.19-1.582-1.423-1.663-1.164M40.307 6.839c-1.109.129-2.312.53-3.178 1.06-1.744 1.061-1.676 1.048-3.853.92a93 93 0 0 0-3.584-.104c-2.353.012-2.813.245-4.476 2.264-1.257 1.527-4.57 6.378-6.247 9.121-.257.427-.595.984-.744 1.23-.5.827-1.798 3.286-2.042 3.88-.581 1.398-.77 6.354-.486 12.486.202 4.477.54 8.889.946 12.356.487 4.192.784 6.185 1.285 8.359.135.556.27 1.047.297 1.086.04.04 7.37.09 16.308.13 15.388.064 16.294.077 16.998.31 1.42.453 1.974 1.45 2.15 3.83l.08 1.23h2.976c2.501 0 3.123-.04 3.921-.247 2.218-.569 2.624-1.022 3.313-3.674.73-2.834.88-5.098.88-13.74 0-4.231-.055-9.51-.11-11.71-.12-4.27-.094-4.658.582-8.798.663-4.037.717-4.593.73-6.469 0-1.45-.067-2.187-.256-2.911-.136-.53-.284-1.035-.338-1.1-.055-.078-.203-.427-.338-.776-.487-1.294-2.448-3.455-3.692-4.063-.582-.284-2.934-1.087-4.219-1.436-.487-.13-1.636-.44-2.556-.699-2.11-.595-7.14-1.798-9.263-2.212-1.811-.362-3.772-.492-5.084-.323m64.164 3.881c-5.855.168-13.468.866-17.646 1.617-2.434.427-3.205.582-3.705.724-.42.104-.717.091-1.42-.064-.487-.104-1.366-.285-1.934-.401a100 100 0 0 1-2.096-.401c-.581-.104-1.514-.285-2.069-.389-.554-.116-1.406-.284-1.893-.375a27 27 0 0 0-1.541-.271l-.65-.091.068.504c.04.285.19 1.256.352 2.187.351 2.11.392 7.194.08 10.584-.242 2.717-.824 7.866-1.08 9.678-.19 1.384-1.029 7.879-1.272 9.82-.595 4.955-.622 5.498-.622 10.156 0 3.985.04 4.813.243 5.758.69 3.144 1.447 4.334 3.733 5.809 1.893 1.242 5.422 2.64 8.667 3.468 4.95 1.242 8.344 1.824 13.59 2.302 1.19.104 2.448.22 2.8.26.35.038 3.001.077 5.882.077 4.354 0 5.706-.052 7.951-.272 4.435-.44 6.842-.867 10.398-1.876 1.866-.517 1.677-.09 1.745-3.843.067-3.596.121-3.907.906-4.8.933-1.06 1.852-1.255 6.139-1.255 2.474 0 3.326-.038 3.434-.168.068-.078.23-.815.352-1.63s.243-1.514.271-1.553c.027-.038.121-.66.202-1.371.081-.712.244-1.993.352-2.847.216-1.785.5-4.606.811-8.15.447-5.189.866-9.33 1.163-11.58.081-.608.176-1.307.203-1.553.216-1.63.676-4.205 1.082-6.042.189-.841.297-1.022 1.109-1.928 1.69-1.863 2.096-2.484 2.325-3.506.19-.841-.013-2.11-.473-3.054-.216-.427-.324-.802-.257-.854.068-.064.501-.168.96-.245 1.028-.169 2.029.025 2.556.504.947.841 1.217 2.174 1.001 4.839-.311 3.74-.69 7.685-.879 9.122-.108.815-.284 2.199-.406 3.066-.108.88-.297 2.303-.406 3.17-.324 2.432-.554 4.179-.933 7.155a246 246 0 0 1-.486 3.687c-.068.53-.163 1.255-.19 1.617-.04.35-.162 1.488-.27 2.523-.595 5.525-.771 8.488-.528 8.682.095.078 5.382.116 14.334.09l14.171-.051 1.123-.285c2.664-.699 4.341-1.98 5.192-3.972.704-1.617.717-1.773.717-6.922v-4.852l-.852-.078c-1.447-.129-1.69-.582-2.123-3.739-.365-2.742-.757-4.606-1.136-5.33-.527-1.022-1.514-1.462-5.584-2.433-3.692-.88-5.761-1.526-7.005-2.16-2.664-1.372-3.84-2.834-4.057-5.06-.094-1.06.095-2.51.352-2.73.068-.05.798-.167 1.609-.258a40.5 40.5 0 0 0 5.477-1.06c.554-.143 1.703-.44 2.542-.635l1.528-.362.987.44c1.109.479 3.556 1.371 5.896 2.135.852.271 1.69.569 1.852.646.149.078.352.13.433.104.189-.065.216-10.454.027-10.635-.068-.065-.96-.104-2.001-.104-1.028.013-3.841-.039-6.261-.116a1599 1599 0 0 0-9.06-.259 789 789 0 0 1-7.843-.246c-1.744-.077-5.612-.22-8.587-.336-2.975-.104-6.964-.259-8.857-.337-8.424-.336-23.15-.452-30.493-.245m2.434 30.21c.825.052 2.218.169 3.111.285.892.104 2.731.207 4.083.22l2.475.013v3.002c0 1.643-.054 3.027-.122 3.066-.054.039-.987.104-2.055.142a100 100 0 0 0-3.435.194c-4.246.363-7.816-.116-9.871-1.32-.947-.543-2.028-1.448-2.353-1.953-.243-.375-.257-.505-.135-.944.378-1.333 1.257-2.11 2.839-2.51.731-.194 2.705-.376 3.435-.31.298.025 1.217.077 2.028.116m273.53-26.511c-.392.168-1.284.569-2.001.892-.703.324-1.312.583-1.339.583-.067 0-1.082.44-3.232 1.41-.649.285-1.203.53-1.23.53-.041 0-.527.207-1.082.453-.662.285-1.028.53-1.028.66 0 .155.082.194.352.13.203-.052 1.001-.143 1.798-.207.785-.065 1.988-.182 2.651-.246.676-.078 2.19-.22 3.38-.337 1.19-.116 2.989-.284 3.99-.388 1-.103 2.366-.22 3.015-.272 1.42-.103 1.487-.258.365-.854a24 24 0 0 1-1.109-.634c-.189-.129-.392-.245-.432-.245-.055 0-.744-.375-1.556-.841-.797-.453-1.541-.867-1.649-.893-.108-.039-.501.078-.893.259m-1.726 6.015c-1.704.052-3.895.156-4.841.233s-1.772.13-1.826.13c-.297-.052-.433.038-.433.258 0 .143.054.285.122.324.095.065.609.867 2.691 4.282.27.427.69 1.1.933 1.488.257.389 1.474 2.368 2.732 4.4a858 858 0 0 0 2.812 4.528c.298.465.798 1.28 1.123 1.811s.824 1.346 1.122 1.811c.284.466 1.501 2.407 2.691 4.335a964 964 0 0 0 2.583 4.14c.229.35.513.828.635 1.048s.392.66.595.97c.189.31 1.379 2.226 2.637 4.257s2.515 4.063 2.813 4.528c.297.466.797 1.281 1.122 1.812.325.53.811 1.32 1.082 1.746.27.428 1.433 2.278 2.569 4.115 1.663 2.665 2.137 3.35 2.407 3.416.5.116 5.165-.065 7.37-.285 4.11-.427 7.491-1.397 9.993-2.872.432-.26.838-.427.892-.376.054.052.162.557.243 1.1.393 2.627 2.151 4.58 5.301 5.9 3.705 1.553 7.032 1.954 19.026 2.264 4.638.117 8.627.376 8.817.57.04.025-.109.685-.311 1.462-.338 1.229-.379 1.63-.379 3.338 0 2.238.27 3.506 1.068 5.046 1.136 2.225 2.975 3.415 5.599 3.635l1.122.09-.081.92a19 19 0 0 1-.217 1.5 38 38 0 0 0-.338 2.07c-.121.816-.514 3.468-.879 5.887-1.217 8.061-1.582 11.063-1.703 13.844-.068 1.656-.068 1.695.311 2.381.824 1.527 2.731 2.174 5.679 1.928 1.528-.117 2.461-.285 5.111-.893 1.19-.259 2.529-.569 2.975-.66.649-.129 3.773-.168 15.105-.168 13.184 0 14.32-.013 14.523-.22.216-.194.202-.246-.041-.647-.27-.44-.663-.686-1.271-.802-.406-.078-.541-.362-1.217-2.342-.379-1.1-1.88-6.78-2.353-8.863-.122-.53-.284-1.19-.351-1.462-.082-.271-.284-1.151-.46-1.94-1.271-5.732-3.029-12.719-3.678-14.582-.717-2.044-1.217-2.743-2.11-2.95-2.055-.478-5.233-.168-9.763.984-3.151.802-3.8.996-8.735 2.561-2.786.88-5.152 1.605-5.233 1.605a1 1 0 0 0-.406.129c-.406.22-2.231.919-3.002 1.165-1.149.349-1.582.413-1.69.258-.054-.077.013-.763.148-1.526.352-2.058.352-5.9 0-6.948-.851-2.51-2.582-3.753-6.531-4.723-.351-.077-.581-.22-.581-.323 0-.207.378-1.475 1.136-3.856.554-1.734 1.419-4.515 2.379-7.595.393-1.242.947-2.988 1.217-3.881.284-.893.839-2.64 1.217-3.882.744-2.38 1.447-4.593 2.164-6.87l.433-1.358-.257-.518a49 49 0 0 0-.609-1.087c-.189-.323-.595-1.048-.919-1.617-.311-.57-.609-1.1-.676-1.164a22 22 0 0 1-.676-1.165 74 74 0 0 0-.92-1.617 269 269 0 0 1-2.218-3.882c-1.162-2.083-1.081-1.98-1.879-2.264a10 10 0 0 1-.866-.336c-.081-.052-.351-.13-.608-.181-.257-.052-.527-.143-.609-.194-.067-.052-.351-.143-.608-.195-.257-.051-.527-.142-.609-.194-.067-.051-.351-.142-.608-.194s-.527-.13-.609-.18c-.067-.053-1.406-.492-2.975-.984-1.555-.479-2.961-.919-3.11-.984-1.149-.413-6.423-1.875-8.383-2.302-2.124-.466-2.407-.518-3.489-.66-2.204-.272-4.138-.117-4.409.362-.067.116-.121 4.425-.135 9.794-.027 8.358-.054 9.885-.284 12.097-.148 1.385-.365 3.015-.487 3.623a81 81 0 0 0-.324 1.682c-.473 2.536-2.583 7.427-3.692 8.565-.622.647-1 .647-1.636-.025-.514-.544-.554-.647-.378-.841.243-.26.878-3.196 1.041-4.788.054-.427.135-1.074.203-1.423.067-.362.162-.867.202-1.126.068-.388.203-.556.758-.931 1.122-.79 1.217-1.01 1.19-3.183-.014-1.242.054-2.2.189-2.846.108-.53.338-1.67.487-2.523.162-.854.324-1.695.351-1.876.528-2.627 1.014-7.078 1.014-9.187 0-1.914-.311-4.153-.757-5.304-1.054-2.82-4.002-5.318-8.167-6.922-2.34-.906-6.41-2.019-8.587-2.342-.216-.039-.865-.142-1.42-.246-1.095-.194-4.638-.608-7.234-.84-4.07-.363-13.982-.48-21.365-.247m11.967 4.024c.013.09.013 1.087 0 2.2l-.014 2.031.352.22c.257.155.527.194 1.122.142.419-.039 1.528.013 2.461.104.933.103 2.732.271 3.989.388 7.113.634 9.736 1.294 12.887 3.247 2.164 1.346 3.394 2.381 4.774 4.037 1.528 1.824 2.204 3.338 2.204 5.007.013.867-.041 1.165-.352 1.786-.798 1.63-2.407 2.73-5.355 3.648-1.298.414-1.555.453-1.744.31-.189-.154-1.122-1.927-2.015-3.829-.554-1.177-.595-.931-.595 3.196 0 3.053-.041 3.881-.176 3.881-.094 0-.473-.233-.838-.53-1.542-1.23-2.853-1.591-6.477-1.863-1.528-.104-3.151-.285-3.624-.401a25 25 0 0 0-1.055-.22c-.135-.013-.703.918-1.758 2.91-.852 1.618-1.65 3.041-1.771 3.158-.217.194-.23.194-.311-.026-.109-.362-.717-3.765-1.028-5.745-.149-.957-.298-1.953-.338-2.2-.352-2.16-.5-3.091-.555-3.363-.04-.181-.148-.764-.256-1.294s-.311-1.553-.46-2.277c-1.055-4.968-1.366-9.212-.879-12.11.257-1.566.473-2.11.973-2.355.447-.246.839-.259.839-.052m50.979 15.1c4.76.944 8.478 3.35 11.21 7.258a20.3 20.3 0 0 1 2.38 4.45c.689 1.76.838 1.682-2.84 1.747-2.272.026-3.205 0-4.286-.181-2.962-.466-5.22-1.281-7.343-2.652-1.542-.997-3.354-2.847-4.016-4.076a15 15 0 0 0-.419-.776c-.798-1.398-1.434-3.623-1.488-5.227l-.027-.725.676-.09c1.231-.156 4.787 0 6.153.271m-93.51-15.512a65 65 0 0 1-2.164.518c-.365.077-1.095.258-1.622.4-.514.143-1.799.48-2.84.751-4.151 1.087-13.035 3.83-13.86 4.27-.122.064-.419.155-.676.207s-.555.142-.677.207c-.108.064-1.325.517-2.704 1.009-3.313 1.19-8.803 3.273-10.75 4.088-.217.09-.541.207-.69.246-.5.143-.717.492-.744 1.242-.04.984.19 1.553 1.177 2.963.473.66.865 1.281.865 1.346 0 .077.122 1.138.271 2.355.365 3.053.676 6.132.676 6.818 0 1.126-1.488 1.022 14.807.97 14.09-.038 14.496-.038 15.348-.297 2.826-.854 4.381-2.38 5.233-5.163.203-.711.23-1.76.27-11.553.054-10.274.041-10.765-.189-10.752-.135.013-.906.18-1.731.375m392.144 2.317c-2.015.802-2.421.996-6.356 2.872-2.082.996-3.867 1.902-3.962 2.018-.121.168-.162 4.697-.135 21.956l.041 21.75 1.825.09c1.001.052 3.895.181 6.423.298 6.369.285 11.792.53 17.052.79 2.461.129 4.584.18 4.706.141.203-.077.216-1.695.216-20.623V35.109l-.338-.363c-.189-.194-.892-.698-1.569-1.125-1.176-.764-4.273-2.588-4.381-2.588-.027 0-.351-.168-.716-.375-4.301-2.42-9.953-4.813-11.319-4.787-.148 0-.811.22-1.487.492m39.217 1.888c-1.23.168-3.137.479-4.259.712-.338.064-.784.155-1.014.18-.703.117-2.394.44-3.313.635-.487.103-1.217.259-1.623.336-2.975.595-3.475.893-3.881 2.394-.284 1.087-.284 1.216-.121 18.85.081 8.76.067 12.02-.055 12.874-.081.634-.446 2.316-.811 3.74-.892 3.48-.987 4.127-.906 5.744.068 1.618.352 2.342 1.244 3.196.649.621 1.298.854 3.056 1.1 1.663.233 6.788.038 10.331-.388.595-.078 2.61-.311 4.463-.53 1.866-.22 4.11-.48 5.003-.583 3.975-.453 6.166-.608 9.087-.634 1.731-.013 3.178-.065 3.218-.104.054-.038.095-30.547.068-40.47 0-.246-.365-.13-.744.258s-.919.505-1.082.259c-.04-.078-.203-.13-.338-.13-.243 0-3.867-1.694-5.138-2.406a90 90 0 0 0-1.555-.854l-1.42-.79c-.257-.141-1.352-.724-2.434-1.293a70 70 0 0 1-2.096-1.113c-.162-.116-1.406-.62-2.299-.944-.757-.259-1.582-.272-3.381-.039M.172 34.5c-.135.09-.162 1.927-.135 9.483l.04 9.367.433 1.203c.514 1.41 1.028 2.187 1.974 3.028 1.447 1.268 3.53 1.902 6.464 1.954l1.812.026.054-.647c.068-.932-.23-7.699-.473-10.675-.474-6.055-1.041-9.91-1.772-12.097-.5-1.514-.879-1.63-5.111-1.708-1.704-.026-3.191 0-3.286.065m302.541 1.528c-1.082.168-3.962.931-6.774 1.798-1.718.53-3.192.97-3.286.97a1.2 1.2 0 0 0-.392.117c-.595.298-6.302 1.708-10.237 2.536-1.257.259-2.664.556-3.11.647-.947.207-4.138.776-5.679 1.022-7.83 1.242-12.752 1.889-20.622 2.73-1.082.116-2.718.285-3.651.388-.933.09-2.664.272-3.854.388-1.19.117-2.65.26-3.245.324-.595.077-1.961.22-3.043.323-1.081.104-2.569.259-3.313.337-1.92.207-5.598.207-10.209-.013-9.182-.44-12.67-.156-14.252 1.177-.663.57-.798.867-1.096 2.575a17 17 0 0 1-.514 2.005c-.838 2.549-1.406 5.952-1.785 10.739-.486 6.016-.054 11.088 1.042 12.42 1.095 1.333 5.517 1.98 11.886 1.734 3.38-.129 7.735-.789 9.249-1.397 2.664-1.06 3.529-1.837 4.611-4.127.271-.544.528-1.087.595-1.19.054-.117.149-.402.203-.647.054-.246.149-.53.203-.647.351-.634 1.203-5.434 1.42-7.957.216-2.588.649-5.202 1.041-6.405.527-1.617 2.975-6.133 3.272-6.042.095.026.163.854.19 2.238.04 2.096-.136 4.529-.582 8.139-.554 4.528-.879 8.668-.879 11.165 0 2.937.514 6.599 1.123 8.048.405.983.554 1.28.865 1.876 1.041 1.928 2.975 3.61 5.057 4.399.474.181.987.388 1.136.44 2.299.944 5.369 1.242 7.018.673 1.204-.414 1.839-.816 2.732-1.721 1.23-1.268 2.299-3.468 2.975-6.185.338-1.345.554-2.47 1.014-5.24.622-3.907.622-3.881 1.122-6.288.528-2.497.663-2.937 1.109-3.622.514-.79 1.69-1.126 1.866-.53.203.71.216 2.108.027 3.725-.284 2.33-.717 4.283-1.758 7.815-1.311 4.464-1.839 7.038-1.839 8.992 0 .634.473 2.6 1.352 5.628.244.815.474 1.605.501 1.747.419 1.514 1.284 4.321 1.406 4.516.284.465-.095.44-.825-.052-1.19-.79-3.407-2.122-3.921-2.342-.257-.117-.812-.35-1.217-.543-2.651-1.178-5.815-1.682-7.816-1.243-3.327.725-5.666 3.752-7.059 9.083-.635 2.42-1.23 6.081-1.893 11.606-.365 2.976-.649 5.059-.811 5.822-.379 1.798-.703 3.636-.649 3.7.04.026 6.626.052 14.631.052 10.709 0 14.644-.039 14.861-.155 1.095-.544 1.866-2.743 2.123-6.055.27-3.468.108-7.505-.352-8.837-.46-1.346-1.338-2.627-3.056-4.516-1.595-1.733-2.001-2.316-2.001-2.833 0-.57.108-.893.311-.893.068 0 .473.155.892.35.568.258 1.028.362 1.853.4 1.798.091 2.475-.349 4.814-3.156 1.704-2.045 2.88-3.054 2.61-2.252-.447 1.346-1.15 7.479-1.42 12.486-.325 5.951-.812 10.234-1.515 13.456-.432 2.005-.432 1.966-.162 2.109.527.258 2.245.543 3.286.543 2.218 0 4.327-.699 7.397-2.471a29 29 0 0 1 2.163-1.113c.92-.427 1.231-.492 2.204-.543 1.461-.052 2.083.129 2.786.815 1.001.996 1.041.996 10.48.957l8.181-.039.013-15.655c0-11.437.041-15.746.163-16.005.108-.245.311-.388.662-.478.284-.078.636-.22.784-.324.257-.18.257-.22.068-.556-.162-.285-.352-.388-.879-.479-.379-.065-1.866-.427-3.313-.802-3.854-.996-6.396-1.553-8.857-1.928a172 172 0 0 1-1.623-.259 101 101 0 0 0-2.028-.194c-6.139-.491-9.56.414-10.912 2.886-.244.44-.311.84-.366 2.096l-.081 1.54-.541.116c-.946.18-2.15.491-2.434.608-1.785.75-2.136.815-2.041.35.743-3.313.96-5.332.96-8.825 0-2.937-.041-3.584-.311-5.11-.176-.958-.379-1.825-.46-1.915-.108-.117-1.055-.156-3.881-.156-3.056 0-3.881-.038-4.489-.207-1.61-.452-2.34-1.138-2.786-2.613-.203-.647-.23-1.67-.284-8.048-.041-7.75.041-9.406.527-10.467.352-.776.731-1.151 1.461-1.449 1.095-.466 1.69-.53 4.935-.62l3.246-.078.162-.906c.095-.505.27-1.488.406-2.2.392-2.264.392-2.264.987-2.264.784 0 1.65.492 2.556 1.45l.311.323-.23 1.54a77 77 0 0 0-.244 1.798c-.013.258.095.258 13.752.323 10.075.052 13.807.026 13.901-.078.081-.09.068-.517-.013-1.1-.081-.53-.23-1.72-.338-2.639-.419-3.596-.501-4.179-.757-5.434-.704-3.35-1.799-5.214-3.476-5.912-.635-.26-2.434-.414-3.34-.285M262.16 49.03c.013 1.294.081 1.526.906 2.704.419.608 1.92 2.07 2.488 2.42.162.103.311.271.311.362 0 .142-.297.88-.676 1.682-.568 1.177-.974 2.497-1.122 3.584-.176 1.436-.176 1.449-1.285.724-1.177-.776-1.812-2.018-2.164-4.205-.175-1.126-.189-1.772-.081-4.205.122-2.549.176-2.95.433-3.428.297-.557.798-.984 1.041-.906.068.026.135.57.149 1.268"/><path fill="#e5dfda" d="M503.246 37.528c-1.339.051-4.53.129-7.086.155l-4.665.051-.663 1.152c-.365.621-.906 1.578-1.217 2.109-.297.53-.879 1.553-1.284 2.264-.406.712-.988 1.734-1.285 2.264-.298.53-.69 1.23-.879 1.553-.568.97-.906 1.566-1.515 2.652-.311.57-.73 1.294-.919 1.618a259 259 0 0 0-2.529 4.463 34 34 0 0 1-.743 1.294c-.055.065-.447.764-.879 1.553-.433.776-1.096 1.94-1.461 2.587-.365.634-.892 1.54-1.149 2.006-1.231 2.212-1.582 2.82-1.88 3.26-.162.272-.311.53-.311.582 0 .208-.689 1.074-.798 1.01-.067-.026-.432-.66-.824-1.385-.393-.737-.758-1.397-.812-1.462-.149-.18-2.299-3.946-2.299-4.024 0-.025-.148-.271-.311-.543-.297-.453-.77-1.255-1.92-3.325-.27-.505-.554-.97-.608-1.035-.108-.13-.852-1.45-1.623-2.885-.311-.57-.487-.777-.581-.686-.082.078-.311.763-.501 1.527-.378 1.436-.771 2.755-.946 3.208a53 53 0 0 0-.609 1.812c-.27.854-.554 1.604-.608 1.682-.054.064-.149.336-.203.582s-.149.53-.217.647c-.216.362-1.73 4.839-2.082 6.145-.473 1.773-.636 3.093-.473 3.92.148.751.987 2.55 1.663 3.559.243.375.622.931.838 1.255 1.271 1.928 3.584 4.49 4.706 5.201.514.323.676.362 1.785.362 1.406 0 5.139-.194 7.775-.388 10.25-.776 11.697-.944 12.833-1.565 1.082-.583 2.502-3.054 3.205-5.564 1.176-4.218.892-7.97-1.231-16.354-.108-.427-.378-1.54-.608-2.458-.23-.932-.473-1.915-.541-2.2-.081-.284-.27-1.242-.433-2.135-.405-2.173-.432-5.925-.054-7.31q1.014-3.687 4.057-3.687c.527 0 .919.065.973.155.055.078.095.738.068 1.45a22 22 0 0 0 .122 2.535c.135 1.19.879 4.334 1.082 4.593.054.065.148.337.202.582.054.246.149.505.203.583.054.064.176.362.271.647.216.672 1.19 3.247 1.419 3.752.095.207.284.737.406 1.164.135.427.284.893.338 1.035.068.143.338 1.126.609 2.2.743 3.002.879 3.428 1.325 4.295.798 1.592 2.65 2.924 5.368 3.882.487.168 1.001.362 1.15.427.148.064.703.233 1.217.388.527.155 1.041.323 1.149.388.122.052.419.142.676.194s.541.142.609.194c.081.052.351.142.608.194s.555.143.676.207c.284.156 2.651.815 4.26 1.204 2.258.543 3.083.634 5.057.569 1.488-.052 1.961-.117 2.502-.35 1.325-.556 2.65-1.953 3.123-3.273.122-.31.257-.673.325-.815.663-1.423.987-4.761 1.231-12.744.148-4.62.027-9.29-.271-10.35-.108-.389-.352-.596-1.596-1.385-1.879-1.19-3.245-1.98-5.503-3.144a98 98 0 0 1-1.555-.828c-1.177-.686-2.813-1.061-5.382-1.242-2.096-.143-7.153-.13-10.777.026m30.034 5.266c-.027.038 0 .427.054.854.068.426.217 1.798.325 3.04.73 7.698 1.055 10.493 1.433 12.162.068.323.162.79.189 1.035.109.673.744 3.144.893 3.377.068.116.162.427.203.686.054.258.148.504.216.543s.122.155.122.272c0 .4 1.149 2.691 1.893 3.778 1.271 1.824 3.705 3.972 4.138 3.623.135-.104 1.582-2.381 3.029-4.775.284-.465 1.19-1.953 2.028-3.299.838-1.359 1.744-2.834 2.028-3.3s1.19-1.953 2.029-3.298a854 854 0 0 0 2.069-3.364c.297-.505.906-1.475 1.352-2.174l.798-1.281-.095-2.083c-.162-3.597-.189-3.895-.365-4.102-.108-.103-.636-.336-1.19-.504s-1.136-.35-1.285-.414c-.432-.155-1.987-.375-3.38-.466-1.325-.078-3.827.09-6.558.44-.852.104-2.583.194-3.854.207-2.488 0-3.773-.181-5.247-.737-.419-.169-.798-.272-.825-.22m24.701 1.798c-.041.09.027.35.135.583a7 7 0 0 1 .297.711c.054.168.176.285.298.259.243-.052 1.041-1.398.892-1.54-.203-.168-1.555-.194-1.622-.013m-359.22 3.972c-.068.065-.109 5.175-.109 11.373.014 9.678.041 11.23.203 11.036.095-.142.23-.492.284-.776.135-.79 1.15-4.127 1.934-6.366.825-2.342 1.731-4.826 1.893-5.175.284-.595 2.177-5.978 2.786-7.88.189-.62.324-1.216.297-1.306-.095-.22-1.406-.544-2.867-.699-1.812-.207-4.313-.31-4.421-.207m398.13 22.565c0 8.474.054 15.422.108 15.461.189.104 4.138-.194 4.462-.336.879-.414 1.893-3.48 2.989-9.031.635-3.209 1-6.793 1.027-10.079l.027-2.782.514-.427c.69-.569 1.068-.556 1.677.065.46.466.757 1.164 1.028 2.38.067.35.378 2.925.622 5.28.865 8.37 1.987 11.85 4.597 14.167 1.38 1.216 3.651 2.148 6.207 2.536 1.487.233 6.464.233 9.06.013 1.92-.169 3.962-.634 4.963-1.126.202-.103.432-.194.5-.194s.798-.35 1.623-.79c6.382-3.35 10.466-7.75 10.493-11.269 0-1.125-.69-2.69-1.488-3.312-.851-.672-3.853-2.031-7.64-3.454a138 138 0 0 1-2.569-.97c-.365-.156-3.11-1.087-3.786-1.294-.298-.091-.595-.207-.676-.26-.068-.05-.352-.141-.609-.193s-.554-.143-.676-.207c-.365-.194-2.474-.738-3.854-1.01-1.663-.323-4.178-.62-6.504-.789-5.301-.375-8.614-.815-10.182-1.358-.744-.246-2.029-.958-5.22-2.847-2.177-1.293-2.867-1.695-5.071-2.885-1-.543-1.271-.673-1.447-.673-.135 0-.175 3.17-.175 15.384"/><path fill="#e5dfda" d="M500.728 71.426c0 .026-.027.505-.054 1.074-.027.737-.108 1.19-.311 1.566-.365.672-1.379 1.552-2.366 2.044-1.42.711-2.069 1.526-2.691 3.415-.379 1.126-.406 3.351-.054 4.943.432 1.915 1.663 5.227 2.988 7.957.595 1.229.879 1.863.879 1.928 0 .026.176.427.392.88 1.122 2.38 1.907 5.058 2.583 8.836.973 5.46 1.271 6.625 2.109 8.294.771 1.565 2.34 2.82 3.976 3.183.973.207 3.286.271 4.57.116 1.718-.22 3.3-.53 3.611-.724.162-.091.662-.803 1.136-1.566.473-.776 1.42-2.316 2.109-3.416.676-1.099 1.596-2.587 2.029-3.299s1.338-2.199 2.028-3.299c.676-1.1 1.596-2.588 2.028-3.3.433-.711 1.339-2.199 2.029-3.299 2.393-3.894 2.745-4.463 3.029-4.981l.27-.518-.27-2.07a58 58 0 0 0-.46-3.105c-.108-.57-.217-1.216-.257-1.423-.365-2.368-1.312-4.904-2.339-6.34-1.136-1.591-3.043-3.066-4.841-3.752-3.273-1.255-5.125-1.462-13.861-1.578l-6.017-.078-.744-.479c-.406-.271-.865-.608-1.001-.763-.216-.233-.459-.35-.5-.246m5.95 10.053c.149.09.162.414.108 1.566-.041.802-.135 1.513-.189 1.565-.149.142-2.664-.517-3.286-.867a2.6 2.6 0 0 1-.717-.595c-.257-.323-.257-.362-.04-.673.284-.427.973-.711 2.244-.918 1.244-.207 1.636-.22 1.88-.078m3.597 3.377c.162.13.189.53.108 2.458-.041 1.333-.027 2.316.041 2.368.067.039 1.176-.285 2.474-.699 1.298-.427 2.421-.75 2.515-.711.081.026.257.427.379.88.122.44.392 1.306.581 1.914 1.339 4.14 1.447 5.758.474 6.65-1.407 1.294-4.774.065-6.491-2.367-.473-.66-1.231-2.083-1.231-2.277 0-.052-.094-.272-.202-.492-.23-.492-1.015-3.377-1.407-5.201-.148-.712-.338-1.5-.419-1.747-.257-.854-.324-.815 1.65-.88.906-.038 1.406 0 1.528.104M53.7 84.96v12.395l.608.414c1.217.815 1.744 2.16 1.528 3.907-.19 1.579-.92 3.325-1.745 4.244l-.392.427v8.384c0 7.012.027 8.41.19 8.539.243.194 3.096-.026 4.016-.297 1.514-.453 2.596-1.281 3.231-2.485.73-1.358 1.61-1.94 3.557-2.328 1.947-.389 3.015-1.152 4.381-3.144.717-1.01 1.92-3.546 1.934-4.037 0-.104.054-.246.108-.324.068-.064.257-.556.42-1.086a53 53 0 0 1 .418-1.23c.068-.142.244-.672.393-1.164.148-.505.473-1.604.73-2.458.419-1.385 1.014-3.455 1.717-5.887.135-.466.487-1.747.798-2.847 1.758-6.378 2.055-7.465 2.38-8.539.094-.323.405-1.371.676-2.329.27-.957.554-1.863.608-2.005.055-.143.244-.66.406-1.152.622-1.876.676-1.927 2.028-2.096 1.312-.168 2.259.427 2.921 1.85l.311.7-.324 1.383c-.379 1.579-.69 2.77-1.217 4.62-.203.711-.42 1.461-.474 1.681-.108.414-.608 2.122-1.433 4.917-.27.919-.54 1.85-.595 2.07a311 311 0 0 1-1.42 4.981c-.798 2.51-2.38 9.406-2.853 12.486-.338 2.109-.338 4.787 0 5.809.947 3.002 3.705 5.926 7.789 8.294 1.758 1.022 2.177 1.216 5.476 2.522.528.208 1.501.505 2.705.841 4.922 1.346 10.358 1.592 14.536.634 3.259-.737 5.991-2.108 8.154-4.101 2.096-1.941 3.759-4.477 4.354-6.689.879-3.248 2.218-13.676 3.097-24.13.433-5.136.514-6.314.622-10.13.135-4.451.095-4.723-.69-5.098-1.825-.893-4.759-1.695-7.694-2.096-3.881-.53-4.624-.53-18.052-.26-3.719.079-7.559-.103-9.682-.465-.406-.065-1.312-.207-2.015-.323a98 98 0 0 1-2.231-.389 155 155 0 0 0-2.366-.452c-1.88-.363-3.016-.634-11.291-2.588-8.952-2.135-14.591-3.364-15.362-3.364-.243 0-.257.388-.257 12.395m351.363-10.339c-.027.026-.054.13-.054.22 0 .143 3.123 5.253 3.394 5.538.054.064.622.013 1.298-.117.757-.155 1.839-.246 2.948-.246 1.731-.012 1.771-.012 2.704.427.528.246 1.19.609 1.488.79 1.203.776 2.434 1.32 3.38 1.488.649.116 4.571.077 6.491-.052 2.867-.207 4.976.155 7.37 1.242 4.259 1.954 8.032 5.693 10.601 10.519.406.75.866 1.682 1.028 2.07s.352.828.419.97c.203.492.649 2.2.784 3.131.257 1.579.176 2.368-.351 3.921-.216.621-.96 1.772-1.204 1.863-.081.026-.595-.44-1.149-1.048-1.433-1.592-2.718-2.795-3.286-3.08-.852-.439-1.109-.064-1.149 1.631-.014.66-.068.879-.23.944-.257.091-.433 0-.825-.44s-1.853-1.371-3.232-2.057c-.608-.298-1.339-.737-1.636-.97-.73-.608-1.352-1.89-1.677-3.494-.73-3.558-.892-3.946-1.852-4.45-.311-.169-.622-.272-.704-.22-.094.051-.135 3.648-.135 10.635v10.545l.798 1.319c.96 1.592 2.082 3.377 2.61 4.128.04.077.5.116 1.014.103.5-.013 3.205-.077 5.99-.142 5.423-.117 6.937-.259 9.06-.867 1.353-.375 2.813-1.061 3.611-1.669.892-.699 1.136-1.346 1.271-3.312.067-.932.27-2.368.446-3.196 1.433-6.495 1.623-13.107.541-18.256-.365-1.72-1.082-4.114-1.528-5.11-1.028-2.278-2.515-4.762-3.286-5.448-.622-.569-2.407-1.526-3.692-1.98-5.625-1.979-13.035-3.26-26.368-4.54-3.84-.363-14.726-.945-14.888-.79m-121.32.687c.081.479.446 1.85 1.068 3.856.635 2.044.595 1.98 1.109 1.889a45 45 0 0 1 1.92-.22c2.515-.246 7.058.207 13.116 1.307 4.449.815 7.762 1.203 9.777 1.138l1.65-.039.406-.452c.432-.48 1.244-2.019 1.757-3.3.163-.427.352-.867.406-.97.054-.117.149-.401.203-.647s.149-.53.216-.647c.217-.375.676-2.07.595-2.2-.054-.09-5.801-.129-16.186-.129h-16.091zm39.386-.222c-1.163.207-2.083.492-2.975.919-1.42.673-1.596.957-1.528 2.471l.041 1.152-.906 1.682c-1.677 3.105-2.34 4.89-2.489 6.689-.216 2.406.879 4.438 3.165 5.874 1.717 1.1 2.947 1.462 4.962 1.462 1.609 0 2.096.207 2.38.996.217.582.244 3.674.081 6.508-.108 1.656-.094 1.85.082 1.682.108-.104.919-1.307 1.784-2.653 2.042-3.182 2.137-3.299 2.34-3.299q.162 0 .162.621c0 .337.081 1.333.189 2.226.109.892.271 2.393.352 3.351l.176 1.733-.379.259c-.324.233-1.555 1.41-2.988 2.885-.406.414-.487.44-1.285.44-.608 0-.987-.077-1.298-.246-.541-.323-1.177-1.216-1.555-2.173-.514-1.333-.906-1.747-2.164-2.329-1.568-.738-2.339-.957-3.286-.97-.946-.013-1.514.22-2.163.892-.893.932-1.204 2.911-1.001 6.444.257 4.631 1.204 7.116 3.083 8.008 1.15.557 1.893.634 4.598.544 1.393-.039 3.827-.117 5.422-.168l2.921-.078.23.505c.135.271.473.646.744.828.473.31.595.323 2.461.323 1.879 0 4.435-.246 4.881-.466.23-.116.69-1.501.933-2.756.081-.504.136-4.916.136-12.511V94.196l-.501-.31c-.284-.156-.743-.414-1.027-.557-1.312-.685-2.191-1.591-2.556-2.626-.46-1.32-.244-7.026.284-7.57.284-.284 1.677-.504 2.853-.452l.879.039-.041-.673c-.04-.854-.486-2.536-.852-3.209-1.054-1.94-2.839-3.17-5.327-3.661-1.366-.259-9.506-.337-10.818-.09m9.29 6.754c.297.259.311.479.027.737-.365.363-.595.26-.595-.284 0-.699.148-.815.568-.453m205.647-6.779c-.257.077-.743.414-1.081.737-.92.88-1.339 1.837-2.015 4.671-.095.44-.325 3.222-.352 4.438 0 .233.338.22.433-.013.054-.13.541-.957 1.095-1.85a409 409 0 0 0 1.515-2.459c.284-.465 1.095-1.785 1.812-2.936.716-1.14 1.298-2.148 1.298-2.226s-.162-.168-.365-.22c-.217-.039-.595-.13-.852-.194-.582-.142-.879-.13-1.488.052m112.523.632c-.203.453-.46 1.048-.555 1.333-.094.285-.216.57-.27.647-.054.065-.149.272-.203.453-.203.686-1.217 3.208-1.623 4.075-.459.958-1.447 2.135-3.718 4.4-3.841 3.829-4.977 5.24-6.153 7.594-.825 1.67-1.866 4.567-2.285 6.379-2.015 8.617-2.123 8.992-2.935 10.635-.757 1.54-1.054 2.342-1.149 3.105-.162 1.255-.703 1.229-1.149-.065-.555-1.617-.933-2.083-1.731-2.096-.622 0-1.826.647-2.772 1.501-.663.595-.825.686-.92.518-.081-.13-.013-.427.203-.88.176-.375.379-.828.433-1.009s.175-.505.284-.712c.094-.22.581-1.41 1.068-2.652s.946-2.381 1.014-2.523.527-1.281 1.014-2.523.947-2.381 1.014-2.523.528-1.281 1.015-2.523.946-2.38 1.014-2.523c.203-.414 1.217-2.963 1.217-3.066 0-.233-1.542-.518-3.11-.583-1.934-.077-4.476.207-7.1.79-2.19.491-2.799.62-4.597.97-2.934.582-3.205.608-3.624.246-.203-.168-.771-.906-1.258-1.656-1.284-1.954-2.163-3.028-3.407-4.166-1.136-1.048-1.893-1.488-3.124-1.838-2.704-.763-5.842.738-7.288 3.48-.785 1.489-1.001 2.563-1.069 5.513-.081 2.859-.027 3.35.798 8.979.392 2.743.406 2.95.325 5.848-.109 3.532-.027 4.114.622 4.256.23.039.973.039 1.649-.012 1.217-.078 1.244-.078 1.718.284.757.582 1.744 1.695 2.664 3.028.473.673 1.068 1.358 1.325 1.526.446.298.527.311 2.258.233 1.798-.064 3.097-.284 5.571-.918 1.812-.466 4.652-1.385 5.788-1.876.514-.22.987-.401 1.054-.401s.082.375.041.892c-.108 1.048-.013 1.462.379 1.812.676.608 2.244.427 4.705-.531 2.34-.918 2.367-.918 2.164.414-.311 2.019-.068 3.3.676 3.726 1.379.803 5.247 1.255 14.807 1.734 3.692.194 24.124.233 24.232.065.041-.065.014-.246-.068-.388-.297-.595-1.068-3.882-1.582-6.689-.23-1.307-.622-4.865-.743-6.922-.082-1.385-.136-8.889-.136-18.424 0-8.85-.027-16.122-.067-16.16-.041-.04-2.15-.078-4.706-.09-3.029-.014-4.949-.079-5.571-.182-1.42-.246-3.124-.634-4.287-.996-.568-.169-1.136-.31-1.257-.31-.122 0-.365.323-.595.801m-26.247 39.928c0 .129-.757.673-.947.673-.23 0-.148-.272.176-.531.298-.246.771-.336.771-.142M225.635 79.823c-2.745.168-8.506.919-11.697 1.54-1.636.31-4.273.944-4.395 1.048-.067.064-.23.116-.351.116-.636 0-3.151 1.566-4.071 2.523-.608.634-.919 1.605-.919 2.834 0 1.85.135 2.057 1.487 2.341.257.052.541.143.609.195.081.051.351.142.608.194.257.051.541.142.609.194.081.051.365.13.649.18.636.117.649.363.014.583-2.691.932-4.72 6.624-5.396 15.151-.338 4.269-.216 6.585.406 7.776.906 1.682 3.732 3.454 7.532 4.696 1.257.414 3.84 1.1 4.976 1.32 1.65.336 3.042.582 4.259.763.677.104 1.366.22 1.556.259 1.081.207 5.665.311 10.615.22l5.544-.09-.068-.518c-.095-.75-.081-3.636.027-4.464.392-3.066 1.461-6.948 4.03-14.749.432-1.32.825-2.536.879-2.717.04-.181.135-.44.203-.583.162-.362.851-2.69 1.298-4.399.257-.996.378-1.772.378-2.587.014-1.126-.013-1.204-.568-2.277-.541-1.048-1.649-2.459-2.731-3.494-2.326-2.225-5.882-4.463-8.749-5.499-1.866-.672-3.11-.776-6.734-.556m-8.168 13.443c.068 0 .365.22.676.479.704.608 1.217 1.604 1.61 3.13.257 1.036.365 1.243.757 1.54.96.725 1.825.738 2.339.052.135-.194.419-.815.622-1.384.636-1.76.974-2.264 1.501-2.264.176 0 .365.103.446.22.068.129.19 1.164.284 2.303.366 4.489-.419 7.258-2.271 7.957-1.042.388-2.826-.738-4.003-2.51-1.42-2.122-2.191-4.386-2.596-7.582-.176-1.359-.176-1.734-.041-1.89.095-.103.257-.154.352-.116.108.04.257.065.324.065m580.839-11.618c-.595.22-1.69.608-2.434.867l-1.352.465-17.985.04c-21.892.038-30.384-.105-40.229-.687-1.744-.116-3.596-.194-4.124-.194-.514 0-1.19-.064-1.487-.13-.352-.077-.595-.064-.676.014-.082.077-.163 5.382-.217 15.099-.054 12.86-.108 15.254-.297 16.975-.325 2.833-.839 5.731-1.379 7.776-.447 1.708-1.488 4.839-1.691 5.097-.054.065-.149.272-.203.453s-.284.686-.513 1.139c-.501.983-.447 1.061.851 1.384 1.272.324 3.962.44 11.427.531 6.788.077 20.013-.181 24.137-.466 2.745-.194 4.706-.479 5.193-.751.689-.388 1.257-1.436 1.392-2.587.163-1.423.109-6.715-.081-8.242-.094-.711-.243-2.057-.351-2.976-.108-.931-.298-2.471-.406-3.428-.73-5.939-1.082-12.227-1.082-19.408 0-4.942.054-5.395.69-5.964.311-.285.446-.31 1.379-.285 1.691.052 1.582-.065 1.582 1.553 0 .815.081 1.669.19 2.044.189.634.987 2.73 1.23 3.234.514 1.074.555 1.63.528 7.285-.028 3.48.027 6.055.121 6.948.095.776.217 2.354.298 3.493.27 4.166 1.122 12.278 1.501 14.232.757 3.959 1.176 5.408 1.812 6.197l.365.466 11.048-.026 11.034-.038.284-2.006c.351-2.432.662-5.615.933-9.29.162-2.225.203-6.21.203-20.985V81.234l-.298.013c-.176.012-.798.18-1.393.4"/><path fill="#e5dfda" d="M422.921 95.516c-.392.893-1.73 2.342-2.663 2.886-.217.129-.379.297-.379.4 0 .156 3.61 6.069 4.895 7.997.284.426.514.828.514.866 0 .052.203.401.446.777.663.996 1.393 2.186 1.488 2.458.054.129.162.194.243.155.081-.052.095-.181.054-.31-.189-.453-3.989-15.1-3.989-15.384 0-.44-.392-.35-.609.155m174.17 24.364c.094 2.2.419 6.159.689 8.32.108.892.23 1.902.271 2.264.108 1.087.459 3.338.595 3.92.081.298.135.673.135.841 0 .634.203.66.811.143 1.366-1.178 2.015-2.73 2.123-5.033.176-3.83-1.284-8.152-3.894-11.541-.298-.376-.595-.686-.676-.686s-.108.634-.054 1.772m-102.97 2.121c-4.26.233-10.453.802-14.604 1.345-.852.117-2.164.285-2.908.388-1.879.246-4.638.647-6.085.906-.662.117-1.798.285-2.501.388-.704.117-1.366.272-1.461.375-.365.35-.487 2.187-.311 4.671.135 2.044.406 4.27.609 5.046.04.142.162.751.284 1.359.27 1.41.946 4.114 1.609 6.469 1.893 6.792 2.488 9.315 3.083 13.197.406 2.626.433 7.297.068 9.509-.203 1.204-.217 1.437-.055 1.553.406.285 5.558-.194 9.155-.841.406-.078 1.258-.22 1.893-.336a70 70 0 0 0 2.096-.376c.528-.09 1.461-.271 2.096-.388 1.258-.233 2.569-.491 3.922-.776.486-.103 1.636-.336 2.569-.53 2.217-.44 7.221-1.514 9.263-1.993.892-.207 2.542-.582 3.651-.841 1.122-.259 2.069-.517 2.136-.569.054-.052.095-7.479.095-16.509v-16.419l.527-.841c.284-.466.92-1.488 1.406-2.277.609-.997.852-1.475.771-1.618-.121-.22-3.394-.672-6.626-.905-2.082-.143-7.761-.143-10.682.013m-291.706 1.617a7.2 7.2 0 0 0-2.286.97 4.5 4.5 0 0 1-.879.402l-.527.168-.068 20.869c-.054 15.85-.027 20.908.095 20.999.189.155 1.92.336 4.976.505 1.271.064 3.178.181 4.26.258 1.082.065 3.299.22 4.936.324 1.636.116 3.88.259 4.976.336 2.244.168 2.339.143 2.758-.789 1.109-2.484 1.474-7.401 1.339-18.178-.095-7.22-.135-6.702.811-12.227.136-.815.23-2.083.23-3.17 0-1.695-.027-1.889-.433-3.027-.77-2.174-2.082-3.545-4.124-4.283-1.082-.401-5.314-1.578-7.383-2.07a49 49 0 0 1-1.663-.401 104 104 0 0 0-2.421-.505c-2.109-.427-3.367-.478-4.597-.181m249.244 1.217c-1.825.052-3.462.13-3.651.169-.189.051-1.339.181-2.569.284-1.231.104-2.894.272-3.719.388-.811.104-1.974.259-2.569.324-1.677.194-1.974.259-2.042.44-.041.09.27.711.69 1.384l.743 1.216v45.349l.352.078c.69.168 6.288-.052 7.965-.324 2.001-.31 3.083-.491 3.786-.66.297-.064 1.095-.245 1.758-.388 1.92-.427 3.421-.776 4.665-1.112.636-.169 1.514-.402 1.961-.518 4.503-1.177 5.855-1.85 6.599-3.312.473-.906.622-1.566.73-3.299.094-1.76-.041-2.653-.906-5.926-.365-1.359-.73-2.95-.798-3.558-.23-1.825-.825-8.708-1.163-13.456-.108-1.604-.27-3.869-.352-5.046s-.175-4.257-.216-6.857c-.04-3.571-.095-4.762-.23-4.891-.121-.116-1.082-.194-3.407-.285-1.772-.064-3.476-.116-3.773-.103s-2.028.065-3.854.103m160.647.026c-1.826.143-1.812.13-1.704 1.915.352 5.654 2.204 8.837 5.855 10.053.987.337 1.204.349 3.286.362 1.812 0 2.488-.051 3.584-.284 1.149-.246 3.975-1.087 4.868-1.462.148-.065 1.19-.414 2.298-.777 1.123-.362 2.421-.789 2.908-.97.487-.168 1.311-.44 1.825-.595.528-.155 1.014-.336 1.082-.388.081-.039.352-.13.609-.181a4.3 4.3 0 0 0 .676-.207c.108-.065 1.392-.505 2.839-.971 1.447-.478 2.745-.931 2.894-1.035.284-.181.311-.181-1.744-.453-1.569-.194-3.503-.582-5.815-1.164-2.204-.544-2.542-.634-5.071-1.346-3.894-1.099-6.68-1.798-7.775-1.966-.216-.026-.825-.13-1.352-.233-2.218-.427-6.18-.557-9.263-.298m-357.328 1.591c-.216.026-1.92.117-3.786.194-1.852.078-3.962.207-4.665.272s-1.893.181-2.637.246c-2.299.207-5.057.647-7.086 1.113-.797.181-.96.181-1.758 0a108 108 0 0 0-4.408-.854c-.811-.156-1.879-.35-2.353-.466-1.041-.233-1.149-.142-.892.711.622 2.019.595 7.893-.054 13.146-.474 3.752-1.38 10.881-1.501 11.709-.271 1.954-.541 5.939-.541 7.957 0 4.14.595 6.56 1.907 7.828 2.258 2.147 8.14 4.114 15.334 5.11 6.328.867 14.983.867 19.607 0 .528-.103 1.136-.207 1.352-.246 1.542-.22 4.868-1.216 6.356-1.902 1.947-.879 2.826-1.462 4.124-2.704 1.853-1.759 2.245-2.613 2.826-6.145.352-2.174.636-4.477.893-7.375.122-1.281.297-3.144.405-4.14.095-.997.136-1.889.082-1.967-.068-.116-.839-.181-2.786-.22-2.907-.052-3.637-.181-4.773-.815-.717-.401-1.177-1.074-1.488-2.148-.203-.724-.23-1.643-.23-9.083 0-8.189 0-8.293.298-9.186.162-.491.27-.918.243-.957-.081-.065-13.874-.142-14.469-.078m1.488 23.755c.527.078 2.069.181 3.448.233l2.502.077.04 2.278c.027 1.863 0 2.303-.162 2.432-.135.116-1.42.168-4.638.181-4.868.026-5.342-.026-6.924-.789-.73-.349-2.069-1.41-2.312-1.824-.068-.143-.041-.44.095-.828.257-.751 1.041-1.437 1.92-1.695.771-.22 4.665-.259 6.031-.065M62.692 127.423c-1.731.246-3.124.557-3.787.828a20 20 0 0 1-.879.337c-1.392.517-2.84 1.811-3.502 3.17-.852 1.733-.825.776-.825 24.518 0 17.104.04 21.607.176 21.697.081.065.893.259 1.785.414 1.84.324 2.407.427 6.315 1.242 1.541.324 3.516.764 4.395.984 2.353.569 6.558 1.669 6.869 1.798.149.052.757.233 1.352.388a70 70 0 0 1 2.096.595c1.163.35 3.719 1.113 6.288 1.889.974.285 1.853.57 1.96.621.123.052.42.143.677.195.257.051.54.142.609.194.08.051.351.142.608.194.257.051.54.142.609.194.08.052.351.142.608.194s.54.142.608.194c.082.052.352.142.609.194s.554.142.676.207c.203.104 1.542.505 1.677.505.04 0 .081-2.899.081-6.444 0-5.55.04-6.728.27-8.655.46-3.856.69-5.473 1.299-8.967.094-.608.243-1.513.324-2.005.068-.505.19-1.164.27-1.488a96 96 0 0 0 .406-2.07 820 820 0 0 1 2.434-11.645c.244-1.035.5-2.251.595-2.717.095-.465.406-1.876.676-3.156.284-1.268.474-2.329.447-2.355-.028-.026-.65-.143-1.393-.246-2.164-.311-5.45-1.165-7.018-1.824-.933-.389-3.002-1.346-3.38-1.566-.217-.129-.772-.427-1.218-.673s-2.028-1.19-3.516-2.096c-5.003-3.027-6.815-3.817-10.547-4.593-1.298-.259-1.826-.297-4.26-.297-1.96.013-3.245.077-4.394.245m9.33 11.127c.04.065.176.13.297.13.487 0 1.731.737 2.53 1.501 2.825 2.704 3.42 8.073 1.568 14.025-.163.53-.352 1.035-.42 1.112-.067.078-.824.182-1.703.22-.88.052-1.84.143-2.137.22-.825.194-2.582.156-3.407-.077-1.312-.363-2.245-1.54-3.083-3.869-.528-1.514-.623-3.545-.217-4.852.433-1.358.839-2.16 1.718-3.441.73-1.061 2.907-3.688 3.88-4.684.42-.414.812-.53.974-.285m579.971-6.779c-2.394.22-4.327.595-6.072 1.177-1.717.57-2.326.841-3.597 1.631-2.582 1.617-3.15 2.885-2.19 4.877.365.79.405.971.473 2.911.176 4.167.636 7.737 1.339 10.286.378 1.346.419 1.682.419 3.494 0 1.099-.081 2.471-.162 3.04-.19 1.178-1.042 5.318-1.244 6.042-.068.259-.244 1.449-.379 2.653-.284 2.393-.216 4.127.189 6.055.379 1.746.812 2.238 2.218 2.575a79 79 0 0 1 1.866.465c.73.194 1.406.259 2.691.259 1.42 0 2.109.078 4.097.453 2.718.53 4.246.815 5.22.97.378.065 1.379.246 2.231.388 1.812.337 1.609.298 4.462.634 4.841.57 8.019.647 11.832.272 2.732-.272 5.382-.867 5.612-1.294.068-.129.135-.582.135-.996 0-.867-.311-1.591-1.068-2.562-.852-1.087-.947-1.345-1.352-3.752-.987-5.719-1.488-11.541-1.501-17.014 0-4.903.635-12.188 1.352-15.448l.135-.647-1.46-1.32c-.798-.724-1.974-1.94-2.596-2.691-.906-1.087-1.217-1.384-1.555-1.436-.582-.091-4.896-.53-7.505-.763-5.68-.505-10.061-.583-13.59-.259M663.23 143.7c.081.052.297.311.487.569.175.272.54.621.784.777l.446.297.014 1.876c.013 1.773.04 1.928.419 2.782.5 1.151 1.487 2.588 2.623 3.817 1.515 1.643 2.11 2.367 2.623 3.183 1.163 1.863 1.19 3.907.055 6.132l-.298.583h-3.178c-2.285 0-3.259.051-3.475.155-.433.246-.608.931-.554 2.148l.04 1.061-1.825.103c-1.961.104-3.056.065-3.246-.116-.067-.065-.892-3.054-1.839-6.638-1.284-4.89-1.663-6.547-1.541-6.663.108-.091 1.041-.142 3.015-.142h2.867l.636-.35c1.014-.582 1.176-1.358.595-3.014-.677-1.915-1.353-2.342-4.841-3.041-1.637-.336-2.272-.711-2.543-1.501-.202-.569.027-1.19.46-1.28.284-.065 3.232-.35 6.031-.596.852-.077 1.623-.155 1.69-.181.23-.077.393-.064.555.039m-12.535 1.954c.216.129.243.75.04.944-.284.272-.568 0-.568-.543 0-.518.135-.634.528-.401m-529.253-12.539c-1.501.195-2.88.414-3.718.609-.825.194-3.029.853-3.516 1.073-.149.065-.852.324-1.555.596-3.3 1.229-6.139 2.885-7.803 4.58-.622.634-1.392 2.199-2.109 4.334-.555 1.604-.866 2.652-1.839 6.081-.649 2.29-2.529 9.833-3.124 12.615-.095.388-.257 1.087-.365 1.552a50 50 0 0 0-.379 1.747c-.108.492-.378 1.773-.608 2.847-.406 1.889-.757 3.622-.893 4.399-.04.207-.189.996-.324 1.746a72 72 0 0 0-.528 3.041c-.148.918-.337 2.122-.432 2.652s-.162 1.811-.176 2.847c-.013 1.72.014 1.94.311 2.587 1.244 2.678 3.921 4.839 8.262 6.65.636.272 1.339.57 1.555.66.406.169 3.002 1.01 4.381 1.424 2.529.737 7.803 1.85 11.427 2.406l1.893.285.311-.376c.527-.608 1.217-2.108 1.474-3.221.243-.996.257-2.264.257-31.117v-30.081l-.812-.013a15 15 0 0 0-1.69.077m-1.136 30.729c.717.349 1.312 1.009 1.704 1.941.325.75.406 1.449.257 2.303-.446 2.548-3.205 5.278-5.95 5.912-2.123.479-4.367-.595-4.962-2.38-.217-.673-.217-.764-.014-1.617.23-.867.865-2.122 1.515-2.937.662-.829 2.785-2.64 3.096-2.64.054 0 .257-.103.446-.233 1.123-.698 2.84-.854 3.908-.349m605.247-26.769c-.419.091-1.799.156-3.57.168l-2.894.013-.689.57c-.893.724-3.422 2.316-4.544 2.859-.487.233-1.46.634-2.163.893-.704.259-1.407.53-1.556.595a8 8 0 0 1-.811.233c-.297.065-1 .246-1.555.375-2.961.763-6.761 1.139-10.344 1.022-2.543-.065-3.462-.168-6.491-.647-2.258-.362-5.22-1.216-7.018-2.018-.46-.22-.676-.259-.785-.155-.216.207-.635 3.998-.649 5.783 0 1.669.298 5.913.541 7.776.081.634.325 2.406.541 3.933 1.15 8.203 1.271 9.626 1.177 13.456-.054 1.747-.149 3.455-.217 3.817-.365 1.785 1.298 3.623 4.246 4.722.446.156.933.337 1.082.401.46.194 2.826.738 4.084.958 3.407.582 5.679.75 11.102.802 3.245.039 5.976.013 7.031-.078 4.124-.336 4.868-.401 5.504-.53 2.488-.466 3.461-.699 4.097-.97.974-.427 1.149-.854 1.447-3.546.379-3.558.108-5.253-1.677-10.363-.243-.66-.487-1.436-.554-1.734-.068-.285-.163-.711-.217-.919-.311-1.345-.148-3.169.393-4.321.108-.233.189-2.148.243-6.029.04-3.131.122-5.952.189-6.275.392-2.213 2.88-7.621 4.679-10.196.216-.31.392-.582.392-.595 0-.142-.419-.142-1.014 0m9.804.569c-2.258.156-6.64.751-6.842.932-.027.039-.095 2.212-.136 4.839-.067 4.308-.054 4.981.203 6.844.149 1.139.365 2.51.473 3.041 1.028 4.968 1.163 5.848 1.163 8.164 0 1.992-.284 4.075-1.163 8.332-.108.569-.297 1.527-.405 2.135s-.257 1.423-.325 1.811c-.067.388-.162 1.967-.216 3.494-.081 2.911.054 4.735.379 4.929.094.065 1.149.116 2.339.116 2.055 0 4.341.156 8.519.583 1.041.103 2.813.284 3.921.388 1.123.103 2.881.284 3.922.388 1.041.103 2.502.246 3.245.323 1.718.169 4.693.363 8.005.518 5.342.246 9.804-.362 10.737-1.462.528-.634.974-2.523 1.298-5.589.217-1.98.244-3.908.244-18.813 0-14.633.027-16.625.203-16.703.108-.065.689-.298 1.284-.53s1.15-.466 1.217-.505c.081-.052.555-.22 1.055-.388.852-.259.946-.272 1.149-.091.149.155.163.246.054.375-.27.324-.473 1.915-.378 3.119.121 1.513.946 3.92 2.204 6.43.527 1.035 1.001 2.018 1.055 2.199s.148.376.202.453c.122.168.487 1.294.595 1.812.055.284-.081.685-.527 1.552-1.176 2.29-1.163 2.251-1.298 6.599-.149 5.253-.203 12.576-.095 12.679.163.155.474-.116 1.664-1.488 3.177-3.635 6.477-7.983 7.978-10.48a82 82 0 0 0 1.014-1.682c.541-.892 2.921-5.408 3.435-6.469a111 111 0 0 0 1.92-4.593c.324-.854.716-1.85.852-2.199.595-1.527 1.717-5.24 2.501-8.281.365-1.371.433-1.824.311-1.902-.094-.065-8.316-.103-18.282-.077-19.337.025-18.133.064-27.383-.622-3.15-.232-13.468-.349-16.091-.181m-108.249 2.897c-5.693.919-11.169 3.481-13.076 6.133-1.42 1.967-2.069 6.857-1.514 11.489.324 2.782.919 5.253 1.744 7.181 1.514 3.584 6.95 7.103 13.049 8.475 1.312.284 4.489.323 5.476.064 2.827-.763 4.017-2.341 4.422-5.874.23-2.018.19-12.045-.081-17.816-.122-2.523-.23-5.149-.257-5.835-.054-1.138-.081-1.281-.5-1.876-.487-.724-1.312-1.32-2.434-1.747-.649-.245-1.055-.284-3.246-.323-1.663-.026-2.866.013-3.583.129m-26.595 1.204c-.135.026-.243.129-.243.207 0 .324 1.798 6.301 2.014 6.689.068.117.163.401.217.647s.148.505.203.582c.054.065.256.583.459 1.152.392 1.087 1.204 3.131 1.501 3.765.108.207.311.673.447 1.035.148.349.324.634.378.608.257-.078-.203-4.477-.689-6.754-.284-1.281-.866-3.493-.961-3.648-.054-.065-.162-.427-.27-.79-.149-.53-.149-.828-.027-1.423.095-.53.108-.841 0-1.048-.162-.349-.838-.686-1.744-.841a19 19 0 0 1-.852-.181.8.8 0 0 0-.433 0m-304.994 6.999-11.67.026-.068.297c-.108.466-.595 4.334-.946 7.53-.108.996-.23 2.019-.271 2.264-.04.246-.162 1.876-.27 3.623-.298 4.464-.149 5.978.663 6.961 1.446 1.734 4.462 3.015 9.479 4.011 3.002.608 8.451.996 12.44.893 6.694-.169 10.899-.919 13.225-2.342.352-.22.636-.453.636-.531 0-.064.081-.271.175-.453.095-.181.284-.621.42-.97.459-1.229 1.744-4.27 2.123-5.072.216-.44.527-1.138.716-1.552 1.258-2.873 5.423-11.011 6.667-13.055.459-.738.784-1.462.689-1.54-.121-.116-10.831-.077-10.966.052-.108.104-.027 1.915.23 4.8.04.324-.014.854-.095 1.203-.122.518-.243.673-.757.997-.406.258-.703.362-.879.31-.582-.168-1.19-.918-1.907-2.329-.392-.776-.811-1.526-.946-1.643-.19-.194-.555-.22-2.813-.22-2.083 0-2.664-.039-2.894-.194-.311-.207-.717-1.19-.717-1.734 0-.517-.256-1.281-.446-1.332-.081-.013-5.409-.026-11.818 0m36.724.182c-.122.155-.311.582-.46.944-.135.35-.446 1.061-.703 1.579-.243.517-.446.97-.446 1.009 0 .052-.149.388-.325.75-.581 1.191-.973 2.058-1.974 4.296a158 158 0 0 1-1.217 2.717c-.122.285-.284.66-.338.841a8 8 0 0 1-.271.712c-.094.207-.243.556-.338.776-.216.53-1 2.807-1.284 3.752-.122.427-.325 1.035-.433 1.359-.108.323-.23 1.203-.27 1.966-.068 1.229-.041 1.488.23 2.2.162.452.473 1.048.689 1.345.893 1.242 2.772 2.536 4.841 3.325.568.207 1.15.427 1.298.492.419.168 2.718.725 3.895.957 3.772.738 8.681 1.1 11.71.854 1.082-.077 2.339-.22 2.786-.31l.811-.155v-22.513l-.311-1.203c-.176-.673-.5-1.592-.717-2.07-.568-1.178-1.839-2.368-3.191-2.963-1.704-.751-2.461-.841-8.438-.906l-5.355-.065zm8.938 1.255c.176.116.446.427.582.673.351.582 1 2.549 1.19 3.532.081.44.189 1.048.257 1.371.378 2.006.256 4.309-.257 5.279-.487.906-1.312 1.449-2.218 1.449-.568 0-1.636-.323-2.191-.647-.635-.375-1.379-1.345-1.649-2.186-.325-.984-.325-3.856.013-5.059.541-1.941 1.204-3.235 2.069-4.037.838-.789 1.46-.893 2.204-.375m165.986 16.782c-4.868.815-11.467 2.29-12.373 2.756-.121.065-.419.155-.676.207a4.4 4.4 0 0 0-.676.194c-.108.065-.5.207-.879.323-3.543 1.152-5.814 2.666-6.653 4.412-.527 1.126-.365 1.708.933 3.183.298.337.609.906.784 1.462.163.492.69 2.045 1.163 3.429.46 1.384.893 2.691.947 2.911.054.207.135.44.189.518.054.064.149.336.203.582s.162.53.23.647c.054.103.568 1.475 1.122 3.04 1.109 3.157 1.515 4.27 1.677 4.658.068.142.514 1.281.987 2.523l.879 2.264 3.124.039c2.691.026 3.313 0 4.408-.22 3.259-.66 5.22-2.523 5.896-5.615.257-1.126.27-1.85.27-14.232 0-7.181-.027-13.107-.067-13.171-.095-.143-.108-.143-1.488.09m-307.095 6.727c-.446.026-.946.078-1.109.117l-.311.064v9.29c0 5.227.068 9.704.136 10.247.54 3.921 2.934 6.146 7.193 6.65.731.078.798.026 1.069-.892.405-1.372.108-5.24-.433-5.822a.46.46 0 0 1-.122-.298c0-.142-1.014-2.588-1.487-3.584-.649-1.346-1.082-3.144-1.082-4.451 0-1.138.23-2.406.473-2.6.095-.078 1.826-.143 4.368-.156 3.299-.025 4.246 0 4.381.13.203.194.257 3.001.068 3.778-.189.802-.622 2.225-1.177 3.881-.622 1.825-.811 2.989-.54 3.3.094.103.459.271.811.375 1.42.401 2.082.892 2.556 1.889.446.944.311 2.445-.325 3.687-.176.349-.284.686-.216.751.135.129 13.765.129 13.995 0 .095-.065.406-.919.69-1.915.284-.997.69-2.42.892-3.17.622-2.161.758-2.653 1.407-4.981.689-2.536.798-2.899 1.622-5.693 1.015-3.416 1.109-3.597 2.002-3.83 1.122-.285 1.974.194 2.596 1.475.23.479.23.492-.392 2.911-.636 2.445-.812 3.066-1.839 6.56-.311 1.061-.622 2.109-.676 2.329-.217.789-1.258 4.425-1.515 5.291-.149.518-.216.932-.149.997.082.077 7.181.116 16.809.116 16.348 0 17.214-.026 16.97-.388-.027-.052 0-.582.068-1.177.108-1.023.365-3.895.676-7.919.081-.97.176-2.988.23-4.463.094-3.157.027-3.507-.744-3.83-1.001-.414-2.961-.996-4.016-1.19-3.624-.673-5.179-.764-10.777-.621-2.624.064-5.801.09-7.073.077-2.718-.052-6.504-.414-8.316-.802-.338-.065-1.095-.22-1.69-.323-.595-.117-3.935-.88-7.437-1.708-7.1-1.669-10.71-2.484-12.508-2.821-4.787-.906-7.654-1.229-11.224-1.281-1.677-.026-3.408-.026-3.854 0m277.212.26c-2.448.284-5.612.711-6.694.892-.554.091-1.622.272-2.366.388-.744.117-1.65.259-2.028.337-4.72.88-7.722 1.449-8.384 1.604-4.679 1.061-6.315 1.488-7.924 2.07-1.515.557-2.232 1.229-2.651 2.472-.175.543-.189.789-.067 1.474.297 1.605 1.731 3.856 4.056 6.34.541.57 1.042 1.178 1.096 1.333.135.336.703 3.765 1.027 6.236.136.919.271 1.967.325 2.329l.081.647 17.917.039c9.844.013 17.958-.026 18.012-.078.149-.142-.541-2.199-3.989-11.994-1.488-4.218-2.448-7.284-2.867-9.186a35 35 0 0 0-.352-1.488c-.067-.246-.175-1.125-.216-1.94-.041-.854-.149-1.527-.23-1.579-.23-.155-3.11-.091-4.746.104m-38.651 6.093c-.122.116-.149 1.72-.095 6.922.081 7.491.081 7.491 1.028 9.367.838 1.695 2.542 2.95 4.787 3.493 1.203.298 4.476.44 4.57.207.027-.103-.04-.53-.175-.97a580 580 0 0 0-1.299-4.296 24 24 0 0 0-.392-1.229c-.135-.336-.662-2.134-1.108-3.752-.879-3.196-.893-3.312-.636-6.663.203-2.665.27-2.549-1.663-2.846-2.056-.311-4.801-.44-5.017-.233m-151.879.427c-1.19.077-2.434.297-2.974.517-.149.052-.974.362-1.826.66l-1.555.569-4.057.065c-3.827.078-4.083.091-4.597.362-.649.337-1.015.595-1.015.738 0 .051-.094.271-.189.491-.825 1.695-1.528 8.76-1.406 14.064l.04 2.135 7.154.039c4.002.013 7.221-.026 7.288-.091.054-.051.108-1.41.108-3.001-.013-3.338.136-5.214.528-6.741.311-1.255 1.055-2.769 1.744-3.597.541-.66.676-.776.933-.776.149 0 .162.284.095 1.449-.095 1.436-.081 1.501.473 3.532.311 1.139.744 2.704.947 3.493.216.777.541 1.98.743 2.653.19.672.433 1.617.555 2.096.108.478.257.905.324.944.068.039 3.327.065 7.262.065 8.086 0 7.356.116 7.599-1.139.068-.401.257-1.294.406-1.966.149-.673.433-1.928.622-2.782s.365-1.617.392-1.708c.081-.194 3.137-1.63 3.3-1.54.067.039.162 1.838.216 3.985.068 2.368.162 3.985.243 4.076.203.246 1.758.207 2.313-.039.257-.116.568-.388.703-.595.257-.414.744-2.148.744-2.627 0-.465.513-1.746.879-2.212.757-.944 2.691-1.578 4.827-1.591.96-.013 2.515.233 3.151.491 3.123 1.268 5.219 2.989 7.288 5.965.419.608.758 1.164.758 1.255 0 .375.581.44 3.691.427 1.853 0 3.191-.065 3.286-.143.081-.064.189-.284.23-.478.027-.194.311-1.307.608-2.484.852-3.248.974-3.947 1.177-6.599.054-.608.149-1.177.23-1.268.189-.207 1.257-.194 1.447.026.108.129.148 1.32.148 4.076-.013 2.147.027 3.959.068 4.023.041.078.216.104.379.078.405-.091 2.312-.401 3.948-.66 1.677-.259 3.502-.582 3.516-.621.771-1.578.933-2.756.946-6.948v-3.687l-.878.039c-1.42.051-4.165.776-5.639 1.501-.487.232-.92.336-1.393.336-.771 0-1.109-.129-1.663-.647-1.19-1.1-2.867-1.281-12.062-1.294-7.708 0-10.737-.22-14.401-1.048-.704-.155-1.569-.31-1.921-.336-.865-.078-.946.103-.892 1.941l.04 1.449-.527.996c-.297.556-.581.97-.649.931s-.081-.465-.027-.944c.338-3.286-2.961-5.706-9.479-6.935-3.786-.725-10.94-1.203-14.199-.97m338.071 1.54c-.203.297 6.572 5.382 9.452 7.077 4.679 2.769 4.76 2.808 7.775 4.257 3.34 1.604 4.544 2.109 4.706 1.953.108-.103.095-.025.23-3.765.122-3.221.054-3.92-.406-4.437-1.42-1.618-10.006-3.765-19.472-4.878-.96-.117-1.853-.233-1.988-.272-.121-.039-.257-.013-.297.065m45.148 5.136c-1.582.129-4.625.207-8.681.22-5.774.026-6.261.052-6.505.259-.365.323-.459.88-.297 1.876.135.789.122.906-.325 2.212-.257.751-.568 1.76-.676 2.226-.216.905-.622 3.221-.622 3.545 0 .271.473.466 2.975 1.229 2.272.686 2.732.815 5.612 1.552 3.083.777 3.516.893 4.259 1.023.406.064 1.623.31 2.705.53 2.677.543 5.517 1.022 7.883 1.307 1.109.142 1.217.142 1.555-.104.717-.504 1.231-.685 1.961-.685.839 0 1.041.142 1.041.737 0 .569.149.621 2.637.802 4.976.375 8.235.518 8.411.375.095-.077.176-.375.176-.672.013-.57.865-6.392 1.028-6.935.054-.181.094-1.255.108-2.394l.013-2.07.92-1.281c1.217-1.695 1.203-1.798-.311-1.915-4.219-.297-6.045-.039-7.126 1.035-.704.686-.69.686-1.339-.556-.676-1.281-1.542-1.889-3.205-2.212-1.433-.298-8.992-.35-12.197-.104m32.589 1.461c-3.218.517-4.949 2.031-5.706 5.059-.352 1.423-.325 4.593.067 6.624.284 1.436.771 2.95 1.204 3.778l.203.375 3.326-.077c1.839-.052 4.124-.143 5.098-.22 7.451-.557 7.153-.531 12.305-1.178 3.016-.388 7.194-1.073 7.329-1.203.23-.22.298-1.941.217-5.33l-.081-3.908.757-.466c.838-.517 1.298-1.048 1.082-1.255-.068-.064-.514-.181-.974-.258-.46-.065-.947-.181-1.068-.233-.122-.065-.798-.363-1.474-.673-1.217-.531-1.258-.543-1.528-.311-.23.207-.271.402-.271 1.501 0 .764-.054 1.294-.148 1.346-.244.142-2.867-.401-6.207-1.294-2.569-.686-7.343-1.785-8.668-2.005-1.798-.298-4.462-.427-5.463-.272m-648.81.207c-.163.375.054 4.218.284 5.369.595 2.937 2.353 4.749 5.409 5.616.92.258 1.325.258 17.24.336 8.966.039 16.403.039 16.538.013.433-.078.23-.246-.54-.466-1.934-.504-7.695-2.225-8.02-2.393a4 4 0 0 0-.675-.194c-.257-.052-.528-.143-.609-.195-.068-.051-.351-.142-.608-.194-.257-.051-.528-.142-.609-.194-.068-.051-.351-.142-.608-.194s-.528-.142-.609-.194c-.067-.052-.351-.142-.608-.194s-.528-.142-.609-.194c-.067-.052-.352-.142-.608-.194-.257-.052-.528-.142-.609-.194-.067-.052-.352-.142-.608-.194-.257-.052-.528-.143-.609-.194-.067-.052-.352-.143-.608-.194-.257-.052-.528-.143-.609-.194-.067-.052-.352-.143-.608-.194-.257-.052-.528-.143-.609-.195-.067-.051-.352-.142-.608-.194a4 4 0 0 1-.676-.194c-.595-.297-8.357-2.523-11.59-3.325-2.609-.647-2.96-.724-5.787-1.307a71 71 0 0 1-2.136-.478c-.149-.065-.257-.013-.311.129m691.34 3.43c-1.149.065-4.989.142-8.519.194-3.529.039-6.436.104-6.463.13-.027.025-.081.388-.122.815-.095.957.243 2.096 1.176 3.985.393.763.731 1.669.812 2.16.094.466.243.88.338.919.23.078 7.478-1.915 9.06-2.51.149-.052 1.311-.466 2.569-.906 4.489-1.578 10.629-4.243 10.723-4.67.027-.156-.581-.182-3.718-.194-2.069-.013-4.706.025-5.856.077m-134.824 43.382c-2.703.852-6.055 5.161-9.7 12.5-.306.623-.563 1.152-.563 1.187s-.11.3-.257.599c-.489 1.037-.575 1.233-.783 1.809-.122.311-.269.622-.318.691-.049.058-.624 1.613-1.272 3.457-1.26 3.571-1.309 3.675-2.128 5-1.199 1.958-2.41 3.422-3.902 4.747-2.227 1.97-3.89 2.12-3.45.299.342-1.44 2.544-7.42 3.352-9.125.098-.196.318-.76.501-1.267.184-.507.404-1.083.489-1.267.771-1.694.906-2.777.429-3.445-.38-.519-1.444-1.037-2.557-1.221-1.284-.219-1.174-.358-2.251 2.73-1.113 3.191-1.553 4.217-2.96 6.89-.979 1.866-2.263 3.871-3.217 5-1.566 1.878-3.364 3.18-4.697 3.41-.575.104-.954-.219-.954-.806 0-.53.379-2.132.844-3.514.342-1.037 1.908-5.081 2.263-5.818.085-.196.269-.611.379-.922.122-.323.269-.634.306-.691.049-.07.293-.692.55-1.383.257-.703.502-1.325.563-1.382.171-.219.391-1.51.318-1.809-.269-.98-1.676-1.671-3.499-1.74-.88-.023-.819-.081-1.296 1.187-.392 1.06-2.447 5.795-3.12 7.2-1.174 2.478-1.761 3.365-2.605 4.021a5 5 0 0 1-2.288.98c-.856.126-.954.034-.611-.646.709-1.405.905-1.866 1.296-2.96.661-1.809 1.15-3.987 1.236-5.496.122-2.247-.343-3.537-1.554-4.309-.477-.3-.648-.334-1.406-.334-.747 0-.942.046-1.529.392-.771.437-1.432 1.06-2.055 1.924-.233.334-.441.61-.465.61s-.245-.184-.49-.403c-2.067-1.901-5.651-.219-8.611 4.032-1.37 1.971-2.74 5.116-3.327 7.604-.098.427-.159 1.452-.159 2.65 0 1.763.024 2.04.293 2.742 1.248 3.422 4.551 4.413 8.477 2.524 1.774-.853 3.89-2.627 5.419-4.54l.575-.726 1.37.035c1.419.046 2.043-.046 2.985-.461.281-.127.55-.207.599-.173.037.035-.012.346-.098.68-.208.795-.22 3.122-.012 3.744.392 1.245 1.59 2.235 2.838 2.374 1.81.207 4.184-.899 6.398-2.984.954-.899 2.165-2.247 2.165-2.42 0-.034.171-.219.367-.414.342-.312.44-.323.367-.035-.013.058-.098.403-.196.749-.355 1.359-.122 2.719.624 3.606.55.645 1.627 1.118 2.569 1.118 2.324 0 5.553-1.948 8.318-5.024.403-.438.783-.795.856-.795.061 0 .135.231.159.519.196 3.237 1.028 4.908 2.716 5.472 1.945.646 5.052-.576 7.633-3.007 1.639-1.544 2.764-3.387 2.764-4.528 0-.771-.073-.91-.624-1.163-.795-.392-.88-.346-1.761.922-.905 1.313-2.226 2.638-3.009 2.984-.612.288-1.358.311-1.615.069-.526-.484-.575-2.086-.147-4.609.269-1.59.367-1.82.954-2.281 1.016-.783 3.23-2.926 4.526-4.401 5.26-5.922 8.906-14.206 7.915-18.031-.208-.829-.844-1.728-1.444-2.051-.685-.357-1.798-.484-2.483-.276m.795 4.124c.159.058.196.254.196.934 0 .484-.049 1.06-.11 1.29-.379 1.371-.648 2.293-.746 2.489-.061.126-.233.518-.367.864-.135.345-.306.737-.367.864s-.355.726-.649 1.325c-1.027 2.12-2.911 4.942-4.599 6.901-.514.588-1.089 1.279-1.297 1.521-.367.449-.672.576-.672.288 0-.081.281-.956.623-1.924 2.178-6.187 5.077-12.098 6.875-13.987.587-.622.734-.703 1.113-.565m-45.015 14.517c0 .749-.061 1.705-.147 2.12-.318 1.717-.832 3.261-1.064 3.191-.074-.034-.122-.841-.11-2.166.012-1.958.036-2.2.342-3.156.331-1.026.612-1.487.857-1.406.085.023.134.53.122 1.417m-3.596-.265c0 .081-.147.657-.331 1.291-.293 1.048-.318 1.348-.33 3.283 0 1.844.037 2.247.257 2.996.318 1.071.575 1.739.783 2.039.122.196.073.311-.392.91-1.761 2.258-3.657 3.341-4.966 2.823-.648-.254-.942-.922-.991-2.27-.122-2.834 1.15-6.279 3.266-8.906.746-.922 2.263-2.316 2.532-2.316.098 0 .172.07.172.15m138.964-18.355c-2.023.633-4.388 2.88-6.704 6.417-.755 1.152-2.95 5.08-2.95 5.299 0 .035-.182.449-.414.922-.219.46-.634 1.359-.914 1.993-.28.633-.585 1.301-.671 1.497-.097.185-.426.968-.743 1.728-.317.761-.646 1.532-.731 1.728-.086.185-.329.841-.549 1.44-.219.599-.439 1.141-.487 1.21-.049.058-.183.369-.305.691-1.109 2.892-4.303 6.832-6.546 8.076-1.365.749-2.169.783-2.169.092 0-.518.512-2.292.853-2.984.061-.126.305-.702.548-1.267.244-.576.488-1.094.549-1.152a1.7 1.7 0 0 0 .183-.403c.049-.161.317-.726.573-1.267.877-1.786.987-2.005 1.401-2.996.244-.564.451-1.278.488-1.682.061-.656.037-.748-.305-1.209-.353-.507-1.523-1.256-2.462-1.602a88 88 0 0 1-3.047-1.186c-.476-.196-.732-.438-.732-.668 0-.116.33-.83.732-1.579.402-.76.731-1.486.731-1.635 0-.415-.341-.957-.768-1.233-.487-.311-2.34-.887-2.584-.795-.256.092-2.925 5.207-3.364 6.417-.427 1.209-.341 1.613.463 2.292.293.231.524.507.524.599s-.183.519-.414.968a27 27 0 0 0-.732 1.509 10 10 0 0 1-.56 1.095c-.122.207-.378.668-.549 1.013-1.609 3.215-4.473 6.613-6.533 7.742-1.17.657-1.938.53-1.938-.323 0-.587 1.121-4.17 1.658-5.287.085-.196.353-.864.597-1.498.231-.634.487-1.256.548-1.382.147-.265.915-2.224 1.609-4.033.963-2.546.975-2.914.171-3.686-.573-.541-1.572-.922-2.706-1.037-.865-.092-.902-.069-1.195.968-.451 1.532-1.889 5.403-2.12 5.702-.061.07-.208.381-.33.703-.304.795-1.779 3.583-2.559 4.839-1.902 3.053-4.547 5.495-6.375 5.863-1.329.277-1.365-.679-.183-4.308.232-.726.5-1.486.597-1.694.098-.195.171-.403.171-.46 0-.093.646-1.74.853-2.166.061-.127.354-.83.658-1.555.293-.726.732-1.798.976-2.374.889-2.188 1.206-3.225 1.109-3.686-.122-.645-.793-1.221-1.768-1.521-.865-.265-2.303-.426-2.511-.288-.061.046-.256.449-.402.899-.158.438-.353.956-.439 1.152-.085.184-.268.633-.414.979s-.317.737-.378.864-.305.691-.548 1.267c-.244.565-.488 1.083-.537 1.152-.048.058-.195.369-.317.692a42 42 0 0 1-.426 1.036 61 61 0 0 0-.793 1.844c-.304.76-.609 1.486-.67 1.612-.256.519-1.134 3.122-1.414 4.171-.378 1.428-.512 3.329-.292 4.308.292 1.302 1.218 2.27 2.498 2.581 1.451.357 3.194-.173 5.217-1.578 1.012-.715 2.95-2.639 3.645-3.618.768-1.106.829-1.014.463.715-.451 2.223 1.109 4.193 3.315 4.193 2.048 0 4.364-1.244 7.046-3.802 1.95-1.855 3.742-4.113 4.997-6.29.268-.472.427-.726.744-1.198a5.4 5.4 0 0 0 .353-.691c.098-.219.597-1.233 1.122-2.247.524-1.013.95-1.9.95-1.97 0-.288.39-.253 1.183.081.463.196.95.461 1.109.588.341.311.353.91.036 1.543a78 78 0 0 0-.914 2.005c-.39.852-.743 1.659-.804 1.785-.744 1.544-1.755 4.413-2.072 5.818-.488 2.212-.025 3.548 1.511 4.378.5.276.768.345 1.353.345 1.889 0 4.352-1.244 6.765-3.421.658-.588 1.231-1.071 1.28-1.071.122 0 .036.38-.415 1.9a68 68 0 0 0-1.377 5.473c-.366 1.831-.39 5.045-.049 5.99.5 1.371 1.146 2.143 2.109 2.488.756.277 2.584.173 3.328-.184 3.047-1.451 5.351-4.746 6.362-9.101.354-1.555.354-4.424-.012-6.036-.146-.634-.256-1.268-.256-1.417 0-.231.037-.265.341-.196.183.046.439.126.573.196.122.057.732.138 1.341.172.902.035 1.256 0 2.011-.207 1.195-.346 2.121-.749 2.84-1.221.317-.219.622-.392.683-.392.158 0 .256.3.256.76 0 .68.39 2.27.756 3.03.755 1.613 1.901 2.523 3.815 3.076 1.182.346 3.559.288 5.119-.103 3.742-.957 7.253-3.629 10.166-7.731.475-.668.865-1.232.865-1.255s.281-.507.634-1.072c.341-.564.744-1.255.902-1.543.427-.807 1.816-3.56 2.17-4.297.182-.358.39-.657.475-.657s.561.196 1.06.438c.61.288.976.541 1.122.783.207.334.207.369-.012.922-.134.322-.403.921-.61 1.348a36 36 0 0 0-.682 1.486c-.171.403-.366.829-.427.956a33 33 0 0 0-.987 2.373c-.147.403-.329.887-.415 1.083-.085.184-.341.945-.56 1.67-.342 1.106-.415 1.51-.403 2.42 0 1.221.159 1.67.805 2.373 1.804 1.935 5.424.852 9.361-2.8.817-.771.926-.829 1.06-.656a.9.9 0 0 1 .159.461c0 .391.658 1.751 1.109 2.304.902 1.094 2.206 1.67 3.962 1.751 1.06.046 1.353.011 2.072-.208 2.023-.633 3.644-1.993 4.644-3.882l.597-1.118.914-.299c1.877-.622 3.084-1.382 3.523-2.246.305-.6.256-1.106-.159-1.533-.329-.345-.609-.322-1.255.104-.597.392-1.877.968-2.389 1.083-.378.092-.354.161-.646-1.613-.183-1.152-.293-1.67-1.048-4.954-.33-1.44-.403-1.981-.403-3.225-.012-1.383.012-1.544.305-2.143.183-.369.561-.876.841-1.141.488-.46 1.512-.979 1.707-.864.048.035.158-.023.243-.115.134-.15.122-.23 0-.472-.536-.933-1.523-1.44-2.864-1.463-1.719-.023-3.23.76-4.205 2.177-.707 1.025-1.012 1.763-1.268 3.018-.146.726-.39 1.302-1.17 2.742-.549 1.003-1.036 1.878-1.097 1.947-.049.058-.451.772-.902 1.59-1.853 3.398-4.169 6.037-6.253 7.131-1.536.806-2.06.703-1.95-.369.073-.587.719-2.649.938-2.937.037-.069.183-.38.305-.692.122-.322.463-1.059.756-1.647.292-.587.524-1.094.524-1.117 0-.035.231-.507.5-1.06 1.535-3.076 1.816-4.286 1.218-5.127-.451-.61-1.596-1.244-3.851-2.108-1.816-.691-2.231-.899-2.377-1.14-.11-.219-.025-.438.609-1.59.988-1.797 1-2.362.086-3.019-.549-.391-2.377-.944-2.633-.794-.39.241-3.352 6.048-3.596 7.073-.11.495.146 1.094.719 1.647.622.588.646.334-.122 2.028-.268.61-.804 1.624-1.609 3.053a9 9 0 0 0-.353.749c-.317.725-1.95 3.018-2.791 3.916-2.06 2.201-4.035 3.514-6.278 4.159-1.036.3-2.425.357-3.254.127-.719-.196-1.512-.806-1.841-1.405-.414-.738-.585-2.063-.402-3.18.073-.495.158-.922.195-.945.024-.034.402.035.817.15 2.974.795 6.045-.115 8.459-2.488 1.56-1.556 2.328-2.857 2.803-4.77.598-2.465-.219-4.47-2.242-5.506-4.425-2.281-10.044 1.532-13.847 9.4-.244.507-.439.933-.439.968 0 .184-.914 1.256-1.67 1.947-1.926 1.785-4.583 2.465-6.326 1.624-.61-.288-1.877-1.405-1.877-1.636 0-.069.341-.391.768-.714 5.07-3.905 10.226-11.624 11.762-17.603.524-2.016.549-2.2.476-3.756-.122-2.972-.963-4.285-2.841-4.423-.438-.023-.926.011-1.243.115m1.17 3.974c.549.484.269 2.443-.731 5.069-.451 1.198-2.194 4.631-3.169 6.221-.61 1.014-2.548 3.767-3.462 4.908-1.17 1.463-3.12 3.606-3.303 3.606-.183.011-.207-.254-.049-.542.073-.103.317-.714.561-1.348a24 24 0 0 1 .548-1.382 61 61 0 0 0 .72-1.728c1.048-2.604 1.779-4.286 2.401-5.564.158-.334.292-.634.292-.669 0-.103.329-.771 1.5-3.041 1.718-3.329 2.547-4.539 3.595-5.322.671-.507.744-.519 1.097-.208m12.104 12.546c.244.184.293.322.28.783-.061 1.728-1.328 4.263-2.84 5.657-1.097 1.014-2.693 1.624-3.693 1.417-.902-.196-.914-.265-.11-1.74.902-1.693 1.427-2.465 2.511-3.744 1.134-1.325 2.292-2.246 3.096-2.477.451-.138.451-.138.756.104m27.255 7.684c.073.495.219 1.221.317 1.601.573 2.27.707 2.972.621 3.042-.207.172-4.193-.427-4.278-.646-.037-.08.049-.288.183-.46.317-.438 1.243-1.89 1.243-1.959 0-.034.122-.219.268-.415.354-.472.658-1.048.768-1.428.098-.38.415-.749.597-.691.074.023.195.449.281.956m-51.852 6.002c.56 1.682.804 5.633.463 7.465-.61 3.191-1.792 5.76-3.023 6.521-.536.345-.878.288-1.085-.185-.292-.656-.195-1.751.427-4.965.475-2.442 2.608-9.377 2.901-9.377.073 0 .219.241.317.541m49.743.829c.597.139 1.511.277 2.036.311.536.047 1.024.139 1.084.219.171.196-.012.622-.511 1.152-1.134 1.233-3.377 1.152-4.254-.161-.354-.518-.561-1.359-.427-1.693.085-.219.329-.196 2.072.172m-191.81-28.976c-6.942.678-14.335 6.865-16.21 13.57-.305 1.092-.366 2.909-.122 3.829.512 1.955 2.034 3.312 5.493 4.911.84.391 1.79.816 2.107.943.962.391 2.375 1.265 2.825 1.771.549.598.646 1.081.366 1.771-.755 1.863-3.666 2.944-7.381 2.749-3.032-.161-5.541-.943-6.881-2.162-.219-.184-.414-.299-.451-.242-.353.541-.694 1.277-.816 1.76-.207.816-.109 2.127.22 2.714.584 1.081 2.301 2.116 4.287 2.576 1.303.31 4.445.437 5.98.241 4.518-.563 8.087-2.679 9.694-5.738l.585-1.116v-1.621c0-1.542-.012-1.645-.341-2.255-.719-1.345-2.265-2.495-5.517-4.082-3.24-1.576-4.105-2.266-4.507-3.577-.316-1.023.037-2.495 1.036-4.335 1.717-3.197 5.261-6.21 8.683-7.418 1.498-.517 3.52-.747 3.849-.437.183.173.195 1.231.012 1.863-.633 2.323-1.888 4.347-3.946 6.383l-.901.897.39.345c.657.598 1.144.759 2.155.759.658 0 1.072-.069 1.498-.242 2.034-.851 3.91-2.829 5.067-5.336.682-1.449.816-3.243.365-4.427-.438-1.116-1.278-2.139-2.338-2.818-1.815-1.173-3.094-1.483-5.201-1.276m93.105.004c-4.969.482-10.268 3.764-13.805 8.56-1.272 1.733-2.068 3.396-2.521 5.278-.22.907-.257 2.72-.061 3.5.477 1.951 2.142 3.396 5.862 5.083.636.287 1.713.769 2.374 1.079 1.493.665 2.57 1.583 2.717 2.272.11.619-.147 1.296-.734 1.893-1.249 1.274-3.757 1.974-6.609 1.825-3.108-.161-5.335-.804-6.89-1.986-.281-.218-.563-.39-.624-.39-.159 0-.563.826-.82 1.699-.599 1.996.306 3.66 2.558 4.67 1.603.723 2.729.906 5.58.906 3.268.012 4.541-.218 6.927-1.251 3.219-1.399 5.348-3.717 5.801-6.356.55-3.144-.894-4.831-6.364-7.413-4.124-1.951-4.871-3.247-3.696-6.368 1.273-3.397 5.214-7.149 8.971-8.572 1.713-.654 3.928-.929 4.271-.551.22.253.085 1.767-.233 2.697-.673 1.905-1.933 3.764-3.635 5.393-.501.482-.905.918-.905.987 0 .172.612.677 1.101.918.294.137.71.195 1.346.195.784.011 1.041-.046 1.738-.367 2.032-.907 3.72-2.72 4.895-5.256.71-1.549.784-3.557.172-4.739-.735-1.423-1.836-2.421-3.439-3.144-1.31-.585-2.313-.723-3.977-.562m-468.565-2.669c-.093.02-.298.435-.503 1.024-.492 1.42-1.825 4.597-2.532 6.036-.134.28-.246.531-.246.56s-.103.251-.216.502c-.123.252-.441.928-.707 1.517-.267.579-.605 1.313-.759 1.613-.144.299-.267.569-.267.598 0 .02-.164.367-.359.773a75 75 0 0 0-.779 1.671c-.236.521-.461.985-.512 1.043a.37.37 0 0 0-.093.241.63.63 0 0 1-.143.338c-.123.164-.164.155-.636-.251-1.128-.975-2.225-1.526-3.455-1.738-1.436-.242-3.425.338-5.076 1.477-1.661 1.14-3.876 3.612-5.158 5.747-.512.85-1.937 3.612-1.937 3.747 0 .184-.708 1.429-1.282 2.26-2.102 3.061-4.83 5.331-6.429 5.36-.379.01-.441-.019-.533-.251-.175-.473.543-2.888 1.363-4.568.103-.213.308-.657.462-.976.143-.328.472-1.014.728-1.535.256-.512.461-.947.461-.966s.154-.348.349-.744c.892-1.815 1.394-3.177 1.394-3.766 0-.454-.276-.995-.738-1.42-.349-.319-2.225-1.226-3.517-1.7a41 41 0 0 1-1.251-.492c-.287-.126-.564-.232-.605-.232-.174 0-.759-.512-.759-.657 0-.096.195-.512.421-.937.236-.425.564-1.014.718-1.303.574-1.043.471-1.768-.318-2.309-.697-.473-2.256-.956-2.717-.83-.144.029-.421.454-.892 1.381-.39.724-.769 1.429-.852 1.564-.123.194-1.025 1.98-1.486 2.946-.246.512-.513 1.381-.513 1.681 0 .502.349 1.091.872 1.458.256.183.461.367.461.415s-.133.367-.308.715c-.164.338-.307.637-.307.666s-.257.551-.574 1.178a83 83 0 0 0-.667 1.324c-.523 1.081-1.866 3.341-2.574 4.346-1.937 2.752-3.804 4.365-5.536 4.79-.626.164-.964.01-1.128-.512-.123-.386-.072-.753.328-2.154.338-1.207 1.251-3.786 1.538-4.346.051-.106.4-.956.769-1.883s.738-1.825.81-1.98c.082-.164.287-.705.472-1.207.184-.502.369-.966.41-1.014a1.6 1.6 0 0 0 .153-.435c.041-.183.113-.386.154-.434.041-.058.144-.387.246-.744.421-1.613.021-2.414-1.527-3.081-.605-.251-.841-.299-1.569-.318l-.862-.01-.348.956c-.185.531-.38.995-.431 1.043s-.287-.135-.553-.444c-.626-.715-1.405-1.285-2.174-1.584-.513-.203-.79-.242-1.549-.242-2.173 0-4.388 1.111-6.675 3.332-1.773 1.719-3.065 3.525-4.388 6.114-1.015 1.98-1.066 2.076-1.179 2.366-.134.348-1.672 2.521-2.348 3.322-1.467 1.729-3.405 3.207-4.553 3.467-.205.049-.349.01-.554-.154-.246-.203-.276-.29-.256-.792.02-.695.769-3.255 1.292-4.443.072-.164.256-.618.41-1.014s.39-.985.513-1.304c.133-.318.379-.946.554-1.4.184-.454.369-.908.42-1.014.184-.367 1.251-3.091 1.651-4.22.564-1.604.533-2.145-.123-2.772-.636-.599-1.61-.937-3.199-1.111-.564-.068-.523-.125-.944 1.246-.39 1.226-.769 2.366-.922 2.704-.072.155-.277.676-.462 1.159-2.707 7.05-6.747 12.478-9.936 13.376-.871.242-.892.242-1.19-.048-.327-.3-.327-.638-.01-2.077.308-1.371 1.887-5.833 2.523-7.098.051-.106.267-.609.472-1.111.194-.502.615-1.506.912-2.221.698-1.68 1.282-3.39 1.282-3.767 0-.782-.707-1.497-1.825-1.825-.728-.212-2.584-.434-2.697-.319-.03.039-.143.329-.236.647a23 23 0 0 1-.256.773c-.051.106-.236.56-.41 1.014-.185.454-.39.947-.472 1.111-.082.154-.512 1.139-.974 2.173-.451 1.033-.871 1.97-.923 2.076-.205.416-1.425 3.332-1.733 4.153-.184.473-.369.937-.42 1.014a3 3 0 0 0-.154.483 2 2 0 0 1-.164.483c-.102.174-.513 1.478-.83 2.656-.195.734-.236 1.12-.236 2.463 0 1.439.02 1.651.236 2.144.307.724.994 1.429 1.733 1.777.533.26.666.28 1.61.27 1.23-.019 2.101-.261 3.3-.946 1.006-.58 1.56-.995 2.851-2.135.646-.57 2.523-2.83 2.523-3.032 0-.058.072-.107.164-.107.184 0 .184-.038-.113 1.449-.308 1.468.072 2.724 1.066 3.602 1.692 1.488 4.358.986 7.65-1.429.769-.57 2.225-1.874 2.84-2.55.471-.521.543-.434.677.928.235 2.308.994 3.563 2.491 4.095 1.302.473 3.271.019 5.004-1.14 1.128-.753 2.953-2.646 3.855-3.989.267-.396.708-.869.8-.869.021 0 0 .203-.041.454-.154.888-.103 2.173.123 2.975.554 1.999 2.02 2.733 4.337 2.173 1.692-.406 3.384-1.343 5.219-2.898.38-.319.544-.473 1.579-1.506 1.19-1.188 2.697-3.149 3.948-5.109.615-.976 2.092-3.748 3.086-5.795.482-.995.708-1.362.851-1.381.277-.039 1.836.695 2.143 1.004.349.358.328.763-.102 1.623-.195.396-.359.743-.359.772 0 .02-.144.338-.318.705-.441.928-.431.918-.995 2.202-1.179 2.676-1.978 4.984-2.286 6.5-.379 1.893.338 3.496 1.856 4.163 2.204.965 6.316-1.072 9.823-4.858.236-.261.451-.454.482-.435.02.029.092.502.143 1.053.216 2.154.995 3.544 2.328 4.182.523.241 1.302.405 1.835.367.41-.029 1.733-.377 2.194-.57.79-.338 2.554-1.536 3.169-2.144.789-.792 1.066-1.082 1.579-1.7.533-.628 1.353-1.758 1.435-1.97.021-.048.093-.097.175-.116.123-.019.153.232.164 1.468.02 1.536.112 1.989.594 2.868.277.503 1.046 1.13 1.631 1.333.953.338 2.532.251 3.619-.193.174-.077.533-.222.82-.338 1.067-.425 2.533-1.458 3.876-2.733.831-.783 1.354-1.217 1.415-1.159.052.048.144.502.205 1.004.103.956.4 2.028.708 2.598.266.493.994 1.149 1.538 1.391.369.154.656.193 1.487.193 1.538 0 2.686-.444 4.255-1.642 1.179-.888 2.543-2.376 3.527-3.834.205-.309.431-.55.503-.521.092.029.112.386.092 1.381-.021.985.01 1.487.123 1.902.574 2.009 1.969 2.724 4.276 2.212 1.404-.319 2.399-.802 4.039-1.961 2.912-2.057 6.03-5.852 8.06-9.841.236-.454.779-1.516 1.22-2.366s.902-1.777 1.025-2.057c.154-.338.287-.502.41-.502.308 0 1.877.734 2.113.975.123.126.246.328.277.454.051.222-.175.966-.472 1.516-.554 1.014-2.389 5.264-2.984 6.906-1.148 3.196-1.189 5.224-.113 6.354.78.831 1.836 1.179 2.984.985 1.989-.318 4.163-1.535 6.47-3.612.738-.676 1.384-1.303 1.415-1.41.062-.183.359-.28.359-.125 0 .048.02.599.031 1.236.02.869.071 1.275.225 1.642.421 1.033.964 1.632 1.877 2.038.502.231.707.27 1.507.26 2.02 0 4.142-1.081 6.521-3.303a47 47 0 0 0 1.62-1.583c.175-.203.359-.348.41-.319.041.029.113.434.154.898.267 3.332 2.112 4.916 4.932 4.23q1.985-.492 3.968-2.289c.728-.666 2.338-2.54 2.594-3.013.349-.666.872-1.004.718-.473-.174.589-.174 2.25 0 2.955.513 2.115 1.969 2.936 4.327 2.434 1.907-.415 3.476-1.275 5.229-2.878 2.072-1.893 3.374-4.172 3.169-5.505-.062-.367-.154-.512-.492-.782-.39-.319-1.077-.532-1.303-.406-.051.039-.287.444-.533.908-.953 1.873-2.204 3.274-3.322 3.737-.923.387-1.384.3-1.589-.289-.174-.512.031-1.546.718-3.574.348-1.033 1.702-4.52 1.937-5.022.206-.425 1.374-3.341 1.549-3.863.072-.212.184-.521.256-.676.256-.599.492-1.468.533-2.028.062-.734-.225-1.294-.923-1.796-.687-.483-1.384-.696-2.358-.705l-.82-.01-.318.888c-.174.493-.39.966-.492 1.053-.154.145-.174.135-.328-.135-.236-.435-1.477-1.449-2.102-1.719-.708-.309-1.559-.454-2.153-.387-1.569.203-3.097.802-4.471 1.768-2.574 1.806-5.229 5.244-6.86 8.866-.215.473-.43.908-.482.956a.4.4 0 0 0-.092.241c0 .242-1.507 2.453-2.379 3.496-1.517 1.826-2.85 2.907-4.163 3.361-1.148.406-1.507.155-1.404-.956.092-.937.892-3.593 1.435-4.78.072-.165.369-.86.656-1.546.298-.695.575-1.342.626-1.448.051-.107.4-.889.769-1.739.379-.85.769-1.719.871-1.931.093-.213.216-.493.257-.628s.133-.377.215-.531c.277-.58.759-2.019.759-2.251 0-1.226-1.487-2.356-3.415-2.578-.605-.077-.994-.01-.994.174 0 .106-1.425 3.534-1.692 4.075-.082.155-.308.676-.513 1.159l-.502 1.159a9 9 0 0 0-.328.773 9 9 0 0 1-.318.724c-.072.135-.133.28-.133.319s-.144.367-.308.724c-1.6 3.332-3.845 6.326-5.968 7.949-1.179.907-2.727 1.525-3.147 1.255-.298-.183-.082-1.371.574-3.177.143-.406.297-.792.338-.841a7 7 0 0 0 .256-.579c.103-.27.39-.889.636-1.381.246-.493.441-.918.441-.937 0-.029.195-.425.42-.888 1.415-2.84 1.846-3.931 1.908-4.81.051-.618.03-.705-.246-1.072-.39-.541-.749-.811-1.723-1.275-.902-.434-.974-.463-2.82-1.178-1.476-.58-1.917-.811-1.999-1.053-.031-.116.205-.657.656-1.468.39-.715.759-1.458.81-1.661.195-.676-.267-1.41-1.148-1.816-.441-.202-1.815-.569-2.123-.569-.195 0-.584.627-1.886 3.09-1.057 1.97-1.344 2.569-1.651 3.419-.451 1.226-.257 2.096.584 2.579.451.27.492.453.205 1.014-.102.202-.338.676-.523 1.052-.912 1.903-1.076 2.231-1.179 2.366-.113.126-.369.628-.707 1.353-.277.598-1.969 3.187-2.615 3.988-1.651 2.057-3.548 3.506-4.86 3.709-.728.106-1.118-.386-.985-1.256.185-1.101.841-3.322 1.272-4.268.072-.165.328-.792.564-1.401.789-1.989.892-2.26 1.282-3.187 1.127-2.704 1.671-4.201 1.886-5.176.123-.522.113-.657-.031-1.082-.348-.966-1.517-1.681-3.014-1.825-1.025-.107-1.015-.116-1.405 1.081-.154.473-.307.908-.328.947-.031.048-.441-.29-.923-.754-.707-.685-1.025-.907-1.661-1.188-.718-.318-.851-.338-1.753-.338-1.138 0-1.877.184-3.189.812-1.487.695-3.312 2.124-4.43 3.457-.287.348-.553.657-.594.686-.113.087-1.19 1.584-1.631 2.269-.461.696-1.743 3.033-1.743 3.168 0 .039-.246.56-.553 1.169-1.641 3.274-4.82 6.345-6.819 6.596-.338.039-.42.01-.646-.251-.369-.406-.441-1.014-.236-2.183.144-.859.462-2.095.667-2.607.041-.107.225-.647.41-1.208s.389-1.149.461-1.303c.072-.164.257-.618.41-1.014.81-2.067 2.512-6.104 3.025-7.195.164-.348 1.466-3.371 1.6-3.748.082-.193.184-.434.246-.531.287-.473 2.133-5.012 2.779-6.828.399-1.149.44-1.342.44-2.269.011-.928-.01-1.044-.246-1.353-.461-.618-1.23-1.101-2.204-1.361-.882-.251-.985-.261-1.179-.213m-51.945 17.394c.513.261 1.159.792 1.456 1.188.308.425.298.734-.041 1.448-.102.232-.318.754-.471 1.15-.154.396-.39.937-.523 1.207-.134.261-.431.917-.667 1.449-1.681 3.689-4.163 7.002-6.203 8.238-1.118.676-1.784.772-2.277.328-.461-.396-.574-1.178-.389-2.521.082-.56.174-1.101.205-1.187.041-.087.123-.416.195-.725.174-.724.666-2.26.769-2.395.041-.048.164-.319.266-.579.226-.599.339-.841.913-1.98 1.61-3.178 3.671-5.428 5.342-5.824.328-.077 1.077.029 1.425.203m41.609.029c.554.261 1.077.724 1.374 1.207.236.377.246.454.144.831a7 7 0 0 1-.195.608c-.051.106-.236.58-.421 1.062-.328.85-.82 2.038-1.261 2.994-.4.889-1.569 2.985-2.174 3.912-1.589 2.424-3.27 4.027-4.706 4.471-.677.222-.923.203-1.251-.058-.307-.251-.543-.927-.543-1.564-.011-1.024.584-3.574 1.22-5.215.769-2 1.948-4.317 2.789-5.486 1.148-1.603 2.358-2.646 3.466-2.975.358-.106 1.097-.009 1.558.213m25.408.183c.328.203.79.599 1.026.879l.451.493-.185.502c-1.866 5.041-4.747 9.928-6.941 11.782-.974.821-2.102 1.401-2.738 1.411-1.179.009-1.456-1.526-.769-4.25.338-1.352.8-2.733 1.22-3.622.072-.164.226-.511.328-.772.574-1.401 1.825-3.409 2.912-4.704.821-.965 1.292-1.381 2.051-1.767 1.056-.541 1.743-.531 2.645.048m53.411-.173c.841.482 1.784 1.419 1.692 1.699a4 4 0 0 1-.144.358c-.041.106-.235.579-.41 1.062-.338.86-.389.985-.82 1.932-.502 1.12-.708 1.525-1.507 3.022-2.082 3.864-4.225 6.278-6.183 6.983-.831.299-1.354.193-1.651-.309-.605-1.082.02-4.346 1.487-7.717 1.671-3.824 4.204-6.876 6.06-7.282.379-.086 1.097.039 1.476.252M75.62 237.292c-3.403.656-6.797 2.636-10.294 5.978-3.22 3.081-6.336 7.485-8.049 11.357-.205.474-.42.957-.471 1.063-.164.348-.81 2.202-1.026 2.945-.564 1.903-.748 3.303-.687 5.216.052 1.487.154 2.124.482 2.849 1.282 2.887 3.158 4.635 6.06 5.64 2.287.792 5.773.589 8.398-.493 1.784-.724 3.701-1.951 4.655-2.955.123-.126.369-.386.553-.579.708-.744 1.436-1.922 2.072-3.352.277-.608.635-2.347.625-2.945-.01-.184-.092-.58-.174-.87a14 14 0 0 1-.215-.753l-.052-.212h3.517l.36-.734a7.4 7.4 0 0 0 .522-1.517c.38-1.883-.502-2.482-3.65-2.482-5.25 0-7.936.947-9.044 3.187-.174.348-.348.696-.39.773-.133.232-.348 1.169-.287 1.217.031.029.41.01.851-.048a68 68 0 0 1 2.656-.203 168 168 0 0 0 2.287-.145c.543-.058.615.068.348.647-.102.222-.256.57-.328.753-.461 1.121-1.712 2.849-2.737 3.786s-2.81 1.884-3.948 2.096c-.297.058-.77.155-1.056.212-.277.058-.974.107-1.538.107-.81 0-1.149-.039-1.6-.203-1.61-.58-2.338-2.424-2.05-5.186.061-.618.164-1.304.215-1.517.297-1.332.451-1.922.615-2.433.308-.966.892-2.415 1.261-3.159.195-.386.451-.898.564-1.139.8-1.652 2.871-4.703 4.491-6.616 1.087-1.284 3.64-3.737 4.748-4.549 1.712-1.284 3.311-2.008 4.419-2.018.861 0 1.24.232 1.487.917.154.445.154.551.01 1.353-.287 1.554-.708 2.742-1.528 4.297-.471.889-1.681 2.666-1.917 2.801-.37.213.143.608 1.169.918.605.183 1.866.154 2.522-.049 1.907-.589 3.67-2.578 4.727-5.321.308-.811.328-.937.338-2.212.01-1.284 0-1.391-.287-2.028-.882-1.98-2.779-3.651-4.87-4.298-1.149-.347-2.287-.376-3.753-.096m330.229-1.282c-.061.067-.153.26-.184.415-.226.898-1.128 3.67-1.712 5.263-.165.454-.503 1.382-.759 2.077a33 33 0 0 1-.544 1.449c-.051.106-.656 1.622-1.343 3.38-.697 1.748-1.312 3.312-1.394 3.477-.072.154-.349.811-.605 1.448-.851 2.067-.944 2.299-1.641 3.96a50 50 0 0 1-1.21 2.656c-1.61 3.139-3.855 5.601-6.46 7.079-2.83 1.603-6.223 1.941-7.423.724-.769-.772-1.077-2.134-.861-3.824.112-.898.328-1.854.564-2.482 1.127-2.975 2.778-5.544 4.675-7.272 1.015-.918 2.205-1.546 2.717-1.43.605.145.769 1.13.421 2.521-.287 1.149-1.231 2.801-2.082 3.631-.205.203-.318.406-.287.483.031.087.277.222.544.299 2.245.725 4.327-.309 5.649-2.791.616-1.168.769-1.748.769-3.023.011-1.033-.01-1.149-.287-1.68-.389-.753-1.394-1.68-2.235-2.057-1.046-.483-1.395-.56-2.44-.551-1.764.02-3.548.705-5.548 2.135-.769.541-2.481 2.144-3.065 2.858-1.098 1.333-2.338 3.226-3.097 4.704-1.2 2.337-1.374 2.656-1.948 3.457-1.774 2.482-3.671 4.192-5.424 4.926-.841.338-1.077.357-1.374.077-.236-.222-.257-.299-.205-.715.082-.54.564-1.95.923-2.684.143-.29.369-.773.502-1.082.143-.3.656-1.314 1.138-2.241 2.594-4.925 3.466-7.166 3.302-8.479-.164-1.304-1.015-2.424-2.133-2.782-2.943-.966-7.311 1.941-11.812 7.842-.492.638-.892 1.198-.892 1.227 0 .039-.154.28-.339.531-.184.251-.369.541-.41.638-.061.144-.102.164-.194.077s-.083-.174.01-.377c.133-.27.205-.425.656-1.381.42-.888 1.374-3.206 1.682-4.066.389-1.12.41-2.289.03-2.791-.133-.183-.297-.386-.359-.435-.604-.579-1.968-1.12-2.85-1.139l-.605-.02-.287.87c-.441 1.323-1.507 4.066-1.846 4.732a50 50 0 0 0-.666 1.545c-1.159 2.724-2.769 5.534-4.245 7.388-1.641 2.067-3.866 3.67-5.086 3.67-.338 0-.636-.299-.718-.695-.092-.463.236-1.883.913-3.844.184-.55 2.481-6.326 2.666-6.712.082-.164.266-.637.42-1.062s.339-.908.421-1.063c.246-.54.656-2.028.666-2.414.031-.966-.748-1.816-2.02-2.212-.718-.222-1.856-.338-2.04-.212-.072.058-.277.521-.441 1.024-.175.502-.359.927-.421.946-.061.019-.399-.251-.738-.599-1.179-1.188-2.194-1.651-3.578-1.642-3.097.039-6.317 2.289-9.29 6.5-.749 1.062-1.671 2.685-2.297 4.018-1.107 2.376-2.553 4.404-4.358 6.065-1.251 1.168-2.512 1.902-3.506 2.057-.369.048-.441.029-.575-.164-.358-.531.503-3.1 2.184-6.5.226-.463.411-.859.411-.879 0-.029.174-.405.4-.84.881-1.796 1.291-2.762 1.599-3.776.461-1.536-.472-2.405-4.05-3.747a52 52 0 0 1-2-.812c-.604-.289-.615-.299-.604-.676.01-.28.184-.685.656-1.497.543-.917.666-1.207.697-1.661.082-.985-.513-1.526-2.164-1.97-1.363-.377-1.097-.637-2.871 2.733-1.62 3.081-2.019 4.008-2.019 4.684 0 .464.348 1.082.81 1.42.174.125.317.28.317.357 0 .068-.184.493-.41.947s-.594 1.207-.82 1.661-.41.85-.41.879c0 .067-2.81 5.398-3.025 5.727-.082.135-.502.85-.933 1.593-1.528 2.627-3.127 4.868-4.142 5.805-.277.26-.513.531-.513.598 0 .155.277.59.543.831.113.097.41.261.677.348 1.528.54 3.168-1.024 5.681-5.409.481-.859 1.917-3.544 1.917-3.602 0-.029.267-.58.605-1.236.953-1.903 1.241-2.492 1.241-2.54 0-.02.143-.329.307-.676.174-.358.605-1.265.964-2.038.349-.773.728-1.507.841-1.632l.195-.242.871.387c.923.415 1.538.878 1.538 1.168 0 .232-.277.976-.615 1.671-.164.319-.595 1.275-.974 2.125s-.749 1.67-.82 1.835c-.072.154-.318.763-.544 1.352-1.189 3.032-1.394 3.795-1.394 5.36-.011 1.091.01 1.255.236 1.68.317.609.974 1.227 1.609 1.507.39.183.657.232 1.262.222 2.214-.01 4.87-1.487 7.782-4.317.687-.666 1.292-1.217 1.353-1.217.062 0 .103.28.103.705 0 1.7.738 3.603 1.661 4.25.759.531.984.598 2.133.589.912-.01 1.189-.049 1.845-.28 1.077-.377 2.246-1.13 3.353-2.164.995-.937 2.492-2.723 2.769-3.322.092-.193.236-.357.307-.357.123 0 .134.193.072 1.033-.123 2.019.318 3.448 1.323 4.192.574.424 1.025.569 1.815.569.8-.009 2.204-.347 3.076-.753.769-.357 2.532-1.526 3.394-2.25.492-.425.923-.763.953-.763.021 0 .041.367.041.811-.01 1.671.862 2.627 2.82 3.11.913.222 2.256.29 2.389.125.051-.077.185-.531.277-1.004.41-1.941 1.364-4.423 2.533-6.567.81-1.488 3.045-4.713 4.306-6.23 1.036-1.236 3.015-3.109 3.845-3.641 1.179-.743 2.133-1.023 2.574-.753.328.203.318.483-.051 1.333-.411.946-.441 1.004-1.538 3.1-2.205 4.23-3.394 6.732-3.394 7.137a.4.4 0 0 1-.093.222c-.215.213-.543 1.922-.492 2.511.144 1.401 1.138 2.733 2.43 3.236.533.202 2.143.174 3.025-.049.4-.106.769-.212.82-.251.062-.038.339-.145.616-.241.625-.213 1.702-.85 2.665-1.574.831-.618 2.646-2.338 2.892-2.734.277-.434.502-.367.574.174.215 1.681.81 2.956 1.825 3.902.769.734 1.323 1.033 2.461 1.333.964.251 2.881.28 4.071.048 2.563-.492 5.485-1.989 7.844-4.018.635-.531.697-.579.759-.521.041.029.01.28-.052.55-.359 1.468.082 2.753 1.179 3.429.636.386 1.415.599 2.83.753 1.272.145 1.405.097 1.405-.415 0-.145.092-.686.195-1.217.646-3.187 1.876-5.92 3.999-8.933 3.137-4.453 6.439-7.504 8.541-7.871.297-.058.41-.029.584.135.124.116.216.261.216.328 0 .29-.779 1.932-2.287 4.8-1.569 2.994-2.584 5.08-2.84 5.843a3 3 0 0 1-.205.483c-.041.048-.174.483-.297.966-.123.473-.267 1.004-.308 1.178-.092.309.072 1.207.318 1.816.379.936 1.446 1.864 2.44 2.144 1.179.318 3.312-.097 4.942-.976 1.395-.743 2.984-1.989 4.225-3.322.205-.222.42-.386.482-.357.051.038.092.309.092.608 0 1.555.779 3.477 1.661 4.105.759.531.984.598 2.133.589.912-.01 1.189-.049 1.846-.28 1.076-.377 2.245-1.13 3.352-2.164.995-.937 2.492-2.723 2.769-3.322.092-.193.236-.357.307-.357.124 0 .134.193.072 1.033-.123 2.019.318 3.448 1.323 4.192.954.714 2.081.753 4.019.144 1.415-.444 3.323-1.69 5.025-3.293 1.897-1.777 3.106-3.245 4.726-5.766.708-1.091 2.759-4.935 3.671-6.866.134-.3.318-.551.4-.551.462 0 1.938.744 2.307 1.159.236.261.062.782-.984 3.091-1.005 2.211-1.764 3.998-2.123 4.973-.092.261-.215.57-.266.676-.195.416-.697 2.26-.82 2.975-.329 1.99.328 3.448 1.845 4.114.462.193.718.242 1.343.232 2.061-.019 4.655-1.439 7.383-4.027.697-.667 1.312-1.179 1.364-1.15.041.029.051.29.01.59-.082.627-.092.521.061 1.468.472 2.936 3.128 3.94 6.419 2.443 1.497-.686 3.435-2.202 5.147-4.027.411-.445.646-.628.677-.531.021.077.072.569.103 1.101.112 1.912.902 3.331 2.184 3.921.43.202.635.231 1.568.222.964 0 1.159-.029 1.887-.319 1.025-.386 1.938-.966 2.963-1.845.841-.734 2.02-2.076 2.687-3.042.471-.686.789-1.014.892-.956.051.029.031.145-.041.261-.164.29-.154 2.511.01 3.061.728 2.405 2.369 3.033 5.435 2.067 2.368-.734 5.536-3.448 6.654-5.688.185-.377.39-.763.451-.87.062-.106.134-.531.164-.936.041-.638.021-.783-.184-1.092-.123-.183-.349-.405-.503-.473-.359-.174-.953-.28-1.087-.183-.061.048-.307.453-.543.927-.892 1.767-2.133 3.177-3.24 3.67-.769.347-1.21.338-1.497-.01-.205-.232-.226-.338-.164-.985.092-1.178.861-3.467 2.379-7.128.246-.598.451-1.11.451-1.139s.061-.193.143-.357c.164-.377.38-.889.687-1.662.123-.318.257-.666.308-.772.338-.763.964-2.637 1.066-3.168.113-.647-.174-1.333-.8-1.874-.645-.55-1.394-.811-2.542-.878l-.79-.039-.328.966c-.451 1.294-.461 1.303-.8.888-.379-.463-1.117-1.13-1.61-1.448-1.671-1.082-4.111-.763-6.798.888-.943.579-2.871 2.386-3.824 3.583-1.333 1.681-2.953 4.433-3.784 6.442-.123.29-.277.599-.348.676a1.3 1.3 0 0 0-.206.319c-.256.685-2.758 3.834-3.588 4.529-.175.145-.451.367-.626.512-1.117.908-2.625 1.507-3.107 1.226-.256-.154-.317-.676-.174-1.448.154-.831.441-1.922.564-2.144.041-.087.113-.3.154-.483.041-.184.113-.396.154-.483.051-.077.164-.367.256-.628.185-.502 1.118-2.752 1.282-3.09.307-.647 1.804-4.047 2.204-5.022.257-.638.513-1.246.564-1.352.462-.976.369-2.019-.236-2.647-.646-.656-2.009-1.197-3.086-1.207l-.615-.01-.738 1.739c-.4.956-.995 2.347-1.323 3.09-.318.744-.831 1.913-1.118 2.608-1.097 2.559-1.661 3.612-3.014 5.553-.892 1.294-1.477 2.019-2.328 2.878-1.271 1.294-2.943 2.337-3.958 2.482-.625.087-.759-.067-.666-.753.072-.512.318-1.507.471-1.854.041-.107.257-.628.462-1.159s.513-1.236.677-1.565.297-.618.297-.647c0-.019.164-.386.369-.801.851-1.72 1.005-2.058 1.446-3.023.923-2.019 1.148-2.811.953-3.458-.276-.975-1.199-1.555-4.439-2.781-1.754-.667-2.328-.995-2.328-1.294 0-.107.144-.445.318-.744 1.261-2.192 1.405-2.646 1.005-3.313-.195-.318-.38-.463-.964-.724-.718-.338-1.733-.628-2.174-.628-.205 0-.41.329-1.61 2.579-2.655 5.012-2.727 5.476-1.097 6.673.246.184.246.184.072.589-.749 1.787-3.261 6.423-4.183 7.736-1.436 2.067-2.789 3.458-4.133 4.279-.748.444-1.517.743-1.948.743-.338 0-.636-.299-.718-.695-.092-.463.236-1.883.913-3.844.185-.55 2.481-6.326 2.666-6.712.082-.164.267-.637.42-1.062.154-.425.339-.908.421-1.063.246-.54.656-2.028.666-2.414.031-.966-.748-1.816-2.02-2.212-.717-.222-1.856-.338-2.04-.212-.072.058-.277.521-.441 1.024-.174.502-.359.927-.42.946-.062.019-.4-.251-.739-.599-1.179-1.188-2.194-1.651-3.578-1.642-3.097.039-6.316 2.289-9.29 6.5-.748 1.062-1.671 2.685-2.297 4.018-1.035 2.231-2.071 3.708-3.783 5.389-1.805 1.777-3.979 2.82-4.573 2.192-.185-.193-.185-.203.051-1.304.143-.656.625-1.815 1.343-3.206.328-.647.605-1.198.605-1.227s.523-1.043 1.159-2.25c1.374-2.607 1.702-3.293 2.194-4.597.338-.908.369-1.082.379-2.096.011-1.004-.01-1.159-.256-1.642-.349-.705-1.066-1.361-1.753-1.593-1.344-.464-2.943-.068-4.994 1.226-2.409 1.536-5.691 4.849-7.987 8.065-.236.328-.431.647-.431.695 0 .058-.072.106-.154.106-.174 0-.205-.299-.051-.56.051-.087.164-.319.246-.502.533-1.178 4.727-11.068 4.829-11.396a1.3 1.3 0 0 1 .154-.338c.041-.058.226-.512.41-1.014.185-.503.39-1.053.462-1.208.523-1.207 1.507-3.988 1.743-4.944.195-.792.195-1.652 0-2.096-.369-.821-1.395-1.526-2.687-1.845-.933-.232-1.415-.27-1.538-.125m-63.664 17.306c.236.126.687.483 1.015.792.656.638.708.831.39 1.565-.113.251-.349.821-.523 1.275a27 27 0 0 1-.564 1.304c-.133.26-.338.724-.472 1.014-.502 1.13-1.794 3.476-2.512 4.549-1.446 2.153-2.922 3.65-4.204 4.288-1.722.84-2.399.453-2.399-1.391 0-1.381.687-4.279 1.323-5.563.051-.106.266-.589.482-1.062 1.271-2.888 3.199-5.525 4.726-6.481 1.067-.666 1.908-.753 2.738-.29m91.359 0c.236.126.687.483 1.015.792.657.638.708.831.39 1.565-.113.251-.349.821-.523 1.275a26 26 0 0 1-.564 1.304c-.133.26-.338.724-.472 1.014-.502 1.13-1.794 3.476-2.512 4.549-1.445 2.153-2.922 3.65-4.204 4.288-1.722.84-2.399.453-2.399-1.391 0-1.381.687-4.279 1.323-5.563.051-.106.266-.589.482-1.062 1.271-2.888 3.199-5.525 4.727-6.481 1.066-.666 1.907-.753 2.737-.29m53.719.039c.543.28 1.609 1.304 1.609 1.555 0 .145-.43 1.275-.758 1.99-.072.154-.195.444-.267.627-.072.184-.246.57-.379.85-.123.28-.359.773-.503 1.111-.882 1.98-2.573 4.722-3.896 6.297-1.384 1.661-3.004 2.752-4.081 2.752-.656 0-1.087-.705-1.087-1.738.01-3.39 2.789-9.668 5.393-12.217 1.559-1.517 2.707-1.874 3.969-1.227m-85.207 6.925c-.031.087-.082.135-.103.106-.031-.029-.02-.087.021-.145.092-.154.153-.125.082.039m-100.419-22.395c-2.481.203-5.034.589-6.562.995-2.235.589-2.092.511-2.491 1.41a54 54 0 0 1-.616 1.303c-.194.396-.471.995-.625 1.324-.144.338-.38.84-.523 1.11-.133.28-.338.725-.451.995-.103.261-.359.811-.554 1.207s-.39.831-.431.966a7 7 0 0 1-.369.821 139 139 0 0 0-.964 2.125 101 101 0 0 1-.769 1.738c-.051.106-.194.435-.307.724-.123.29-.277.657-.359.821-.072.155-.349.812-.615 1.449a46 46 0 0 1-.564 1.352c-.154.319-.985 2.366-1.241 3.042a8 8 0 0 1-.297.725c-.041.048-.318.772-.615 1.593a33 33 0 0 1-.616 1.594c-.041.048-.112.251-.153.434a1.6 1.6 0 0 1-.154.435c-.041.048-.113.251-.154.434a3 3 0 0 1-.154.483c-.143.251-.687 2.028-1.035 3.332-.452 1.719-.472 2.956-.062 3.68.574 1.062 1.477 1.478 3.312 1.555l1.138.048.39-1.14a766 766 0 0 1 3.547-9.986c.349-.927.687-1.864.759-2.076.072-.213.195-.396.277-.415.082-.02.369.135.625.338 1.169.907 2.82 1.371 4.84 1.381 3.333 0 6.85-1.652 10.049-4.723 2.235-2.144 3.742-4.278 4.942-7.021.625-1.43 1.148-4.095 1.005-5.129-.205-1.535-.298-1.854-.769-2.781-1.138-2.231-3.066-3.448-6.45-4.056-.379-.068-2.471-.126-2.984-.087m3.64 4.916c.544.231.862.512 1.036.908.164.367.185 1.448.051 2.057-.441 1.864-.564 2.308-.635 2.356-.052.029-.093.126-.093.222 0 .29-1.056 2.222-1.692 3.1-1.702 2.367-3.906 4.153-6.408 5.196-1.733.725-3.814 1.034-5.301.783-.81-.136-.954-.252-.759-.599.062-.116.615-1.497 1.241-3.062.625-1.564 1.169-2.936 1.22-3.042s.215-.473.349-.821c.512-1.255 1.62-3.931 1.917-4.587.164-.377.441-1.014.615-1.43.185-.405.4-.782.503-.83.092-.039.512-.116.933-.155.42-.038 1.374-.125 2.102-.193 1.917-.183 4.388-.135 4.921.097"/><path fill="#e5dfda" d="M471.284 239.005c-.913.318-1.887 1.323-2.307 2.376-.513 1.255-.656 2.81-.359 3.747.41 1.313 2.092 1.883 3.589 1.207 1.538-.686 2.779-2.637 2.902-4.568.061-.985-.093-1.478-.626-2.038-.523-.55-1.107-.773-2.061-.811-.461-.01-.964.019-1.138.087m-245.328-1.045c-.913.319-1.887 1.323-2.307 2.376-.513 1.255-.656 2.81-.359 3.747.41 1.313 2.092 1.883 3.589 1.207 1.538-.686 2.778-2.636 2.901-4.568.062-.985-.092-1.478-.625-2.038-.523-.55-1.107-.772-2.061-.811-.461-.01-.964.019-1.138.087"/><circle cx="265.841" cy="261.789" r="3.998" fill="#e5dfda"/><circle cx="512.021" cy="261.789" r="3.998" fill="#e5dfda"/></svg>