<svg width="5108" height="1936" viewBox="0 0 5108 1936" fill="none" xmlns="http://www.w3.org/2000/svg">
<path d="M39.2176 2.11737C34.8176 3.05072 28.9509 4.91736 26.0176 6.11737C19.2176 9.05072 8.41759 19.9841 5.35093 27.0507C-0.249074 40.3841 -0.249074 41.9841 0.150926 202.784C0.550926 344.517 0.68426 357.317 2.81759 363.451C8.15093 379.184 19.2176 389.584 35.4843 394.384C42.5509 396.517 56.0176 396.784 184.551 397.451C322.418 398.117 326.018 398.117 331.218 400.784C334.818 402.517 337.484 405.184 339.218 408.784C341.618 413.717 341.884 417.584 342.551 458.117L343.218 502.117L356.151 502.517L368.951 502.917L365.084 495.451C362.551 491.051 361.218 486.651 361.484 484.517C361.884 481.051 362.284 480.784 367.618 480.917C374.418 481.051 382.551 486.251 388.551 494.517C390.818 497.451 393.218 499.984 394.151 499.984C394.951 500.117 396.418 497.851 397.218 495.051C399.218 489.051 403.484 484.117 406.684 484.117C410.684 484.117 413.618 491.717 413.751 501.717C413.751 509.584 414.151 510.784 416.151 510.784C421.751 510.784 450.684 494.517 474.284 478.251C502.818 458.517 505.884 457.184 517.618 460.651C533.884 465.317 546.418 475.717 570.551 504.117C583.351 519.317 600.418 533.184 604.418 531.717C606.951 530.651 612.951 513.451 623.218 477.451C636.551 430.384 638.418 425.317 659.484 383.317C670.151 361.851 678.684 343.717 678.418 342.917C678.151 342.117 674.151 343.851 669.218 347.051C643.351 363.317 628.551 360.651 602.818 335.184C587.084 319.584 581.484 314.917 573.351 310.784C565.351 306.784 553.084 306.917 539.884 311.184C534.418 313.051 529.484 314.251 528.951 313.984C527.484 313.051 529.218 309.184 534.151 303.051C539.218 296.917 539.218 296.784 528.551 295.451C510.151 293.184 483.884 284.784 483.884 281.451C483.884 278.784 488.418 278.117 510.151 277.451C522.684 277.051 533.484 276.384 534.018 275.851C534.818 275.051 523.484 260.384 519.751 257.451C519.351 257.051 515.218 251.717 510.684 245.451C497.884 228.251 492.551 216.117 497.884 216.117C498.951 216.117 506.018 222.251 513.484 229.717C528.551 244.784 537.351 252.117 540.018 252.117C541.484 252.117 541.751 249.451 541.351 239.851C540.818 225.184 543.084 213.051 546.284 213.717C549.084 214.251 553.484 223.317 559.351 240.384C562.018 248.784 564.818 254.784 565.751 254.784C566.818 254.784 568.951 251.051 570.551 246.517C573.618 238.117 580.151 229.984 582.551 231.451C583.218 231.851 583.884 237.584 583.884 244.117C583.884 258.117 585.751 267.851 590.018 276.251C596.284 288.651 622.818 306.784 634.818 306.784C639.351 306.784 640.284 305.984 648.951 295.051C667.484 271.984 686.951 257.451 706.418 252.117C710.951 250.917 711.884 250.117 711.218 248.384C704.284 231.851 702.284 210.917 705.751 191.717C706.818 185.317 710.284 173.051 713.351 164.517C718.551 150.117 718.818 148.517 717.484 143.317C716.284 138.784 716.284 136.517 717.884 132.117C721.218 122.651 724.551 119.317 733.351 116.251C738.418 114.517 744.284 111.184 748.684 107.451C753.218 103.584 757.618 101.051 760.684 100.517L765.618 99.7174L764.818 91.1841C764.151 84.9174 762.684 80.2507 759.084 73.584C751.884 60.6507 754.818 55.7174 764.551 64.2507C767.218 66.6507 769.484 68.2507 769.618 67.9841C769.884 67.7174 770.818 65.0507 771.751 62.1174C775.351 51.584 778.951 48.5174 782.684 52.9174C784.151 54.6507 784.018 56.9174 782.151 65.8507C780.151 75.7174 780.018 77.8507 781.884 87.8507C784.151 101.051 784.418 101.451 788.951 101.451C794.818 101.451 801.084 106.251 803.751 112.651C805.484 116.651 807.484 118.917 810.151 119.851C815.618 121.717 824.551 129.984 827.084 135.317C829.751 140.917 829.884 146.784 827.218 150.251C824.951 153.184 824.684 163.451 826.551 176.117C827.484 182.517 827.351 188.251 825.884 198.117C823.218 215.984 820.284 225.717 812.018 243.984C808.284 252.384 805.218 260.917 805.218 262.917C805.218 269.717 823.618 299.851 834.551 310.784C851.084 327.584 870.018 335.051 876.951 327.717C882.551 321.851 880.151 313.984 868.018 298.917C858.684 287.317 860.418 285.851 874.551 293.184C883.484 297.851 885.484 298.384 886.151 296.651C886.951 294.384 885.751 268.784 884.418 261.717C883.751 258.384 884.018 257.451 885.751 257.451C888.418 257.451 894.418 267.051 898.684 278.117C900.418 282.917 902.151 286.784 902.551 286.651C902.951 286.651 906.284 282.517 910.151 277.584C916.684 268.917 927.484 260.117 931.484 260.117C934.418 260.117 933.484 264.917 927.751 277.451C924.818 284.117 922.018 291.451 921.618 293.851L920.951 298.251L928.951 299.851C937.618 301.584 945.618 306.251 946.284 309.851C946.818 312.517 945.751 312.917 935.618 314.117C931.351 314.651 926.684 315.984 924.951 317.317L922.018 319.851L926.418 324.917C933.751 333.184 938.951 348.117 934.418 348.117C933.751 348.117 929.351 345.051 924.818 341.451C919.484 337.051 915.351 334.784 912.951 334.784C909.751 334.784 909.084 335.584 907.884 340.384C903.484 357.851 894.018 372.784 883.351 379.451C877.884 382.784 875.351 383.451 868.684 383.451C857.084 383.451 847.218 378.251 834.684 365.851C829.218 360.517 824.684 356.251 824.551 356.384C823.484 357.584 820.284 395.584 821.084 396.517C821.618 397.051 882.951 397.317 957.351 397.184C1092.02 396.784 1092.55 396.784 1100.95 393.851C1112.15 390.117 1118.82 385.317 1124.42 377.051C1134.55 362.117 1133.88 373.984 1133.88 198.784V42.1174L1130.68 32.3841C1125.35 15.9841 1113.48 5.98407 1094.68 1.98407C1081.88 -0.682617 51.4843 -0.682617 39.2176 2.11737Z" fill="#71A2C1"/>
<path d="M1306.95 2.24951C1285.35 6.91626 1272.68 20.7828 1269.22 43.4496C1268.28 49.9829 1267.88 238.516 1268.15 673.45L1268.55 1294.12L1271.62 1302.65C1277.35 1318.52 1286.42 1327.18 1302.55 1332.25C1310.68 1334.78 1318.28 1334.78 1755.08 1334.52L2199.22 1334.12L2207.08 1330.92C2222.68 1324.65 2232.68 1311.05 2235.75 1292.12C2237.62 1280.52 2237.75 1046.78 2235.88 1034.78C2232.55 1013.85 2221.35 1000.65 2201.22 994.383C2197.88 993.316 2128.28 992.65 1966.55 992.116L1736.55 991.45L1730.55 988.25C1727.22 986.516 1723.62 983.85 1722.55 982.25C1716.95 974.65 1716.68 971.85 1716.15 919.05C1715.48 850.516 1716.55 844.116 1729.88 837.45L1736.55 834.116L1934.55 833.45C2122.02 832.783 2132.95 832.65 2139.22 830.383C2153.88 824.916 2163.35 815.45 2168.82 800.783C2171.08 794.516 2171.22 786.25 2171.62 670.783C2171.88 580.25 2171.62 545.45 2170.55 540.116C2166.28 520.516 2156.28 509.049 2137.22 502.516C2133.62 501.183 2085.62 500.649 1934.55 500.116L1736.55 499.45L1730.95 496.516C1724.55 493.049 1720.68 488.649 1718.28 481.716C1715.75 474.383 1715.75 370.116 1718.42 361.049C1720.55 353.716 1726.68 347.583 1734.15 345.583C1737.62 344.516 1809.88 344.116 1959.22 344.116C2083.62 344.116 2183.22 343.449 2188.55 342.783C2209.62 340.116 2224.15 330.116 2230.82 313.849L2233.88 306.116L2234.28 176.116C2234.55 79.7162 2234.28 44.2495 2233.08 38.7828C2228.68 17.9829 2215.08 5.31616 2193.08 1.58289C2186.68 0.516235 2064.95 0.116211 1749.75 0.249512C1388.15 0.382812 1313.88 0.649536 1306.95 2.24951Z" fill="#71A2C1"/>
<path d="M2341.88 1.31787C2322.68 4.65125 2312.15 18.6512 2315.88 35.7179C2318.02 45.4513 2322.15 55.9846 2327.08 64.1179C2329.48 68.1179 2335.88 78.9178 2341.22 88.1179C2346.68 97.3179 2358.02 116.518 2366.55 130.785C2375.08 145.051 2386.42 164.251 2391.88 173.451C2397.22 182.651 2408.82 202.118 2417.62 216.785C2426.28 231.451 2435.75 247.318 2438.55 252.118C2441.35 256.918 2450.68 272.785 2459.48 287.451C2468.28 302.118 2479.75 321.585 2485.22 330.785C2490.68 339.985 2502.15 359.451 2510.95 374.118C2519.75 388.785 2529.08 404.651 2531.88 409.451C2534.68 414.251 2544.15 430.118 2552.82 444.785C2561.62 459.451 2573.22 478.918 2578.55 488.118C2584.02 497.318 2595.48 516.785 2604.28 531.451C2612.95 546.118 2622.42 561.985 2625.22 566.785C2628.02 571.585 2637.48 587.451 2646.15 602.118C2654.95 616.785 2666.55 636.251 2671.88 645.451C2677.35 654.651 2688.68 673.851 2697.22 688.118C2705.75 702.385 2717.08 721.585 2722.55 730.785C2727.88 739.985 2739.48 759.451 2748.28 774.118C2756.95 788.785 2766.42 804.651 2769.22 809.451C2772.02 814.251 2780.02 827.718 2787.08 839.585L2799.88 860.918V1075.58C2799.88 1279.98 2800.02 1290.65 2802.28 1299.05C2807.48 1317.72 2817.88 1327.98 2836.55 1332.92C2846.42 1335.58 3201.35 1335.58 3211.22 1332.92C3230.68 1327.72 3242.68 1314.52 3246.55 1293.85C3247.48 1288.78 3247.88 1214.52 3247.88 1068.52V850.785L3250.95 845.718C3252.68 843.051 3256.55 836.518 3259.48 831.451C3262.55 826.251 3270.68 812.518 3277.48 800.785C3284.42 789.051 3296.15 769.185 3303.48 756.785C3310.82 744.251 3322.82 723.851 3330.15 711.451C3337.48 698.918 3349.48 678.518 3356.82 666.118C3364.15 653.585 3376.28 632.918 3383.88 620.118C3391.35 607.318 3403.62 586.518 3410.95 574.118C3418.28 561.585 3430.02 541.585 3437.22 529.451C3449.35 509.051 3456.55 496.651 3490.55 438.785C3497.75 426.651 3509.62 406.385 3517.08 393.851C3531.62 368.918 3549.35 338.785 3570.82 302.518C3578.28 289.851 3590.02 269.851 3596.95 258.118C3603.75 246.385 3611.88 232.518 3614.95 227.451C3617.88 222.251 3623.75 212.385 3627.88 205.451C3632.02 198.518 3638.02 188.251 3641.22 182.785C3644.42 177.318 3650.42 167.051 3654.55 160.118C3658.68 153.185 3664.68 142.918 3667.88 137.451C3671.08 131.985 3677.08 121.718 3681.22 114.785C3685.35 107.851 3691.35 97.5846 3694.55 92.1179C3697.75 86.6512 3702.95 77.8512 3705.88 72.7845C3713.88 59.4513 3716.55 53.8512 3719.75 44.2512C3727.35 21.0513 3718.95 5.45117 3696.68 1.58459C3690.95 0.517944 3633.08 0.11792 3509.08 0.11792C3314.95 0.11792 3311.48 0.251221 3292.68 7.31787C3278.28 12.7845 3270.15 19.5846 3257.08 36.7845C3246.95 50.2512 3243.62 56.1179 3210.55 117.451C3202.68 132.118 3191.35 152.918 3177.22 178.785C3163.08 204.651 3151.75 225.451 3143.88 240.118C3136.28 254.251 3125.62 273.985 3110.68 301.051C3106.28 309.318 3098.82 322.918 3094.42 331.051C3079.48 358.251 3068.82 377.985 3061.22 392.118C3033.08 444.385 3027.88 453.451 3026.55 453.451C3025.62 453.451 3019.08 442.118 3001.22 409.451C2992.82 393.985 2984.95 379.718 2971.62 355.451C2967.48 348.118 2960.42 335.185 2955.88 326.785C2951.35 318.385 2944.28 305.451 2940.15 298.118C2926.15 272.518 2918.82 259.318 2910.55 244.118C2906.02 235.718 2898.95 222.785 2894.82 215.451C2880.82 189.851 2873.48 176.651 2865.22 161.451C2856.95 146.251 2849.62 133.051 2835.62 107.451C2831.48 100.118 2824.42 87.1846 2819.88 78.7845C2801.08 44.6512 2793.88 34.2512 2780.15 21.1846C2768.68 10.5179 2763.08 7.58459 2744.55 3.18457C2736.02 1.05127 2718.42 0.917847 2541.22 0.651245C2434.55 0.517944 2344.82 0.784546 2341.88 1.31787Z" fill="#71A2C1"/>
<path d="M3849.62 2.11633C3834.29 5.44971 3823.35 13.3163 3817.22 25.4497C3810.02 39.4497 3810.42 17.0497 3810.95 428.516C3811.49 843.716 3811.09 819.716 3819.09 878.116C3830.95 963.05 3858.02 1042.12 3896.82 1104.38C3908.69 1123.58 3928.29 1150.78 3939.75 1163.98C3944.55 1169.58 3950.02 1175.85 3951.89 1178.12C3958.55 1186.38 3989.09 1215.58 4003.22 1227.32C4042.15 1259.72 4092.42 1289.72 4138.95 1308.25C4215.49 1338.78 4285.62 1354.38 4379.89 1361.72C4407.75 1363.85 4490.82 1363.85 4519.89 1361.72C4703.49 1348.12 4844.82 1291.72 4945.22 1192.12C4978.29 1159.32 5000.29 1131.32 5028.02 1086.52C5036.95 1072.25 5060.29 1022.78 5065.62 1006.78C5066.82 1003.45 5069.49 995.983 5071.62 990.116C5077.22 974.783 5087.09 938.783 5091.89 915.45C5097.35 889.183 5100.69 865.716 5104.15 831.45C5106.95 803.85 5107.09 799.05 5107.49 428.783C5107.89 166.25 5107.62 51.3163 5106.55 44.783C5103.89 27.4497 5094.82 13.0497 5082.55 6.78296C5069.35 0.116333 5071.09 0.116333 4884.29 0.116333C4761.75 0.116333 4707.49 0.516357 4701.35 1.58301C4683.35 4.64966 4669.89 14.9164 4663.75 30.2496L4660.55 38.1163L4659.75 392.783C4659.22 644.783 4658.55 751.05 4657.49 760.116C4653.75 791.583 4648.69 815.45 4641.62 836.116C4636.95 849.85 4624.95 874.25 4617.22 885.983C4611.09 895.05 4594.82 912.916 4585.89 920.116C4554.29 946.116 4511.22 959.316 4458.55 959.183C4405.35 959.183 4364.02 946.516 4331.62 920.383C4288.82 885.983 4265.49 829.316 4259.89 747.05C4259.09 733.85 4258.55 604.783 4258.55 385.716C4258.55 25.583 4258.82 40.5164 4252.82 26.3831C4249.09 17.7163 4237.62 7.71631 4227.09 3.98303L4217.89 0.782959L4037.89 0.516357C3889.89 0.383057 3856.42 0.649658 3849.62 2.11633Z" fill="#71A2C1"/>
<path d="M756.55 110.785C755.484 112.518 757.084 119.851 758.684 120.918C760.684 122.118 766.55 117.718 766.55 115.051C766.55 113.718 765.884 111.985 764.95 111.051C762.95 109.051 757.75 108.918 756.55 110.785Z" fill="#71A2C1"/>
<path d="M783.484 110.383C782.284 111.583 782.284 118.783 783.617 118.783C784.15 118.65 786.017 117.45 787.884 115.983C791.084 113.317 791.084 113.183 788.55 111.317C785.75 109.183 784.684 109.05 783.484 110.383Z" fill="#71A2C1"/>
<path d="M729.484 124.916C727.484 126.25 726.551 128.25 726.551 131.45C726.551 137.85 728.951 138.65 733.484 133.583C737.617 128.916 738.284 124.783 735.084 123.583C732.417 122.516 732.951 122.383 729.484 124.916Z" fill="#71A2C1"/>
<path d="M813.351 132.65C811.751 134.65 812.551 140.916 814.684 142.25C816.551 143.45 821.217 140.116 821.217 137.583C821.217 135.45 817.351 130.783 815.617 130.783C815.217 130.783 814.151 131.583 813.351 132.65Z" fill="#71A2C1"/>
<path d="M487.885 513.451C485.352 514.917 479.885 518.384 475.885 521.317C458.019 534.384 442.019 544.25 426.019 551.984L408.685 560.384L388.019 581.451C371.485 598.117 366.285 602.517 362.952 603.05C353.752 604.384 354.019 600.784 363.752 587.717C369.219 580.25 371.219 575.317 372.419 565.05C373.085 559.317 372.819 558.517 370.019 557.317C368.019 556.384 362.952 556.25 355.085 557.05L343.219 558.117V924.117C343.219 1229.72 343.485 1291.32 345.085 1297.45C349.219 1314.12 358.819 1325.32 373.619 1330.92L381.885 1334.12H567.885H753.885L761.619 1330.92C777.885 1324.38 787.885 1309.98 790.552 1288.92C792.152 1276.52 792.285 510.784 790.685 510.784C790.019 510.784 788.552 513.317 787.219 516.384C784.152 524.517 771.219 547.317 764.685 556.517C759.352 564.117 744.685 581.984 739.219 587.451C733.352 593.451 718.952 604.917 714.152 607.451C711.485 608.917 709.352 610.651 709.619 611.317C709.885 611.984 719.352 618.117 730.552 624.917C741.885 631.717 754.285 639.984 758.019 643.317C767.352 651.584 771.885 660.784 771.885 671.717C771.885 687.05 765.485 700.917 747.085 725.451C733.485 743.584 725.219 755.717 725.219 757.317C725.219 759.85 730.819 758.917 744.552 754.117C759.752 748.784 760.685 748.651 761.752 751.584C763.619 756.517 751.085 772.784 737.619 782.917C733.752 785.85 730.552 788.784 730.552 789.584C730.552 790.25 734.552 792.784 739.619 794.917C767.752 807.717 775.885 811.984 775.085 813.984C773.219 818.784 750.952 820.25 731.885 816.784C726.419 815.85 721.619 815.184 721.485 815.451C721.219 815.717 721.619 817.984 722.419 820.384C726.552 833.051 729.619 871.451 726.685 875.85C724.419 879.584 719.485 877.051 717.085 870.784C715.752 867.451 711.619 856.784 707.885 847.184C704.152 837.451 700.419 829.184 699.752 828.65C699.085 828.25 698.019 829.051 697.485 830.384C696.952 831.717 692.952 839.451 688.552 847.451C679.885 863.051 670.685 874.517 668.152 872.917C665.485 871.317 666.419 860.117 670.552 844.117C676.419 821.451 677.085 823.051 661.219 823.85C653.219 824.25 645.485 823.85 641.619 822.917C635.352 821.317 630.552 818.25 630.552 815.85C630.552 815.184 638.019 811.184 647.085 806.784C666.419 797.717 675.085 790.651 677.352 782.25C678.152 779.317 682.952 766.384 688.019 753.717C693.085 740.917 698.819 725.317 700.685 719.05C704.552 705.584 706.552 682.651 704.019 679.717C700.819 675.717 687.352 674.25 669.885 675.85C656.952 676.917 651.752 676.917 645.085 675.451C640.152 674.517 636.419 674.25 636.152 674.917C634.152 679.984 625.085 695.584 620.152 702.117C609.885 715.584 572.285 751.984 555.219 764.917C541.219 775.451 530.152 783.184 498.552 804.117C480.285 816.25 463.619 828.517 455.485 836.117C452.685 838.65 449.485 841.184 448.552 841.85C445.219 843.717 427.085 865.85 419.885 876.784C398.952 908.784 384.952 952.25 379.752 1001.32C377.485 1022.78 378.952 1063.58 383.219 1098.65C386.419 1124.25 386.552 1127.45 384.685 1129.18C383.485 1130.38 382.419 1131.05 382.152 1130.65C380.952 1129.32 371.619 1098.92 367.885 1084.38C342.685 984.517 361.085 892.651 423.085 810.117C435.619 793.451 443.219 785.584 496.019 734.384C510.952 719.984 525.885 704.651 529.219 700.517C540.419 686.117 550.419 670.384 554.819 660.25C558.819 650.784 559.085 649.05 559.219 634.784C559.219 606.784 552.285 589.317 524.552 547.451C500.552 511.451 500.152 510.917 495.219 510.917C493.752 510.917 490.419 512.117 487.885 513.451Z" fill="#71A2C1"/>
<path d="M342.551 531.449C342.551 537.049 342.817 537.449 346.284 537.449C351.884 537.449 359.884 535.849 359.884 534.783C359.884 533.316 347.084 525.449 344.684 525.449C343.084 525.449 342.551 526.783 342.551 531.449Z" fill="#71A2C1"/>
<path d="M3873.94 1594.32C3856.83 1600.38 3835.62 1631.06 3812.54 1683.3C3810.61 1687.73 3808.98 1691.5 3808.98 1691.75C3808.98 1691.99 3808.29 1693.88 3807.36 1696.01C3804.26 1703.39 3803.72 1704.79 3802.4 1708.89C3801.63 1711.1 3800.7 1713.32 3800.39 1713.81C3800.08 1714.22 3796.44 1725.29 3792.34 1738.41C3784.36 1763.84 3784.05 1764.58 3778.86 1774.01C3771.28 1787.95 3763.61 1798.37 3754.17 1807.8C3740.08 1821.82 3729.55 1822.89 3732.33 1809.93C3734.5 1799.68 3748.44 1757.11 3753.55 1744.97C3754.17 1743.58 3755.56 1739.56 3756.72 1735.95C3757.88 1732.34 3759.28 1728.24 3759.82 1726.93C3764.7 1714.88 3765.55 1707.17 3762.53 1702.41C3760.13 1698.72 3753.39 1695.03 3746.35 1693.72C3738.22 1692.16 3738.91 1691.17 3732.1 1713.15C3725.06 1735.87 3722.27 1743.17 3713.36 1762.2C3707.17 1775.48 3699.04 1789.75 3693 1797.79C3683.09 1811.16 3671.71 1820.43 3663.27 1822.07C3659.63 1822.81 3657.23 1820.51 3657.23 1816.33C3657.23 1812.55 3659.63 1801.15 3662.57 1791.31C3664.74 1783.93 3674.65 1755.14 3676.9 1749.9C3677.44 1748.5 3678.6 1745.55 3679.3 1743.33C3680.07 1741.04 3681 1738.82 3681.23 1738.41C3681.54 1737.92 3683.09 1733.49 3684.72 1728.57C3686.34 1723.57 3687.89 1719.14 3688.28 1718.73C3689.36 1717.17 3690.76 1707.99 3690.29 1705.85C3688.59 1698.88 3679.69 1693.96 3668.15 1693.47C3662.57 1693.31 3662.96 1692.9 3659.94 1701.92C3657.46 1709.46 3644.46 1743.17 3640.2 1753.18C3632.77 1770.81 3629.05 1777.12 3623.71 1781.8C3619.6 1785.41 3614.26 1787.95 3609.23 1788.77C3603.81 1789.67 3603.19 1789.02 3605.36 1784.18C3609.85 1774.17 3611.09 1770.89 3613.57 1763.1C3617.75 1750.22 3620.84 1734.72 3621.39 1723.98C3622.16 1707.99 3619.22 1698.8 3611.55 1693.31C3608.53 1691.17 3607.45 1690.93 3602.65 1690.93C3597.93 1690.93 3596.69 1691.26 3592.97 1693.72C3588.09 1696.83 3583.91 1701.26 3579.96 1707.41C3578.49 1709.79 3577.18 1711.76 3577.02 1711.76C3576.87 1711.76 3575.47 1710.45 3573.93 1708.89C3560.84 1695.36 3538.16 1707.33 3519.42 1737.59C3510.75 1751.62 3502.08 1774.01 3498.36 1791.72C3497.74 1794.76 3497.35 1802.06 3497.35 1810.59C3497.35 1823.13 3497.51 1825.1 3499.21 1830.1C3507.11 1854.46 3528.01 1861.52 3552.87 1848.07C3564.09 1842 3577.49 1829.37 3587.16 1815.75L3590.8 1810.59L3599.47 1810.83C3608.46 1811.16 3612.4 1810.5 3618.37 1807.55C3620.15 1806.65 3621.85 1806.07 3622.16 1806.32C3622.39 1806.57 3622.08 1808.78 3621.54 1811.16C3620.22 1816.82 3620.15 1833.39 3621.46 1837.81C3623.94 1846.67 3631.53 1853.72 3639.43 1854.71C3650.88 1856.19 3665.9 1848.31 3679.92 1833.47C3685.96 1827.07 3693.62 1817.47 3693.62 1816.24C3693.62 1816 3694.71 1814.69 3695.94 1813.29C3698.11 1811.08 3698.73 1811 3698.27 1813.05C3698.19 1813.46 3697.65 1815.92 3697.03 1818.38C3694.78 1828.05 3696.25 1837.73 3700.98 1844.05C3704.46 1848.64 3711.27 1852 3717.24 1852C3731.95 1852 3752.39 1838.14 3769.88 1816.24C3772.44 1813.13 3774.84 1810.59 3775.3 1810.59C3775.69 1810.59 3776.15 1812.23 3776.31 1814.28C3777.55 1837.32 3782.81 1849.21 3793.5 1853.23C3805.81 1857.83 3825.47 1849.13 3841.81 1831.83C3852.18 1820.84 3859.31 1807.71 3859.31 1799.6C3859.31 1794.1 3858.84 1793.12 3855.36 1791.31C3850.33 1788.52 3849.78 1788.85 3844.21 1797.87C3838.48 1807.22 3830.12 1816.65 3825.16 1819.11C3821.29 1821.17 3816.57 1821.33 3814.94 1819.61C3811.61 1816.16 3811.31 1804.76 3814.01 1786.8C3815.72 1775.48 3816.34 1773.84 3820.05 1770.56C3826.48 1764.99 3840.49 1749.73 3848.7 1739.23C3881.99 1697.08 3905.06 1638.11 3898.79 1610.88C3897.48 1604.98 3893.45 1598.58 3889.66 1596.28C3885.32 1593.74 3878.28 1592.84 3873.94 1594.32ZM3878.97 1623.68C3879.98 1624.09 3880.21 1625.48 3880.21 1630.32C3880.21 1633.76 3879.9 1637.86 3879.51 1639.51C3877.11 1649.26 3875.41 1655.83 3874.79 1657.22C3874.41 1658.12 3873.32 1660.91 3872.47 1663.37C3871.62 1665.83 3870.53 1668.62 3870.15 1669.52C3869.76 1670.42 3867.9 1674.69 3866.04 1678.95C3859.54 1694.04 3847.62 1714.14 3836.93 1728.08C3833.68 1732.26 3830.04 1737.18 3828.73 1738.91C3826.4 1742.1 3824.47 1743.01 3824.47 1740.96C3824.47 1740.38 3826.25 1734.15 3828.42 1727.26C3842.2 1683.22 3860.55 1641.15 3871.93 1627.7C3875.64 1623.27 3876.57 1622.69 3878.97 1623.68ZM3594.06 1727.01C3594.06 1732.34 3593.67 1739.15 3593.13 1742.1C3591.11 1754.32 3587.86 1765.31 3586.39 1764.82C3585.93 1764.58 3585.62 1758.83 3585.69 1749.4C3585.77 1735.46 3585.93 1733.74 3587.86 1726.93C3589.95 1719.63 3591.73 1716.35 3593.28 1716.93C3593.82 1717.09 3594.13 1720.7 3594.06 1727.01ZM3571.29 1725.13C3571.29 1725.7 3570.36 1729.8 3569.2 1734.31C3567.34 1741.78 3567.19 1743.91 3567.11 1757.69C3567.11 1770.81 3567.34 1773.68 3568.74 1779.01C3570.75 1786.64 3572.38 1791.39 3573.69 1793.53C3574.47 1794.92 3574.16 1795.74 3571.22 1800.01C3560.07 1816.08 3548.07 1823.79 3539.78 1820.1C3535.68 1818.29 3533.82 1813.54 3533.51 1803.94C3532.74 1783.77 3540.79 1759.24 3554.18 1740.55C3558.91 1733.98 3568.51 1724.06 3570.21 1724.06C3570.83 1724.06 3571.29 1724.55 3571.29 1725.13Z" fill="#71A2C1"/>
<path d="M4450.89 1594.47C4438.08 1598.98 4423.11 1614.97 4408.46 1640.15C4403.67 1648.35 4389.79 1676.31 4389.79 1677.87C4389.79 1678.12 4388.63 1681.07 4387.16 1684.43C4385.77 1687.71 4383.15 1694.11 4381.38 1698.62C4379.6 1703.13 4377.67 1707.88 4377.13 1709.28C4376.52 1710.59 4374.43 1716.17 4372.43 1721.58C4370.42 1726.99 4368.34 1732.49 4367.8 1733.88C4367.26 1735.19 4365.72 1739.87 4364.33 1744.13C4362.94 1748.4 4361.55 1752.25 4361.24 1752.74C4360.93 1753.15 4360.08 1755.37 4359.31 1757.66C4352.29 1778.25 4332.08 1806.29 4317.88 1815.15C4309.24 1820.48 4304.15 1820.73 4304.15 1815.8C4304.15 1812.11 4307.39 1799.49 4309.55 1794.57C4309.94 1793.66 4311.48 1789.56 4313.02 1785.54C4314.57 1781.44 4316.11 1777.75 4316.5 1777.34C4316.8 1776.85 4317.34 1775.62 4317.65 1774.47C4317.96 1773.33 4319.66 1769.31 4321.28 1765.45C4326.83 1752.74 4327.53 1751.18 4330.15 1744.13C4331.69 1740.11 4333.01 1735.03 4333.24 1732.16C4333.62 1727.48 4333.47 1726.83 4331.31 1723.55C4329.07 1719.94 4321.66 1714.61 4315.72 1712.15C4311.56 1710.51 4298.6 1704.77 4296.44 1703.7C4293.43 1702.31 4291.81 1700.59 4291.81 1698.95C4291.81 1698.13 4293.89 1693.04 4296.44 1687.71C4298.98 1682.3 4301.07 1677.13 4301.07 1676.07C4301.07 1673.11 4298.91 1669.26 4296.21 1667.29C4293.12 1665.08 4281.39 1660.98 4279.85 1661.63C4278.23 1662.29 4261.33 1698.7 4258.56 1707.31C4255.86 1715.92 4256.4 1718.79 4261.49 1723.63C4263.34 1725.27 4264.81 1727.24 4264.81 1727.89C4264.81 1728.55 4263.65 1731.58 4262.18 1734.78C4260.72 1737.9 4258.63 1742.74 4257.55 1745.53C4256.47 1748.31 4254.85 1751.84 4254.01 1753.32C4253.23 1754.79 4251.61 1758.07 4250.53 1760.53C4240.35 1783.41 4222.22 1807.6 4209.18 1815.64C4201.78 1820.32 4196.92 1819.41 4196.92 1813.34C4196.92 1809.16 4204.01 1783.66 4207.41 1775.7C4207.95 1774.31 4209.64 1769.55 4211.19 1765.04C4212.65 1760.53 4214.27 1756.1 4214.66 1755.2C4215.59 1753.32 4220.45 1739.37 4224.84 1726.5C4230.94 1708.38 4231.01 1705.75 4225.92 1700.26C4222.3 1696.4 4215.97 1693.7 4208.8 1692.88C4203.32 1692.22 4203.09 1692.39 4201.24 1699.77C4198.38 1710.67 4189.28 1738.23 4187.81 1740.36C4187.43 1740.85 4186.5 1743.07 4185.73 1745.36C4183.8 1751.02 4174.46 1770.87 4169.53 1779.8C4157.49 1801.54 4140.75 1818.92 4129.18 1821.55C4120.77 1823.51 4120.54 1816.71 4128.02 1790.87C4129.49 1785.71 4131.18 1780.3 4131.8 1778.82C4132.42 1777.43 4132.88 1775.95 4132.88 1775.54C4132.88 1774.88 4136.97 1763.16 4138.28 1760.12C4138.67 1759.22 4140.52 1754.22 4142.45 1749.05C4144.3 1743.89 4147.08 1736.26 4148.62 1732.16C4154.25 1716.58 4156.26 1709.2 4155.64 1705.92C4154.87 1701.32 4150.63 1697.22 4144.45 1695.09C4138.98 1693.21 4129.87 1692.06 4128.56 1693.04C4128.18 1693.37 4126.94 1696.24 4126.02 1699.44C4125.01 1702.55 4123.78 1706.24 4123.24 1707.64C4122.7 1708.95 4121.54 1712.15 4120.62 1714.61C4119.69 1717.07 4118.61 1719.86 4118.22 1720.76C4117.84 1721.66 4116.29 1725.68 4114.75 1729.78C4113.21 1733.8 4111.67 1737.49 4111.36 1737.98C4111.05 1738.39 4110.12 1740.6 4109.35 1742.9C4108.58 1745.12 4107.35 1748.48 4106.65 1750.28C4105.88 1752.09 4103.64 1757.99 4101.64 1763.4C4099.71 1768.82 4097.78 1773.98 4097.39 1774.88C4095.77 1778.57 4090.22 1797.11 4088.44 1804.57C4086.05 1814.74 4085.2 1828.27 4086.59 1835.24C4088.44 1844.51 4094.31 1851.4 4102.41 1853.61C4111.59 1856.15 4122.62 1852.38 4135.43 1842.38C4141.83 1837.29 4154.1 1823.6 4158.5 1816.63C4163.36 1808.75 4163.74 1809.41 4161.43 1821.71C4158.57 1837.54 4168.45 1851.56 4182.41 1851.56C4195.37 1851.56 4210.03 1842.7 4227 1824.5C4239.35 1811.29 4250.69 1795.22 4258.63 1779.72C4260.33 1776.36 4261.33 1774.56 4263.34 1771.19C4263.96 1770.05 4265.04 1767.83 4265.58 1766.27C4266.19 1764.71 4269.36 1757.5 4272.68 1750.28C4275.99 1743.07 4278.69 1736.75 4278.69 1736.26C4278.69 1734.21 4281.16 1734.45 4286.18 1736.83C4289.11 1738.23 4292.19 1740.11 4293.2 1741.01C4295.36 1743.23 4295.43 1747.49 4293.43 1752C4292.66 1753.73 4290.03 1760.2 4287.64 1766.27C4285.17 1772.34 4282.94 1778.08 4282.55 1778.98C4277.84 1789.97 4271.44 1810.39 4269.43 1820.4C4266.35 1836.14 4269.28 1845.66 4279 1851.56C4282.16 1853.53 4283.86 1854.02 4287.56 1854.02C4299.52 1854.02 4315.11 1845.16 4330.38 1829.66C4334.55 1825.48 4338.17 1822.04 4338.48 1822.04C4339.25 1822.04 4338.71 1824.74 4335.86 1835.57C4332.54 1848.03 4329.15 1863.37 4327.14 1874.52C4324.83 1887.56 4324.67 1910.44 4326.83 1917.17C4330 1926.92 4334.09 1932.42 4340.18 1934.88C4344.96 1936.85 4356.54 1936.11 4361.24 1933.57C4380.53 1923.23 4395.11 1899.78 4401.51 1868.78C4403.75 1857.71 4403.75 1837.29 4401.44 1825.81C4400.51 1821.3 4399.82 1816.79 4399.82 1815.72C4399.82 1814.08 4400.05 1813.84 4401.98 1814.33C4403.13 1814.66 4404.75 1815.23 4405.6 1815.72C4406.37 1816.13 4410.23 1816.71 4414.09 1816.95C4419.8 1817.2 4422.03 1816.95 4426.82 1815.48C4434.38 1813.02 4440.24 1810.15 4444.79 1806.78C4446.8 1805.23 4448.73 1804 4449.11 1804C4450.12 1804 4450.73 1806.13 4450.73 1809.41C4450.73 1814.25 4453.2 1825.56 4455.52 1830.98C4460.3 1842.46 4467.55 1848.94 4479.66 1852.87C4487.15 1855.33 4502.19 1854.92 4512.07 1852.13C4535.75 1845.33 4557.97 1826.3 4576.41 1797.11C4579.42 1792.35 4581.89 1788.33 4581.89 1788.17C4581.89 1788 4583.66 1784.56 4585.9 1780.54C4588.06 1776.52 4590.6 1771.6 4591.61 1769.55C4594.31 1763.81 4603.1 1744.21 4605.34 1738.96C4606.5 1736.42 4607.81 1734.29 4608.35 1734.29C4608.89 1734.29 4611.9 1735.68 4615.06 1737.41C4618.92 1739.46 4621.23 1741.26 4622.16 1742.98C4623.47 1745.36 4623.47 1745.61 4622.08 1749.54C4621.23 1751.84 4619.54 1756.1 4618.22 1759.14C4616.91 1762.09 4614.98 1766.93 4613.9 1769.72C4612.82 1772.59 4611.59 1775.62 4611.2 1776.52C4609.51 1780.54 4606.5 1788.58 4604.95 1793.42C4604.03 1796.29 4602.87 1799.73 4602.33 1801.13C4601.79 1802.44 4600.17 1807.85 4598.78 1813.02C4596.62 1820.89 4596.16 1823.76 4596.24 1830.24C4596.24 1838.93 4597.24 1842.13 4601.33 1847.13C4612.75 1860.91 4635.66 1853.2 4660.58 1827.2C4665.75 1821.71 4666.44 1821.3 4667.29 1822.53C4667.83 1823.35 4668.29 1824.83 4668.29 1825.81C4668.29 1828.6 4672.46 1838.27 4675.31 1842.21C4681.02 1850 4689.28 1854.1 4700.39 1854.68C4707.1 1855 4708.95 1854.76 4713.5 1853.2C4726.31 1848.69 4736.57 1839.01 4742.9 1825.56L4746.68 1817.61L4752.46 1815.48C4764.34 1811.05 4771.98 1805.64 4774.76 1799.49C4776.69 1795.22 4776.38 1791.61 4773.76 1788.58C4771.67 1786.12 4769.9 1786.28 4765.81 1789.32C4762.03 1792.11 4753.93 1796.21 4750.69 1797.03C4748.3 1797.68 4748.45 1798.17 4746.6 1785.54C4745.44 1777.34 4744.75 1773.65 4739.96 1750.28C4737.88 1740.03 4737.42 1736.18 4737.42 1727.32C4737.34 1717.48 4737.5 1716.33 4739.35 1712.07C4740.5 1709.44 4742.9 1705.83 4744.67 1703.95C4747.76 1700.67 4754.24 1696.98 4755.47 1697.8C4755.78 1698.04 4756.47 1697.63 4757.01 1696.98C4757.86 1695.91 4757.79 1695.34 4757.01 1693.62C4753.62 1686.97 4747.37 1683.36 4738.88 1683.2C4728.01 1683.04 4718.44 1688.61 4712.27 1698.7C4707.79 1706 4705.86 1711.25 4704.24 1720.19C4703.32 1725.35 4701.78 1729.45 4696.84 1739.7C4693.37 1746.84 4690.28 1753.07 4689.89 1753.56C4689.59 1753.97 4687.04 1759.06 4684.19 1764.88C4672.46 1789.07 4657.8 1807.85 4644.61 1815.64C4634.89 1821.38 4631.57 1820.64 4632.26 1813.02C4632.73 1808.83 4636.82 1794.16 4638.21 1792.11C4638.44 1791.61 4639.36 1789.4 4640.13 1787.18C4640.91 1784.89 4643.07 1779.64 4644.92 1775.46C4646.77 1771.28 4648.23 1767.67 4648.23 1767.5C4648.23 1767.26 4649.7 1763.89 4651.4 1759.96C4661.12 1738.06 4662.89 1729.45 4659.11 1723.47C4656.26 1719.12 4649.01 1714.61 4634.73 1708.46C4623.24 1703.54 4620.62 1702.06 4619.69 1700.34C4619 1698.78 4619.54 1697.22 4623.55 1689.02C4629.8 1676.23 4629.87 1672.21 4624.09 1667.54C4620.62 1664.75 4609.04 1660.81 4607.42 1661.88C4604.95 1663.6 4586.21 1704.93 4584.66 1712.23C4583.97 1715.76 4585.59 1720.02 4589.22 1723.96C4593.15 1728.14 4593.3 1726.34 4588.44 1738.39C4586.75 1742.74 4583.35 1749.95 4578.26 1760.12C4577.8 1761.02 4576.79 1763.4 4576.02 1765.45C4574.02 1770.62 4563.68 1786.94 4558.36 1793.34C4545.32 1809 4532.82 1818.35 4518.62 1822.94C4512.07 1825.07 4503.27 1825.48 4498.03 1823.84C4493.47 1822.45 4488.46 1818.1 4486.38 1813.84C4483.75 1808.59 4482.67 1799.16 4483.83 1791.2C4484.29 1787.68 4484.83 1784.64 4485.07 1784.48C4485.22 1784.23 4487.61 1784.72 4490.23 1785.54C4509.06 1791.2 4528.5 1784.72 4543.78 1767.83C4553.65 1756.76 4558.51 1747.49 4561.52 1733.88C4565.3 1716.33 4560.13 1702.06 4547.32 1694.68C4519.32 1678.44 4483.75 1705.59 4459.68 1761.6C4458.14 1765.21 4456.91 1768.24 4456.91 1768.49C4456.91 1769.8 4451.12 1777.43 4446.34 1782.35C4434.15 1795.06 4417.33 1799.9 4406.3 1793.91C4402.44 1791.86 4394.42 1783.9 4394.42 1782.26C4394.42 1781.77 4396.58 1779.48 4399.28 1777.18C4431.37 1749.38 4464 1694.44 4473.72 1651.87C4477.04 1637.52 4477.2 1636.21 4476.73 1625.14C4475.96 1603.98 4470.64 1594.63 4458.76 1593.65C4455.98 1593.49 4452.89 1593.73 4450.89 1594.47ZM4458.29 1622.76C4461.77 1626.21 4459.99 1640.15 4453.67 1658.84C4450.81 1667.37 4439.78 1691.81 4433.61 1703.13C4429.75 1710.34 4417.48 1729.94 4411.7 1738.06C4404.29 1748.48 4391.95 1763.73 4390.79 1763.73C4389.63 1763.81 4389.48 1761.93 4390.48 1759.88C4390.94 1759.14 4392.49 1754.79 4394.03 1750.28C4395.5 1745.77 4397.12 1741.34 4397.5 1740.44C4397.89 1739.54 4399.97 1733.96 4402.05 1728.14C4408.69 1709.61 4413.32 1697.63 4417.25 1688.53C4418.25 1686.15 4419.1 1684.02 4419.1 1683.77C4419.1 1683.04 4421.19 1678.28 4428.59 1662.12C4439.47 1638.42 4444.72 1629.81 4451.35 1624.24C4455.59 1620.63 4456.06 1620.55 4458.29 1622.76ZM4534.9 1712.07C4536.45 1713.38 4536.75 1714.36 4536.68 1717.64C4536.29 1729.94 4528.27 1747.99 4518.7 1757.91C4511.76 1765.12 4501.65 1769.47 4495.33 1768C4489.62 1766.6 4489.54 1766.11 4494.63 1755.61C4500.34 1743.56 4503.66 1738.06 4510.52 1728.96C4517.7 1719.53 4525.03 1712.97 4530.12 1711.33C4532.97 1710.34 4532.97 1710.34 4534.9 1712.07ZM4707.41 1766.77C4707.87 1770.29 4708.8 1775.46 4709.41 1778.16C4713.04 1794.32 4713.89 1799.32 4713.35 1799.81C4712.04 1801.04 4686.81 1796.78 4686.27 1795.22C4686.04 1794.65 4686.58 1793.17 4687.43 1791.94C4689.43 1788.82 4695.3 1778.49 4695.3 1778C4695.3 1777.75 4696.07 1776.44 4696.99 1775.05C4699.23 1771.69 4701.16 1767.59 4701.85 1764.88C4702.47 1762.17 4704.48 1759.55 4705.63 1759.96C4706.1 1760.12 4706.87 1763.16 4707.41 1766.77ZM4379.22 1809.49C4382.77 1821.46 4384.31 1849.59 4382.15 1862.63C4378.29 1885.35 4370.81 1903.63 4363.02 1909.05C4359.62 1911.51 4357.46 1911.1 4356.15 1907.73C4354.3 1903.06 4354.92 1895.27 4358.85 1872.39C4361.86 1855 4375.36 1805.64 4377.21 1805.64C4377.67 1805.64 4378.6 1807.36 4379.22 1809.49ZM4694.06 1815.39C4697.84 1816.38 4703.63 1817.36 4706.94 1817.61C4710.34 1817.94 4713.43 1818.59 4713.81 1819.17C4714.89 1820.56 4713.73 1823.6 4710.57 1827.37C4703.4 1836.14 4689.2 1835.57 4683.65 1826.22C4681.41 1822.53 4680.1 1816.54 4680.95 1814.16C4681.49 1812.61 4683.03 1812.77 4694.06 1815.39Z" fill="#71A2C1"/>
<path d="M3480.03 1609.12C3436.09 1613.95 3389.3 1657.99 3377.43 1705.72C3375.5 1713.5 3375.12 1726.43 3376.66 1732.98C3379.89 1746.9 3389.53 1756.56 3411.42 1767.94C3416.74 1770.72 3422.75 1773.75 3424.76 1774.65C3430.85 1777.43 3439.79 1783.65 3442.64 1787.26C3446.11 1791.51 3446.73 1794.95 3444.96 1799.86C3440.18 1813.12 3421.75 1820.82 3398.24 1819.43C3379.05 1818.28 3363.17 1812.72 3354.69 1804.04C3353.3 1802.73 3352.07 1801.91 3351.83 1802.32C3349.6 1806.17 3347.44 1811.41 3346.67 1814.84C3345.36 1820.66 3345.98 1829.99 3348.06 1834.16C3351.76 1841.86 3362.63 1849.23 3375.19 1852.5C3383.44 1854.71 3403.33 1855.61 3413.04 1854.22C3441.64 1850.21 3464.23 1835.15 3474.4 1813.37L3478.1 1805.43V1793.89C3478.1 1782.92 3478.03 1782.18 3475.94 1777.84C3471.4 1768.26 3461.61 1760.08 3441.02 1748.78C3420.52 1737.56 3415.05 1732.65 3412.5 1723.32C3410.5 1716.03 3412.73 1705.56 3419.05 1692.46C3429.92 1669.7 3452.36 1648.25 3474.02 1639.66C3483.5 1635.97 3496.3 1634.33 3498.38 1636.55C3499.53 1637.77 3499.61 1645.3 3498.45 1649.81C3494.45 1666.34 3486.51 1680.75 3473.48 1695.24L3467.77 1701.63L3470.24 1704.08C3474.4 1708.34 3477.49 1709.49 3483.88 1709.49C3488.05 1709.49 3490.67 1708.99 3493.37 1707.77C3506.24 1701.71 3518.11 1687.63 3525.43 1669.78C3529.75 1659.47 3530.6 1646.7 3527.75 1638.26C3524.97 1630.32 3519.65 1623.04 3512.95 1618.21C3501.46 1609.86 3493.37 1607.65 3480.03 1609.12Z" fill="#71A2C1"/>
<path d="M4069.31 1609.14C4037.86 1612.57 4004.32 1635.93 3981.94 1670.07C3973.88 1682.41 3968.85 1694.25 3965.98 1707.65C3964.59 1714.1 3964.35 1727 3965.59 1732.56C3968.61 1746.44 3979.15 1756.74 4002.7 1768.74C4006.72 1770.78 4013.54 1774.22 4017.72 1776.42C4027.17 1781.16 4033.99 1787.69 4034.92 1792.59C4035.61 1797 4033.99 1801.82 4030.27 1806.07C4022.37 1815.14 4006.49 1820.12 3988.44 1819.06C3968.77 1817.92 3954.67 1813.34 3944.83 1804.93C3943.05 1803.38 3941.27 1802.15 3940.88 1802.15C3939.88 1802.15 3937.32 1808.03 3935.69 1814.24C3931.9 1828.45 3937.63 1840.3 3951.88 1847.48C3962.03 1852.63 3969.16 1853.94 3987.2 1853.94C4007.89 1854.02 4015.94 1852.38 4031.04 1845.03C4051.42 1835.07 4064.89 1818.57 4067.76 1799.78C4071.25 1777.4 4062.11 1765.39 4027.48 1747.02C4001.38 1733.13 3996.65 1723.9 4004.09 1701.68C4012.15 1677.5 4037.09 1650.8 4060.87 1640.67C4071.71 1636.01 4085.73 1634.05 4087.9 1636.75C4089.29 1638.54 4088.44 1649.32 4086.43 1655.94C4082.17 1669.5 4074.19 1682.73 4063.42 1694.33C4060.25 1697.76 4057.69 1700.87 4057.69 1701.36C4057.69 1702.58 4061.56 1706.18 4064.66 1707.89C4066.52 1708.87 4069.15 1709.28 4073.18 1709.28C4078.14 1709.36 4079.77 1708.95 4084.18 1706.67C4097.04 1700.21 4107.73 1687.31 4115.16 1669.26C4119.66 1658.23 4120.12 1643.93 4116.25 1635.52C4111.6 1625.39 4104.63 1618.29 4094.48 1613.14C4086.19 1608.97 4079.84 1607.99 4069.31 1609.14Z" fill="#71A2C1"/>
<path d="M1103.61 1590.16C1103.02 1590.3 1101.73 1593.26 1100.43 1597.45C1097.31 1607.56 1088.88 1630.18 1084.4 1640.42C1083.55 1642.41 1082.84 1644.2 1082.84 1644.41C1082.84 1644.61 1082.19 1646.19 1081.48 1647.98C1080.7 1649.77 1078.69 1654.58 1077 1658.78C1075.31 1662.9 1073.17 1668.13 1072.2 1670.26C1071.29 1672.39 1070.51 1674.31 1070.51 1674.52C1070.51 1674.66 1069.47 1677.13 1068.24 1680.02C1067.01 1682.84 1064.8 1688.2 1063.31 1691.91C1061.81 1695.63 1060.39 1698.93 1060.06 1699.34C1059.74 1699.68 1059.48 1700.44 1059.48 1701.06C1059.48 1701.67 1059.09 1702.77 1058.57 1703.46C1057.79 1704.63 1057.53 1704.56 1054.55 1701.67C1047.41 1694.73 1040.46 1690.81 1032.67 1689.3C1023.59 1687.58 1011 1691.71 1000.55 1699.82C990.036 1707.93 976.018 1725.53 967.906 1740.72C964.661 1746.77 955.64 1766.44 955.64 1767.4C955.64 1768.7 951.162 1777.57 947.528 1783.49C934.224 1805.28 916.961 1821.44 906.837 1821.64C904.436 1821.71 904.046 1821.5 903.462 1819.85C902.359 1816.49 906.902 1799.3 912.094 1787.34C912.742 1785.82 914.04 1782.66 915.014 1780.39C915.923 1778.05 917.999 1773.17 919.622 1769.46C921.244 1765.82 922.542 1762.72 922.542 1762.59C922.542 1762.45 923.516 1760.11 924.749 1757.29C930.395 1744.37 933.575 1734.67 933.575 1730.48C933.575 1727.25 931.823 1723.4 928.902 1720.37C926.696 1718.11 914.819 1711.64 906.642 1708.27C904.176 1707.24 900.607 1705.66 898.724 1704.77C896.907 1703.87 895.155 1703.12 894.895 1703.12C893.792 1703.12 890.093 1699.48 890.093 1698.44C890.093 1697.76 891.326 1694.8 892.754 1691.78C894.247 1688.75 896.323 1684.56 897.297 1682.49C900.931 1675.07 900.282 1669.91 895.285 1666.06C890.872 1662.69 881.007 1659.26 878.087 1660.15C877.178 1660.36 875.426 1663.38 872.441 1669.98C869.975 1675.14 867.573 1680.16 867.054 1681.12C866.275 1682.49 860.564 1695.21 857.644 1702.09C856.086 1705.73 854.399 1711.92 854.399 1714.05C854.399 1717.62 856.606 1721.82 859.915 1724.43C861.538 1725.74 862.836 1727.04 862.836 1727.39C862.836 1727.73 861.992 1730 860.889 1732.47C859.85 1734.88 858.942 1737.01 858.942 1737.22C858.942 1737.42 857.319 1741.14 855.308 1745.61C853.296 1750.01 851.414 1754.27 851.089 1755.02C847.779 1762.72 839.278 1778.81 834.8 1785.96C822.534 1805.55 810.722 1817.04 799.755 1820.06C795.796 1821.23 793.654 1820.13 792.616 1816.42C791.837 1813.67 792.162 1811.05 794.693 1801.09C796.834 1792.49 802.61 1774.14 804.427 1770.15C804.752 1769.39 806.958 1763.34 809.295 1756.74C811.631 1750.14 813.967 1743.75 814.422 1742.65C814.941 1741.48 816.239 1737.63 817.407 1734.06C818.575 1730.48 819.743 1727.18 820.003 1726.84C820.263 1726.42 820.717 1725.05 820.976 1723.74C821.236 1722.44 821.69 1720.99 821.95 1720.65C822.209 1720.24 822.858 1717.9 823.507 1715.36C826.168 1703.87 823.637 1698.17 813.838 1693.43C810.009 1691.64 808.516 1691.29 803.908 1691.16L798.457 1691.09L796.25 1697.89C795.082 1701.67 793.849 1704.97 793.524 1705.32C793.2 1705.66 791.707 1704.36 790.02 1702.16C786.061 1697.07 781.129 1693.01 776.262 1690.88C773.017 1689.44 771.264 1689.16 766.462 1689.16C752.703 1689.16 738.685 1697.07 724.213 1712.88C712.986 1725.12 704.809 1737.97 696.437 1756.4C690.012 1770.49 689.687 1771.18 688.973 1773.24C688.13 1775.72 678.395 1791.19 674.112 1796.89C664.831 1809.2 652.565 1819.72 645.297 1821.57C643.999 1821.92 643.09 1821.64 641.792 1820.47C640.235 1819.03 640.04 1818.41 640.17 1814.84C640.3 1809.89 645.037 1791.67 648.347 1783.21C648.801 1782.04 649.97 1778.81 650.943 1775.99C651.917 1773.17 653.409 1768.98 654.188 1766.71C655.032 1764.44 656.589 1759.97 657.692 1756.74C658.861 1753.51 660.029 1750.28 660.353 1749.52C661.521 1746.91 668.271 1727.52 670.802 1719.48C674.371 1708.07 674.177 1704.22 670.023 1699.75C665.999 1695.49 659.834 1693.08 649.775 1691.84C646.205 1691.36 646.465 1690.95 643.804 1700.71C641.338 1709.44 638.937 1717.56 637.963 1719.96C637.509 1721.06 636.211 1724.77 635.043 1728.21C617.91 1778.4 592.34 1817.04 572.157 1823.43C566.64 1825.15 566.51 1825.15 564.628 1823.09C562.552 1820.95 562.552 1818.55 564.563 1808.3C566.51 1798.54 576.505 1766.78 580.528 1757.77C580.853 1757.02 582.216 1753.44 583.514 1749.87C584.747 1746.29 587.408 1739.14 589.29 1734.06C593.703 1722.09 597.402 1709.92 597.402 1707.24C597.402 1701.67 592.924 1696.59 585.85 1694.25C581.242 1692.74 569.496 1691.16 568.782 1691.98C568.587 1692.26 567.873 1694.32 567.289 1696.59C566.64 1698.86 565.926 1701.33 565.667 1702.09C565.342 1702.84 564.174 1706.07 563.071 1709.31C561.903 1712.54 560.605 1716.04 560.086 1717.21C559.566 1718.31 556.841 1725.32 553.92 1732.68C551.065 1740.04 548.404 1746.71 548.079 1747.46C546.781 1750.42 539.058 1771.18 537.112 1777.02C535.943 1780.39 534.775 1783.69 534.451 1784.24C534.191 1784.86 533.737 1786.37 533.477 1787.68C533.218 1788.99 532.763 1790.5 532.439 1791.12C531.79 1792.35 529.194 1801.64 527.182 1810.02C525.949 1815.25 525.689 1818 525.689 1827.55C525.689 1837.8 525.819 1839.31 527.182 1842.82C529.129 1847.97 533.477 1852.99 538.15 1855.47C541.525 1857.32 542.368 1857.46 548.339 1857.39C556.127 1857.25 561.643 1855.53 569.236 1850.65C575.596 1846.53 579.101 1843.57 587.278 1835.46C591.366 1831.4 603.243 1815.32 603.243 1813.87C603.243 1813.46 603.697 1813.12 604.281 1813.12C605.449 1813.12 605.449 1812.84 603.567 1823.43C601.62 1833.88 604.022 1842.82 610.317 1849.07C621.025 1859.66 637.898 1856.08 658.731 1838.9C663.598 1834.84 672.814 1825.56 676.708 1820.75C679.693 1817.04 680.147 1817.65 680.991 1827.35C682.484 1843.78 687.286 1852.72 696.761 1856.5C705.003 1859.87 717.464 1856.63 728.432 1848.38C735.57 1843.02 747.122 1829.55 752.833 1819.99C754.521 1817.17 757.311 1813.8 757.895 1813.8C758.025 1813.8 757.895 1815.25 757.636 1817.04C756.662 1823.36 756.987 1832.5 758.415 1838.21C761.919 1852.44 771.199 1857.67 785.866 1853.68C796.575 1850.79 807.283 1844.12 818.9 1833.05C821.301 1830.79 822.339 1829.69 828.894 1822.33C836.422 1813.87 845.962 1799.92 853.88 1785.96C857.774 1779.02 867.119 1759.29 873.414 1744.71C876.464 1737.63 877.892 1735.02 878.801 1734.88C880.553 1734.61 890.417 1739.83 892.364 1742.03C894.571 1744.57 894.441 1747.46 891.715 1753.58C890.482 1756.4 889.444 1758.87 889.444 1759.08C889.444 1759.22 888.535 1761.49 887.432 1764.1C884.642 1770.7 884.706 1770.63 881.137 1779.77C873.674 1798.82 868.612 1815.25 866.665 1826.04C864.264 1839.52 868.806 1850.93 878.411 1855.67C892.364 1862.55 918.389 1848.04 940.584 1821.09C942.076 1819.24 943.439 1817.86 943.634 1818C943.764 1818.2 944.218 1821.57 944.543 1825.49C945.905 1840.82 950.838 1850.72 959.275 1855.26C962.584 1856.98 967.517 1858.15 970.891 1857.87C973.487 1857.67 981.859 1855.19 984.78 1853.82C989.777 1851.41 1000.94 1842.88 1004.83 1838.55C1009.83 1832.92 1011.58 1830.85 1014.83 1826.45C1018.2 1821.99 1023.39 1813.94 1023.91 1812.43C1024.04 1812.09 1024.5 1811.74 1025.02 1811.6C1025.8 1811.47 1025.99 1813.25 1026.05 1822.05C1026.18 1832.98 1026.77 1836.22 1029.82 1842.47C1031.57 1846.05 1036.44 1850.52 1040.14 1851.96C1046.17 1854.37 1056.17 1853.75 1063.05 1850.58C1064.15 1850.03 1066.42 1849 1068.24 1848.18C1074.99 1845.15 1084.27 1837.8 1092.77 1828.72C1098.03 1823.15 1101.34 1820.06 1101.73 1820.47C1102.05 1820.82 1102.63 1824.05 1103.02 1827.62C1103.67 1834.43 1105.56 1842.06 1107.5 1846.12C1109.19 1849.62 1113.8 1854.3 1117.24 1856.02C1119.57 1857.12 1121.39 1857.39 1126.65 1857.39C1136.38 1857.39 1143.65 1854.23 1153.58 1845.7C1161.04 1839.38 1169.67 1828.79 1175.9 1818.41C1177.2 1816.21 1178.63 1814.49 1179.08 1814.7C1179.67 1814.9 1179.8 1817.45 1179.67 1824.53C1179.54 1831.54 1179.73 1835.12 1180.45 1838.07C1184.08 1852.37 1192.91 1857.46 1207.51 1853.82C1216.4 1851.55 1222.7 1848.11 1233.08 1839.86C1251.51 1825.22 1271.24 1798.2 1284.09 1769.8C1285.58 1766.57 1289.02 1759.01 1291.81 1752.96C1294.6 1746.91 1297.52 1740.31 1298.3 1738.32C1299.28 1735.91 1300.12 1734.74 1300.9 1734.74C1302.85 1734.74 1312.78 1739.97 1314.27 1741.69C1315.05 1742.58 1315.83 1744.02 1316.02 1744.92C1316.34 1746.5 1314.92 1751.79 1313.03 1755.71C1309.53 1762.93 1297.91 1793.18 1294.15 1804.87C1286.88 1827.62 1286.62 1842.06 1293.44 1850.1C1298.37 1856.02 1305.05 1858.49 1312.32 1857.12C1324.91 1854.85 1338.67 1846.18 1353.27 1831.4C1357.94 1826.59 1362.03 1822.12 1362.23 1821.37C1362.62 1820.06 1364.5 1819.37 1364.5 1820.47C1364.5 1820.82 1364.63 1824.74 1364.69 1829.27C1364.82 1835.46 1365.15 1838.35 1366.12 1840.96C1368.78 1848.32 1372.22 1852.58 1378 1855.47C1381.18 1857.12 1382.48 1857.39 1387.54 1857.32C1400.32 1857.32 1413.76 1849.62 1428.81 1833.81C1433.29 1829.07 1437.9 1823.98 1439.07 1822.54C1440.17 1821.09 1441.34 1820.06 1441.66 1820.27C1441.92 1820.47 1442.38 1823.36 1442.64 1826.66C1444.32 1850.38 1456.01 1861.65 1473.85 1856.77C1482.22 1854.43 1490.6 1849 1498.97 1840.48C1503.58 1835.73 1513.76 1822.4 1515.39 1819.03C1517.59 1814.29 1520.9 1811.88 1519.93 1815.66C1518.83 1819.85 1518.83 1831.68 1519.93 1836.7C1523.18 1851.75 1532.39 1857.6 1547.32 1854.02C1559.39 1851.07 1569.32 1844.95 1580.42 1833.53C1593.52 1820.06 1601.77 1803.84 1600.47 1794.35C1600.08 1791.74 1599.5 1790.7 1597.35 1788.78C1594.89 1786.51 1590.54 1785 1589.11 1785.89C1588.79 1786.17 1587.29 1789.05 1585.74 1792.35C1579.7 1805.69 1571.78 1815.66 1564.71 1818.96C1558.87 1821.71 1555.95 1821.09 1554.65 1816.9C1553.55 1813.25 1554.85 1805.9 1559.19 1791.46C1561.4 1784.1 1569.97 1759.29 1571.46 1755.71C1572.76 1752.69 1580.16 1731.92 1581.26 1728.21C1581.71 1726.7 1582.43 1724.5 1582.88 1723.4C1584.5 1719.14 1586 1712.95 1586.26 1708.96C1586.65 1703.74 1584.83 1699.75 1580.42 1696.18C1576.07 1692.74 1571.65 1691.23 1565.49 1691.16L1560.3 1691.09L1558.29 1697.41C1557.18 1700.92 1555.82 1704.29 1555.17 1704.91C1554.2 1705.94 1554.07 1705.87 1553.09 1703.94C1551.6 1700.85 1543.75 1693.63 1539.79 1691.71C1535.31 1689.51 1529.92 1688.48 1526.16 1688.96C1516.23 1690.4 1506.56 1694.66 1497.86 1701.54C1481.58 1714.39 1464.77 1738.87 1454.45 1764.65C1453.09 1768.02 1451.72 1771.11 1451.4 1771.45C1451.07 1771.87 1450.81 1772.62 1450.81 1773.17C1450.81 1774.89 1441.27 1790.64 1435.76 1798.06C1426.15 1811.05 1417.72 1818.75 1409.41 1821.99C1402.14 1824.87 1399.87 1823.09 1400.52 1815.18C1401.1 1808.51 1406.16 1789.6 1409.6 1781.15C1410.06 1779.98 1411.94 1775.03 1413.76 1770.15C1415.64 1765.2 1417.39 1760.59 1417.72 1759.84C1418.04 1759.08 1420.25 1753.51 1422.58 1747.46C1424.98 1741.41 1427.45 1735.22 1428.1 1733.71C1428.68 1732.2 1429.46 1730.21 1429.72 1729.24C1429.98 1728.28 1430.57 1726.56 1431.08 1725.46C1432.84 1721.34 1435.89 1711.09 1435.89 1709.44C1435.89 1700.71 1426.48 1692.67 1414.28 1691.09C1410.45 1690.54 1407.98 1691.02 1407.98 1692.33C1407.98 1693.08 1398.96 1717.49 1397.27 1721.34C1396.75 1722.44 1395.33 1726.15 1394.03 1729.59C1392.73 1732.96 1391.3 1736.67 1390.85 1737.84C1390.33 1738.94 1389.42 1741.41 1388.77 1743.34C1388.12 1745.19 1387.21 1747.53 1386.76 1748.49C1386.3 1749.46 1385.92 1750.49 1385.92 1750.76C1385.92 1751.04 1385.01 1753.37 1383.97 1755.92C1373.84 1779.64 1359.63 1800.95 1346.2 1812.5C1338.73 1818.96 1328.93 1823.36 1326.27 1821.44C1324.39 1820.13 1325.75 1811.67 1329.91 1798.82C1330.82 1795.93 1331.79 1793.18 1332.05 1792.84C1332.24 1792.42 1333.02 1790.57 1333.67 1788.71C1334.32 1786.79 1336.14 1782.39 1337.7 1778.88C1339.25 1775.37 1340.49 1772.35 1340.49 1772.21C1340.49 1772 1341.72 1769.19 1343.15 1765.89C1352.1 1745.67 1354.83 1737.91 1355.22 1731.65C1355.54 1727.25 1355.41 1726.63 1353.66 1724.02C1351.19 1720.17 1348.92 1718.24 1342.76 1714.94C1337.05 1711.85 1336.59 1711.64 1324.91 1706.56C1315.57 1702.43 1312.78 1700.78 1312.26 1699.06C1312.06 1698.24 1313.55 1694.39 1316.41 1688.61C1318.88 1683.53 1321.21 1678.23 1321.54 1676.79C1322.77 1671.98 1319.85 1666.75 1314.27 1663.86C1311.48 1662.42 1302.78 1659.81 1300.83 1659.81C1299.6 1659.81 1297.13 1664.28 1288.89 1681.81C1282.21 1695.83 1280.39 1700.09 1278.44 1706.14C1275.59 1714.87 1276.82 1721.06 1282.14 1724.5C1285 1726.42 1285.26 1727.73 1283.44 1731.72C1282.79 1733.16 1281.3 1736.53 1280.13 1739.21C1274.36 1752.76 1273.32 1755.09 1272.67 1756.06C1271.95 1756.95 1270.33 1760.52 1268.19 1765.68C1266.44 1769.94 1255.73 1788.37 1251.64 1794.07C1241.19 1808.72 1229.19 1819.03 1220.88 1820.47C1216.27 1821.23 1213.81 1817.72 1214.65 1811.54C1215.82 1803.7 1219.97 1787.89 1222.7 1781.15C1223.15 1779.98 1224.77 1775.51 1226.27 1771.18C1231.26 1757.02 1231.91 1755.09 1234.38 1748.49C1241.52 1729.24 1244.96 1718.59 1246.32 1711.64C1247.1 1707.93 1247.03 1706.97 1246.12 1703.94C1243.92 1697.07 1236.52 1691.98 1227.04 1690.95C1220.55 1690.19 1220.62 1690.13 1218.15 1698.65C1217.18 1702.02 1216.21 1705.11 1216.08 1705.39C1215.88 1705.73 1213.29 1703.32 1210.24 1700.02C1205.76 1695.14 1203.75 1693.56 1199.72 1691.57C1195.18 1689.3 1194.34 1689.16 1188.62 1689.16C1181.42 1689.16 1176.75 1690.47 1168.44 1694.94C1159.03 1699.89 1147.48 1710.06 1140.41 1719.55C1138.59 1722.02 1136.9 1724.22 1136.64 1724.43C1135.93 1725.05 1129.11 1735.71 1126.32 1740.59C1123.4 1745.54 1115.29 1762.17 1115.29 1763.14C1115.29 1763.41 1113.73 1767.12 1111.79 1771.45C1101.4 1794.76 1081.28 1816.62 1068.63 1818.41C1066.49 1818.69 1065.97 1818.48 1064.54 1816.62C1062.2 1813.74 1061.75 1809.4 1063.05 1801.09C1063.96 1794.97 1065.97 1786.17 1067.27 1782.52C1067.52 1781.77 1068.69 1777.92 1069.86 1773.93C1071.03 1769.94 1072.33 1765.75 1072.78 1764.65C1073.24 1763.48 1074.4 1760.25 1075.38 1757.43C1080.5 1742.72 1091.28 1713.98 1094.52 1706.21C1095.56 1703.74 1103.8 1682.22 1104.65 1679.54C1105.17 1678.16 1105.81 1676.44 1106.2 1675.76C1108.02 1672.39 1119.7 1640.08 1123.79 1627.15C1126.32 1618.97 1126.58 1617.6 1126.58 1611C1126.65 1604.4 1126.52 1603.57 1125.02 1601.37C1122.1 1596.97 1117.24 1593.53 1111.07 1591.68C1105.49 1589.89 1104.84 1589.82 1103.61 1590.16ZM774.834 1713.98C778.079 1715.84 782.167 1719.62 784.049 1722.44C785.996 1725.46 785.931 1727.66 783.79 1732.75C783.141 1734.4 781.778 1738.11 780.804 1740.93C779.831 1743.75 778.338 1747.6 777.495 1749.52C776.651 1751.38 774.769 1756.06 773.276 1759.84C762.633 1786.1 746.928 1809.68 734.013 1818.48C726.939 1823.29 722.72 1823.98 719.605 1820.82C716.685 1818 715.971 1812.43 717.139 1802.87C717.658 1798.89 718.243 1795.04 718.437 1794.42C718.697 1793.8 719.216 1791.46 719.67 1789.26C720.774 1784.1 723.889 1773.17 724.538 1772.21C724.797 1771.87 725.576 1769.94 726.225 1768.09C727.653 1763.82 728.367 1762.11 732.001 1753.99C742.19 1731.37 755.235 1715.36 765.813 1712.54C767.89 1711.99 772.627 1712.74 774.834 1713.98ZM1038.19 1714.19C1041.7 1716.04 1045.01 1719.34 1046.89 1722.78C1048.38 1725.46 1048.44 1726.01 1047.8 1728.69C1047.41 1730.34 1046.82 1732.27 1046.56 1733.02C1046.24 1733.78 1045.07 1737.15 1043.9 1740.59C1041.83 1746.64 1038.71 1755.09 1035.92 1761.9C1033.39 1768.22 1025.99 1783.14 1022.16 1789.74C1012.1 1807 1001.46 1818.41 992.373 1821.57C988.089 1823.15 986.532 1823.02 984.455 1821.16C982.508 1819.37 981.015 1814.56 981.015 1810.02C980.951 1802.74 984.715 1784.59 988.738 1772.9C993.606 1758.67 1001.07 1742.17 1006.39 1733.85C1013.66 1722.44 1021.32 1715.01 1028.33 1712.67C1030.6 1711.92 1035.27 1712.61 1038.19 1714.19ZM1199.01 1715.49C1201.09 1716.94 1204.01 1719.76 1205.5 1721.75L1208.35 1725.26L1207.19 1728.83C1195.37 1764.72 1177.14 1799.5 1163.25 1812.7C1157.08 1818.55 1149.95 1822.67 1145.92 1822.74C1138.46 1822.81 1136.71 1811.88 1141.05 1792.49C1143.2 1782.87 1146.12 1773.04 1148.78 1766.71C1149.23 1765.54 1150.21 1763.07 1150.85 1761.21C1154.49 1751.24 1162.41 1736.94 1169.29 1727.73C1174.48 1720.86 1177.46 1717.9 1182.26 1715.15C1188.95 1711.3 1193.3 1711.37 1199.01 1715.49ZM1537.06 1714.26C1542.39 1717.69 1548.36 1724.36 1547.77 1726.36C1547.58 1726.97 1547.19 1728.14 1546.86 1728.9C1546.6 1729.66 1545.37 1733.02 1544.27 1736.46C1542.13 1742.58 1541.8 1743.47 1539.08 1750.21C1535.9 1758.19 1534.6 1761.07 1529.54 1771.73C1516.36 1799.23 1502.8 1816.42 1490.4 1821.44C1485.14 1823.57 1481.84 1822.81 1479.95 1819.24C1476.12 1811.54 1480.08 1788.3 1489.36 1764.31C1499.94 1737.08 1515.97 1715.36 1527.72 1712.47C1530.12 1711.85 1534.66 1712.74 1537.06 1714.26Z" fill="#71A2C1"/>
<path d="M489.998 1606.18C468.451 1610.85 446.97 1624.95 424.84 1648.73C404.462 1670.67 384.733 1702.01 373.895 1729.58C372.597 1732.95 371.234 1736.39 370.909 1737.15C369.871 1739.62 365.782 1752.82 364.42 1758.11C360.85 1771.66 359.682 1781.63 360.071 1795.24C360.396 1805.83 361.045 1810.36 363.122 1815.52C371.234 1836.07 383.11 1848.52 401.477 1855.67C415.949 1861.31 438.014 1859.86 454.628 1852.16C465.92 1847.01 478.056 1838.27 484.092 1831.12C484.871 1830.23 486.428 1828.37 487.596 1827C492.074 1821.71 496.682 1813.32 500.706 1803.14C502.458 1798.81 504.73 1786.44 504.665 1782.18C504.6 1780.87 504.081 1778.05 503.561 1775.99C502.977 1773.93 502.393 1771.52 502.199 1770.63L501.874 1769.11H512.972H524.134L526.406 1763.89C527.704 1761 529.131 1756.19 529.715 1753.09C532.117 1739.69 526.535 1735.43 506.612 1735.43C473.384 1735.43 456.38 1742.16 449.371 1758.11C448.268 1760.59 447.165 1763.06 446.905 1763.61C446.062 1765.26 444.699 1771.93 445.088 1772.28C445.283 1772.48 447.684 1772.34 450.475 1771.93C453.33 1771.59 460.858 1770.9 467.283 1770.49C473.708 1770.08 480.198 1769.59 481.756 1769.46C485.195 1769.04 485.65 1769.94 483.962 1774.06C483.313 1775.64 482.34 1778.12 481.885 1779.43C478.965 1787.4 471.047 1799.71 464.558 1806.38C458.068 1813.04 446.775 1819.78 439.572 1821.29C437.69 1821.71 434.704 1822.39 432.887 1822.81C431.135 1823.22 426.722 1823.56 423.153 1823.56C418.026 1823.56 415.884 1823.29 413.028 1822.12C402.839 1817.99 398.232 1804.86 400.049 1785.2C400.438 1780.8 401.087 1775.92 401.412 1774.41C403.294 1764.92 404.267 1760.73 405.306 1757.08C407.252 1750.21 410.952 1739.9 413.288 1734.6C414.521 1731.85 416.144 1728.21 416.857 1726.49C421.919 1714.73 435.029 1693.01 445.283 1679.4C452.162 1670.25 468.322 1652.79 475.331 1647.02C486.169 1637.87 496.293 1632.72 503.302 1632.65C508.753 1632.65 511.155 1634.3 512.712 1639.18C513.686 1642.34 513.686 1643.1 512.777 1648.8C510.96 1659.87 508.299 1668.33 503.107 1679.4C500.122 1685.72 492.464 1698.37 490.971 1699.33C488.635 1700.85 491.88 1703.66 498.37 1705.86C502.199 1707.17 510.181 1706.96 514.335 1705.52C526.406 1701.33 537.568 1687.16 544.253 1667.64C546.2 1661.87 546.329 1660.97 546.394 1651.9C546.459 1642.75 546.394 1642 544.577 1637.46C538.996 1623.37 526.99 1611.47 513.75 1606.87C506.482 1604.39 499.278 1604.19 489.998 1606.18Z" fill="#71A2C1"/>
<path d="M2580.13 1597.06C2579.74 1597.54 2579.16 1598.92 2578.96 1600.02C2577.53 1606.41 2571.82 1626.14 2568.12 1637.48C2567.08 1640.71 2564.94 1647.31 2563.32 1652.26C2561.76 1657.15 2560.21 1661.82 2559.88 1662.58C2559.56 1663.33 2555.73 1674.13 2551.38 1686.64C2546.97 1699.08 2543.07 1710.22 2542.55 1711.39C2542.1 1712.49 2540.35 1717.16 2538.72 1721.7C2533.34 1736.41 2532.75 1738.06 2528.34 1749.89C2525.94 1756.28 2522.5 1764.81 2520.68 1768.79C2510.49 1791.14 2496.28 1808.67 2479.8 1819.19C2461.88 1830.6 2440.4 1833.01 2432.81 1824.34C2427.94 1818.84 2426 1809.15 2427.36 1797.12C2428.07 1790.72 2429.44 1783.92 2430.93 1779.45C2438.07 1758.28 2448.52 1739.99 2460.52 1727.68C2466.95 1721.15 2474.48 1716.68 2477.72 1717.51C2481.55 1718.54 2482.59 1725.55 2480.38 1735.45C2478.56 1743.63 2472.59 1755.39 2467.21 1761.3C2465.91 1762.74 2465.19 1764.19 2465.39 1764.74C2465.58 1765.36 2467.14 1766.32 2468.83 1766.87C2483.04 1772.02 2496.22 1764.67 2504.59 1747C2508.48 1738.68 2509.46 1734.56 2509.46 1725.48C2509.52 1718.13 2509.39 1717.3 2507.64 1713.52C2505.17 1708.16 2498.81 1701.56 2493.49 1698.88C2486.87 1695.44 2484.66 1694.89 2478.04 1694.96C2466.88 1695.1 2455.59 1699.98 2442.93 1710.15C2438.07 1714 2427.23 1725.41 2423.53 1730.5C2416.59 1739.99 2408.73 1753.46 2403.93 1763.98C2396.34 1780.62 2395.23 1782.89 2391.6 1788.59C2380.37 1806.26 2368.37 1818.43 2357.27 1823.66C2351.95 1826.06 2350.45 1826.2 2348.57 1824.21C2347.08 1822.62 2346.95 1822.07 2347.27 1819.12C2347.79 1815.27 2350.84 1805.23 2353.12 1800.01C2354.02 1797.94 2355.45 1794.51 2356.3 1792.31C2357.2 1790.17 2360.45 1782.96 2363.5 1776.36C2379.92 1741.29 2385.43 1725.34 2384.4 1715.99C2383.36 1706.71 2377.97 1698.74 2370.9 1696.2C2352.27 1689.32 2324.63 1710.01 2296.13 1752.02C2293.02 1756.56 2290.49 1760.54 2290.49 1760.75C2290.49 1761.03 2289.52 1762.74 2288.35 1764.53C2287.18 1766.32 2286.01 1768.38 2285.75 1769.07C2285.36 1770.1 2285.1 1770.24 2284.52 1769.62C2283.93 1769 2284 1768.38 2284.58 1766.94C2285.43 1765.01 2285.88 1763.91 2288.74 1757.11C2291.4 1750.78 2297.43 1734.28 2299.38 1728.16C2301.85 1720.19 2301.98 1711.87 2299.57 1708.29C2298.73 1706.99 2297.69 1705.54 2297.3 1705.2C2293.47 1701.08 2284.84 1697.23 2279.26 1697.09L2275.43 1696.95L2273.62 1703.14C2270.82 1712.56 2264.08 1732.08 2261.93 1736.83C2261.61 1737.58 2259.66 1742.53 2257.71 1747.83C2250.38 1767.21 2240.19 1787.22 2230.85 1800.42C2220.46 1815.13 2206.38 1826.54 2198.66 1826.54C2196.52 1826.54 2194.63 1824.41 2194.11 1821.59C2193.53 1818.29 2195.61 1808.19 2199.89 1794.23C2201.06 1790.31 2215.6 1749.2 2216.76 1746.45C2217.28 1745.28 2218.45 1741.91 2219.43 1738.89C2220.4 1735.86 2221.57 1732.43 2222.09 1731.33C2223.64 1727.48 2226.24 1716.89 2226.3 1714.14C2226.5 1707.26 2221.57 1701.21 2213.52 1698.4C2208.98 1696.81 2201.77 1695.99 2200.6 1696.88C2200.15 1697.3 2198.85 1700.59 2197.81 1704.17C2196.71 1707.74 2195.54 1710.77 2195.15 1710.91C2194.76 1711.04 2192.62 1709.12 2190.48 1706.64C2183.02 1698.19 2176.59 1694.89 2167.83 1694.96C2148.23 1695.23 2127.85 1711.25 2109.03 1741.23C2104.3 1748.79 2098.45 1760.34 2094.5 1769.82C2087.49 1786.74 2078.34 1801.17 2066.91 1813C2059 1821.32 2051.01 1826.54 2044.72 1827.64C2042.38 1827.99 2041.93 1827.85 2041.08 1826.47C2038.81 1822.69 2044.26 1804.41 2054.91 1780.21C2056.34 1776.91 2057.5 1774.09 2057.5 1773.95C2057.5 1773.74 2058.61 1771.06 2060.03 1767.97C2065.62 1755.18 2068.21 1748.31 2070.16 1741.09C2073.08 1730.16 2067.17 1723.97 2044.52 1714.41C2039.72 1712.35 2034.08 1709.74 2031.87 1708.64C2028.04 1706.58 2027.98 1706.51 2028.04 1703.83C2028.11 1701.83 2029.21 1698.95 2032.19 1693.17C2035.63 1686.64 2036.41 1684.58 2036.61 1681.35C2037.13 1674.33 2033.36 1670.48 2022.91 1667.32C2014.28 1664.64 2015.97 1662.78 2004.74 1686.78C1994.49 1708.71 1991.96 1715.31 1991.96 1720.12C1991.96 1723.42 1994.16 1727.82 1997.08 1730.23C1998.19 1731.12 1999.1 1732.22 1999.1 1732.77C1999.1 1733.25 1997.93 1736.28 1996.5 1739.51C1995.07 1742.74 1992.74 1748.1 1991.31 1751.33C1989.88 1754.56 1988.71 1757.38 1988.71 1757.59C1988.71 1758.07 1970.93 1796.02 1969.57 1798.36C1969.05 1799.32 1966.39 1804.41 1963.66 1809.7C1953.99 1828.4 1943.87 1844.35 1937.44 1851.02C1935.69 1852.87 1934.2 1854.8 1934.2 1855.28C1934.2 1856.38 1935.95 1859.47 1937.64 1861.19C1938.35 1861.88 1940.23 1863.05 1941.92 1863.67C1951.59 1867.52 1961.97 1856.38 1977.87 1825.17C1980.92 1819.05 1990.01 1799.94 1990.01 1799.52C1990.01 1799.32 1991.7 1795.4 1993.84 1790.72C1999.87 1777.18 2001.69 1772.99 2001.69 1772.64C2001.69 1772.51 2002.6 1770.31 2003.64 1767.83C2004.74 1765.29 2007.47 1758.83 2009.74 1753.33C2011.95 1747.83 2014.35 1742.6 2015.06 1741.71L2016.29 1739.99L2021.81 1742.74C2027.65 1745.69 2031.54 1748.99 2031.54 1751.06C2031.54 1752.71 2029.79 1758 2027.65 1762.95C2026.61 1765.22 2023.89 1772.02 2021.49 1778.07C2019.08 1784.12 2016.75 1789.97 2016.29 1791.14C2015.84 1792.24 2014.28 1796.57 2012.85 1800.76C2005.33 1822.35 2004.03 1827.78 2004.03 1838.92C2003.96 1846.69 2004.09 1847.85 2005.52 1850.88C2007.53 1855.21 2011.69 1859.61 2015.71 1861.6C2018.18 1862.91 2019.86 1863.25 2023.69 1863.19C2037.71 1863.12 2054.52 1852.6 2072.95 1832.46C2077.3 1827.71 2081.13 1823.79 2081.52 1823.79C2081.91 1823.79 2082.17 1825.79 2082.17 1828.81C2082.17 1840.91 2086.84 1854.45 2092.68 1859.06C2097.48 1862.84 2098.91 1863.32 2106.18 1863.25C2111.95 1863.19 2113.71 1862.91 2117.86 1861.26C2124.67 1858.58 2132.07 1853.22 2139.08 1845.86C2145.38 1839.19 2154.85 1826.47 2156.6 1822.21C2157.19 1820.84 2158.1 1819.67 2158.55 1819.67C2159.33 1819.67 2159.39 1821.04 2159 1827.02C2158.23 1841.39 2161.02 1851.57 2167.38 1856.86C2171.01 1859.89 2173.87 1860.92 2178.86 1860.92C2183.93 1860.85 2192.82 1858.44 2198.33 1855.55C2203.2 1853.01 2214.36 1844.69 2219.81 1839.54C2222.93 1836.51 2225.66 1834.11 2225.85 1834.11C2225.98 1834.11 2226.11 1836.72 2226.11 1839.88C2226.04 1851.77 2231.56 1858.58 2243.96 1862.02C2249.73 1863.6 2258.23 1864.08 2259.08 1862.91C2259.4 1862.36 2260.25 1859.13 2260.83 1855.76C2263.43 1841.94 2269.46 1824.27 2276.86 1809.01C2281.99 1798.42 2296.13 1775.46 2304.12 1764.67C2310.67 1755.87 2323.2 1742.53 2328.45 1738.75C2335.92 1733.46 2341.95 1731.46 2344.74 1733.39C2346.82 1734.83 2346.76 1736.83 2344.42 1742.88C2341.82 1749.61 2341.63 1750.03 2334.68 1764.94C2320.73 1795.06 2313.2 1812.86 2313.2 1815.75C2313.2 1816.23 2312.94 1816.92 2312.62 1817.33C2311.26 1818.84 2309.18 1831.01 2309.5 1835.2C2310.41 1845.17 2316.71 1854.66 2324.88 1858.24C2328.26 1859.68 2338.45 1859.47 2344.03 1857.89C2346.56 1857.14 2348.9 1856.38 2349.22 1856.1C2349.61 1855.83 2351.36 1855.07 2353.12 1854.39C2357.07 1852.87 2363.89 1848.34 2369.99 1843.18C2375.25 1838.78 2386.73 1826.54 2388.29 1823.72C2390.04 1820.63 2391.47 1821.11 2391.92 1824.96C2393.29 1836.92 2397.05 1846 2403.48 1852.74C2408.34 1857.96 2411.85 1860.09 2419.05 1862.22C2425.15 1864.01 2437.29 1864.22 2444.82 1862.57C2461.04 1859.06 2479.54 1848.4 2494.46 1833.97C2498.49 1830.19 2498.88 1829.84 2499.27 1830.26C2499.53 1830.46 2499.33 1832.25 2498.94 1834.17C2496.67 1844.62 2499.46 1853.77 2506.41 1858.58C2510.43 1861.33 2515.36 1862.84 2524.32 1863.94C2532.36 1864.97 2533.21 1864.63 2533.21 1860.99C2533.21 1859.95 2533.79 1856.1 2534.44 1852.32C2538.53 1829.64 2546.32 1810.18 2559.75 1788.73C2579.61 1757.04 2600.51 1735.31 2613.81 1732.7C2615.69 1732.29 2616.41 1732.49 2617.51 1733.66C2618.29 1734.49 2618.87 1735.52 2618.87 1736C2618.87 1738.06 2613.94 1749.75 2604.4 1770.17C2594.47 1791.48 2588.05 1806.33 2586.42 1811.76C2585.97 1813.27 2585.39 1814.79 2585.13 1815.2C2584.87 1815.54 2584.02 1818.64 2583.24 1822.07C2582.47 1825.44 2581.56 1829.22 2581.3 1830.46C2580.71 1832.66 2581.75 1839.05 2583.31 1843.39C2585.71 1850.05 2592.46 1856.65 2598.76 1858.65C2606.22 1860.92 2619.72 1857.96 2630.04 1851.7C2638.86 1846.41 2648.92 1837.54 2656.77 1828.06C2658.07 1826.47 2659.44 1825.31 2659.82 1825.51C2660.15 1825.79 2660.41 1827.71 2660.41 1829.84C2660.41 1840.91 2665.34 1854.59 2670.92 1859.06C2675.72 1862.84 2677.15 1863.32 2684.42 1863.25C2690.2 1863.19 2691.95 1862.91 2696.1 1861.26C2702.92 1858.58 2710.32 1853.22 2717.32 1845.86C2723.62 1839.19 2733.09 1826.47 2734.85 1822.21C2735.43 1820.84 2736.34 1819.67 2736.79 1819.67C2737.57 1819.67 2737.64 1821.04 2737.25 1827.02C2736.47 1841.39 2739.26 1851.57 2745.62 1856.86C2751.66 1861.95 2758.79 1862.22 2771.06 1857.89C2780.02 1854.73 2792.09 1845.86 2802.86 1834.45C2814.87 1821.8 2822.52 1811.35 2832.78 1793.41C2837.26 1785.64 2850.24 1758.28 2856.01 1744.53C2856.86 1742.39 2858.02 1740.61 2858.54 1740.61C2861.46 1740.61 2870.81 1745.9 2873.14 1748.86C2874.64 1750.71 2873.53 1754.43 2866.91 1770.86C2860.55 1786.6 2855.75 1799.32 2853.48 1806.26C2852.9 1808.12 2852.12 1810.32 2851.79 1811.07C2850.56 1814.03 2847.38 1827.16 2846.6 1832.25C2844.52 1846.41 2848.68 1856.79 2858.28 1861.54C2861.2 1862.91 2862.83 1863.25 2866.78 1863.19C2879.83 1863.05 2896.25 1852.94 2913.51 1834.52C2917.92 1829.77 2921.82 1826.13 2922.14 1826.34C2922.4 1826.54 2922.47 1828.4 2922.21 1830.53C2921.69 1835 2921.62 1834.24 2922.6 1840.98C2925.58 1861.88 2942.39 1869.03 2963.22 1858.37C2972.7 1853.49 2984.96 1842.7 2995.8 1829.71C2998.4 1826.54 2999.89 1825.24 3000.09 1825.92C3000.22 1826.47 3000.54 1829.98 3000.73 1833.76C3001.45 1847.37 3006.45 1857.48 3014.56 1861.67C3017.28 1863.12 3018.58 1863.32 3024.49 1863.25C3030.59 1863.25 3031.82 1863.05 3036.43 1860.99C3042.92 1858.24 3048.69 1854.11 3055.18 1847.85C3060.51 1842.63 3067.97 1833.07 3072.19 1826.2C3075.17 1821.32 3077.19 1818.98 3077.83 1819.39C3078.16 1819.6 3078.03 1820.42 3077.57 1821.25C3076.54 1823.31 3076.6 1839.12 3077.64 1843.04C3082.25 1860.16 3092.63 1864.63 3112.04 1857.75C3127.03 1852.53 3147.08 1833.21 3154.15 1817.26C3155.32 1814.58 3156.62 1811.83 3157.01 1811.07C3157.4 1810.32 3157.85 1807.29 3158.05 1804.41C3158.31 1799.87 3158.18 1798.84 3156.88 1796.64C3156.1 1795.33 3154.67 1793.75 3153.7 1793.27C3151.43 1792.03 3147.66 1791.27 3146.82 1791.96C3146.43 1792.31 3144.87 1795.19 3143.38 1798.56C3137.74 1811.14 3129.88 1821.18 3122.87 1824.69C3118.01 1827.16 3115.22 1827.09 3113.4 1824.62C3112.1 1822.97 3111.97 1822.21 3112.36 1817.61C3112.94 1809.22 3117.81 1792.92 3127.42 1766.87C3128.97 1762.61 3130.27 1758.96 3130.27 1758.76C3130.27 1758.55 3130.66 1757.38 3131.18 1756.21C3132.22 1753.53 3133.58 1749.89 3135.53 1744.39C3136.31 1742.12 3137.15 1739.64 3137.48 1738.89C3139.62 1733.46 3143.58 1720.12 3144.22 1716.34C3144.94 1711.73 3143.12 1706.85 3139.16 1703C3135.07 1699.08 3130.34 1697.23 3123.07 1696.75L3118.07 1696.47L3115.99 1703.34C3113.14 1712.56 3113.07 1712.63 3110.93 1709.67C3108.53 1706.37 3103.86 1701.63 3100.74 1699.36C3090.16 1691.66 3074.72 1693.93 3057.72 1705.68C3051.74 1709.81 3039.54 1722.66 3033.51 1731.19C3025.07 1743.15 3014.82 1762.74 3009.56 1777.04C3008.78 1779.11 3007.81 1781.31 3007.35 1781.86C3006.9 1782.41 3006.32 1783.44 3006.06 1784.12C3004.43 1789.01 2988.6 1811.42 2983.34 1816.37C2982.24 1817.4 2980.49 1818.98 2979.38 1820.01C2972.31 1826.47 2962.77 1830.74 2959.72 1828.74C2958.1 1827.64 2957.71 1823.93 2958.62 1818.43C2959.59 1812.52 2961.41 1804.75 2962.19 1803.17C2962.44 1802.55 2962.9 1801.04 2963.16 1799.73C2963.42 1798.42 2963.87 1796.91 2964.13 1796.29C2964.46 1795.74 2965.17 1793.68 2965.75 1791.82C2966.92 1788.25 2972.83 1772.23 2973.87 1769.82C2975.81 1765.22 2985.29 1741.02 2987.82 1734.08C2989.44 1729.54 2991.07 1725.21 2991.39 1724.45C2994.31 1717.51 2993.73 1710.08 2989.9 1705.61C2985.81 1700.94 2977.18 1697.09 2970.36 1697.02L2966.47 1696.95L2961.8 1709.33C2959.26 1716.13 2955.5 1726.03 2953.42 1731.33C2951.41 1736.62 2948.17 1744.94 2946.35 1749.89C2939.41 1768.11 2935.84 1775.6 2927.27 1789.42C2921.62 1798.63 2917.92 1803.79 2912.54 1809.91C2904.49 1819.12 2893.91 1826.54 2887.49 1827.57C2883.53 1828.19 2882.69 1827.09 2883.27 1822.21C2883.72 1818.57 2885.28 1811.49 2886.25 1809.01C2886.51 1808.26 2887.88 1804.54 2889.17 1800.76C2890.47 1796.98 2892.42 1791.96 2893.46 1789.62C2894.5 1787.29 2895.34 1785.22 2895.34 1785.02C2895.34 1784.88 2896.38 1782.27 2897.68 1779.31C2903.06 1767.07 2904.04 1764.67 2906.83 1757.79C2912.67 1743.43 2914.1 1737.79 2912.86 1733.18C2911.11 1726.24 2905.27 1722.11 2884.76 1713.38C2873.66 1708.64 2870.03 1706.3 2870.03 1704.17C2870.03 1703.41 2870.94 1701.01 2872.04 1698.88C2880.02 1683.27 2880.93 1680.04 2878.4 1675.3C2877.17 1673.03 2876 1672 2872.3 1670.14C2867.76 1667.73 2861.33 1665.67 2858.54 1665.67C2857.24 1665.67 2855.95 1668.01 2848.35 1684.03C2831.55 1719.71 2831.09 1723.01 2841.41 1731.53C2842.97 1732.84 2842.97 1732.84 2841.86 1735.73C2837.13 1748.44 2821.23 1781.44 2815.39 1790.79C2806.3 1805.51 2797.73 1815.41 2789.23 1821.25C2784.49 1824.41 2779.63 1826.54 2776.9 1826.54C2774.76 1826.54 2772.88 1824.41 2772.36 1821.59C2771.77 1818.29 2773.85 1808.19 2778.13 1794.23C2779.3 1790.31 2793.84 1749.2 2795.01 1746.45C2795.53 1745.28 2796.69 1741.91 2797.67 1738.89C2798.64 1735.86 2799.81 1732.43 2800.33 1731.33C2801.89 1727.48 2804.48 1716.89 2804.55 1714.14C2804.74 1707.26 2799.81 1701.21 2791.76 1698.4C2787.22 1696.81 2780.02 1695.99 2778.85 1696.88C2778.39 1697.3 2777.1 1700.59 2776.06 1704.17C2774.95 1707.74 2773.79 1710.77 2773.4 1710.91C2773.01 1711.04 2770.87 1709.12 2768.72 1706.64C2761.26 1698.19 2754.84 1694.89 2746.07 1694.96C2726.47 1695.23 2706.1 1711.25 2687.28 1741.23C2682.54 1748.79 2676.7 1760.34 2672.74 1769.82C2666.18 1785.71 2659.63 1796.22 2648.79 1808.19C2637.37 1820.84 2623.61 1828.26 2619.85 1823.79C2618.68 1822.42 2618.68 1822.35 2620.17 1814.51C2621.08 1809.84 2624.13 1801.59 2628.67 1791.69C2630.75 1787.08 2632.5 1783.16 2632.5 1782.96C2632.5 1782.75 2635.81 1775.53 2639.84 1766.94C2648.53 1748.38 2650.61 1743.49 2653.72 1734.21C2655.87 1727.75 2656.06 1726.51 2656.13 1719.29C2656.19 1712.14 2656.06 1711.04 2654.5 1707.61C2652.3 1702.59 2647.75 1697.91 2643.41 1696.26C2634.9 1692.96 2624.78 1695.78 2611.8 1704.99C2596.55 1715.93 2575.78 1739.51 2561.24 1762.4C2559.75 1764.74 2558.52 1767.01 2558.52 1767.35C2558.52 1767.76 2558.06 1768.11 2557.54 1768.11C2556.44 1768.11 2556.25 1765.98 2557.22 1764.12C2557.54 1763.5 2558.26 1761.85 2558.78 1760.54C2562.15 1752.16 2588.7 1681.76 2589.34 1679.42C2589.6 1678.46 2590.06 1677.36 2590.32 1677.01C2590.58 1676.6 2591.75 1673.37 2592.91 1669.8C2594.08 1666.22 2595.38 1662.3 2595.83 1661.2C2599.14 1652.61 2605.37 1632.81 2606.87 1626C2608.1 1620.37 2608.1 1614.25 2606.87 1611.08C2604.53 1605.24 2598.04 1600.22 2589.86 1597.95C2583.96 1596.3 2580.91 1596.03 2580.13 1597.06ZM2177.18 1720.26C2178.67 1721.15 2181.52 1723.69 2183.6 1725.89C2187.75 1730.43 2188.08 1731.81 2186.07 1737.03C2185.35 1738.82 2183.86 1742.88 2182.76 1746.11C2181.59 1749.34 2180.03 1753.46 2179.19 1755.39C2178.34 1757.24 2177.05 1760.54 2176.2 1762.61C2173.02 1770.65 2164.85 1787.36 2160.3 1794.99C2151.15 1810.32 2141.81 1820.97 2133.69 1825.51C2122.79 1831.49 2118.51 1828.74 2118.51 1815.61C2118.51 1805.78 2122.86 1785.16 2126.88 1776.01C2127.2 1775.26 2128.57 1771.82 2129.93 1768.45C2137.98 1747.89 2150.18 1729.13 2159.85 1722.32C2166.6 1717.58 2171.92 1716.96 2177.18 1720.26ZM2755.42 1720.26C2756.91 1721.15 2759.77 1723.69 2761.84 1725.89C2766 1730.43 2766.32 1731.81 2764.31 1737.03C2763.6 1738.82 2762.1 1742.88 2761 1746.11C2759.83 1749.34 2758.28 1753.46 2757.43 1755.39C2756.59 1757.24 2755.29 1760.54 2754.45 1762.61C2751.27 1770.65 2743.09 1787.36 2738.55 1794.99C2729.4 1810.32 2720.05 1820.97 2711.94 1825.51C2701.03 1831.49 2696.75 1828.74 2696.75 1815.61C2696.75 1805.78 2701.1 1785.16 2705.12 1776.01C2705.45 1775.26 2706.81 1771.82 2708.17 1768.45C2716.22 1747.89 2728.42 1729.13 2738.09 1722.32C2744.84 1717.58 2750.16 1716.96 2755.42 1720.26ZM3095.42 1720.53C3098.86 1722.53 3105.61 1729.81 3105.61 1731.6C3105.61 1732.63 3102.88 1740.68 3100.81 1745.76C3100.35 1746.86 3099.57 1748.93 3099.12 1750.23C3098.67 1751.54 3097.56 1754.29 3096.72 1756.28C3095.94 1758.28 3094.45 1761.78 3093.54 1764.19C3087.96 1778.28 3077.25 1797.81 3068.88 1809.01C3060.12 1820.84 3049.86 1828.61 3043.05 1828.61C3038.9 1828.61 3036.17 1823.59 3036.17 1816.23C3036.23 1792.1 3053.82 1747.41 3070.31 1729.26C3080.17 1718.47 3087.44 1715.93 3095.42 1720.53ZM2556.12 1769.82C2555.92 1770.44 2555.6 1770.79 2555.47 1770.58C2555.27 1770.37 2555.34 1769.96 2555.6 1769.55C2556.18 1768.45 2556.57 1768.66 2556.12 1769.82Z" fill="#71A2C1"/>
<path d="M1920.56 1610.4C1904.86 1611.84 1888.7 1614.59 1879.03 1617.48C1864.88 1621.67 1865.79 1621.12 1863.26 1627.52C1862.35 1629.78 1860.6 1633.98 1859.37 1636.8C1858.13 1639.62 1856.38 1643.88 1855.41 1646.22C1854.5 1648.62 1853.01 1652.2 1852.1 1654.12C1851.25 1656.11 1849.96 1659.28 1849.24 1661.2C1848.59 1663.06 1846.97 1666.98 1845.74 1669.8C1844.5 1672.61 1843.27 1675.71 1843.01 1676.67C1842.75 1677.63 1841.71 1680.25 1840.67 1682.51C1839.7 1684.78 1836.98 1691.59 1834.57 1697.64C1832.24 1703.69 1830.03 1709.26 1829.71 1710.01C1829.38 1710.77 1828.47 1713.11 1827.76 1715.17C1826.98 1717.23 1826.01 1719.84 1825.49 1721.01C1825.03 1722.11 1823.28 1726.79 1821.59 1731.33C1819.97 1735.86 1818.35 1740.19 1818.03 1740.95C1817.05 1743.22 1811.8 1757.79 1810.17 1762.61C1809.39 1765.08 1808.49 1767.35 1808.29 1767.76C1808.03 1768.11 1806.28 1773.26 1804.4 1779.11C1802.51 1784.95 1800.7 1790.04 1800.5 1790.45C1800.24 1790.79 1799.79 1792.24 1799.53 1793.54C1799.27 1794.85 1798.82 1796.22 1798.56 1796.64C1798.3 1796.98 1797.84 1798.42 1797.58 1799.73C1797.32 1801.04 1796.87 1802.55 1796.61 1803.17C1795.7 1804.96 1792.26 1817.61 1790.05 1826.89C1787.2 1839.12 1787.07 1847.92 1789.66 1853.08C1793.3 1860.64 1799.01 1863.6 1810.63 1864.15L1817.83 1864.49L1820.3 1856.38C1825.68 1838.78 1838.99 1796.71 1842.75 1785.29C1844.96 1778.69 1847.1 1772.03 1847.55 1770.51C1848.01 1769 1848.79 1767.69 1849.31 1767.56C1849.83 1767.42 1851.64 1768.52 1853.27 1769.96C1860.66 1776.43 1871.11 1779.73 1883.9 1779.79C1904.99 1779.79 1927.25 1768.04 1947.5 1746.18C1961.65 1730.91 1971.19 1715.72 1978.78 1696.2C1982.74 1686.02 1986.05 1667.05 1985.14 1659.69C1983.84 1648.76 1983.26 1646.49 1980.27 1639.89C1973.07 1624.01 1960.87 1615.35 1939.45 1611.02C1937.05 1610.53 1923.81 1610.12 1920.56 1610.4ZM1943.6 1645.39C1947.04 1647.04 1949.05 1649.03 1950.16 1651.85C1951.2 1654.46 1951.33 1662.16 1950.48 1666.5C1947.69 1679.76 1946.91 1682.93 1946.46 1683.27C1946.13 1683.48 1945.87 1684.16 1945.87 1684.85C1945.87 1686.91 1939.19 1700.66 1935.17 1706.92C1924.39 1723.76 1910.44 1736.48 1894.61 1743.91C1883.64 1749.06 1870.46 1751.26 1861.05 1749.48C1855.93 1748.51 1855.02 1747.69 1856.25 1745.21C1856.64 1744.39 1860.14 1734.56 1864.1 1723.42C1868.06 1712.28 1871.5 1702.52 1871.83 1701.76C1872.15 1701.01 1873.19 1698.4 1874.03 1695.92C1877.28 1686.98 1884.29 1667.94 1886.17 1663.26C1887.21 1660.58 1888.96 1656.05 1890.06 1653.09C1891.23 1650.2 1892.59 1647.52 1893.24 1647.18C1893.83 1646.9 1896.49 1646.35 1899.15 1646.08C1901.81 1645.8 1907.84 1645.18 1912.45 1644.7C1924.59 1643.4 1940.23 1643.74 1943.6 1645.39Z" fill="#71A2C1"/>
<path d="M2994.3 1618.37C2988.52 1620.64 2982.36 1627.79 2979.7 1635.28C2976.45 1644.22 2975.55 1655.29 2977.43 1661.96C2980.02 1671.31 2990.67 1675.36 3000.14 1670.55C3009.88 1665.67 3017.73 1651.78 3018.51 1638.03C3018.9 1631.02 3017.92 1627.51 3014.55 1623.53C3011.24 1619.61 3007.54 1618.03 3001.5 1617.75C2998.58 1617.68 2995.4 1617.89 2994.3 1618.37Z" fill="#71A2C1"/>
<path d="M1441.53 1610.93C1435.75 1613.2 1429.59 1620.35 1426.93 1627.84C1423.68 1636.78 1422.77 1647.85 1424.65 1654.51C1427.25 1663.86 1437.89 1667.92 1447.37 1663.11C1457.1 1658.23 1464.96 1644.34 1465.73 1630.59C1466.12 1623.58 1465.15 1620.07 1461.78 1616.08C1458.47 1612.17 1454.77 1610.58 1448.73 1610.31C1445.81 1610.24 1442.63 1610.45 1441.53 1610.93Z" fill="#71A2C1"/>
<circle cx="1693.96" cy="1780.56" r="26.8331" fill="#71A2C1"/>
<circle cx="3252.12" cy="1780.56" r="26.8331" fill="#71A2C1"/>
</svg>
