<svg width="5109" height="1937" viewBox="0 0 5109 1937" fill="none" xmlns="http://www.w3.org/2000/svg">
<path d="M39.9988 2.6662C35.5988 3.59955 29.7322 5.46619 26.7988 6.6662C19.9988 9.59955 9.19884 20.5329 6.13218 27.5995C0.532176 40.9329 0.532176 42.5329 0.932176 203.333C1.33218 345.066 1.46551 357.866 3.59884 364C8.93218 379.733 19.9988 390.133 36.2655 394.933C43.3322 397.066 56.7988 397.333 185.332 398C323.199 398.666 326.799 398.666 331.999 401.333C335.599 403.066 338.266 405.733 339.999 409.333C342.399 414.266 342.666 418.133 343.332 458.666L343.999 502.666L356.932 503.066L369.732 503.466L365.866 496C363.332 491.6 361.999 487.2 362.266 485.066C362.666 481.6 363.066 481.333 368.399 481.466C375.199 481.6 383.332 486.8 389.332 495.066C391.599 498 393.999 500.533 394.932 500.533C395.732 500.666 397.199 498.4 397.999 495.6C399.999 489.6 404.266 484.666 407.466 484.666C411.466 484.666 414.399 492.266 414.532 502.266C414.532 510.133 414.932 511.333 416.932 511.333C422.532 511.333 451.466 495.066 475.066 478.8C503.599 459.066 506.666 457.733 518.399 461.2C534.666 465.866 547.199 476.266 571.332 504.666C584.132 519.866 601.199 533.733 605.199 532.266C607.732 531.2 613.732 514 623.999 478C637.332 430.933 639.199 425.866 660.266 383.866C670.932 362.4 679.466 344.266 679.199 343.466C678.932 342.666 674.932 344.4 669.999 347.6C644.132 363.866 629.332 361.2 603.599 335.733C587.866 320.133 582.266 315.466 574.132 311.333C566.132 307.333 553.866 307.466 540.666 311.733C535.199 313.6 530.266 314.8 529.732 314.533C528.266 313.6 529.999 309.733 534.932 303.6C539.999 297.466 539.999 297.333 529.332 296C510.932 293.733 484.666 285.333 484.666 282C484.666 279.333 489.199 278.666 510.932 278C523.466 277.6 534.266 276.933 534.799 276.4C535.599 275.6 524.266 260.933 520.532 258C520.132 257.6 515.999 252.266 511.466 246C498.666 228.8 493.332 216.666 498.666 216.666C499.732 216.666 506.799 222.8 514.266 230.266C529.332 245.333 538.132 252.666 540.799 252.666C542.266 252.666 542.532 250 542.132 240.4C541.599 225.733 543.866 213.6 547.066 214.266C549.866 214.8 554.266 223.866 560.132 240.933C562.799 249.333 565.599 255.333 566.532 255.333C567.599 255.333 569.732 251.6 571.332 247.066C574.399 238.666 580.932 230.533 583.332 232C583.999 232.4 584.666 238.133 584.666 244.666C584.666 258.666 586.532 268.4 590.799 276.8C597.066 289.2 623.599 307.333 635.599 307.333C640.132 307.333 641.066 306.533 649.732 295.6C668.266 272.533 687.732 258 707.199 252.666C711.732 251.466 712.666 250.666 711.999 248.933C705.066 232.4 703.066 211.466 706.532 192.266C707.599 185.866 711.066 173.6 714.132 165.066C719.332 150.666 719.599 149.066 718.266 143.866C717.066 139.333 717.066 137.066 718.666 132.666C721.999 123.2 725.332 119.866 734.132 116.8C739.199 115.066 745.066 111.733 749.466 108C753.999 104.133 758.399 101.6 761.466 101.066L766.399 100.266L765.599 91.7329C764.932 85.4662 763.466 80.7996 759.866 74.1329C752.666 61.1996 755.599 56.2662 765.332 64.7996C767.999 67.1996 770.266 68.7996 770.399 68.5329C770.666 68.2662 771.599 65.5995 772.532 62.6662C776.132 52.1329 779.732 49.0662 783.466 53.4662C784.932 55.1996 784.799 57.4662 782.932 66.3996C780.932 76.2662 780.799 78.3996 782.666 88.3996C784.932 101.6 785.199 102 789.732 102C795.599 102 801.866 106.8 804.532 113.2C806.266 117.2 808.266 119.466 810.932 120.4C816.399 122.266 825.332 130.533 827.866 135.866C830.532 141.466 830.666 147.333 827.999 150.8C825.732 153.733 825.466 164 827.332 176.666C828.266 183.066 828.132 188.8 826.666 198.666C823.999 216.533 821.066 226.266 812.799 244.533C809.066 252.933 805.999 261.466 805.999 263.466C805.999 270.266 824.399 300.4 835.332 311.333C851.866 328.133 870.799 335.6 877.732 328.266C883.332 322.4 880.932 314.533 868.799 299.466C859.466 287.866 861.199 286.4 875.332 293.733C884.266 298.4 886.266 298.933 886.932 297.2C887.732 294.933 886.532 269.333 885.199 262.266C884.532 258.933 884.799 258 886.532 258C889.199 258 895.199 267.6 899.466 278.666C901.199 283.466 902.932 287.333 903.332 287.2C903.732 287.2 907.066 283.066 910.932 278.133C917.466 269.466 928.266 260.666 932.266 260.666C935.199 260.666 934.266 265.466 928.532 278C925.599 284.666 922.799 292 922.399 294.4L921.732 298.8L929.732 300.4C938.399 302.133 946.399 306.8 947.066 310.4C947.599 313.066 946.532 313.466 936.399 314.666C932.132 315.2 927.466 316.533 925.732 317.866L922.799 320.4L927.199 325.466C934.532 333.733 939.732 348.666 935.199 348.666C934.532 348.666 930.132 345.6 925.599 342C920.266 337.6 916.132 335.333 913.732 335.333C910.532 335.333 909.866 336.133 908.666 340.933C904.266 358.4 894.799 373.333 884.132 380C878.666 383.333 876.132 384 869.466 384C857.866 384 847.999 378.8 835.466 366.4C829.999 361.066 825.466 356.8 825.332 356.933C824.266 358.133 821.066 396.133 821.866 397.066C822.399 397.6 883.732 397.866 958.132 397.733C1092.8 397.333 1093.33 397.333 1101.73 394.4C1112.93 390.666 1119.6 385.866 1125.2 377.6C1135.33 362.666 1134.67 374.533 1134.67 199.333V42.6662L1131.47 32.9329C1126.13 16.5329 1114.27 6.5329 1095.47 2.5329C1082.67 -0.133789 52.2655 -0.133789 39.9988 2.6662Z" fill="#71A2C1"/>
<path d="M1307.73 2.80029C1286.13 7.46704 1273.47 21.3336 1270 44.0004C1269.07 50.5337 1268.67 239.067 1268.93 674L1269.33 1294.67L1272.4 1303.2C1278.13 1319.07 1287.2 1327.73 1303.33 1332.8C1311.47 1335.33 1319.07 1335.33 1755.87 1335.07L2200 1334.67L2207.87 1331.47C2223.47 1325.2 2233.47 1311.6 2236.53 1292.67C2238.4 1281.07 2238.53 1047.33 2236.67 1035.33C2233.33 1014.4 2222.13 1001.2 2202 994.934C2198.67 993.867 2129.07 993.2 1967.33 992.667L1737.33 992L1731.33 988.8C1728 987.067 1724.4 984.4 1723.33 982.8C1717.73 975.2 1717.47 972.4 1716.93 919.6C1716.27 851.067 1717.33 844.667 1730.67 838L1737.33 834.667L1935.33 834C2122.8 833.334 2133.73 833.2 2140 830.934C2154.67 825.467 2164.13 816 2169.6 801.334C2171.87 795.067 2172 786.8 2172.4 671.334C2172.67 580.8 2172.4 546 2171.33 540.667C2167.07 521.067 2157.07 509.6 2138 503.067C2134.4 501.734 2086.4 501.2 1935.33 500.667L1737.33 500L1731.73 497.067C1725.33 493.6 1721.47 489.2 1719.07 482.267C1716.53 474.934 1716.53 370.667 1719.2 361.6C1721.33 354.267 1727.47 348.134 1734.93 346.134C1738.4 345.067 1810.67 344.667 1960 344.667C2084.4 344.667 2184 344 2189.33 343.334C2210.4 340.667 2224.93 330.667 2231.6 314.4L2234.67 306.667L2235.07 176.667C2235.33 80.267 2235.07 44.8003 2233.87 39.3336C2229.47 18.5337 2215.87 5.86694 2193.87 2.13367C2187.47 1.06702 2065.73 0.666992 1750.53 0.800293C1388.93 0.933594 1314.67 1.20032 1307.73 2.80029Z" fill="#71A2C1"/>
<path d="M2342.67 1.8667C2323.47 5.20007 2312.93 19.2001 2316.67 36.2667C2318.8 46.0001 2322.93 56.5334 2327.87 64.6667C2330.27 68.6667 2336.67 79.4667 2342 88.6667C2347.47 97.8667 2358.8 117.067 2367.33 131.333C2375.87 145.6 2387.2 164.8 2392.67 174C2398 183.2 2409.6 202.667 2418.4 217.333C2427.07 232 2436.53 247.867 2439.33 252.667C2442.13 257.467 2451.47 273.333 2460.27 288C2469.07 302.667 2480.53 322.133 2486 331.333C2491.47 340.533 2502.93 360 2511.73 374.667C2520.53 389.333 2529.87 405.2 2532.67 410C2535.47 414.8 2544.93 430.667 2553.6 445.333C2562.4 460 2574 479.467 2579.33 488.667C2584.8 497.867 2596.27 517.333 2605.07 532C2613.73 546.667 2623.2 562.533 2626 567.333C2628.8 572.133 2638.27 588 2646.93 602.667C2655.73 617.333 2667.33 636.8 2672.67 646C2678.13 655.2 2689.47 674.4 2698 688.667C2706.53 702.933 2717.87 722.133 2723.33 731.333C2728.67 740.533 2740.27 760 2749.07 774.667C2757.73 789.333 2767.2 805.2 2770 810C2772.8 814.8 2780.8 828.267 2787.87 840.133L2800.67 861.467V1076.13C2800.67 1280.53 2800.8 1291.2 2803.07 1299.6C2808.27 1318.27 2818.67 1328.53 2837.33 1333.47C2847.2 1336.13 3202.13 1336.13 3212 1333.47C3231.47 1328.27 3243.47 1315.07 3247.33 1294.4C3248.27 1289.33 3248.67 1215.07 3248.67 1069.07V851.333L3251.73 846.267C3253.47 843.6 3257.33 837.067 3260.27 832C3263.33 826.8 3271.47 813.067 3278.27 801.333C3285.2 789.6 3296.93 769.733 3304.27 757.333C3311.6 744.8 3323.6 724.4 3330.93 712C3338.27 699.467 3350.27 679.067 3357.6 666.667C3364.93 654.133 3377.07 633.467 3384.67 620.667C3392.13 607.867 3404.4 587.067 3411.73 574.667C3419.07 562.133 3430.8 542.133 3438 530C3450.13 509.6 3457.33 497.2 3491.33 439.333C3498.53 427.2 3510.4 406.933 3517.87 394.4C3532.4 369.467 3550.13 339.333 3571.6 303.067C3579.07 290.4 3590.8 270.4 3597.73 258.667C3604.53 246.933 3612.67 233.067 3615.73 228C3618.67 222.8 3624.53 212.933 3628.67 206C3632.8 199.067 3638.8 188.8 3642 183.333C3645.2 177.867 3651.2 167.6 3655.33 160.667C3659.47 153.733 3665.47 143.467 3668.67 138C3671.87 132.533 3677.87 122.267 3682 115.333C3686.13 108.4 3692.13 98.1334 3695.33 92.6667C3698.53 87.2001 3703.73 78.4 3706.67 73.3334C3714.67 60.0001 3717.33 54.4 3720.53 44.8C3728.13 21.6001 3719.73 6 3697.47 2.13342C3691.73 1.06677 3633.87 0.666748 3509.87 0.666748C3315.73 0.666748 3312.27 0.800049 3293.47 7.8667C3279.07 13.3334 3270.93 20.1334 3257.87 37.3334C3247.73 50.8 3244.4 56.6667 3211.33 118C3203.47 132.667 3192.13 153.467 3178 179.333C3163.87 205.2 3152.53 226 3144.67 240.667C3137.07 254.8 3126.4 274.533 3111.47 301.6C3107.07 309.867 3099.6 323.467 3095.2 331.6C3080.27 358.8 3069.6 378.533 3062 392.667C3033.87 444.933 3028.67 454 3027.33 454C3026.4 454 3019.87 442.667 3002 410C2993.6 394.533 2985.73 380.267 2972.4 356C2968.27 348.667 2961.2 335.733 2956.67 327.333C2952.13 318.933 2945.07 306 2940.93 298.667C2926.93 273.067 2919.6 259.867 2911.33 244.667C2906.8 236.267 2899.73 223.333 2895.6 216C2881.6 190.4 2874.27 177.2 2866 162C2857.73 146.8 2850.4 133.6 2836.4 108C2832.27 100.667 2825.2 87.7334 2820.67 79.3334C2801.87 45.2001 2794.67 34.8 2780.93 21.7334C2769.47 11.0668 2763.87 8.13342 2745.33 3.7334C2736.8 1.6001 2719.2 1.46667 2542 1.20007C2435.33 1.06677 2345.6 1.33337 2342.67 1.8667Z" fill="#71A2C1"/>
<path d="M3850.4 2.66614C3835.07 5.99951 3824.13 13.8661 3818 25.9995C3810.8 39.9995 3811.2 17.5995 3811.73 429.066C3812.27 844.266 3811.87 820.266 3819.87 878.666C3831.73 963.6 3858.8 1042.67 3897.6 1104.93C3909.47 1124.13 3929.07 1151.33 3940.53 1164.53C3945.33 1170.13 3950.8 1176.4 3952.67 1178.67C3959.33 1186.93 3989.87 1216.13 4004 1227.87C4042.93 1260.27 4093.2 1290.27 4139.73 1308.8C4216.27 1339.33 4286.4 1354.93 4380.67 1362.27C4408.53 1364.4 4491.6 1364.4 4520.67 1362.27C4704.27 1348.67 4845.6 1292.27 4946 1192.67C4979.07 1159.87 5001.07 1131.87 5028.8 1087.07C5037.73 1072.8 5061.07 1023.33 5066.4 1007.33C5067.6 1004 5070.27 996.533 5072.4 990.666C5078 975.333 5087.87 939.333 5092.67 916C5098.13 889.733 5101.47 866.266 5104.93 832C5107.73 804.4 5107.87 799.599 5108.27 429.333C5108.67 166.799 5108.4 51.8661 5107.33 45.3328C5104.67 27.9995 5095.6 13.5995 5083.33 7.33276C5070.13 0.666138 5071.87 0.666138 4885.07 0.666138C4762.53 0.666138 4708.27 1.06616 4702.13 2.13281C4684.13 5.19946 4670.67 15.4662 4664.53 30.7994L4661.33 38.6661L4660.53 393.333C4660 645.333 4659.33 751.599 4658.27 760.666C4654.53 792.133 4649.47 816 4642.4 836.666C4637.73 850.4 4625.73 874.8 4618 886.533C4611.87 895.6 4595.6 913.466 4586.67 920.666C4555.07 946.666 4512 959.866 4459.33 959.733C4406.13 959.733 4364.8 947.066 4332.4 920.933C4289.6 886.533 4266.27 829.866 4260.67 747.599C4259.87 734.4 4259.33 605.333 4259.33 386.266C4259.33 26.1328 4259.6 41.0662 4253.6 26.9329C4249.87 18.2661 4238.4 8.26611 4227.87 4.53284L4218.67 1.33276L4038.67 1.06616C3890.67 0.932861 3857.2 1.19946 3850.4 2.66614Z" fill="#71A2C1"/>
<path d="M757.332 111.334C756.265 113.067 757.865 120.4 759.465 121.467C761.465 122.667 767.332 118.267 767.332 115.6C767.332 114.267 766.665 112.534 765.732 111.6C763.732 109.6 758.532 109.467 757.332 111.334Z" fill="#71A2C1"/>
<path d="M784.265 110.934C783.065 112.134 783.065 119.334 784.398 119.334C784.932 119.201 786.798 118.001 788.665 116.534C791.865 113.867 791.865 113.734 789.332 111.867C786.532 109.734 785.465 109.601 784.265 110.934Z" fill="#71A2C1"/>
<path d="M730.265 125.467C728.265 126.801 727.332 128.801 727.332 132.001C727.332 138.401 729.732 139.201 734.265 134.134C738.399 129.467 739.065 125.334 735.865 124.134C733.199 123.067 733.732 122.934 730.265 125.467Z" fill="#71A2C1"/>
<path d="M814.132 133.2C812.532 135.2 813.332 141.467 815.465 142.8C817.332 144 821.998 140.667 821.998 138.134C821.998 136 818.132 131.334 816.398 131.334C815.998 131.334 814.932 132.134 814.132 133.2Z" fill="#71A2C1"/>
<path d="M488.667 514C486.133 515.467 480.667 518.934 476.667 521.867C458.8 534.934 442.8 544.8 426.8 552.534L409.467 560.934L388.8 582C372.267 598.667 367.067 603.067 363.733 603.6C354.533 604.934 354.8 601.334 364.533 588.267C370 580.8 372 575.867 373.2 565.6C373.867 559.867 373.6 559.067 370.8 557.867C368.8 556.934 363.733 556.8 355.867 557.6L344 558.667V924.667C344 1230.27 344.267 1291.87 345.867 1298C350 1314.67 359.6 1325.87 374.4 1331.47L382.667 1334.67H568.667H754.667L762.4 1331.47C778.667 1324.93 788.667 1310.53 791.333 1289.47C792.933 1277.07 793.067 511.334 791.467 511.334C790.8 511.334 789.333 513.867 788 516.934C784.933 525.067 772 547.867 765.467 557.067C760.133 564.667 745.467 582.534 740 588C734.133 594 719.733 605.467 714.933 608C712.267 609.467 710.133 611.2 710.4 611.867C710.667 612.534 720.133 618.667 731.333 625.467C742.667 632.267 755.067 640.534 758.8 643.867C768.133 652.134 772.667 661.334 772.667 672.267C772.667 687.6 766.267 701.467 747.867 726C734.267 744.134 726 756.267 726 757.867C726 760.4 731.6 759.467 745.333 754.667C760.533 749.334 761.467 749.2 762.533 752.134C764.4 757.067 751.867 773.334 738.4 783.467C734.533 786.4 731.333 789.334 731.333 790.134C731.333 790.8 735.333 793.334 740.4 795.467C768.533 808.267 776.667 812.534 775.867 814.534C774 819.334 751.733 820.8 732.667 817.334C727.2 816.4 722.4 815.734 722.267 816C722 816.267 722.4 818.534 723.2 820.934C727.333 833.6 730.4 872 727.467 876.4C725.2 880.134 720.267 877.6 717.867 871.334C716.533 868 712.4 857.334 708.667 847.734C704.933 838 701.2 829.734 700.533 829.2C699.867 828.8 698.8 829.6 698.267 830.934C697.733 832.267 693.733 840 689.333 848C680.667 863.6 671.467 875.067 668.933 873.467C666.267 871.867 667.2 860.667 671.333 844.667C677.2 822 677.867 823.6 662 824.4C654 824.8 646.267 824.4 642.4 823.467C636.133 821.867 631.333 818.8 631.333 816.4C631.333 815.734 638.8 811.734 647.867 807.334C667.2 798.267 675.867 791.2 678.133 782.8C678.933 779.867 683.733 766.934 688.8 754.267C693.867 741.467 699.6 725.867 701.467 719.6C705.333 706.134 707.333 683.2 704.8 680.267C701.6 676.267 688.133 674.8 670.667 676.4C657.733 677.467 652.533 677.467 645.867 676C640.933 675.067 637.2 674.8 636.933 675.467C634.933 680.534 625.867 696.134 620.933 702.667C610.667 716.134 573.067 752.534 556 765.467C542 776 530.933 783.734 499.333 804.667C481.067 816.8 464.4 829.067 456.267 836.667C453.467 839.2 450.267 841.734 449.333 842.4C446 844.267 427.867 866.4 420.667 877.334C399.733 909.334 385.733 952.8 380.533 1001.87C378.267 1023.33 379.733 1064.13 384 1099.2C387.2 1124.8 387.333 1128 385.467 1129.73C384.267 1130.93 383.2 1131.6 382.933 1131.2C381.733 1129.87 372.4 1099.47 368.667 1084.93C343.467 985.067 361.867 893.2 423.867 810.667C436.4 794 444 786.134 496.8 734.934C511.733 720.534 526.667 705.2 530 701.067C541.2 686.667 551.2 670.934 555.6 660.8C559.6 651.334 559.867 649.6 560 635.334C560 607.334 553.067 589.867 525.333 548C501.333 512 500.933 511.467 496 511.467C494.533 511.467 491.2 512.667 488.667 514Z" fill="#71A2C1"/>
<path d="M343.332 532C343.332 537.6 343.599 538 347.065 538C352.665 538 360.665 536.4 360.665 535.333C360.665 533.867 347.865 526 345.465 526C343.865 526 343.332 527.333 343.332 532Z" fill="#71A2C1"/>
<path d="M1601.47 1596.27C1596.67 1611.73 1584.4 1641.47 1558.27 1701.33C1541.47 1739.73 1542.27 1738.27 1539.2 1734.4C1535.07 1729.47 1523.07 1722 1515.2 1719.2C1491.87 1711.33 1464.13 1724.27 1439.33 1754.67C1424.8 1772.53 1416.8 1786.27 1400.27 1822C1384.67 1855.87 1350.53 1890.27 1334.4 1888.4C1330.93 1888 1330.67 1887.73 1331.07 1882C1331.87 1870.67 1338.93 1851.2 1356.67 1812.67C1364.93 1794.53 1370.27 1780.8 1371.87 1773.33C1372.53 1770.53 1371.87 1767.6 1369.73 1763.33C1366.27 1756.4 1356.93 1750.4 1338.8 1743.2C1322.4 1736.67 1312.67 1731.47 1312.67 1729.33C1312.67 1728.27 1315.73 1721.47 1319.33 1714.4C1326.53 1700.4 1327.2 1697.07 1323.73 1691.33C1320.4 1685.47 1301.47 1677.73 1296 1679.87C1293.47 1680.8 1268.93 1730.13 1265.47 1740.93C1262.4 1750.67 1263.47 1755.07 1270.13 1761.73L1275.6 1767.07L1267.6 1784.13C1246.8 1828.67 1235.07 1848.13 1218 1866.53C1206.27 1879.2 1189.87 1888.8 1183.33 1886.67C1174 1883.73 1178.13 1866.67 1204.67 1797.33C1220.13 1756.93 1223.87 1744.67 1222.8 1738.67C1220.8 1728.53 1208.53 1720.27 1193.47 1719.2L1187.07 1718.67L1184.4 1727.33C1182.93 1732.13 1181.33 1736.53 1180.67 1737.07C1180.13 1737.73 1175.87 1734.4 1171.2 1729.73C1158.67 1717.33 1147.73 1714.27 1130.93 1718.67C1095.87 1727.87 1062.67 1765.47 1037.47 1824.67C1032.13 1837.07 1013.87 1861.33 1000.67 1873.6C993.866 1879.87 982.932 1886.8 977.866 1888C973.466 1889.07 969.999 1885.87 969.999 1880.93C970.132 1871.33 977.332 1848.8 997.332 1796.67C1017.07 1745.07 1018.4 1739.6 1012.67 1732.27C1008.67 1727.2 997.199 1722.13 987.732 1721.2C977.999 1720.13 979.732 1717.6 970.666 1745.87C960.532 1777.47 943.999 1815.73 932.932 1833.2C922.799 1849.2 919.732 1853.73 914.132 1860.53C900.532 1877.47 887.466 1887.87 876.132 1890.8C869.732 1892.53 869.199 1892.53 867.066 1889.87C863.866 1886.13 863.999 1882.53 867.866 1866.67C872.266 1848.93 878.532 1830.93 895.732 1787.33C914.532 1739.6 915.066 1734.8 903.066 1726.93C897.599 1723.33 882.799 1720 876.266 1720.8C872.666 1721.33 871.999 1722.4 866.799 1736.67C863.732 1745.07 854.799 1767.33 847.066 1786C822.666 1844.67 814.399 1870.27 813.066 1892C812.132 1907.87 814.666 1917.2 822.266 1925.47C842.399 1947.2 880.666 1930.93 914.532 1886C918.132 1881.2 921.332 1877.07 921.599 1876.8C921.866 1876.53 922.399 1876.53 922.799 1876.93C923.199 1877.47 922.532 1880.53 921.466 1883.87C918.932 1891.2 918.666 1902.93 920.932 1910.13C922.932 1917.07 930.666 1925.73 937.199 1928.8C940.266 1930.13 945.732 1931.33 949.732 1931.33C956.932 1931.33 970.132 1927.6 976.532 1923.73C991.732 1914.4 1003.07 1905.2 1016.27 1891.33C1025.6 1881.6 1025.47 1881.6 1026.4 1896.67C1029.73 1947.73 1076.4 1948 1116.53 1897.33C1120.67 1892.13 1125.2 1885.73 1126.67 1882.93C1128.13 1880.27 1129.6 1878 1130 1878C1130.53 1878 1130.8 1884.8 1130.8 1892.93C1130.8 1905.87 1131.2 1908.93 1133.87 1915.07C1139.6 1928 1148 1932.53 1163.2 1930.93C1190.53 1928 1226.53 1898.67 1253.33 1857.33C1267.07 1836.13 1273.07 1824.8 1290.67 1786.53C1293.07 1781.33 1295.73 1776.67 1296.4 1776.13C1298.13 1775.07 1310.67 1781.07 1315.07 1785.07C1316.67 1786.53 1318 1788.93 1318 1790.27C1318 1791.73 1314.27 1801.33 1309.87 1811.73C1293.07 1850.53 1285.07 1872.93 1281.47 1890.27C1278.8 1902.93 1278.8 1906.4 1281.33 1914.8C1284.8 1926.8 1295.07 1934.4 1307.33 1934.4C1325.2 1934.4 1347.73 1921.6 1372 1897.6L1386.67 1883.07L1387.6 1894.53C1389.87 1924.27 1408 1940.4 1431.47 1933.47C1444.93 1929.6 1461.87 1918.8 1472.4 1907.33C1478.93 1900.27 1489.73 1886.4 1493.47 1880.4C1495.6 1876.93 1497.6 1874.13 1498 1874C1498.4 1874 1498.8 1880.4 1498.8 1888.27C1498.93 1898.13 1499.6 1904.53 1501.2 1908.53C1513.2 1940.8 1552.67 1935.47 1591.2 1896.67C1596.4 1891.33 1600.67 1886.53 1600.67 1885.87C1600.67 1885.2 1601.2 1884.67 1601.73 1884.67C1602.27 1884.67 1603.47 1890.4 1604.4 1897.33C1608.8 1932.27 1628.8 1943.6 1659.07 1928.53C1672.67 1921.87 1689.47 1905.87 1700.67 1889.07C1704.67 1883.07 1708.27 1878.13 1708.67 1878C1709.07 1878 1709.33 1885.07 1709.33 1893.6C1709.33 1908 1709.6 1910 1712.93 1916.67C1717.73 1926.27 1723.73 1930.27 1734 1931.07C1768.93 1933.6 1820.13 1886.67 1851.33 1823.33C1859.47 1806.93 1870.67 1783.33 1872.27 1779.6C1873.2 1777.33 1874.53 1775.33 1875.07 1775.47C1875.6 1775.47 1879.87 1777.33 1884.67 1779.73C1898.93 1786.8 1898.93 1786.27 1885.6 1817.33C1855.6 1887.73 1851.6 1910 1866.27 1926.13C1873.2 1933.87 1881.6 1936 1894.13 1933.33C1911.33 1929.87 1930.67 1917.47 1950.8 1897.07C1956.8 1890.93 1961.87 1886 1962.13 1886C1962.4 1886 1962.67 1891.6 1962.8 1898.4C1962.93 1911.73 1964.67 1917.2 1970.8 1924.53C1983.73 1939.87 2008.27 1937.33 2034.93 1917.87C2043.07 1912 2064.67 1890.67 2064.67 1888.53C2064.67 1887.87 2065.47 1887.33 2066.4 1887.33C2067.73 1887.33 2068.67 1890.8 2069.73 1898.13C2074.27 1929.47 2090.8 1941.33 2116.93 1932.13C2126.67 1928.67 2130.93 1926 2142.4 1916.27C2150.8 1909.07 2166.27 1890.53 2169.73 1883.6C2173.47 1876 2174.93 1878.27 2174.27 1891.07C2173.33 1911.33 2180.13 1926.13 2192.27 1930.13C2203.73 1933.87 2225.2 1928.4 2241.33 1917.6C2264.27 1902.13 2285.87 1872.53 2286 1856.13C2286 1849.6 2279.07 1842 2273.07 1842C2269.6 1842 2268.8 1843.07 2264 1852.93C2255.07 1871.33 2242.13 1884.67 2231.07 1886.67C2226.8 1887.47 2226 1887.2 2223.87 1884C2219.33 1877.07 2224.13 1859.87 2247.07 1800C2266.67 1748.8 2268.53 1741.47 2264.13 1732.8C2260.4 1725.73 2248.8 1719.87 2236.67 1719.07L2230.67 1718.67L2227.73 1727.87C2226.13 1732.93 2224.53 1737.33 2224.13 1737.73C2223.73 1738 2220.13 1734.93 2216 1730.93C2204.93 1719.6 2199.73 1717.33 2186 1717.47C2168.93 1717.87 2155.6 1723.73 2137.6 1739.2C2117.2 1756.67 2101.2 1780.4 2082.8 1820.67C2066.8 1855.47 2039.33 1885.6 2019.07 1890.53C2006.27 1893.6 2009.73 1872.27 2030 1822C2035.73 1807.73 2044.4 1786.13 2049.47 1774C2060.27 1747.6 2061.47 1740.67 2056.27 1732.8C2051.6 1725.73 2040.53 1720.4 2030.4 1720.13L2022.8 1720L2006.4 1760.67C1981.33 1822.67 1970.67 1841.87 1948.8 1864.93C1936.53 1877.87 1927.07 1884.8 1918.4 1887.33C1909.73 1890 1908.13 1888.67 1909.2 1880.13C1910.53 1868.67 1918 1848.93 1934.27 1814C1940.4 1800.8 1946 1787.33 1948.13 1780.67C1953.87 1762.4 1947.87 1756 1911.07 1740.67C1901.73 1736.8 1893.2 1732.67 1892 1731.33C1890.13 1729.2 1890.53 1728 1896.67 1715.87C1906 1697.47 1905.47 1690.53 1894.27 1684.8C1889.2 1682.27 1874.4 1678.4 1873.47 1679.47C1872.13 1680.93 1846.93 1732.27 1844.67 1738.27C1840.27 1749.87 1841.33 1755.6 1849.07 1762.27C1853.2 1765.73 1853.2 1765.87 1851.47 1770.93C1847.6 1782.27 1824 1828.4 1815.73 1841.07C1805.87 1856.13 1787.33 1876.13 1778.8 1881.2C1775.87 1882.93 1770.67 1885.2 1767.47 1886.13C1762 1887.73 1761.47 1887.73 1759.2 1884.8C1757.73 1883.07 1756.67 1880.13 1756.67 1878.13C1756.67 1870.53 1763.87 1846.8 1774.67 1818.67C1788 1784 1796.53 1761.07 1798.53 1754.13C1803.07 1738.8 1800.13 1729.6 1788.67 1723.73C1783.07 1720.93 1767.73 1717.6 1765.73 1718.8C1765.33 1719.07 1763.6 1723.47 1762.13 1728.67C1760.27 1734.67 1758.53 1738 1757.33 1738C1756.27 1738 1755.33 1737.47 1755.33 1736.8C1755.33 1733.6 1741.33 1722 1734.53 1719.33C1726.27 1716.27 1721.07 1716 1711.07 1718.13C1679.07 1724.93 1648.13 1756.53 1623.87 1807.33C1607.6 1841.2 1603.47 1847.6 1587.2 1864.13C1576.4 1875.2 1566.4 1882.13 1558.8 1883.87C1555.87 1884.53 1554.27 1884.13 1551.87 1881.87C1542.8 1873.33 1551.87 1839.33 1584.93 1758.13C1627.73 1652.8 1635.33 1632.53 1637.33 1618.93C1639.47 1604.93 1627.6 1592.53 1609.07 1589.47L1603.87 1588.53L1601.47 1596.27ZM1157.47 1751.2C1160.27 1753.33 1164.4 1756.93 1166.53 1759.2C1171.07 1763.87 1171.33 1762 1162.4 1785.33C1156.93 1799.47 1140.53 1834 1136.13 1840.67C1134.4 1843.2 1130.8 1848.93 1128 1853.33C1121.6 1863.33 1104.4 1881.2 1097.33 1885.33C1089.33 1890 1083.2 1890.8 1079.33 1887.6C1069.73 1879.87 1078 1837.73 1096.8 1799.73C1117.73 1757.07 1140.67 1738.8 1157.47 1751.2ZM1514.8 1749.07C1519.6 1751.87 1524 1755.87 1527.07 1760.13L1530 1764.4L1525.87 1776.13C1510.93 1819.47 1492 1854.4 1473.47 1873.2C1463.87 1882.8 1459.2 1886.27 1452.4 1888.53C1442 1892 1437.6 1886.93 1437.73 1872C1437.87 1853.33 1446.93 1822.8 1460.13 1796.4C1476.93 1762.93 1491.47 1747.47 1506.67 1747.47C1509.6 1747.47 1513.2 1748.13 1514.8 1749.07ZM1733.73 1749.87C1738.27 1752.13 1742.67 1756.27 1747.07 1762.13C1748.4 1764 1747.6 1767.2 1742.13 1780.8C1728.13 1816 1720.4 1831.6 1706.13 1853.33C1691.6 1875.47 1670.4 1892 1660.4 1889.2C1654.4 1887.47 1652.4 1881.73 1653.47 1868.4C1655.2 1843.47 1670.27 1803.07 1687.2 1777.33C1694.67 1765.87 1708 1752.27 1714.13 1749.6C1720.53 1746.8 1727.87 1746.93 1733.73 1749.87ZM2203.2 1752.53C2206.13 1754.93 2209.87 1758.53 2211.33 1760.67L2214 1764.4L2208.53 1778.27C2184.8 1839.07 2160.67 1875.87 2137.33 1886.8C2128.8 1890.8 2125.87 1890.8 2121.87 1886.53C2118.93 1883.47 2118.67 1882 2118.8 1872.27C2119.07 1849.73 2131.73 1811.87 2148.4 1784C2158.53 1767.2 2169.33 1755.47 2180 1749.47C2186.4 1745.87 2196.53 1747.2 2203.2 1752.53Z" fill="#71A2C1"/>
<path d="M3729.6 1592.13C3729.07 1593.6 3727.33 1600 3725.47 1606.67C3716 1640.67 3695.6 1696.8 3663.73 1777.33C3650.93 1809.6 3645.87 1820.67 3639.6 1830.53C3618.8 1862.93 3590.27 1884.4 3561.07 1889.6C3541.6 1893.07 3531.33 1889.87 3524.93 1878.27C3515.6 1861.47 3522.67 1824.93 3541.07 1793.33C3552.8 1773.33 3569.73 1754.27 3580.93 1748.53C3587.47 1745.2 3590.67 1745.33 3593.2 1748.93C3599.73 1758.13 3590.93 1785.6 3576.13 1802.67C3574.27 1804.8 3572.67 1807.07 3572.67 1807.47C3572.67 1809.07 3583.33 1811.33 3591.2 1811.33C3601.47 1811.33 3608.27 1808.13 3616.8 1799.07C3624.8 1790.67 3631.07 1778 3633.6 1764.8C3635.47 1755.47 3635.47 1753.73 3633.47 1747.07C3629.2 1732.27 3611.73 1718.53 3595.47 1717.07C3580.93 1715.73 3562.67 1722.13 3546.67 1733.87C3523.33 1751.07 3506.53 1772.27 3489.2 1806.8C3475.07 1834.93 3467.6 1846.67 3454.67 1860.4C3442.93 1873.07 3431.87 1881.33 3422.67 1884.13C3414.4 1886.8 3411.33 1885.47 3411.33 1879.73C3411.33 1873.07 3419.73 1851.47 3432.27 1826C3455.73 1777.87 3462 1761.47 3462 1747.47C3462 1727.2 3448.4 1714.93 3428.8 1717.2C3403.33 1720.27 3367.07 1752.4 3335.47 1799.87C3326.93 1812.67 3322.8 1814.8 3328.67 1803.47C3333.73 1793.47 3344.8 1764.4 3347.47 1754.4C3348.8 1748.93 3349.6 1742.8 3349.2 1740.8C3348.13 1735.47 3341.47 1727.73 3335.2 1724.67C3327.73 1720.8 3314 1717.73 3313.33 1719.73C3312.93 1720.67 3310.8 1727.07 3308.53 1734C3296.13 1772.4 3273.33 1822.27 3258 1845.07C3246.27 1862.53 3230.53 1878 3218.93 1883.47C3209.47 1887.87 3207.07 1888.13 3204.13 1885.2C3201.2 1882.4 3201.47 1875.2 3204.8 1862.53C3208.67 1847.73 3212.13 1837.73 3233.2 1782.93C3242.67 1758.53 3246.4 1745.07 3245.6 1738.93C3244.27 1729.47 3233.47 1721.33 3219.47 1719.33C3210.53 1718.13 3210 1718.53 3206.8 1728.93C3204.13 1738 3202.53 1739.33 3199.73 1735.33C3193.07 1725.73 3180.4 1718.13 3169.47 1717.07C3152.53 1715.33 3129.2 1726.53 3110.67 1745.33C3092.27 1763.73 3077.47 1786.53 3065.2 1814.67C3061.6 1822.67 3054.8 1835.33 3049.87 1842.67C3040.93 1856 3023.07 1875.07 3013.87 1881.33C3002.8 1888.67 2992.53 1890.53 2991.6 1885.47C2990.8 1881.33 2995.07 1865.73 3001.33 1850.4C3006.67 1836.93 3009.47 1830.53 3019.6 1808.67C3027.73 1791.2 3032.67 1776.8 3032.67 1770.8C3032.67 1766 3031.87 1763.87 3028.53 1760C3022.93 1753.73 3016.53 1750 2995.33 1741.33C2985.6 1737.33 2976.8 1733.33 2975.87 1732.53C2972.8 1730 2973.6 1726.93 2980.67 1713.47C2984.4 1706.4 2987.33 1699.6 2987.33 1698.27C2987.33 1690.53 2975.2 1681.73 2961.87 1679.87L2956 1679.07L2941.73 1708.27C2922.27 1747.6 2921.33 1752.27 2930.67 1761.07L2935.2 1765.33L2929.07 1779.33C2921.33 1796.53 2889.47 1860.27 2881.47 1874.13C2871.07 1892.4 2858.93 1909.73 2849.6 1919.87C2845.07 1924.8 2845.07 1925.87 2850 1930.93C2860.27 1941.47 2874.13 1935.33 2888.93 1913.6C2901.73 1894.8 2920.13 1858.53 2941.6 1810C2954.13 1781.6 2957.07 1775.33 2957.87 1775.47C2958.27 1775.47 2962.53 1777.33 2967.33 1779.73C2981.33 1786.67 2981.47 1787.2 2970.93 1811.47C2938.67 1886.67 2934.27 1909.6 2948.93 1926.13C2960.4 1939.2 2981.87 1936.8 3007.2 1919.6C3013.47 1915.47 3025.07 1905.6 3032.93 1897.6C3040.93 1889.73 3047.6 1883.33 3047.87 1883.33C3048.13 1883.33 3048.67 1888 3049.07 1893.73C3050 1909.2 3053.47 1918.8 3060.67 1926.27C3081.2 1947.47 3118.4 1930 3148.67 1884.93C3153.47 1877.87 3156.13 1875.87 3154.67 1880.67C3153.2 1885.07 3153.6 1903.73 3155.33 1910C3160.27 1928.8 3175.73 1935.73 3197.07 1928.53C3211.2 1923.87 3229.2 1912.27 3239.47 1901.33C3241.87 1898.8 3244.4 1896.67 3244.93 1896.67C3245.47 1896.67 3246 1900.27 3246 1904.67C3246 1913.2 3248.8 1920.67 3253.47 1924.8C3260 1930.53 3275.33 1935.33 3286.8 1935.33C3291.07 1935.33 3291.2 1935.07 3292.67 1927.6C3300.27 1889.47 3320 1849.33 3351.2 1809.07C3371.2 1783.07 3391.2 1766.93 3403.2 1766.8L3409.33 1766.67L3409.2 1772.13C3409.2 1776.27 3404.8 1786.4 3391.07 1814.8C3359.2 1880.27 3355.33 1894 3364 1911.33C3370.4 1924.13 3378.53 1929.2 3392 1929.33C3414 1929.33 3432.8 1919.47 3457.07 1894.93C3465.07 1886.93 3471.73 1880.67 3471.87 1880.93C3472 1881.07 3472.93 1885.47 3473.87 1890.53C3477.87 1913.47 3490.27 1927.47 3511.47 1933.47C3522.53 1936.53 3543.2 1935.47 3556 1930.93C3574.93 1924.4 3597.6 1911.07 3610.8 1898.8C3617.6 1892.53 3621.73 1890.8 3620 1894.93C3618.13 1899.6 3617.73 1909.73 3619.33 1914.53C3623.6 1927.6 3634.27 1933.47 3658.27 1935.87L3665.73 1936.67L3666.67 1929.6C3671.47 1891.47 3689.33 1853.47 3721.6 1812C3743.6 1784 3766.93 1765.2 3778.4 1766.27C3782.4 1766.67 3782.67 1767.07 3782.53 1771.33C3782.4 1774.53 3776.13 1788.93 3763.6 1814.93C3753.2 1836.4 3742.93 1858.27 3740.8 1863.6C3730 1891.07 3730 1904.53 3740.67 1918C3747.33 1926.4 3754 1929.33 3766 1929.2C3785.87 1928.93 3807.6 1917.47 3828.27 1896.67C3834 1890.8 3839.07 1886 3839.47 1886C3839.87 1886 3840.67 1890.13 3841.07 1895.33C3842.27 1909.87 3845.73 1919.07 3852.67 1926.27C3873.2 1947.47 3910.4 1930 3940.67 1884.93C3945.47 1877.87 3948.13 1875.87 3946.67 1880.67C3945.2 1885.07 3945.6 1903.73 3947.33 1910C3952.27 1928.8 3967.73 1935.73 3989.07 1928.53C4018.67 1918.67 4049.73 1888.67 4076.93 1844C4082 1835.47 4096 1808.13 4105.47 1787.6C4108.53 1780.93 4111.47 1775.33 4112 1775.33C4112.4 1775.33 4116.93 1777.47 4122 1780C4136.27 1787.2 4136.4 1785.33 4118.93 1826.27C4113.33 1839.33 4106 1858.13 4102.53 1868.27C4096.53 1885.73 4096.13 1887.47 4096.13 1901.47C4096 1915.47 4096.13 1916.4 4099.73 1921.87C4106.53 1932 4116.67 1936.27 4129.47 1933.87C4145.87 1930.93 4167.73 1917.2 4187.47 1897.47C4193.07 1891.87 4197.87 1887.33 4198.27 1887.33C4198.67 1887.33 4199.33 1892.93 4199.6 1899.6C4200.27 1912.8 4202.13 1918.27 4208.53 1925.07C4212.67 1929.6 4219.6 1933.33 4226.13 1934.53C4237.07 1936.53 4257.6 1928.93 4272.8 1917.2C4281.47 1910.67 4296.93 1895.47 4300.27 1890.27C4303.87 1885.07 4305.6 1886.67 4306.53 1896.27C4308.13 1913.2 4312.93 1924 4321.33 1929.87C4342.4 1944.27 4375.47 1928.13 4401.33 1890.93C4405.73 1884.67 4409.73 1879.47 4410.27 1879.47C4410.8 1879.33 4411.2 1885.47 4411.2 1892.93C4411.07 1924.67 4424.93 1936.67 4452.67 1929.33C4482.27 1921.47 4516 1888.4 4522.13 1861.2C4524.4 1851.07 4520.27 1844 4511.07 1842.53C4506.67 1841.73 4506.67 1841.87 4501.6 1852.13C4489.73 1876.13 4470 1892.53 4461.87 1885.2C4455.87 1879.73 4459.73 1863.47 4480.13 1810.53C4494.93 1772.13 4503.33 1747.33 4503.33 1742.4C4503.33 1729.87 4492.4 1721.07 4474.27 1718.93C4467.87 1718.13 4466.93 1719.2 4463.33 1731.33C4462.27 1734.67 4461.33 1737.6 4461.07 1737.87C4460.93 1738.13 4456.53 1734.4 4451.47 1729.6C4438.13 1717.07 4427.73 1714.27 4410.93 1718.67C4396.67 1722.4 4383.47 1730.4 4369.87 1743.6C4350.53 1762.4 4336.27 1783.6 4322.67 1814.27C4314 1833.6 4308.53 1842.8 4297.2 1857.47C4279.73 1880 4258 1894.93 4250.53 1889.33C4248.67 1888 4248.4 1886.27 4249.07 1879.2C4250.53 1863.07 4256 1847.6 4285.33 1776.27C4291.07 1762.4 4296 1748.53 4296.27 1745.47C4297.73 1732.93 4287.6 1723.47 4268.93 1719.87C4264.4 1719.07 4260.4 1718.67 4260.13 1719.2C4259.87 1719.6 4252 1738.8 4242.67 1761.87C4219.73 1818.93 4212.13 1833.47 4193.73 1856.27C4178.93 1874.53 4159.87 1888.67 4149.73 1888.67C4146.27 1888.67 4146 1888.27 4146 1883.6C4146 1872.93 4153.2 1853.2 4174.4 1806.67C4182.8 1788 4187.33 1775.33 4187.33 1770.53C4187.33 1760.27 4177.6 1752.53 4151.07 1742.13C4135.6 1736 4128.93 1732.67 4128.13 1730.53C4127.73 1729.47 4130.4 1722.53 4134 1715.33C4141.87 1699.73 4142.4 1694.8 4136.93 1688.93C4133.33 1685.07 4118.67 1679.33 4112.67 1679.33C4110.93 1679.33 4107.73 1684.13 4101.33 1696.27C4087.2 1723.07 4080.53 1738.93 4079.73 1747.73C4078.93 1755.33 4078.93 1755.47 4084.53 1760.67C4087.47 1763.47 4090 1766.4 4090 1766.93C4090 1768.67 4074 1803.73 4072.27 1806C4069.73 1809.2 4067.33 1813.87 4067.33 1815.47C4067.33 1817.47 4054.93 1838.27 4046.53 1850.13C4036.93 1863.87 4021.07 1878.67 4010.93 1883.47C4001.47 1887.87 3999.07 1888.13 3996.13 1885.2C3993.2 1882.4 3993.47 1875.2 3996.8 1862.53C4000.67 1847.73 4004.13 1837.73 4025.2 1782.93C4034.67 1758.53 4038.4 1745.07 4037.6 1738.93C4036.27 1729.47 4025.47 1721.33 4011.47 1719.33C4002.53 1718.13 4002 1718.53 3998.8 1728.93C3996.13 1738 3994.53 1739.33 3991.73 1735.33C3985.07 1725.73 3972.4 1718.13 3961.47 1717.07C3944.53 1715.33 3921.2 1726.53 3902.67 1745.33C3884.27 1763.73 3870.53 1784.8 3857.47 1814C3853.47 1822.93 3848.53 1832.8 3846.4 1835.87C3830.4 1859.73 3814.4 1875.6 3799.2 1882.67C3790.8 1886.53 3788.27 1886.8 3785.33 1883.87C3780.93 1879.33 3786 1865.07 3809.33 1816.67C3835.87 1761.6 3839.33 1748.8 3832.13 1733.33C3825.33 1718.53 3811.87 1713.47 3795.07 1719.2C3784.67 1722.8 3780 1725.33 3768.67 1733.87C3749.07 1748.53 3724.53 1775.2 3707.2 1800.67C3701.33 1809.33 3696.67 1815.07 3696.67 1813.73C3696.67 1813.33 3698.53 1808.67 3700.8 1803.2C3723.6 1748.53 3750 1680.4 3760.27 1650.27C3769.73 1622.13 3770.67 1613.33 3765.07 1604.93C3760.4 1597.87 3748.53 1591.6 3737.73 1590.4C3731.2 1589.73 3730.13 1590 3729.6 1592.13ZM3180.13 1750.8C3188.53 1756.53 3192.8 1762.13 3192.13 1766.27C3190.13 1777.2 3167.73 1826.93 3156.93 1844.4C3150.8 1854.4 3138.4 1870.4 3133.07 1875.47C3122.27 1885.6 3108.93 1891.6 3103.47 1888.8C3089.2 1881.07 3106.27 1816.13 3133.07 1776C3139.6 1766.13 3153.87 1751.87 3159.73 1749.33C3166.67 1746.27 3174.27 1746.8 3180.13 1750.8ZM3972.13 1750.8C3978.13 1754.93 3984.67 1761.87 3984.67 1764.4C3984.67 1770.93 3959.87 1826.8 3949.07 1844C3942.53 1854.67 3930.27 1870.67 3925.2 1875.33C3913.2 1886.27 3901.07 1891.73 3895.47 1888.8C3881.2 1881.07 3898.27 1816 3925.07 1776C3931.6 1766.13 3945.87 1751.87 3951.73 1749.33C3958.67 1746.27 3966.27 1746.8 3972.13 1750.8ZM4436 1749.73C4438.27 1751.2 4442.27 1754.53 4445.07 1757.47C4449.07 1761.6 4450 1763.33 4449.47 1766.27C4447.2 1777.6 4424.27 1828.4 4413.6 1845.33C4395.2 1874.8 4371.33 1894.4 4360.93 1888.8C4349.2 1882.53 4357.33 1839.2 4378.13 1797.6C4397.87 1758.53 4420.13 1740 4436 1749.73Z" fill="#71A2C1"/>
<path d="M2814 1608.8C2797.73 1610.53 2775.33 1614.93 2763.2 1618.8C2751.2 1622.53 2752.66 1620.67 2740.26 1648.67C2707.33 1723.33 2676.13 1801.2 2660.8 1847.07C2642.53 1901.2 2641.2 1918.27 2653.86 1929.07C2659.33 1933.6 2665.33 1935.33 2676.66 1935.73L2686.26 1936L2704 1883.33C2723.06 1826.4 2728.26 1811.33 2729.33 1810.27C2729.73 1809.87 2731.33 1810.67 2733.06 1812.13C2738.53 1816.93 2746.53 1821.47 2754 1823.6C2794.66 1835.73 2843.46 1812.67 2881.2 1763.33C2916.53 1717.33 2925.33 1666.4 2903.33 1636.4C2886.66 1613.6 2856 1604.13 2814 1608.8ZM2860.66 1653.73C2867.6 1657.07 2868.93 1660.67 2868.13 1674.67C2865.73 1718.53 2829.46 1766.13 2785.86 1782.53C2769.33 1788.67 2741.73 1790.27 2739.73 1785.07C2739.33 1784 2743.06 1772.27 2748 1758.93C2760 1726.8 2787.33 1657.6 2788.53 1656.27C2791.2 1653.6 2832.26 1649.87 2847.33 1650.93C2852.13 1651.33 2858.13 1652.53 2860.66 1653.73Z" fill="#71A2C1"/>
<path d="M764 1609.6C750 1612.67 726.666 1623.2 713.6 1632.27C706.666 1637.07 696.533 1644.67 695.333 1646C694.933 1646.4 690.666 1650.13 685.866 1654.27C672.533 1665.87 647.866 1695.07 635.066 1714.67C598.4 1770.93 579.866 1832 587.866 1870C591.6 1887.6 602.933 1905.87 617.2 1917.47C634.266 1931.33 653.066 1937.33 676.666 1936.27C718.933 1934.4 756.666 1910.67 774.266 1874.67C784.666 1853.33 786.533 1840 781.333 1823.6C780.4 1820.67 780.4 1820.67 795.866 1820.67H811.466L814.933 1812.93C817.066 1808.27 818.533 1801.87 819.066 1796.27C819.6 1787.73 819.466 1786.93 816 1783.33C811.333 1778.4 803.333 1776.67 785.6 1776.67C747.466 1776.67 723.2 1784.53 712.133 1800.4C707.466 1807.2 701.6 1822.93 703.333 1824C704 1824.4 710.8 1824.13 718.266 1823.47C742.266 1821.2 756.533 1820.67 757.333 1822C758.533 1824 747.2 1846.93 740.4 1856.27C727.2 1874.27 709.6 1885.33 687.866 1889.33C659.6 1894.67 645.866 1887.2 641.866 1864.13C635.066 1824.8 660.8 1758.13 703.333 1704.67C735.333 1664.67 772.933 1638.13 788.666 1644.67C796.533 1647.87 798.266 1655.73 794.533 1671.33C790.266 1689.87 783.2 1705.47 771.866 1722.13C767.866 1728 764.666 1732.93 764.666 1733.2C764.666 1733.47 767.6 1734.93 771.2 1736.53C780.8 1740.67 794 1740.4 802.8 1736C815.6 1729.6 829.6 1712.93 836.266 1696.13C840.533 1684.93 843.6 1669.2 842.666 1662.67C839.2 1640.53 818.666 1616.93 797.333 1610.8C790.8 1608.8 770.666 1608.13 764 1609.6Z" fill="#71A2C1"/>
<path d="M2059.87 1618.53C2047.73 1624 2038.4 1639.87 2037.07 1657.2C2036.67 1662.53 2036.67 1669.2 2037.2 1671.87C2039.73 1685.47 2056.4 1692.27 2070 1685.33C2087.07 1676.53 2100 1644 2092.13 1628.93C2087.07 1619.2 2070.27 1613.73 2059.87 1618.53Z" fill="#71A2C1"/>
<path d="M4295.87 1618.67C4286 1623.07 4276.53 1638.53 4274 1654.8C4271.2 1671.87 4276.67 1684 4288.4 1687.33C4295.47 1689.2 4297.87 1689.07 4305.33 1685.47C4313.73 1681.6 4321.2 1673.33 4326.4 1662.13C4330 1654.4 4330.53 1651.87 4330.67 1641.73C4330.67 1630.67 4330.53 1630 4326.67 1625.87C4318.8 1617.6 4305.6 1614.4 4295.87 1618.67Z" fill="#71A2C1"/>
<path d="M2498.67 1717.6C2470.8 1723.33 2442.13 1747.73 2420.27 1784.27C2404.13 1811.07 2394.13 1839.73 2393.07 1862.67C2390.67 1911.33 2413.87 1937.07 2458 1934.93C2483.47 1933.73 2505.33 1923.87 2524.67 1904.67C2538 1891.33 2543.6 1881.6 2544.4 1870C2544.93 1862.93 2544.67 1862 2540.8 1857.87L2536.67 1853.33L2533.73 1857.33C2526.8 1867.07 2507.73 1884.4 2499.47 1888.53C2479.87 1898.53 2459.73 1898.27 2448.93 1888.13C2442.93 1882.53 2440.93 1878.4 2439.47 1868.4C2438.53 1861.07 2439.6 1844 2441.2 1842.4C2441.47 1842 2444.93 1842.8 2448.8 1843.87C2463.87 1848.4 2486.67 1845.73 2502.67 1837.73C2536.53 1820.53 2560.53 1775.87 2551.6 1746.4C2549.47 1739.33 2542.8 1730.53 2536 1725.73C2526.27 1718.93 2509.47 1715.2 2498.67 1717.6ZM2516.13 1748C2518.13 1751.07 2518.13 1752 2516 1761.33C2512.53 1776.8 2503.47 1793.87 2492.8 1804.53C2487.87 1809.6 2481.07 1814.8 2477.33 1816.67C2469.2 1820.4 2454.53 1821.73 2450.93 1819.07C2448.8 1817.47 2448.93 1816.67 2453.47 1807.33C2468.27 1776.27 2497.33 1744.67 2510.93 1744.67C2512.67 1744.67 2514.93 1746.13 2516.13 1748Z" fill="#71A2C1"/>
</svg>
