<svg width="205" height="248" viewBox="0 0 205 248" fill="none" xmlns="http://www.w3.org/2000/svg">
<path d="M151.047 3.17382C133.047 9.04048 116.647 19.5738 108.914 30.2405L104.647 36.3738L102.114 31.4405C100.781 28.7738 99.0474 26.6405 98.3807 26.6405C96.7807 26.6405 96.7807 26.3738 98.2474 31.7072C98.914 33.9738 99.4474 35.9738 99.1807 35.9738C99.0474 35.9738 95.8474 33.0405 92.114 29.4405C78.3807 16.2405 59.0474 10.1071 39.9807 13.1738C23.9807 15.5738 9.04737 23.5738 9.04737 29.5738C9.04737 32.5072 12.114 32.7738 14.3807 29.9738C15.5807 28.5072 16.514 28.3738 18.3807 29.7072C20.3807 30.9072 21.4474 30.7738 23.5807 28.7738C25.9807 26.6405 26.6474 26.5071 28.514 28.1071C30.3807 29.7072 31.0474 29.4405 33.5807 26.5071C35.9807 23.8405 37.0474 23.4405 38.7807 24.5071C40.3807 25.5738 41.714 25.5738 43.5807 24.3738C45.5807 23.0405 46.514 23.1738 47.714 24.6405C48.914 26.1071 49.9807 26.2405 51.714 25.3071C53.4474 24.3738 54.514 24.3738 55.1807 25.4405C55.5807 26.2405 57.1807 26.5071 58.6474 26.2405C61.314 25.4405 64.914 26.9071 69.314 30.5072C70.6474 31.4405 72.514 31.9738 73.714 31.4405C74.914 31.0405 76.114 31.5738 76.514 32.6405C77.0474 33.7072 78.3807 34.6405 79.8474 34.6405C81.1807 34.6405 82.914 35.7072 83.5807 37.1738C84.3807 38.5072 86.7807 39.9738 89.0474 40.3738C96.914 41.9738 92.914 43.4405 80.7807 43.5738C48.2474 43.5738 16.114 62.6405 3.98071 89.3072C1.31404 95.1738 0.51404 98.9072 0.51404 107.84C0.380707 119.707 1.98071 122.774 5.31404 117.04C6.24737 115.307 7.98071 113.974 9.04737 113.974C10.2474 113.974 11.314 111.974 11.9807 108.107C12.514 104.907 14.2474 99.8405 15.714 96.7738C17.1807 93.7072 18.3807 90.3738 18.3807 89.5738C18.3807 88.6405 19.5807 87.9738 21.0474 87.9738C23.0474 87.9738 23.714 87.0405 23.714 84.1072C23.714 80.9072 24.2474 80.3738 26.2474 80.9072C28.2474 81.4405 29.1807 80.5072 30.3807 76.7738C31.4474 73.4405 32.6474 71.9738 34.6474 71.9738C36.3807 71.9738 37.8474 70.6405 38.7807 68.1072C39.9807 64.7738 40.514 64.5072 42.6474 65.8405C44.7807 67.0405 45.714 66.6405 48.514 63.5738C51.1807 60.3738 52.114 59.9738 53.8474 61.4405C55.4474 62.7738 56.514 62.3738 59.5807 59.4405C62.114 56.9072 63.714 56.2405 64.3807 57.3072C65.0474 58.3738 66.114 58.2405 68.3807 56.7738C70.3807 55.4405 72.6474 55.1738 74.914 55.7072C78.514 56.6405 78.514 56.6405 71.714 61.8405C52.7807 76.2405 39.0474 96.3738 35.1807 115.04C32.3807 128.374 34.6474 137.707 40.3807 135.574C41.8474 134.907 41.9807 133.974 40.7807 130.64C39.1807 125.974 40.114 124.24 42.914 126.507C45.8474 129.04 46.6474 126.107 44.2474 120.64C42.2474 115.707 42.2474 115.574 44.914 116.374C47.4474 117.04 47.714 116.507 47.714 111.707C47.714 107.04 47.9807 106.374 50.3807 107.04C52.7807 107.574 53.0474 107.04 53.0474 102.374C53.0474 97.5738 53.314 97.1738 55.8474 97.9738C58.514 98.9072 58.6474 98.6405 57.9807 94.7738C57.1807 90.7738 57.314 90.6405 60.6474 91.4405C63.8474 92.2405 63.9807 92.1072 63.1807 88.6405C62.3807 85.5738 62.6474 85.0405 64.514 85.8405C67.1807 86.9072 69.0474 84.6405 69.0474 80.2405C69.0474 78.1072 69.714 77.3072 71.314 77.5738C72.914 77.8405 74.114 76.6405 75.1807 73.4405C75.9807 70.7738 77.0474 69.5738 77.5807 70.5072C79.1807 72.9072 80.6474 72.2405 82.3807 67.9738C83.714 64.7738 84.6474 64.1072 87.0474 64.7738C89.4474 65.3072 90.2474 64.7738 90.914 62.1072C91.5807 59.1738 96.514 54.9072 97.5807 56.2405C97.8474 56.5072 96.3807 66.5072 94.2474 78.6405C88.914 110.374 88.6474 118.774 90.914 162.907C93.0474 201.974 92.914 214.107 90.2474 230.24L88.7807 238.374L80.6474 239.307C68.514 240.507 65.4474 241.307 63.714 243.307C60.3807 247.307 67.9807 248.107 89.5807 245.974C109.181 244.107 113.981 244.24 128.781 247.44C135.714 248.907 133.847 245.84 125.847 242.774C121.981 241.307 113.714 239.44 107.581 238.64C101.447 237.84 96.2474 236.907 96.114 236.774C95.9807 236.64 96.7807 229.04 97.8474 219.84C99.714 205.307 99.8474 198.64 98.3807 163.707C96.514 120.374 96.914 108.507 101.047 88.7738C102.514 81.5738 103.714 71.7072 103.714 66.7738C103.847 58.9072 103.981 58.2405 105.714 60.3738C106.781 61.9738 108.381 62.6405 110.114 62.1072C111.981 61.4405 113.047 62.2405 114.114 64.6405C115.447 67.4405 116.114 67.8405 118.247 66.6405C121.981 64.7738 122.381 64.9072 122.381 68.6405C122.381 71.9738 124.247 73.0405 125.714 70.6405C127.314 67.9738 129.047 69.3072 128.247 72.5072C127.047 77.5738 128.647 79.1738 132.514 76.6405C135.714 74.6405 135.714 74.6405 135.714 79.4405C135.714 83.7072 136.114 84.2405 138.381 83.5738C140.914 82.9072 141.047 83.3072 140.247 87.5738C139.314 92.2405 139.314 92.2405 143.581 91.3072C148.381 90.2405 148.381 90.2405 145.714 96.3738C142.914 103.174 143.181 103.974 147.714 103.04C151.314 102.374 151.714 102.64 150.781 104.774C150.381 106.24 149.047 108.774 147.847 110.507C145.847 113.707 145.847 113.707 149.981 113.04C153.714 112.507 154.247 112.907 154.914 116.24C156.247 122.774 158.381 120.374 158.381 112.24C158.247 87.1738 146.781 68.6405 124.247 57.8405C118.781 55.3072 113.981 52.5072 113.581 51.7072C112.914 50.6405 113.447 50.5072 115.181 51.3072C121.581 53.9738 123.714 53.7072 123.714 50.5072L123.847 47.3072L126.247 50.2405C129.447 53.9738 131.714 54.1072 131.714 50.6405C131.714 47.4405 132.781 47.3072 135.981 50.2405C138.247 52.2405 138.781 52.2405 139.847 50.6405C140.914 48.9072 141.447 49.1738 143.447 51.7072C145.181 53.9738 146.114 54.3738 147.314 53.1738C148.514 51.9738 149.447 51.9738 150.914 53.3072C152.114 54.2405 153.981 54.5072 155.181 54.1072C156.647 53.5738 158.114 54.2405 159.314 55.9738C160.914 58.2405 161.714 58.3738 163.181 57.1738C164.647 55.9738 165.181 56.1072 165.714 57.4405C168.514 65.5738 169.314 66.9072 170.247 65.8405C170.914 65.1738 171.714 63.4405 171.981 61.9738C172.381 60.1072 173.047 60.9072 174.247 64.9072C175.847 70.6405 177.847 71.9738 180.647 69.1738C181.847 67.9738 182.647 69.1738 183.847 73.8405C185.314 79.9738 187.181 81.3072 190.114 78.3738C191.314 77.1738 191.714 77.4405 191.714 79.8405C191.714 84.6405 193.981 87.8405 197.047 87.0405C199.181 86.5072 199.714 87.0405 199.714 89.4405C199.714 94.7738 201.314 98.6405 203.181 98.6405C205.714 98.6405 205.581 92.5072 202.781 83.8405C198.381 70.3738 176.914 51.9738 157.714 45.1738C147.981 41.8405 132.914 39.9738 124.114 41.1738C120.247 41.7072 117.447 41.7072 117.847 41.0405C118.247 40.5072 119.447 39.9738 120.514 39.9738C121.581 39.9738 122.381 38.7738 122.381 37.3072C122.381 35.7072 121.447 34.6405 120.114 34.6405C114.647 34.6405 121.314 32.2405 127.447 32.1072C130.114 31.9738 130.247 31.5738 129.047 29.3072C127.714 26.7738 127.847 26.6405 133.047 27.4405C137.714 28.2405 138.381 27.9738 138.381 25.7071C138.381 23.5738 139.047 23.1738 142.381 23.7071C145.981 24.2405 146.381 23.9738 146.381 20.6405C146.381 17.4405 146.781 17.1738 150.781 17.5738C154.114 17.8405 155.047 17.4405 154.914 15.5738C154.647 12.9071 155.714 12.7738 160.514 14.9071C163.447 16.2405 164.247 16.2405 165.847 14.1071C167.047 12.3738 168.647 11.8405 171.314 12.3738C180.381 14.1071 179.981 14.3738 183.314 8.10715C183.447 7.84048 185.714 9.04048 188.381 10.6405C191.847 12.7738 193.714 13.1738 194.647 12.2405C196.781 10.1071 192.381 4.10715 187.047 1.84048C179.847 -1.09285 162.114 -0.426185 151.047 3.17382Z" fill="#E5DFDA"/>
</svg>
