<svg width="175" height="175" viewBox="0 0 175 175" fill="none" xmlns="http://www.w3.org/2000/svg">
<path d="M59.6472 2.30716C21.7805 10.8405 -4.75281 44.9738 0.71386 77.7738C2.98053 90.7072 8.31386 100.84 19.9139 113.507C29.5139 124.174 29.9139 124.974 28.0472 127.507C17.2472 142.441 15.7805 151.641 22.7139 158.974C31.2472 167.907 40.4472 169.641 63.1139 166.441C85.5139 163.241 89.9139 163.641 107.381 169.641C124.847 175.641 127.647 176.041 133.647 172.307C143.114 166.574 144.181 158.974 137.381 145.507C130.581 131.907 130.181 133.241 142.714 126.174C164.847 113.774 174.047 102.041 174.047 86.4405C174.047 76.3072 172.447 70.3072 166.314 57.7738C155.514 35.6405 126.447 12.4405 98.0472 3.50716C89.1139 0.573831 69.5139 0.0404979 59.6472 2.30716ZM80.9805 21.9072C80.7139 29.2405 81.6472 40.4405 84.0472 54.9738C88.5805 84.0405 89.1139 93.9072 87.1139 112.974L85.3805 128.841L73.6472 97.6405C57.5139 54.4405 49.7805 21.7738 54.3139 16.0405C56.3139 13.5072 65.2472 11.3738 74.7139 11.1072L81.3805 10.9738L80.9805 21.9072ZM110.714 19.9072C118.047 23.3738 124.314 26.3072 124.581 26.5738C124.847 26.7072 122.847 31.7738 120.181 37.6405C115.647 47.1072 114.981 50.1738 113.781 64.0405C112.314 81.6405 112.181 82.1738 100.981 102.174C94.1805 114.307 92.7139 116.174 92.1805 113.507C91.6472 110.84 85.9139 18.9738 86.0472 13.9072C86.0472 10.8405 96.1805 13.3738 110.714 19.9072ZM48.7139 25.2405C48.7139 40.3072 53.6472 58.1738 68.5805 97.6405C75.1139 114.974 82.4472 138.974 81.5139 139.907C80.7139 140.841 59.3805 117.507 51.6472 107.24C36.1805 86.8405 28.8472 72.0405 26.0472 56.0405C24.7139 48.7072 24.8472 45.9072 26.7139 38.8405C27.9139 34.1738 29.6472 29.5072 30.5805 28.5738C32.5805 26.4405 46.1805 17.9072 47.7805 17.7738C48.3139 17.6405 48.7139 21.1072 48.7139 25.2405ZM140.581 39.7738C153.247 51.5072 153.514 52.0405 150.181 60.9738C142.714 80.9738 137.114 89.5072 119.247 107.774C100.981 126.441 95.3805 135.107 95.3805 144.574C95.3805 149.774 93.6472 151.374 92.1805 147.507C90.5805 143.241 95.6472 127.907 104.581 109.907C114.047 91.1072 115.514 85.9072 119.914 58.8405C121.647 48.0405 127.914 30.9738 130.047 30.9738C130.581 30.9738 135.381 34.9738 140.581 39.7738ZM25.5139 73.2405C30.1805 86.3072 40.3139 102.707 55.6472 122.041C72.4472 142.974 69.3805 144.574 46.1805 127.374C30.5805 115.774 19.1139 103.507 14.3139 93.6405C6.04719 76.7072 6.04719 63.6405 14.3139 46.9738L18.7139 38.3072L20.4472 50.9738C21.3805 57.9072 23.7805 67.9072 25.5139 73.2405ZM158.981 61.9072C159.781 63.6405 161.381 69.2405 162.714 74.3072C166.981 90.9738 163.914 97.5072 144.714 111.24C137.781 116.307 126.981 124.707 120.714 130.041C108.847 140.174 101.647 145.641 100.047 145.641C98.1805 145.641 100.981 138.174 105.514 131.374C108.047 127.507 116.847 117.24 125.114 108.574C139.381 93.5072 140.447 92.0405 147.914 75.9072C152.314 66.5738 156.181 58.9738 156.714 58.9738C157.247 58.9738 158.181 60.3072 158.981 61.9072ZM58.4472 143.774C69.2472 150.974 72.1805 153.507 70.4472 154.174C69.2472 154.707 61.5139 155.507 53.3805 155.907C41.6472 156.441 37.6472 156.174 33.7805 154.574C29.2472 152.707 28.7139 151.907 28.7139 147.507C28.7139 144.174 30.1805 140.307 32.8472 136.041L37.1139 129.507L40.5805 131.774C42.4472 133.107 50.4472 138.441 58.4472 143.774ZM129.914 144.841C135.514 156.307 133.381 164.307 124.714 164.307C119.781 164.307 102.714 158.307 102.714 156.574C102.714 155.774 107.247 152.174 112.847 148.574C118.447 144.841 123.514 141.241 123.914 140.441C125.647 137.774 127.114 138.841 129.914 144.841Z" fill="#E5DFDA"/>
</svg>
