<svg width="225" height="110" viewBox="0 0 225 110" fill="none" xmlns="http://www.w3.org/2000/svg">
<path d="M137.381 3.0405C116.981 9.30717 109.514 14.5072 81.9139 42.2405C56.8472 67.3072 49.5139 72.5072 35.1139 75.1738C29.2472 76.2405 24.5806 76.1072 14.7139 74.5072C1.24723 72.3738 -1.55277 72.6405 2.84723 75.9738C12.4472 83.3072 61.1139 86.2405 122.581 83.1738C165.247 81.0405 186.581 80.9072 209.114 82.3738C233.781 83.9738 226.981 80.7738 198.714 77.3072C187.914 75.9738 179.781 72.7738 176.047 68.5072C173.381 65.1738 172.714 63.0405 172.714 56.7738C172.714 50.6405 174.581 41.1738 175.781 40.5072C175.914 40.5072 179.114 40.1072 182.714 39.8405C202.847 37.9738 200.981 12.7738 180.047 3.8405C171.914 0.373832 147.781 -0.0261681 137.381 3.0405ZM180.047 9.0405C188.047 12.7738 191.381 17.5738 191.381 25.3072C191.381 34.7738 184.981 37.1738 169.647 33.1738C164.581 31.8405 157.647 31.3072 150.847 31.5738L140.181 31.9738L137.381 26.6405C135.381 22.7738 132.847 20.3738 128.314 18.1072L121.914 14.9072L127.381 11.7072C140.181 3.97383 166.047 2.77383 180.047 9.0405ZM106.047 42.7738C104.314 46.1072 99.9139 51.4405 95.6472 55.0405C91.5139 58.5072 85.3806 63.9738 81.7806 67.1738C76.1806 72.2405 75.2472 72.6405 74.4472 70.5072C73.5139 68.1072 76.4472 65.1738 92.5806 52.3738C96.4472 49.1738 100.581 44.7738 101.781 42.6405C107.114 32.9072 107.914 31.8405 108.447 34.3738C108.714 35.5738 107.647 39.4405 106.047 42.7738ZM128.581 48.2405C127.247 52.3738 126.047 58.2405 126.047 61.4405C126.047 67.4405 123.914 70.3738 121.914 67.1738C118.981 62.3738 121.514 49.1738 126.447 43.5738C130.847 38.7738 131.381 40.1072 128.581 48.2405ZM159.381 53.5738C159.381 58.6405 159.781 63.9738 160.181 65.5738C160.847 67.7072 160.447 68.6405 158.981 68.6405C153.781 68.6405 151.114 57.5738 154.447 49.5738C157.647 42.1072 159.381 43.4405 159.381 53.5738ZM144.181 58.2405C144.047 70.5072 142.847 73.4405 139.381 69.3072C135.914 65.1738 139.114 45.9738 143.247 45.9738C143.781 45.9738 144.181 51.4405 144.181 58.2405ZM111.381 53.7072C111.381 56.9072 103.914 68.1072 101.114 69.1738C97.7806 70.5072 97.3806 68.9072 100.314 65.5738C101.781 63.9738 104.714 60.1072 106.714 56.9072C110.847 50.6405 111.381 50.2405 111.381 53.7072Z" fill="#E5DFDA"/>
<path d="M19.3806 89.5739C19.3806 90.3739 20.9806 91.7072 23.1139 92.5072C34.9806 97.3072 65.7806 98.9072 108.714 96.6405C145.647 94.7739 198.447 94.3739 203.247 95.8405C205.514 96.6405 206.181 96.5072 205.781 95.1739C205.381 94.1072 201.247 92.5072 196.581 91.5739C185.647 89.1739 128.714 88.9072 92.714 90.9072C68.314 92.2405 49.6473 91.8405 27.7806 89.1739C22.3139 88.6405 19.3806 88.7739 19.3806 89.5739Z" fill="#E5DFDA"/>
<path d="M98.714 103.441C90.714 104.107 73.114 104.507 59.6473 104.374C46.3139 104.107 35.3806 104.374 35.3806 104.907C35.3806 106.641 37.7806 107.307 48.8473 108.774C56.9806 109.974 66.1806 109.841 84.5806 108.641C131.781 105.707 150.714 104.907 160.447 105.841C170.047 106.774 173.647 105.974 168.981 103.841C165.514 102.374 115.514 101.974 98.714 103.441Z" fill="#E5DFDA"/>
</svg>
